<?xml version="1.0" encoding="UTF-8"?>
<!DOCTYPE svg PUBLIC "-//W3C//DTD SVG 1.1//EN" "http://www.w3.org/Graphics/SVG/1.1/DTD/svg11.dtd">
<!-- Creator: CorelDRAW X7 -->
<svg xmlns="http://www.w3.org/2000/svg" xml:space="preserve" width="2.16in" height="2.298in" version="1.1" style="shape-rendering:geometricPrecision; text-rendering:geometricPrecision; image-rendering:optimizeQuality; fill-rule:evenodd; clip-rule:evenodd"
viewBox="0 0 2160 2298"
 xmlns:xlink="http://www.w3.org/1999/xlink">
 <defs>
  <style type="text/css">
   <![CDATA[
    .fil7 {fill:none;fill-rule:nonzero}
    .fil14 {fill:#FEFEFE;fill-rule:nonzero}
    .fil13 {fill:#B54333;fill-rule:nonzero}
    .fil8 {fill:#BB4333;fill-rule:nonzero}
    .fil4 {fill:#C4E8E9;fill-rule:nonzero}
    .fil10 {fill:#CE4E36;fill-rule:nonzero}
    .fil0 {fill:#CF8906;fill-rule:nonzero}
    .fil3 {fill:#D8D8D8;fill-rule:nonzero}
    .fil12 {fill:#E5B641;fill-rule:nonzero}
    .fil6 {fill:#E8E8E8;fill-rule:nonzero}
    .fil11 {fill:#F3F3F3;fill-rule:nonzero}
    .fil2 {fill:#F6DB37;fill-rule:nonzero}
    .fil9 {fill:#F6F6F6;fill-rule:nonzero}
    .fil1 {fill:white;fill-rule:nonzero}
    .fil5 {fill:black;fill-rule:nonzero;fill-opacity:0.031373}
   ]]>
  </style>
 </defs>
 <g id="Layer_x0020_1">
  <metadata id="CorelCorpID_0Corel-Layer"/>
  <g id="_858825872">
   <g>
    <polygon class="fil0" points="1075,500 1054,500 1054,472 1075,472 "/>
    <path class="fil0" d="M1075 740l-21 0 0 -48 21 0 0 48zm0 -80l0 0 -21 0 0 -49 21 0 0 49zm0 -80l0 0 -21 0 0 -49 21 0 0 49z"/>
    <polygon class="fil0" points="1049,827 1037,809 1054,798 1054,779 1075,779 1075,809 "/>
    <path class="fil0" d="M783 996l-11 -17 40 -26 11 18 -40 25zm67 -42l0 0 -12 -18 40 -25 11 17 -39 26zm66 -43l0 0 -12 -17 40 -26 12 18 -40 25zm66 -42l0 0 -11 -18 39 -26 12 18 -40 26z"/>
    <polygon class="fil0" points="735,1028 724,1010 746,996 757,1014 "/>
   </g>
   <path class="fil0" d="M1447 1052l-18 -10 11 -18 18 11 -11 17zm-47 -29l0 0 -45 -27 11 -18 45 27 -11 18zm-74 -46l0 0 -45 -27 11 -18 45 28 -11 17zm-74 -46l0 0 -45 -27 11 -18 45 28 -11 17zm-74 -46l0 0 -45 -27 11 -18 45 28 -11 17zm-74 -45l0 0 -45 -28 11 -18 45 28 -11 18z"/>
   <g>
    <polygon class="fil0" points="638,1351 638,1325 659,1325 659,1351 "/>
    <path class="fil0" d="M639 1691l0 -51 21 0 0 51 -21 0zm0 -85l0 0 0 -51 21 0 0 51 -21 0zm0 -85l0 0 0 -51 21 0 0 51 -21 0zm0 -85l0 0 -1 -51 21 0 1 51 -21 0z"/>
    <polygon class="fil0" points="634,1774 622,1756 639,1745 639,1725 660,1725 660,1757 "/>
    <path class="fil0" d="M369 1944l-12 -17 40 -26 11 18 -39 25zm66 -42l0 0 -11 -18 39 -25 12 17 -40 26zm66 -43l0 0 -11 -17 40 -26 11 18 -40 25zm66 -43l0 0 -11 -17 40 -26 11 18 -40 25z"/>
    <polygon class="fil0" points="320,1975 309,1958 331,1944 342,1961 "/>
   </g>
   <path class="fil0" d="M1032 2000l-17 -11 11 -17 17 10 -11 18zm-47 -29l0 0 -44 -27 11 -18 44 27 -11 18zm-74 -46l0 0 -44 -27 11 -18 44 27 -11 18zm-74 -46l0 0 -45 -27 11 -18 45 27 -11 18zm-74 -46l0 0 -45 -27 11 -18 45 28 -11 17zm-74 -46l0 0 -45 -27 11 -18 45 28 -11 17z"/>
   <g>
    <polygon class="fil0" points="1461,1337 1461,1311 1482,1311 1482,1337 "/>
    <path class="fil0" d="M1462 1677l0 -51 20 0 1 51 -21 0zm-1 -85l0 0 0 -51 21 0 0 51 -21 0zm0 -85l0 0 0 -51 21 0 0 51 -21 0zm0 -85l0 0 0 -51 21 0 0 51 -21 0z"/>
    <polygon class="fil0" points="1456,1760 1445,1742 1462,1731 1462,1711 1483,1711 1483,1743 "/>
    <path class="fil0" d="M1191 1930l-11 -17 39 -26 12 18 -40 25zm66 -42l0 0 -11 -18 40 -25 11 17 -40 26zm67 -43l0 0 -12 -17 40 -26 11 18 -39 25zm66 -42l0 0 -12 -18 40 -26 11 18 -39 26z"/>
    <polygon class="fil0" points="1143,1962 1131,1944 1153,1930 1165,1947 "/>
   </g>
   <path class="fil0" d="M1854 1986l-17 -10 11 -18 17 11 -11 17zm-47 -29l0 0 -44 -27 11 -18 44 27 -11 18zm-74 -46l0 0 -44 -27 11 -18 44 27 -11 18zm-74 -46l0 0 -44 -27 11 -18 44 28 -11 17zm-74 -46l0 0 -44 -27 11 -18 44 28 -11 17zm-74 -46l0 0 -44 -27 11 -18 44 28 -11 17z"/>
   <polygon class="fil1" points="1253,464 882,464 882,187 1253,187 "/>
   <polygon class="fil2" points="1264,480 869,480 869,464 1264,464 "/>
   <polygon class="fil3" points="1061,464 936,464 936,271 1061,271 "/>
   <g>
    <polygon class="fil4" points="1052,464 946,464 946,283 1052,283 "/>
   </g>
   <path class="fil1" d="M971 405c-1,1 -3,1 -4,0l0 -1c-1,-1 -1,-2 0,-3l65 -65c1,-1 2,-1 3,0l1 0c1,1 1,3 0,4l-65 65z"/>
   <path class="fil1" d="M972 384c-1,1 -2,1 -3,0l0 0c-1,-1 -1,-3 0,-4l44 -44c1,-1 2,-1 3,0l0 1c1,1 1,2 0,3l-44 44z"/>
   <path class="fil1" d="M997 397c-1,1 -3,1 -4,0l0 0c-1,-1 -1,-3 0,-4l30 -29c1,-1 2,-1 3,0l0 0c1,1 1,3 0,4l-29 29z"/>
   <polygon class="fil3" points="1199,395 1100,395 1100,297 1199,297 "/>
   <g>
    <polygon class="fil4" points="1191,387 1109,387 1109,306 1191,306 "/>
   </g>
   <path class="fil1" d="M1133 370c-1,1 -2,1 -3,0l-1 0c-1,-1 -1,-3 0,-4l44 -44c1,-1 3,-1 4,0l0 0c1,1 1,3 0,4l-44 44z"/>
   <path class="fil1" d="M1148 373c-1,1 -3,1 -4,0l0 0c-1,-1 -1,-3 0,-4l30 -29c1,-1 2,-1 3,0l0 0c1,1 1,3 0,4l-29 29z"/>
   <path class="fil1" d="M1131 356c-1,1 -3,1 -4,0l0 -1c-1,-1 -1,-2 0,-3l29 -30c1,-1 3,-1 4,0l0 1c1,1 1,2 0,3l-29 30z"/>
   <polygon class="fil5" points="1253,464 882,464 882,452 1253,452 "/>
   <polygon class="fil6" points="1253,254 882,254 882,226 1253,226 "/>
   <g>
    <g>
     <path class="fil7" d="M912 235l0 0c0,0 0,-1 0,-1 0,0 0,1 0,1z"/>
    </g>
    <g>
     <path class="fil7" d="M940 235l0 0c0,0 0,-1 0,-1 0,0 0,1 0,1z"/>
    </g>
    <g>
     <path class="fil7" d="M1081 235l0 0 0 -1c0,0 0,1 0,1z"/>
    </g>
    <g>
     <path class="fil7" d="M1025 235l0 0c0,0 0,-1 0,-1 0,0 0,1 0,1z"/>
    </g>
    <g>
     <path class="fil7" d="M996 235l0 0c0,0 0,-1 0,-1 0,0 0,1 0,1z"/>
    </g>
    <g>
     <path class="fil7" d="M1053 235l0 0c0,0 0,-1 0,-1 0,0 0,1 0,1z"/>
    </g>
    <g>
     <path class="fil7" d="M968 235l0 0c0,0 0,-1 0,-1 0,0 0,1 0,1z"/>
    </g>
    <g>
     <path class="fil7" d="M883 235l0 0c0,0 0,-1 0,-1 0,0 0,1 0,1z"/>
    </g>
    <path class="fil8" d="M869 248l0 0c8,0 14,-6 14,-13l-28 0c1,7 7,13 14,13z"/>
    <path class="fil8" d="M1265 248l0 0c7,0 13,-6 14,-13l-28 0c0,7 6,13 14,13z"/>
    <path class="fil9" d="M897 248l1 0c7,0 13,-6 14,-13l-29 0c1,7 7,13 14,13z"/>
    <path class="fil8" d="M926 248l0 0c7,0 13,-6 14,-13l-28 0c0,7 6,13 14,13z"/>
    <path class="fil9" d="M954 248l0 0c8,0 14,-6 14,-13l-28 0c0,7 6,13 14,13z"/>
    <path class="fil8" d="M982 248l0 0c8,0 14,-6 14,-13l-28 0c1,7 7,13 14,13z"/>
    <path class="fil9" d="M1010 248l1 0c7,0 13,-6 14,-13l-29 0c1,7 7,13 14,13z"/>
    <path class="fil8" d="M1039 248l0 0c7,0 13,-6 14,-13l-28 0c0,7 6,13 14,13z"/>
    <path class="fil9" d="M1067 248l0 0c8,0 14,-6 14,-13l-28 0c0,7 6,13 14,13z"/>
    <path class="fil8" d="M1081 235l0 0c0,8 6,14 14,14l0 0c8,0 14,-6 14,-14l0 0 -28 0z"/>
    <path class="fil9" d="M1109 235l0 0c0,8 7,14 14,14l1 0c7,0 13,-6 13,-14l0 0 -28 0z"/>
    <path class="fil8" d="M1137 235l0 0c0,8 7,14 15,14l0 0c8,0 13,-6 13,-14l0 0 -28 0z"/>
    <path class="fil9" d="M1165 235l0 0c0,8 7,14 15,14l0 0c8,0 14,-6 14,-14l0 0 -29 0z"/>
    <path class="fil8" d="M1194 235l0 0c0,8 6,14 14,14l0 0c8,0 14,-6 14,-14l0 0 -28 0z"/>
    <path class="fil9" d="M1222 235l0 0c0,8 7,14 14,14l1 0c7,0 13,-6 13,-14l0 0 -28 0z"/>
    <g>
     <path class="fil7" d="M1130 111l-1 0c0,2 0,3 0,5 0,-2 0,-3 1,-5z"/>
    </g>
    <g>
     <path class="fil7" d="M906 111l-1 0c0,1 0,2 0,3 0,-1 0,-2 1,-3z"/>
    </g>
    <g>
     <path class="fil7" d="M1179 111l0 0c0,2 0,3 0,5 0,-2 0,-3 0,-5z"/>
    </g>
    <g>
     <path class="fil7" d="M1154 111l0 0c0,2 0,3 0,5 0,-2 0,-3 0,-5z"/>
    </g>
    <g>
     <path class="fil7" d="M1204 111l-1 0c1,2 1,3 1,5 0,-2 0,-3 0,-5z"/>
    </g>
    <g>
     <path class="fil7" d="M1055 111l-1 0c1,1 1,2 1,3 0,-1 0,-2 0,-3z"/>
    </g>
    <g>
     <path class="fil7" d="M1030 111l0 0c0,1 0,2 0,3 0,-1 0,-2 0,-3z"/>
    </g>
    <g>
     <path class="fil7" d="M980 111l0 0c0,1 0,2 0,3 0,-1 0,-2 0,-3z"/>
    </g>
    <g>
     <path class="fil7" d="M955 111l0 0c0,1 0,2 0,3 0,-1 0,-2 0,-3z"/>
    </g>
    <g>
     <path class="fil7" d="M930 111l0 0c0,1 0,2 0,3 0,-1 0,-2 0,-3z"/>
    </g>
    <g>
     <path class="fil7" d="M1005 111l0 0c0,1 0,2 0,3 0,-1 0,-2 0,-3z"/>
    </g>
    <g>
     <path class="fil7" d="M1105 111l-1 0c0,2 0,3 0,5 0,-2 0,-3 1,-5z"/>
    </g>
    <path class="fil10" d="M905 111l-24 0c0,1 0,2 0,3l-26 120c0,0 0,1 0,1l28 0c0,0 0,-1 0,-1l22 -120c0,-1 0,-2 0,-3z"/>
    <path class="fil10" d="M1253 114c0,-1 0,-2 0,-3l-24 0c0,1 0,2 0,3l22 120c0,0 0,1 0,1l28 0c0,0 0,-1 0,-1l-26 -120z"/>
    <path class="fil1" d="M930 111l-24 0c-1,1 -1,2 -1,3l-22 120c0,0 0,1 0,1l29 0c0,0 0,-1 0,-1l18 -120c0,-1 0,-2 0,-3z"/>
    <path class="fil10" d="M955 111l-25 0c0,1 0,2 0,3l-18 120c0,0 0,1 0,1l28 0c0,0 0,-1 0,-1l15 -120c0,-1 0,-2 0,-3z"/>
    <path class="fil11" d="M980 111l-25 0c0,1 0,2 0,3l-15 120c0,0 0,1 0,1l28 0c0,0 0,-1 0,-1l12 -120c0,-1 0,-2 0,-3z"/>
    <path class="fil10" d="M1005 111l-25 0c0,1 0,2 0,3l-12 120c0,0 0,1 0,1l28 0c0,0 0,-1 0,-1l9 -120c0,-1 0,-2 0,-3z"/>
    <path class="fil1" d="M1030 111l-25 0c0,1 0,2 0,3l-9 120c0,0 0,1 0,1l29 0c0,0 0,-1 0,-1l5 -120c0,-1 0,-2 0,-3z"/>
    <path class="fil10" d="M1054 111l-24 0c0,1 0,2 0,3l-5 120c0,0 0,1 0,1l28 0c0,0 0,-1 0,-1l2 -120c0,-1 0,-2 -1,-3z"/>
    <path class="fil1" d="M1055 114l-2 120c0,0 0,1 0,1l28 0c0,0 0,-1 0,-1l-3 -118 0 -2c0,-1 1,-2 1,-3l-24 0c0,1 0,2 0,3z"/>
    <path class="fil10" d="M1104 111l-24 0c0,2 -1,3 -1,5l2 118 0 1 28 0 -5 -119c0,-2 0,-3 0,-5z"/>
    <path class="fil1" d="M1129 111l-24 0c-1,2 -1,3 -1,5l5 119 29 0 -9 -119c0,-2 0,-3 0,-5z"/>
    <path class="fil10" d="M1154 111l-24 0c-1,2 -1,3 -1,5l9 119 28 0 -12 -119c0,-2 0,-3 0,-5z"/>
    <path class="fil1" d="M1179 111l-25 0c0,2 0,3 0,5l12 119 28 0 -15 -119c0,-2 0,-3 0,-5z"/>
    <path class="fil10" d="M1203 111l-24 0c0,2 0,3 0,5l15 119 28 0 -18 -119c0,-2 0,-3 -1,-5z"/>
    <path class="fil1" d="M1204 116l18 119 29 0 -22 -119c0,-2 -1,-3 -1,-5l-24 0c0,2 0,3 0,5z"/>
    <polygon class="fil12" points="1253,116 880,116 880,105 1253,105 "/>
    <path class="fil13" d="M1211 72c0,12 -10,22 -21,22l-229 0c-12,0 -22,-10 -22,-22 0,-11 10,-21 22,-21l229 0c11,0 21,10 21,21z"/>
    <path class="fil2" d="M1189 51c12,0 22,10 22,21 0,12 -10,22 -21,22l-229 0c-12,0 -22,-10 -22,-22 0,-11 10,-21 22,-21l228 0 0 0zm1 -11l0 0 -229 0c-18,0 -32,15 -32,32 0,18 14,33 32,33l229 0c17,0 32,-15 32,-33 0,-17 -15,-32 -32,-32z"/>
   </g>
   <path class="fil3" d="M1061 373c0,4 -3,6 -6,6l-15 0c-3,0 -6,-2 -6,-6 0,-3 3,-6 6,-6l15 0c3,0 6,3 6,6z"/>
   <path class="fil1" d="M1043 373c0,2 -1,3 -2,3 -1,0 -3,-1 -3,-3 0,-1 2,-2 3,-2 1,0 2,1 2,2z"/>
   <path class="fil12" d="M1290 497c0,9 -7,16 -16,16l-412 0c-9,0 -16,-7 -16,-16 0,-9 7,-17 16,-17l412 0c9,0 16,8 16,17z"/>
   <g>
    <path class="fil1" d="M1073 30c0,2 -2,3 -4,3 -2,0 -4,-1 -4,-3l0 -26c0,-2 2,-4 4,-4 2,0 4,2 4,4l0 26z"/>
    <path class="fil1" d="M1095 31c-1,2 -3,3 -5,2 -2,0 -3,-2 -3,-4l7 -25c0,-2 3,-4 5,-3 2,0 3,3 2,5l-6 25z"/>
    <path class="fil1" d="M1115 32c-1,2 -3,2 -5,1 -2,-1 -2,-4 -1,-6l14 -21c2,-2 4,-2 6,-1 2,1 2,4 1,5l-15 22z"/>
    <path class="fil1" d="M1044 31c0,2 2,3 4,2 2,0 4,-2 3,-4l-7 -25c0,-2 -2,-4 -4,-3 -2,0 -4,3 -3,5l7 25z"/>
    <path class="fil1" d="M1024 32c2,2 4,2 6,1 1,-2 2,-4 0,-6l-16 -20c-2,-1 -4,-2 -6,0 -1,1 -2,4 0,5l16 20z"/>
   </g>
   <polygon class="fil1" points="843,1296 471,1296 471,1019 843,1019 "/>
   <polygon class="fil2" points="853,1312 458,1312 458,1296 853,1296 "/>
   <polygon class="fil3" points="650,1296 525,1296 525,1103 650,1103 "/>
   <g>
    <polygon class="fil4" points="641,1296 536,1296 536,1114 641,1114 "/>
   </g>
   <path class="fil1" d="M560 1236c-1,1 -3,1 -4,0l0 0c-1,-1 -1,-3 0,-4l65 -64c1,-1 3,-1 4,0l0 0c1,1 1,2 0,3l-65 65z"/>
   <path class="fil1" d="M562 1216c-1,1 -3,1 -4,0l0 0c-1,-1 -1,-3 0,-4l44 -44c1,-1 2,-1 3,0l1 0c1,1 1,3 0,4l-44 44z"/>
   <path class="fil1" d="M586 1229c-1,1 -2,1 -3,0l-1 0c-1,-1 -1,-3 0,-4l30 -30c1,0 2,0 3,0l1 1c1,1 1,2 0,3l-30 30z"/>
   <polygon class="fil3" points="788,1226 689,1226 689,1129 788,1129 "/>
   <g>
    <polygon class="fil4" points="780,1219 699,1219 699,1137 780,1137 "/>
   </g>
   <path class="fil1" d="M722 1202c-1,1 -2,1 -3,0l0 0c-1,-1 -1,-3 0,-4l44 -44c1,-1 2,-1 3,0l1 0c1,1 1,3 0,4l-45 44z"/>
   <path class="fil1" d="M737 1205c-1,1 -2,1 -3,0l-1 0c-1,-1 -1,-3 0,-4l30 -29c1,-1 2,-1 3,0l1 0c1,1 1,2 0,3l-30 30z"/>
   <path class="fil1" d="M720 1187c-1,1 -3,1 -4,0l0 0c-1,-1 -1,-2 0,-3l29 -30c1,-1 3,-1 4,0l0 0c1,1 1,3 0,4l-29 29z"/>
   <polygon class="fil5" points="843,1296 471,1296 471,1284 843,1284 "/>
   <polygon class="fil6" points="843,1086 471,1086 471,1058 843,1058 "/>
   <g>
    <g>
     <path class="fil7" d="M501 1067l0 0c0,-1 0,-1 0,-1 0,0 0,0 0,1z"/>
    </g>
    <g>
     <path class="fil7" d="M529 1067l0 0c0,-1 0,-1 0,-1 0,0 0,0 0,1z"/>
    </g>
    <g>
     <path class="fil7" d="M670 1067l0 0 0 -1c0,0 0,0 0,1z"/>
    </g>
    <g>
     <path class="fil7" d="M614 1067l0 0c0,-1 0,-1 0,-1 0,0 0,0 0,1z"/>
    </g>
    <g>
     <path class="fil7" d="M586 1067l0 0c0,-1 0,-1 0,-1 0,0 0,0 0,1z"/>
    </g>
    <g>
     <path class="fil7" d="M642 1067l0 0c0,-1 0,-1 0,-1 0,0 0,0 0,1z"/>
    </g>
    <g>
     <path class="fil7" d="M557 1067l0 0c0,-1 0,-1 0,-1 0,0 0,0 0,1z"/>
    </g>
    <g>
     <path class="fil7" d="M473 1067l0 0c0,-1 0,-1 0,-1 0,0 0,0 0,1z"/>
    </g>
    <path class="fil8" d="M458 1080l1 0c7,0 13,-6 14,-13l-29 0c1,7 7,13 14,13z"/>
    <path class="fil8" d="M854 1080l0 0c8,0 14,-6 14,-13l-28 0c0,7 6,13 14,13z"/>
    <path class="fil9" d="M487 1080l0 0c7,0 13,-6 14,-13l-28 0c0,7 6,13 14,13z"/>
    <path class="fil8" d="M515 1080l0 0c8,0 14,-6 14,-13l-28 0c0,7 6,13 14,13z"/>
    <path class="fil9" d="M543 1080l0 0c8,0 14,-6 14,-13l-28 0c1,7 7,13 14,13z"/>
    <path class="fil8" d="M571 1080l1 0c7,0 13,-6 14,-13l-29 0c1,7 7,13 14,13z"/>
    <path class="fil9" d="M600 1080l0 0c7,0 13,-6 14,-13l-28 0c0,7 6,13 14,13z"/>
    <path class="fil8" d="M628 1080l0 0c8,0 14,-6 14,-13l-28 0c0,7 6,13 14,13z"/>
    <path class="fil9" d="M656 1080l0 0c8,0 14,-6 14,-13l-28 0c1,7 7,13 14,13z"/>
    <path class="fil8" d="M670 1067l0 0c0,8 7,14 14,14l1 0c7,0 13,-6 13,-14l0 0 -28 0z"/>
    <path class="fil9" d="M698 1067l0 0c0,8 7,14 15,14l0 0c8,0 13,-6 13,-14l0 0 -28 0z"/>
    <path class="fil8" d="M726 1067l0 0c0,8 7,14 15,14l0 0c8,0 14,-6 14,-14l0 0 -29 0z"/>
    <path class="fil9" d="M755 1067l0 0c0,8 6,14 14,14l0 0c8,0 14,-6 14,-14l0 0 -28 0z"/>
    <path class="fil8" d="M783 1067l0 0c0,8 7,14 14,14l1 0c7,0 13,-6 13,-14l0 0 -28 0z"/>
    <path class="fil9" d="M811 1067l0 0c0,8 7,14 15,14l0 0c8,0 13,-6 13,-14l0 0 -28 0z"/>
    <g>
     <path class="fil7" d="M719 943l-1 0c0,1 0,3 0,5 0,-2 1,-4 1,-5z"/>
    </g>
    <g>
     <path class="fil7" d="M495 943l0 0c0,1 0,2 0,3 0,-1 0,-2 0,-3z"/>
    </g>
    <g>
     <path class="fil7" d="M769 943l-1 0c0,1 0,3 0,5 0,-2 0,-4 1,-5z"/>
    </g>
    <g>
     <path class="fil7" d="M744 943l-1 0c0,1 0,3 0,5 0,-2 0,-4 1,-5z"/>
    </g>
    <g>
     <path class="fil7" d="M793 943l0 0c0,1 0,3 0,5 0,-2 0,-4 0,-5z"/>
    </g>
    <g>
     <path class="fil7" d="M644 943l0 0c0,1 0,2 0,3 0,-1 0,-2 0,-3z"/>
    </g>
    <g>
     <path class="fil7" d="M619 943l0 0c0,1 0,2 0,3 0,-1 0,-2 0,-3z"/>
    </g>
    <g>
     <path class="fil7" d="M569 943l0 0c0,1 0,2 0,3 0,-1 0,-2 0,-3z"/>
    </g>
    <g>
     <path class="fil7" d="M545 943l-1 0c0,1 0,2 0,3 0,-1 0,-2 1,-3z"/>
    </g>
    <g>
     <path class="fil7" d="M520 943l-1 0c0,1 1,2 1,3 0,-1 0,-2 0,-3z"/>
    </g>
    <g>
     <path class="fil7" d="M594 943l0 0c0,1 0,2 0,3 0,-1 0,-2 0,-3z"/>
    </g>
    <g>
     <path class="fil7" d="M694 943l-1 0c0,1 1,3 1,5 0,-2 0,-4 0,-5z"/>
    </g>
    <path class="fil10" d="M495 943l-25 0c0,1 0,2 0,3l-26 120c0,0 0,0 0,1l29 0c0,-1 0,-1 0,-1l22 -120c0,-1 0,-2 0,-3z"/>
    <path class="fil10" d="M843 946c0,-1 0,-2 0,-3l-25 0c0,1 0,2 0,3l22 120c0,0 0,0 0,1l28 0c0,-1 0,-1 0,-1l-25 -120z"/>
    <path class="fil1" d="M519 943l-24 0c0,1 0,2 0,3l-22 120c0,0 0,0 0,1l28 0c0,-1 0,-1 0,-1l19 -120c0,-1 -1,-2 -1,-3z"/>
    <path class="fil10" d="M544 943l-24 0c0,1 0,2 0,3l-19 120c0,0 0,0 0,1l28 0c0,-1 0,-1 0,-1l15 -120c0,-1 0,-2 0,-3z"/>
    <path class="fil11" d="M569 943l-24 0c-1,1 -1,2 -1,3l-15 120c0,0 0,0 0,1l28 0c0,-1 0,-1 0,-1l12 -120c0,-1 0,-2 0,-3z"/>
    <path class="fil10" d="M594 943l-25 0c0,1 0,2 0,3l-12 120c0,0 0,0 0,1l29 0c0,-1 0,-1 0,-1l8 -120c0,-1 0,-2 0,-3z"/>
    <path class="fil1" d="M619 943l-25 0c0,1 0,2 0,3l-8 120c0,0 0,0 0,1l28 0c0,-1 0,-1 0,-1l5 -120c0,-1 0,-2 0,-3z"/>
    <path class="fil10" d="M644 943l-25 0c0,1 0,2 0,3l-5 120c0,0 0,0 0,1l28 0c0,-1 0,-1 0,-1l2 -120c0,-1 0,-2 0,-3z"/>
    <path class="fil1" d="M644 946l-2 120c0,0 0,0 0,1l28 0c0,-1 0,-1 0,-1l-2 -118 0 -2c0,-1 0,-2 0,-3l-24 0c0,1 0,2 0,3z"/>
    <path class="fil10" d="M693 943l-24 0c0,1 -1,3 -1,5l2 118 0 1 29 0 -5 -119c0,-2 -1,-4 -1,-5z"/>
    <path class="fil1" d="M718 943l-24 0c0,1 0,3 0,5l5 119 28 0 -9 -119c0,-2 0,-4 0,-5z"/>
    <path class="fil10" d="M743 943l-24 0c0,1 -1,3 -1,5l9 119 28 0 -12 -119c0,-2 0,-4 0,-5z"/>
    <path class="fil1" d="M768 943l-24 0c-1,1 -1,3 -1,5l12 119 28 0 -15 -119c0,-2 0,-4 0,-5z"/>
    <path class="fil10" d="M793 943l-24 0c-1,1 -1,3 -1,5l15 119 29 0 -19 -119c0,-2 0,-4 0,-5z"/>
    <path class="fil1" d="M793 948l19 119 28 0 -22 -119c0,-2 0,-4 0,-5l-25 0c0,1 0,3 0,5z"/>
    <polygon class="fil12" points="843,948 469,948 469,936 843,936 "/>
    <path class="fil13" d="M800 904c0,12 -9,21 -21,21l-229 0c-12,0 -21,-9 -21,-21 0,-11 9,-21 21,-21l229 0c12,0 21,10 21,21z"/>
    <path class="fil2" d="M779 883c11,0 21,10 21,21 0,12 -9,21 -21,21l-229 0c-12,0 -21,-9 -21,-21 0,-11 9,-21 21,-21l229 0 0 0zm0 -11l0 0 -229 0c-18,0 -32,15 -32,32 0,18 14,32 32,32l229 0c18,0 32,-14 32,-32 0,-17 -14,-32 -32,-32z"/>
   </g>
   <path class="fil3" d="M650 1205c0,4 -2,6 -6,6l-15 0c-3,0 -6,-2 -6,-6 0,-3 3,-6 6,-6l15 0c4,0 6,3 6,6z"/>
   <path class="fil1" d="M633 1205c0,2 -1,3 -3,3 -1,0 -2,-1 -2,-3 0,-1 1,-2 2,-2 2,0 3,1 3,2z"/>
   <path class="fil12" d="M880 1329c0,9 -8,16 -17,16l-412 0c-9,0 -16,-7 -16,-16 0,-9 7,-17 16,-17l412 0c9,0 17,8 17,17z"/>
   <g>
    <path class="fil1" d="M662 861c0,2 -1,4 -4,4 -2,0 -3,-2 -3,-4l0 -26c0,-2 1,-3 3,-3 3,0 4,1 4,3l0 26z"/>
    <path class="fil1" d="M684 862c-1,2 -3,4 -5,3 -2,0 -3,-3 -3,-5l7 -25c1,-2 3,-3 5,-2 2,0 3,2 3,4l-7 25z"/>
    <path class="fil1" d="M705 864c-2,1 -4,2 -6,1 -2,-2 -2,-4 -1,-6l15 -21c1,-2 3,-2 5,-1 2,1 2,3 1,5l-14 22z"/>
    <path class="fil1" d="M633 862c0,2 3,4 5,3 2,0 3,-3 2,-5l-6 -25c-1,-2 -3,-3 -5,-2 -2,0 -3,2 -3,4l7 25z"/>
    <path class="fil1" d="M614 864c1,1 3,2 5,0 2,-1 2,-3 0,-5l-16 -20c-1,-2 -4,-2 -6,0 -1,1 -1,3 0,5l17 20z"/>
   </g>
   <polygon class="fil1" points="1658,1296 1286,1296 1286,1019 1658,1019 "/>
   <polygon class="fil2" points="1669,1312 1273,1312 1273,1296 1669,1296 "/>
   <polygon class="fil3" points="1466,1296 1341,1296 1341,1103 1466,1103 "/>
   <g>
    <polygon class="fil4" points="1457,1296 1351,1296 1351,1114 1457,1114 "/>
   </g>
   <path class="fil1" d="M1376 1236c-1,1 -3,1 -4,0l0 0c-1,-1 -1,-3 0,-4l64 -64c1,-1 3,-1 4,0l0 0c1,1 1,2 0,3l-64 65z"/>
   <path class="fil1" d="M1377 1216c-1,1 -2,1 -3,0l-1 0c-1,-1 -1,-3 0,-4l44 -44c1,-1 3,-1 4,0l0 0c1,1 1,3 0,4l-44 44z"/>
   <path class="fil1" d="M1402 1229c-1,1 -3,1 -4,0l0 0c-1,-1 -1,-3 0,-4l29 -30c1,0 3,0 4,0l0 1c1,1 1,2 0,3l-29 30z"/>
   <polygon class="fil3" points="1604,1226 1505,1226 1505,1129 1604,1129 "/>
   <g>
    <polygon class="fil4" points="1596,1219 1514,1219 1514,1137 1596,1137 "/>
   </g>
   <path class="fil1" d="M1538 1202c-1,1 -3,1 -4,0l0 0c-1,-1 -1,-3 0,-4l44 -44c1,-1 3,-1 4,0l0 0c1,1 1,3 0,4l-44 44z"/>
   <path class="fil1" d="M1553 1205c-1,1 -3,1 -4,0l0 0c-1,-1 -1,-3 0,-4l29 -29c1,-1 3,-1 4,0l0 0c1,1 1,2 0,3l-29 30z"/>
   <path class="fil1" d="M1535 1187c-1,1 -2,1 -3,0l-1 0c0,-1 0,-2 0,-3l30 -30c1,-1 3,-1 4,0l0 0c1,1 1,3 0,4l-30 29z"/>
   <polygon class="fil5" points="1658,1296 1286,1296 1286,1284 1658,1284 "/>
   <polygon class="fil6" points="1658,1086 1286,1086 1286,1058 1658,1058 "/>
   <g>
    <g>
     <path class="fil7" d="M1316 1067l0 0c0,-1 0,-1 0,-1 0,0 0,0 0,1z"/>
    </g>
    <g>
     <path class="fil7" d="M1345 1067l0 0c0,-1 0,-1 0,-1 0,0 0,0 0,1z"/>
    </g>
    <g>
     <path class="fil7" d="M1486 1067l0 0 0 -1c0,0 0,0 0,1z"/>
    </g>
    <g>
     <path class="fil7" d="M1429 1067l0 0c0,-1 0,-1 0,-1 0,0 0,0 0,1z"/>
    </g>
    <g>
     <path class="fil7" d="M1401 1067l0 0c0,-1 0,-1 0,-1 0,0 0,0 0,1z"/>
    </g>
    <g>
     <path class="fil7" d="M1458 1067l0 0c0,-1 0,-1 0,-1 0,0 0,0 0,1z"/>
    </g>
    <g>
     <path class="fil7" d="M1373 1067l0 0c0,-1 0,-1 0,-1 0,0 0,0 0,1z"/>
    </g>
    <g>
     <path class="fil7" d="M1288 1067l0 0c0,-1 0,-1 0,-1 0,0 0,0 0,1z"/>
    </g>
    <path class="fil8" d="M1274 1080l0 0c8,0 14,-6 14,-13l-28 0c0,7 6,13 14,13z"/>
    <path class="fil8" d="M1669 1080l1 0c7,0 13,-6 14,-13l-29 0c1,7 7,13 14,13z"/>
    <path class="fil9" d="M1302 1080l0 0c8,0 14,-6 14,-13l-28 0c1,7 7,13 14,13z"/>
    <path class="fil8" d="M1330 1080l1 0c7,0 13,-6 14,-13l-29 0c1,7 7,13 14,13z"/>
    <path class="fil9" d="M1359 1080l0 0c7,0 13,-6 14,-13l-28 0c0,7 6,13 14,13z"/>
    <path class="fil8" d="M1387 1080l0 0c8,0 14,-6 14,-13l-28 0c0,7 6,13 14,13z"/>
    <path class="fil9" d="M1415 1080l0 0c8,0 14,-6 14,-13l-28 0c1,7 7,13 14,13z"/>
    <path class="fil8" d="M1443 1080l1 0c7,0 13,-6 14,-13l-29 0c1,7 7,13 14,13z"/>
    <path class="fil9" d="M1472 1080l0 0c7,0 13,-6 14,-13l-28 0c0,7 6,13 14,13z"/>
    <path class="fil8" d="M1485 1067l0 0c0,8 7,14 15,14l0 0c8,0 14,-6 14,-14l0 0 -29 0z"/>
    <path class="fil9" d="M1514 1067l0 0c0,8 6,14 14,14l0 0c8,0 14,-6 14,-14l0 0 -28 0z"/>
    <path class="fil8" d="M1542 1067l0 0c0,8 7,14 14,14l1 0c7,0 13,-6 13,-14l0 0 -28 0z"/>
    <path class="fil9" d="M1570 1067l0 0c0,8 7,14 15,14l0 0c8,0 13,-6 13,-14l0 0 -28 0z"/>
    <path class="fil8" d="M1598 1067l0 0c0,8 7,14 15,14l0 0c8,0 14,-6 14,-14l0 0 -29 0z"/>
    <path class="fil9" d="M1627 1067l0 0c0,8 6,14 14,14l0 0c8,0 14,-6 14,-14l0 0 -28 0z"/>
    <g>
     <path class="fil7" d="M1534 943l0 0c0,1 0,3 0,5 0,-2 0,-4 0,-5z"/>
    </g>
    <g>
     <path class="fil7" d="M1310 943l0 0c0,1 0,2 0,3 0,-1 0,-2 0,-3z"/>
    </g>
    <g>
     <path class="fil7" d="M1584 943l-1 0c0,1 1,3 1,5 0,-2 0,-4 0,-5z"/>
    </g>
    <g>
     <path class="fil7" d="M1559 943l-1 0c1,1 1,3 1,5 0,-2 0,-4 0,-5z"/>
    </g>
    <g>
     <path class="fil7" d="M1609 943l-1 0c0,1 1,3 1,5 0,-2 0,-4 0,-5z"/>
    </g>
    <g>
     <path class="fil7" d="M1459 943l0 0c0,1 0,2 0,3 0,-1 0,-2 0,-3z"/>
    </g>
    <g>
     <path class="fil7" d="M1435 943l-1 0c0,1 0,2 0,3 0,-1 1,-2 1,-3z"/>
    </g>
    <g>
     <path class="fil7" d="M1385 943l0 0c0,1 0,2 0,3 0,-1 0,-2 0,-3z"/>
    </g>
    <g>
     <path class="fil7" d="M1360 943l0 0c0,1 0,2 0,3 0,-1 0,-2 0,-3z"/>
    </g>
    <g>
     <path class="fil7" d="M1335 943l0 0c0,1 0,2 0,3 0,-1 0,-2 0,-3z"/>
    </g>
    <g>
     <path class="fil7" d="M1410 943l-1 0c1,1 1,2 1,3 0,-1 0,-2 0,-3z"/>
    </g>
    <g>
     <path class="fil7" d="M1509 943l0 0c0,1 0,3 0,5 0,-2 0,-4 0,-5z"/>
    </g>
    <path class="fil10" d="M1310 943l-25 0c0,1 0,2 0,3l-25 120c0,0 0,0 0,1l28 0c0,-1 0,-1 0,-1l22 -120c0,-1 0,-2 0,-3z"/>
    <path class="fil10" d="M1658 946c0,-1 0,-2 0,-3l-24 0c-1,1 -1,2 -1,3l22 120c0,0 0,0 0,1l29 0c0,-1 0,-1 0,-1l-26 -120z"/>
    <path class="fil1" d="M1335 943l-25 0c0,1 0,2 0,3l-22 120c0,0 0,0 0,1l28 0c0,-1 0,-1 0,-1l19 -120c0,-1 0,-2 0,-3z"/>
    <path class="fil10" d="M1360 943l-25 0c0,1 0,2 0,3l-19 120c0,0 0,0 0,1l29 0c0,-1 0,-1 0,-1l15 -120c0,-1 0,-2 0,-3z"/>
    <path class="fil11" d="M1385 943l-25 0c0,1 0,2 0,3l-15 120c0,0 0,0 0,1l28 0c0,-1 0,-1 0,-1l12 -120c0,-1 0,-2 0,-3z"/>
    <path class="fil10" d="M1409 943l-24 0c0,1 0,2 0,3l-12 120c0,0 0,0 0,1l28 0c0,-1 0,-1 0,-1l9 -120c0,-1 0,-2 -1,-3z"/>
    <path class="fil1" d="M1434 943l-24 0c0,1 0,2 0,3l-9 120c0,0 0,0 0,1l28 0c0,-1 0,-1 0,-1l5 -120c0,-1 0,-2 0,-3z"/>
    <path class="fil10" d="M1459 943l-24 0c0,1 -1,2 -1,3l-5 120c0,0 0,0 0,1l29 0c0,-1 0,-1 0,-1l1 -120c0,-1 0,-2 0,-3z"/>
    <path class="fil1" d="M1459 946l-1 120c0,0 0,0 0,1l28 0c0,-1 -1,-1 -1,-1l-2 -118 0 -2c0,-1 1,-2 1,-3l-25 0c0,1 0,2 0,3z"/>
    <path class="fil10" d="M1509 943l-24 0c-1,1 -1,3 -1,5l1 118 0 1 29 0 -5 -119c0,-2 0,-4 0,-5z"/>
    <path class="fil1" d="M1534 943l-25 0c0,1 0,3 0,5l5 119 28 0 -8 -119c0,-2 0,-4 0,-5z"/>
    <path class="fil10" d="M1558 943l-24 0c0,1 0,3 0,5l8 119 29 0 -12 -119c0,-2 0,-4 -1,-5z"/>
    <path class="fil1" d="M1583 943l-24 0c0,1 0,3 0,5l12 119 28 0 -15 -119c0,-2 -1,-4 -1,-5z"/>
    <path class="fil10" d="M1608 943l-24 0c0,1 0,3 0,5l15 119 28 0 -18 -119c0,-2 -1,-4 -1,-5z"/>
    <path class="fil1" d="M1609 948l18 119 28 0 -22 -119c0,-2 0,-4 0,-5l-24 0c0,1 0,3 0,5z"/>
    <polygon class="fil12" points="1658,948 1284,948 1284,936 1658,936 "/>
    <path class="fil13" d="M1616 904c0,12 -10,21 -21,21l-230 0c-11,0 -21,-9 -21,-21 0,-11 10,-21 21,-21l230 0c11,0 21,10 21,21z"/>
    <path class="fil2" d="M1594 883c12,0 21,10 21,21 0,12 -9,21 -21,21l-229 0c-11,0 -21,-9 -21,-21 0,-11 10,-21 21,-21l229 0 0 0zm0 -11l0 0 -229 0c-17,0 -32,15 -32,32 0,18 15,32 32,32l229 0c18,0 32,-14 32,-32 0,-17 -14,-32 -32,-32z"/>
   </g>
   <path class="fil3" d="M1466 1205c0,4 -3,6 -6,6l-15 0c-4,0 -6,-2 -6,-6 0,-3 2,-6 6,-6l15 0c3,0 6,3 6,6z"/>
   <path class="fil1" d="M1448 1205c0,2 -1,3 -2,3 -2,0 -3,-1 -3,-3 0,-1 1,-2 3,-2 1,0 2,1 2,2z"/>
   <path class="fil12" d="M1695 1329c0,9 -7,16 -16,16l-412 0c-9,0 -16,-7 -16,-16 0,-9 7,-17 16,-17l412 0c9,0 16,8 16,17z"/>
   <g>
    <path class="fil1" d="M1478 861c0,2 -2,4 -4,4 -2,0 -4,-2 -4,-4l0 -26c0,-2 2,-3 4,-3 2,0 4,1 4,3l0 26z"/>
    <path class="fil1" d="M1499 862c0,2 -2,4 -4,3 -2,0 -4,-3 -3,-5l7 -25c0,-2 2,-3 4,-2 2,0 4,2 3,4l-7 25z"/>
    <path class="fil1" d="M1520 864c-1,1 -4,2 -5,1 -2,-2 -3,-4 -1,-6l14 -21c1,-2 4,-2 6,-1 1,1 2,3 1,5l-15 22z"/>
    <path class="fil1" d="M1448 862c1,2 3,4 5,3 2,0 3,-3 3,-5l-7 -25c0,-2 -2,-3 -5,-2 -2,0 -3,2 -2,4l6 25z"/>
    <path class="fil1" d="M1429 864c1,1 4,2 5,0 2,-1 2,-3 1,-5l-17 -20c-1,-2 -3,-2 -5,0 -2,1 -2,3 -1,5l17 20z"/>
   </g>
   <polygon class="fil1" points="1260,2249 889,2249 889,1972 1260,1972 "/>
   <polygon class="fil2" points="1271,2266 876,2266 876,2249 1271,2249 "/>
   <polygon class="fil3" points="1068,2249 943,2249 943,2056 1068,2056 "/>
   <g>
    <polygon class="fil4" points="1059,2249 953,2249 953,2068 1059,2068 "/>
   </g>
   <path class="fil1" d="M978 2190c-1,1 -3,1 -4,0l0 -1c-1,-1 -1,-2 0,-3l65 -65c1,-1 2,-1 3,0l1 0c1,1 1,3 0,4l-65 65z"/>
   <path class="fil1" d="M979 2169c-1,1 -2,1 -3,0l-1 0c0,-1 0,-3 0,-4l45 -44c1,-1 2,-1 3,0l0 1c1,1 1,2 0,3l-44 44z"/>
   <path class="fil1" d="M1004 2182c-1,1 -3,1 -4,0l0 0c-1,-1 -1,-3 0,-4l30 -29c1,-1 2,-1 3,0l0 0c1,1 1,3 0,4l-29 29z"/>
   <polygon class="fil3" points="1206,2180 1107,2180 1107,2082 1206,2082 "/>
   <g>
    <polygon class="fil4" points="1198,2172 1116,2172 1116,2091 1198,2091 "/>
   </g>
   <path class="fil1" d="M1140 2155c-1,1 -2,1 -3,0l-1 0c-1,-1 -1,-3 0,-4l44 -44c1,-1 3,-1 4,0l0 1c1,1 1,2 0,3l-44 44z"/>
   <path class="fil1" d="M1155 2158c-1,1 -3,1 -4,0l0 0c-1,-1 -1,-3 0,-4l30 -29c1,-1 2,-1 3,0l0 0c1,1 1,3 0,4l-29 29z"/>
   <path class="fil1" d="M1138 2141c-1,1 -3,1 -4,0l0 0c-1,-1 -1,-3 0,-4l29 -30c1,0 3,0 4,0l0 1c1,1 1,2 0,3l-29 30z"/>
   <polygon class="fil5" points="1260,2249 889,2249 889,2237 1260,2237 "/>
   <polygon class="fil6" points="1260,2040 889,2040 889,2011 1260,2011 "/>
   <g>
    <g>
     <path class="fil7" d="M919 2020l0 0c0,0 0,-1 0,-1 0,0 0,1 0,1z"/>
    </g>
    <g>
     <path class="fil7" d="M947 2020l0 0c0,0 0,-1 0,-1 0,0 0,1 0,1z"/>
    </g>
    <g>
     <path class="fil7" d="M1088 2020l0 0 0 -1c0,0 0,1 0,1z"/>
    </g>
    <g>
     <path class="fil7" d="M1032 2020l0 0c0,0 0,-1 0,-1 0,0 0,1 0,1z"/>
    </g>
    <g>
     <path class="fil7" d="M1003 2020l0 0c0,0 0,-1 0,-1 0,0 0,1 0,1z"/>
    </g>
    <g>
     <path class="fil7" d="M1060 2020l0 0c0,0 0,-1 0,-1 0,0 0,1 0,1z"/>
    </g>
    <g>
     <path class="fil7" d="M975 2020l0 0c0,0 0,-1 0,-1 0,0 0,1 0,1z"/>
    </g>
    <g>
     <path class="fil7" d="M890 2020l0 0c0,0 0,-1 0,-1 0,0 0,1 0,1z"/>
    </g>
    <path class="fil8" d="M876 2033l0 0c8,0 14,-6 14,-13l-28 0c1,7 7,13 14,13z"/>
    <path class="fil8" d="M1272 2033l0 0c7,0 13,-6 14,-13l-28 0c0,7 6,13 14,13z"/>
    <path class="fil9" d="M904 2033l1 0c7,0 13,-6 14,-13l-29 0c1,7 7,13 14,13z"/>
    <path class="fil8" d="M933 2033l0 0c7,0 13,-6 14,-13l-28 0c0,7 6,13 14,13z"/>
    <path class="fil9" d="M961 2033l0 0c8,0 14,-6 14,-13l-28 0c0,7 6,13 14,13z"/>
    <path class="fil8" d="M989 2033l0 0c8,0 14,-6 14,-13l-28 0c1,7 7,13 14,13z"/>
    <path class="fil9" d="M1017 2033l1 0c7,0 13,-6 14,-13l-29 0c1,7 7,13 14,13z"/>
    <path class="fil8" d="M1046 2033l0 0c7,0 13,-6 14,-13l-28 0c0,7 6,13 14,13z"/>
    <path class="fil9" d="M1074 2033l0 0c8,0 14,-6 14,-13l-28 0c0,7 6,13 14,13z"/>
    <path class="fil8" d="M1088 2020l0 0c0,8 6,14 14,14l0 0c8,0 14,-6 14,-14l0 0 -28 0z"/>
    <path class="fil9" d="M1116 2020l0 0c0,8 7,14 14,14l1 0c7,0 13,-6 13,-14l0 0 -28 0z"/>
    <path class="fil8" d="M1144 2020l0 0c0,8 7,14 15,14l0 0c8,0 13,-6 13,-14l0 0 -28 0z"/>
    <path class="fil9" d="M1172 2020l0 0c0,8 7,14 15,14l0 0c8,0 14,-6 14,-14l0 0 -29 0z"/>
    <path class="fil8" d="M1201 2020l0 0c0,8 6,14 14,14l0 0c8,0 14,-6 14,-14l0 0 -28 0z"/>
    <path class="fil9" d="M1229 2020l0 0c0,8 7,14 14,14l1 0c7,0 13,-6 13,-14l0 0 -28 0z"/>
    <g>
     <path class="fil7" d="M1137 1896l-1 0c0,2 0,3 0,5 0,-2 0,-3 1,-5z"/>
    </g>
    <g>
     <path class="fil7" d="M913 1896l-1 0c0,1 0,2 0,3 0,-1 0,-2 1,-3z"/>
    </g>
    <g>
     <path class="fil7" d="M1186 1896l-1 0c1,2 1,3 1,5 0,-2 0,-3 0,-5z"/>
    </g>
    <g>
     <path class="fil7" d="M1161 1896l0 0c0,2 0,3 0,5 0,-2 0,-3 0,-5z"/>
    </g>
    <g>
     <path class="fil7" d="M1211 1896l-1 0c1,2 1,3 1,5 0,-2 0,-3 0,-5z"/>
    </g>
    <g>
     <path class="fil7" d="M1062 1896l-1 0c0,1 1,2 1,3 0,-1 0,-2 0,-3z"/>
    </g>
    <g>
     <path class="fil7" d="M1037 1896l0 0c0,1 0,2 0,3 0,-1 0,-2 0,-3z"/>
    </g>
    <g>
     <path class="fil7" d="M987 1896l0 0c0,1 0,2 0,3 0,-1 0,-2 0,-3z"/>
    </g>
    <g>
     <path class="fil7" d="M962 1896l0 0c0,1 0,2 0,3 0,-1 0,-2 0,-3z"/>
    </g>
    <g>
     <path class="fil7" d="M937 1896l0 0c0,1 0,2 0,3 0,-1 0,-2 0,-3z"/>
    </g>
    <g>
     <path class="fil7" d="M1012 1896l0 0c0,1 0,2 0,3 0,-1 0,-2 0,-3z"/>
    </g>
    <g>
     <path class="fil7" d="M1112 1896l-1 0c0,2 0,3 0,5 0,-2 0,-3 1,-5z"/>
    </g>
    <path class="fil10" d="M912 1896l-24 0c0,1 -1,2 -1,3l-25 120c0,0 0,1 0,1l28 0c0,0 0,-1 0,-1l22 -120c0,-1 0,-2 0,-3z"/>
    <path class="fil10" d="M1260 1899c0,-1 0,-2 0,-3l-24 0c0,1 0,2 0,3l22 120c0,0 0,1 0,1l28 0c0,0 0,-1 0,-1l-26 -120z"/>
    <path class="fil1" d="M937 1896l-24 0c-1,1 -1,2 -1,3l-22 120c0,0 0,1 0,1l29 0c0,0 0,-1 0,-1l18 -120c0,-1 0,-2 0,-3z"/>
    <path class="fil10" d="M962 1896l-25 0c0,1 0,2 0,3l-18 120c0,0 0,1 0,1l28 0c0,0 0,-1 0,-1l15 -120c0,-1 0,-2 0,-3z"/>
    <path class="fil11" d="M987 1896l-25 0c0,1 0,2 0,3l-15 120c0,0 0,1 0,1l28 0c0,0 0,-1 0,-1l12 -120c0,-1 0,-2 0,-3z"/>
    <path class="fil10" d="M1012 1896l-25 0c0,1 0,2 0,3l-12 120c0,0 0,1 0,1l28 0c0,0 0,-1 0,-1l9 -120c0,-1 0,-2 0,-3z"/>
    <path class="fil1" d="M1037 1896l-25 0c0,1 0,2 0,3l-9 120c0,0 0,1 0,1l29 0c0,0 0,-1 0,-1l5 -120c0,-1 0,-2 0,-3z"/>
    <path class="fil10" d="M1061 1896l-24 0c0,1 0,2 0,3l-5 120c0,0 0,1 0,1l28 0c0,0 0,-1 0,-1l2 -120c0,-1 -1,-2 -1,-3z"/>
    <path class="fil1" d="M1062 1899l-2 120c0,0 0,1 0,1l28 0c0,0 0,-1 0,-1l-3 -118 0 -2c0,-1 1,-2 1,-3l-24 0c0,1 0,2 0,3z"/>
    <path class="fil10" d="M1111 1896l-24 0c0,2 -1,3 -1,5l2 118 0 1 28 0 -5 -119c0,-2 0,-3 0,-5z"/>
    <path class="fil1" d="M1136 1896l-24 0c-1,2 -1,3 -1,5l5 119 29 0 -9 -119c0,-2 0,-3 0,-5z"/>
    <path class="fil10" d="M1161 1896l-24 0c-1,2 -1,3 -1,5l9 119 28 0 -12 -119c0,-2 0,-3 0,-5z"/>
    <path class="fil1" d="M1185 1896l-24 0c0,2 0,3 0,5l12 119 28 0 -15 -119c0,-2 0,-3 -1,-5z"/>
    <path class="fil10" d="M1210 1896l-24 0c0,2 0,3 0,5l15 119 28 0 -18 -119c0,-2 0,-3 -1,-5z"/>
    <path class="fil1" d="M1211 1901l18 119 29 0 -22 -119c0,-2 -1,-3 -1,-5l-24 0c0,2 0,3 0,5z"/>
    <polygon class="fil12" points="1260,1902 887,1902 887,1890 1260,1890 "/>
    <path class="fil13" d="M1218 1858c0,11 -10,21 -21,21l-230 0c-11,0 -21,-10 -21,-21 0,-12 10,-22 21,-22l230 0c11,0 21,10 21,22z"/>
    <path class="fil2" d="M1196 1836c12,0 22,10 22,22 0,11 -10,21 -21,21l-229 0c-12,0 -22,-10 -22,-21 0,-12 10,-22 22,-22l228 0 0 0zm1 -11l0 0 -229 0c-18,0 -32,15 -32,33 0,17 14,32 32,32l229 0c17,0 32,-15 32,-32 0,-18 -15,-33 -32,-33z"/>
   </g>
   <path class="fil3" d="M1068 2159c0,3 -3,5 -6,5l-15 0c-3,0 -6,-2 -6,-5 0,-4 3,-6 6,-6l15 0c3,0 6,2 6,6z"/>
   <path class="fil1" d="M1050 2159c0,1 -1,2 -2,2 -1,0 -3,-1 -3,-2 0,-2 2,-3 3,-3 1,0 2,1 2,3z"/>
   <path class="fil12" d="M1297 2282c0,9 -7,16 -16,16l-412 0c-9,0 -16,-7 -16,-16 0,-9 7,-16 16,-16l412 0c9,0 16,7 16,16z"/>
   <g>
    <path class="fil1" d="M1080 1815c0,2 -2,3 -4,3 -2,0 -4,-1 -4,-3l0 -26c0,-2 2,-4 4,-4 2,0 4,2 4,4l0 26z"/>
    <path class="fil1" d="M1102 1816c-1,2 -3,3 -5,2 -2,0 -3,-2 -3,-4l7 -25c0,-2 2,-4 5,-3 2,0 3,3 2,5l-6 25z"/>
    <path class="fil1" d="M1122 1817c-1,2 -3,2 -5,1 -2,-1 -2,-4 -1,-6l14 -21c2,-2 4,-2 6,-1 2,1 2,4 1,5l-15 22z"/>
    <path class="fil1" d="M1051 1816c0,2 2,3 4,2 2,0 4,-2 3,-4l-7 -25c0,-2 -2,-4 -4,-3 -2,0 -4,3 -3,5l7 25z"/>
    <path class="fil1" d="M1031 1817c2,2 4,2 6,1 1,-2 2,-4 0,-6l-16 -20c-2,-1 -4,-2 -6,0 -1,1 -2,4 0,5l16 20z"/>
   </g>
   <polygon class="fil1" points="408,2249 36,2249 36,1972 408,1972 "/>
   <polygon class="fil2" points="418,2266 23,2266 23,2249 418,2249 "/>
   <polygon class="fil3" points="215,2249 90,2249 90,2056 215,2056 "/>
   <g>
    <polygon class="fil4" points="206,2249 101,2249 101,2068 206,2068 "/>
   </g>
   <path class="fil1" d="M125 2190c-1,1 -3,1 -4,0l0 -1c-1,-1 -1,-2 0,-3l65 -65c1,-1 3,-1 3,0l1 0c1,1 1,3 0,4l-65 65z"/>
   <path class="fil1" d="M127 2169c-1,1 -3,1 -4,0l0 0c-1,-1 -1,-3 0,-4l44 -44c1,-1 2,-1 3,0l1 1c1,1 1,2 0,3l-44 44z"/>
   <path class="fil1" d="M151 2182c-1,1 -2,1 -3,0l-1 0c-1,-1 -1,-3 0,-4l30 -29c1,-1 2,-1 3,0l1 0c1,1 1,3 0,4l-30 29z"/>
   <polygon class="fil3" points="353,2180 254,2180 254,2082 353,2082 "/>
   <g>
    <polygon class="fil4" points="345,2172 264,2172 264,2091 345,2091 "/>
   </g>
   <path class="fil1" d="M287 2155c-1,1 -2,1 -3,0l0 0c-1,-1 -1,-3 0,-4l44 -44c1,-1 2,-1 3,0l0 1c1,1 1,2 0,3l-44 44z"/>
   <path class="fil1" d="M302 2158c-1,1 -2,1 -3,0l-1 0c-1,-1 -1,-3 0,-4l30 -29c1,-1 2,-1 3,0l1 0c1,1 1,3 0,4l-30 29z"/>
   <path class="fil1" d="M285 2141c-1,1 -3,1 -4,0l0 0c-1,-1 -1,-3 0,-4l29 -30c1,0 3,0 4,0l0 1c1,1 1,2 0,3l-29 30z"/>
   <polygon class="fil5" points="408,2249 36,2249 36,2237 408,2237 "/>
   <polygon class="fil6" points="408,2040 36,2040 36,2011 408,2011 "/>
   <g>
    <g>
     <path class="fil7" d="M66 2020l0 0c0,0 0,-1 0,-1 0,0 0,1 0,1z"/>
    </g>
    <g>
     <path class="fil7" d="M94 2020l0 0c0,0 0,-1 0,-1 0,0 0,1 0,1z"/>
    </g>
    <g>
     <path class="fil7" d="M235 2020l0 0 0 -1c0,0 0,1 0,1z"/>
    </g>
    <g>
     <path class="fil7" d="M179 2020l0 0c0,0 0,-1 0,-1 0,0 0,1 0,1z"/>
    </g>
    <g>
     <path class="fil7" d="M151 2020l0 0c0,0 0,-1 0,-1 0,0 0,1 0,1z"/>
    </g>
    <g>
     <path class="fil7" d="M207 2020l0 0c0,0 0,-1 0,-1 0,0 0,1 0,1z"/>
    </g>
    <g>
     <path class="fil7" d="M122 2020l0 0c0,0 0,-1 0,-1 0,0 0,1 0,1z"/>
    </g>
    <g>
     <path class="fil7" d="M37 2020l1 0c0,0 0,-1 0,-1 0,0 0,1 -1,1z"/>
    </g>
    <path class="fil8" d="M23 2033l1 0c7,0 13,-6 13,-13l-28 0c1,7 7,13 14,13z"/>
    <path class="fil8" d="M419 2033l0 0c8,0 14,-6 14,-13l-28 0c0,7 6,13 14,13z"/>
    <path class="fil9" d="M51 2033l1 0c7,0 13,-6 14,-13l-28 0c0,7 6,13 13,13z"/>
    <path class="fil8" d="M80 2033l0 0c7,0 14,-6 14,-13l-28 0c0,7 6,13 14,13z"/>
    <path class="fil9" d="M108 2033l0 0c8,0 14,-6 14,-13l-28 0c1,7 7,13 14,13z"/>
    <path class="fil8" d="M136 2033l1 0c7,0 13,-6 14,-13l-29 0c1,7 7,13 14,13z"/>
    <path class="fil9" d="M164 2033l1 0c7,0 13,-6 14,-13l-28 0c0,7 6,13 13,13z"/>
    <path class="fil8" d="M193 2033l0 0c7,0 14,-6 14,-13l-28 0c0,7 6,13 14,13z"/>
    <path class="fil9" d="M221 2033l0 0c8,0 14,-6 14,-13l-28 0c1,7 7,13 14,13z"/>
    <path class="fil8" d="M235 2020l0 0c0,8 7,14 14,14l1 0c7,0 13,-6 13,-14l0 0 -28 0z"/>
    <path class="fil9" d="M263 2020l0 0c0,8 7,14 14,14l1 0c8,0 13,-6 13,-14l0 0 -28 0z"/>
    <path class="fil8" d="M291 2020l0 0c0,8 7,14 15,14l0 0c8,0 14,-6 14,-14l0 0 -29 0z"/>
    <path class="fil9" d="M320 2020l0 0c0,8 6,14 14,14l0 0c8,0 14,-6 14,-14l0 0 -28 0z"/>
    <path class="fil8" d="M348 2020l0 0c0,8 7,14 14,14l1 0c7,0 13,-6 13,-14l0 0 -28 0z"/>
    <path class="fil9" d="M376 2020l0 0c0,8 7,14 14,14l1 0c8,0 13,-6 13,-14l0 0 -28 0z"/>
    <g>
     <path class="fil7" d="M284 1896l-1 0c0,2 0,3 0,5 0,-2 0,-3 1,-5z"/>
    </g>
    <g>
     <path class="fil7" d="M60 1896l-1 0c0,1 1,2 1,3 0,-1 0,-2 0,-3z"/>
    </g>
    <g>
     <path class="fil7" d="M333 1896l0 0c0,2 0,3 0,5 0,-2 0,-3 0,-5z"/>
    </g>
    <g>
     <path class="fil7" d="M309 1896l-1 0c0,2 0,3 0,5 0,-2 0,-3 1,-5z"/>
    </g>
    <g>
     <path class="fil7" d="M358 1896l0 0c0,2 0,3 0,5 0,-2 0,-3 0,-5z"/>
    </g>
    <g>
     <path class="fil7" d="M209 1896l0 0c0,1 0,2 0,3 0,-1 0,-2 0,-3z"/>
    </g>
    <g>
     <path class="fil7" d="M184 1896l0 0c0,1 0,2 0,3 0,-1 0,-2 0,-3z"/>
    </g>
    <g>
     <path class="fil7" d="M134 1896l0 0c0,1 0,2 0,3 0,-1 0,-2 0,-3z"/>
    </g>
    <g>
     <path class="fil7" d="M109 1896l0 0c0,1 0,2 0,3 0,-1 0,-2 0,-3z"/>
    </g>
    <g>
     <path class="fil7" d="M85 1896l-1 0c0,1 0,2 0,3 0,-1 0,-2 1,-3z"/>
    </g>
    <g>
     <path class="fil7" d="M159 1896l0 0c0,1 0,2 0,3 0,-1 0,-2 0,-3z"/>
    </g>
    <g>
     <path class="fil7" d="M259 1896l-1 0c0,2 0,3 0,5 0,-2 1,-3 1,-5z"/>
    </g>
    <path class="fil10" d="M59 1896l-24 0c0,1 0,2 0,3l-26 120c0,0 0,1 0,1l28 0c1,0 1,-1 1,-1l22 -120c0,-1 -1,-2 -1,-3z"/>
    <path class="fil10" d="M408 1899c0,-1 0,-2 0,-3l-25 0c0,1 0,2 0,3l22 120c0,0 0,1 0,1l28 0c0,0 0,-1 0,-1l-25 -120z"/>
    <path class="fil1" d="M84 1896l-24 0c0,1 0,2 0,3l-22 120c0,0 0,1 0,1l28 0c0,0 0,-1 0,-1l18 -120c0,-1 0,-2 0,-3z"/>
    <path class="fil10" d="M109 1896l-24 0c-1,1 -1,2 -1,3l-18 120c0,0 0,1 0,1l28 0c0,0 0,-1 0,-1l15 -120c0,-1 0,-2 0,-3z"/>
    <path class="fil11" d="M134 1896l-25 0c0,1 0,2 0,3l-15 120c0,0 0,1 0,1l28 0c0,0 0,-1 0,-1l12 -120c0,-1 0,-2 0,-3z"/>
    <path class="fil10" d="M159 1896l-25 0c0,1 0,2 0,3l-12 120c0,0 0,1 0,1l29 0c0,0 0,-1 0,-1l8 -120c0,-1 0,-2 0,-3z"/>
    <path class="fil1" d="M184 1896l-25 0c0,1 0,2 0,3l-8 120c0,0 0,1 0,1l28 0c0,0 0,-1 0,-1l5 -120c0,-1 0,-2 0,-3z"/>
    <path class="fil10" d="M209 1896l-25 0c0,1 0,2 0,3l-5 120c0,0 0,1 0,1l28 0c0,0 0,-1 0,-1l2 -120c0,-1 0,-2 0,-3z"/>
    <path class="fil1" d="M209 1899l-2 120c0,0 0,1 0,1l28 0c0,0 0,-1 0,-1l-2 -118 0 -2c0,-1 0,-2 0,-3l-24 0c0,1 0,2 0,3z"/>
    <path class="fil10" d="M258 1896l-24 0c0,2 -1,3 -1,5l2 118 0 1 29 0 -6 -119c0,-2 0,-3 0,-5z"/>
    <path class="fil1" d="M283 1896l-24 0c0,2 -1,3 -1,5l6 119 28 0 -9 -119c0,-2 0,-3 0,-5z"/>
    <path class="fil10" d="M308 1896l-24 0c-1,2 -1,3 -1,5l9 119 28 0 -12 -119c0,-2 0,-3 0,-5z"/>
    <path class="fil1" d="M333 1896l-24 0c-1,2 -1,3 -1,5l12 119 28 0 -15 -119c0,-2 0,-3 0,-5z"/>
    <path class="fil10" d="M358 1896l-25 0c0,2 0,3 0,5l15 119 29 0 -19 -119c0,-2 0,-3 0,-5z"/>
    <path class="fil1" d="M358 1901l19 119 28 0 -22 -119c0,-2 0,-3 -1,-5l-24 0c0,2 0,3 0,5z"/>
    <polygon class="fil12" points="408,1902 34,1902 34,1890 408,1890 "/>
    <path class="fil13" d="M365 1858c0,11 -9,21 -21,21l-229 0c-12,0 -21,-10 -21,-21 0,-12 9,-22 21,-22l229 0c12,0 21,10 21,22z"/>
    <path class="fil2" d="M344 1836c11,0 21,10 21,22 0,11 -9,21 -21,21l-229 0c-12,0 -21,-10 -21,-21 0,-12 9,-22 21,-22l228 0 1 0zm0 -11l0 0 -229 0c-18,0 -32,15 -32,33 0,17 14,32 32,32l229 0c18,0 32,-15 32,-32 0,-18 -14,-33 -32,-33z"/>
   </g>
   <path class="fil3" d="M215 2159c0,3 -2,5 -6,5l-15 0c-3,0 -6,-2 -6,-5 0,-4 3,-6 6,-6l15 0c4,0 6,2 6,6z"/>
   <path class="fil1" d="M198 2159c0,1 -2,2 -3,2 -1,0 -2,-1 -2,-2 0,-2 1,-3 2,-3 1,0 3,1 3,3z"/>
   <path class="fil12" d="M444 2282c0,9 -7,16 -16,16l-412 0c-9,0 -16,-7 -16,-16 0,-9 7,-16 16,-16l412 0c9,0 16,7 16,16z"/>
   <g>
    <path class="fil1" d="M227 1815c0,2 -2,3 -4,3 -2,0 -4,-1 -4,-3l0 -26c0,-2 2,-4 4,-4 2,0 4,2 4,4l0 26z"/>
    <path class="fil1" d="M249 1816c-1,2 -3,3 -5,2 -2,0 -3,-2 -3,-4l7 -25c1,-2 3,-4 5,-3 2,0 3,3 2,5l-6 25z"/>
    <path class="fil1" d="M269 1817c-1,2 -3,2 -5,1 -2,-1 -2,-4 -1,-6l15 -21c1,-2 3,-2 5,-1 2,1 2,4 1,5l-15 22z"/>
    <path class="fil1" d="M198 1816c0,2 2,3 5,2 2,0 3,-2 2,-4l-6 -25c-1,-2 -3,-4 -5,-3 -2,0 -3,3 -3,5l7 25z"/>
    <path class="fil1" d="M178 1817c2,2 4,2 6,1 1,-2 2,-4 0,-6l-16 -20c-2,-1 -4,-2 -6,0 -1,1 -2,4 0,5l16 20z"/>
   </g>
   <polygon class="fil1" points="2123,2249 1751,2249 1751,1972 2123,1972 "/>
   <polygon class="fil2" points="2134,2266 1738,2266 1738,2249 2134,2249 "/>
   <polygon class="fil3" points="1931,2249 1806,2249 1806,2056 1931,2056 "/>
   <g>
    <polygon class="fil4" points="1921,2249 1816,2249 1816,2068 1921,2068 "/>
   </g>
   <path class="fil1" d="M1840 2190c-1,1 -2,1 -3,0l0 -1c-1,-1 -1,-2 0,-3l64 -65c1,-1 3,-1 4,0l0 0c1,1 1,3 0,4l-65 65z"/>
   <path class="fil1" d="M1842 2169c-1,1 -3,1 -4,0l0 0c-1,-1 -1,-3 0,-4l44 -44c1,-1 3,-1 4,0l0 1c1,1 1,2 0,3l-44 44z"/>
   <path class="fil1" d="M1867 2182c-1,1 -3,1 -4,0l0 0c-1,-1 -1,-3 0,-4l29 -29c1,-1 3,-1 4,0l0 0c1,1 1,3 0,4l-29 29z"/>
   <polygon class="fil3" points="2069,2180 1970,2180 1970,2082 2069,2082 "/>
   <g>
    <polygon class="fil4" points="2061,2172 1979,2172 1979,2091 2061,2091 "/>
   </g>
   <path class="fil1" d="M2003 2155c-1,1 -3,1 -4,0l0 0c-1,-1 -1,-3 0,-4l44 -44c1,-1 3,-1 4,0l0 1c1,1 1,2 0,3l-44 44z"/>
   <path class="fil1" d="M2018 2158c-1,1 -3,1 -4,0l0 0c-1,-1 -1,-3 0,-4l29 -29c1,-1 3,-1 4,0l0 0c1,1 1,3 0,4l-29 29z"/>
   <path class="fil1" d="M2000 2141c-1,1 -2,1 -3,0l-1 0c-1,-1 -1,-3 0,-4l30 -30c1,0 2,0 3,0l1 1c1,1 1,2 0,3l-30 30z"/>
   <polygon class="fil5" points="2123,2249 1751,2249 1751,2237 2123,2237 "/>
   <polygon class="fil6" points="2123,2040 1751,2040 1751,2011 2123,2011 "/>
   <g>
    <g>
     <path class="fil7" d="M1781 2020l0 0c0,0 0,-1 0,-1 0,0 0,1 0,1z"/>
    </g>
    <g>
     <path class="fil7" d="M1809 2020l1 0c0,0 0,-1 0,-1 0,0 0,1 -1,1z"/>
    </g>
    <g>
     <path class="fil7" d="M1951 2020l0 0 0 -1c0,0 0,1 0,1z"/>
    </g>
    <g>
     <path class="fil7" d="M1894 2020l0 0c0,0 0,-1 0,-1 0,0 0,1 0,1z"/>
    </g>
    <g>
     <path class="fil7" d="M1866 2020l0 0c0,0 0,-1 0,-1 0,0 0,1 0,1z"/>
    </g>
    <g>
     <path class="fil7" d="M1922 2020l1 0c0,0 0,-1 0,-1 0,0 0,1 -1,1z"/>
    </g>
    <g>
     <path class="fil7" d="M1838 2020l0 0c0,0 0,-1 0,-1 0,0 0,1 0,1z"/>
    </g>
    <g>
     <path class="fil7" d="M1753 2020l0 0c0,0 0,-1 0,-1 0,0 0,1 0,1z"/>
    </g>
    <path class="fil8" d="M1739 2033l0 0c7,0 14,-6 14,-13l-28 0c0,7 6,13 14,13z"/>
    <path class="fil8" d="M2134 2033l1 0c7,0 13,-6 13,-13l-28 0c1,7 7,13 14,13z"/>
    <path class="fil9" d="M1767 2033l0 0c8,0 14,-6 14,-13l-28 0c1,7 7,13 14,13z"/>
    <path class="fil8" d="M1795 2033l1 0c7,0 13,-6 13,-13l-28 0c1,7 7,13 14,13z"/>
    <path class="fil9" d="M1823 2033l1 0c7,0 13,-6 14,-13l-28 0c0,7 6,13 13,13z"/>
    <path class="fil8" d="M1852 2033l0 0c7,0 14,-6 14,-13l-28 0c0,7 6,13 14,13z"/>
    <path class="fil9" d="M1880 2033l0 0c8,0 14,-6 14,-13l-28 0c1,7 7,13 14,13z"/>
    <path class="fil8" d="M1908 2033l1 0c7,0 13,-6 13,-13l-28 0c1,7 7,13 14,13z"/>
    <path class="fil9" d="M1936 2033l1 0c7,0 13,-6 14,-13l-28 0c0,7 6,13 13,13z"/>
    <path class="fil8" d="M1950 2020l0 0c0,8 7,14 15,14l0 0c8,0 13,-6 13,-14l0 0 -28 0z"/>
    <path class="fil9" d="M1978 2020l0 0c0,8 7,14 15,14l0 0c8,0 14,-6 14,-14l0 0 -29 0z"/>
    <path class="fil8" d="M2007 2020l0 0c0,8 7,14 14,14l1 0c7,0 13,-6 13,-14l0 0 -28 0z"/>
    <path class="fil9" d="M2035 2020l0 0c0,8 7,14 14,14l1 0c8,0 13,-6 13,-14l0 0 -28 0z"/>
    <path class="fil8" d="M2063 2020l0 0c0,8 7,14 15,14l0 0c8,0 13,-6 13,-14l0 0 -28 0z"/>
    <path class="fil9" d="M2091 2020l0 0c0,8 7,14 15,14l0 0c8,0 14,-6 14,-14l0 0 -29 0z"/>
    <g>
     <path class="fil7" d="M1999 1896l-1 0c1,2 1,3 1,5 0,-2 0,-3 0,-5z"/>
    </g>
    <g>
     <path class="fil7" d="M1775 1896l0 0c0,1 0,2 0,3 0,-1 0,-2 0,-3z"/>
    </g>
    <g>
     <path class="fil7" d="M2049 1896l-1 0c0,2 1,3 1,5 0,-2 0,-3 0,-5z"/>
    </g>
    <g>
     <path class="fil7" d="M2024 1896l-1 0c1,2 1,3 1,5 0,-2 0,-3 0,-5z"/>
    </g>
    <g>
     <path class="fil7" d="M2074 1896l-1 0c0,2 0,3 0,5 0,-2 1,-3 1,-5z"/>
    </g>
    <g>
     <path class="fil7" d="M1924 1896l0 0c0,1 0,2 0,3 0,-1 0,-2 0,-3z"/>
    </g>
    <g>
     <path class="fil7" d="M1900 1896l-1 0c0,1 0,2 0,3 0,-1 0,-2 1,-3z"/>
    </g>
    <g>
     <path class="fil7" d="M1850 1896l-1 0c1,1 1,2 1,3 0,-1 0,-2 0,-3z"/>
    </g>
    <g>
     <path class="fil7" d="M1825 1896l0 0c0,1 0,2 0,3 0,-1 0,-2 0,-3z"/>
    </g>
    <g>
     <path class="fil7" d="M1800 1896l0 0c0,1 0,2 0,3 0,-1 0,-2 0,-3z"/>
    </g>
    <g>
     <path class="fil7" d="M1875 1896l-1 0c0,1 0,2 0,3 0,-1 1,-2 1,-3z"/>
    </g>
    <g>
     <path class="fil7" d="M1974 1896l0 0c0,2 0,3 0,5 0,-2 0,-3 0,-5z"/>
    </g>
    <path class="fil10" d="M1775 1896l-25 0c0,1 0,2 0,3l-25 120c0,0 0,1 0,1l28 0c0,0 0,-1 0,-1l22 -120c0,-1 0,-2 0,-3z"/>
    <path class="fil10" d="M2123 1899c0,-1 0,-2 0,-3l-25 0c0,1 0,2 0,3l22 120c0,0 0,1 0,1l28 0c1,0 1,-1 1,-1l-26 -120z"/>
    <path class="fil1" d="M1800 1896l-25 0c0,1 0,2 0,3l-22 120c0,0 0,1 0,1l28 0c0,0 0,-1 0,-1l19 -120c0,-1 0,-2 0,-3z"/>
    <path class="fil10" d="M1825 1896l-25 0c0,1 0,2 0,3l-19 120c0,0 0,1 0,1l28 0c1,0 1,-1 1,-1l15 -120c0,-1 0,-2 0,-3z"/>
    <path class="fil11" d="M1849 1896l-24 0c0,1 0,2 0,3l-15 120c0,0 0,1 0,1l28 0c0,0 0,-1 0,-1l12 -120c0,-1 0,-2 -1,-3z"/>
    <path class="fil10" d="M1874 1896l-24 0c0,1 0,2 0,3l-12 120c0,0 0,1 0,1l28 0c0,0 0,-1 0,-1l8 -120c0,-1 0,-2 0,-3z"/>
    <path class="fil1" d="M1899 1896l-24 0c0,1 -1,2 -1,3l-8 120c0,0 0,1 0,1l28 0c0,0 0,-1 0,-1l5 -120c0,-1 0,-2 0,-3z"/>
    <path class="fil10" d="M1924 1896l-24 0c-1,1 -1,2 -1,3l-5 120c0,0 0,1 0,1l28 0c1,0 1,-1 1,-1l1 -120c0,-1 0,-2 0,-3z"/>
    <path class="fil1" d="M1924 1899l-1 120c0,0 0,1 0,1l28 0c0,0 -1,-1 -1,-1l-2 -118 0 -2c0,-1 1,-2 0,-3l-24 0c0,1 0,2 0,3z"/>
    <path class="fil10" d="M1974 1896l-25 0c0,2 0,3 0,5l1 118 0 1 29 0 -5 -119c0,-2 0,-3 0,-5z"/>
    <path class="fil1" d="M1998 1896l-24 0c0,2 0,3 0,5l5 119 28 0 -8 -119c0,-2 0,-3 -1,-5z"/>
    <path class="fil10" d="M2023 1896l-24 0c0,2 0,3 0,5l8 119 29 0 -12 -119c0,-2 0,-3 -1,-5z"/>
    <path class="fil1" d="M2048 1896l-24 0c0,2 0,3 0,5l12 119 28 0 -15 -119c0,-2 -1,-3 -1,-5z"/>
    <path class="fil10" d="M2073 1896l-24 0c0,2 0,3 0,5l15 119 28 0 -19 -119c0,-2 0,-3 0,-5z"/>
    <path class="fil1" d="M2073 1901l19 119 28 0 -22 -119c0,-2 0,-3 0,-5l-24 0c0,2 -1,3 -1,5z"/>
    <polygon class="fil12" points="2123,1902 1749,1902 1749,1890 2123,1890 "/>
    <path class="fil13" d="M2081 1858c0,11 -10,21 -22,21l-229 0c-12,0 -21,-10 -21,-21 0,-12 9,-22 21,-22l229 0c12,0 22,10 22,22z"/>
    <path class="fil2" d="M2059 1836c12,0 21,10 21,22 0,11 -9,21 -21,21l-229 0c-11,0 -21,-10 -21,-21 0,-12 10,-22 21,-22l229 0 0 0zm0 -11l0 0 -229 0c-17,0 -32,15 -32,33 0,17 15,32 32,32l229 0c18,0 32,-15 32,-32 0,-18 -14,-33 -32,-33z"/>
   </g>
   <path class="fil3" d="M1931 2159c0,3 -3,5 -6,5l-16 0c-3,0 -5,-2 -5,-5 0,-4 2,-6 5,-6l16 0c3,0 6,2 6,6z"/>
   <path class="fil1" d="M1913 2159c0,1 -1,2 -2,2 -2,0 -3,-1 -3,-2 0,-2 1,-3 3,-3 1,0 2,1 2,3z"/>
   <path class="fil12" d="M2160 2282c0,9 -7,16 -16,16l-412 0c-9,0 -16,-7 -16,-16 0,-9 7,-16 16,-16l412 0c9,0 16,7 16,16z"/>
   <g>
    <path class="fil1" d="M1943 1815c0,2 -2,3 -4,3 -2,0 -4,-1 -4,-3l0 -26c0,-2 2,-4 4,-4 2,0 4,2 4,4l0 26z"/>
    <path class="fil1" d="M1964 1816c0,2 -2,3 -4,2 -2,0 -4,-2 -3,-4l7 -25c0,-2 2,-4 4,-3 2,0 3,3 3,5l-7 25z"/>
    <path class="fil1" d="M1985 1817c-1,2 -4,2 -5,1 -2,-1 -3,-4 -1,-6l14 -21c1,-2 4,-2 5,-1 2,1 3,4 1,5l-14 22z"/>
    <path class="fil1" d="M1913 1816c1,2 3,3 5,2 2,0 3,-2 3,-4l-7 -25c0,-2 -3,-4 -5,-3 -2,0 -3,3 -2,5l6 25z"/>
    <path class="fil1" d="M1894 1817c1,2 4,2 5,1 2,-2 2,-4 1,-6l-17 -20c-1,-1 -4,-2 -5,0 -2,1 -2,4 -1,5l17 20z"/>
   </g>
   <path class="fil14" d="M988 88l0 -30 10 0c3,0 6,0 7,2 2,1 3,3 3,6 0,1 -1,2 -1,3 -1,2 -2,2 -4,3 2,0 3,1 4,3 1,1 2,2 2,4 0,3 -1,5 -3,7 -2,1 -4,2 -8,2l-10 0zm4 -14l0 11 7 0c1,0 3,-1 4,-2 1,-1 2,-2 2,-4 0,-3 -2,-5 -6,-5l-7 0zm0 -3l6 0c2,0 3,-1 4,-2 1,-1 2,-2 2,-3 0,-2 -1,-3 -2,-4 -1,-1 -2,-1 -4,-1l-6 0 0 10z"/>
   <path id="1" class="fil14" d="M1025 69c-1,0 -1,0 -2,0 -3,0 -4,1 -5,3l0 16 -4 0 0 -23 4 0 0 3c1,-2 3,-3 5,-3 1,0 1,0 2,0l0 4z"/>
   <path id="2" class="fil14" d="M1042 88c-1,0 -1,-1 -1,-2 -2,1 -4,2 -6,2 -3,0 -4,0 -6,-1 -1,-2 -2,-3 -2,-5 0,-3 1,-4 3,-6 1,-1 4,-2 7,-2l4 0 0 -1c0,-2 0,-3 -1,-4 -1,-1 -2,-1 -4,-1 -1,0 -2,0 -3,1 -1,1 -2,2 -2,3l-4 0c0,-1 1,-3 2,-4 0,-1 1,-1 3,-2 1,-1 3,-1 4,-1 3,0 5,1 6,2 2,1 3,3 3,5l0 11c0,2 0,3 1,5l0 0 -4 0zm-7 -3c1,0 2,0 4,-1 1,0 1,-1 2,-2l0 -5 -3 0c-5,0 -7,1 -7,4 0,1 0,2 1,3 1,1 2,1 3,1z"/>
   <path id="3" class="fil14" d="M1054 65l1 3c1,-2 4,-3 6,-3 5,0 8,3 8,8l0 15 -4 0 0 -15c0,-2 -1,-3 -1,-4 -1,0 -2,-1 -4,-1 -1,0 -2,1 -3,1 -1,1 -2,2 -2,3l0 16 -4 0 0 -23 3 0z"/>
   <path id="4" class="fil14" d="M1083 85c2,0 3,0 4,-1 1,-1 2,-2 2,-3l3 0c0,1 0,2 -1,4 -1,1 -2,2 -3,2 -2,1 -3,1 -5,1 -3,0 -5,-1 -7,-3 -2,-2 -3,-5 -3,-8l0 -1c0,-2 1,-4 2,-6 0,-1 2,-3 3,-4 2,-1 3,-1 5,-1 3,0 5,1 7,2 1,2 2,4 2,6l-3 0c0,-1 -1,-3 -2,-3 -1,-1 -2,-2 -4,-2 -2,0 -3,1 -4,2 -1,2 -2,4 -2,6l0 1c0,3 1,5 2,6 1,2 2,2 4,2z"/>
   <path id="5" class="fil14" d="M1101 68c1,-2 4,-3 6,-3 5,0 8,3 8,8l0 15 -4 0 0 -15c0,-2 -1,-3 -1,-4 -1,0 -2,-1 -4,-1 -1,0 -2,1 -3,1 -1,1 -2,2 -2,3l0 16 -4 0 0 -32 4 0 0 12z"/>
   <path id="6" class="fil14" d="M1130 88c-3,0 -6,-1 -8,-3 -2,-2 -3,-4 -3,-8l0 0c0,-3 1,-5 2,-6 1,-2 2,-4 3,-5 2,-1 3,-1 5,-1 3,0 5,1 7,3 2,2 3,5 3,8l0 2 -16 0c0,2 1,4 2,5 1,2 3,2 5,2 1,0 2,0 3,-1 1,0 2,-1 3,-2l2 2c-2,3 -5,4 -8,4zm-1 -20c-1,0 -3,1 -4,2 -1,1 -1,3 -2,5l12 0 0 -1c0,-2 -1,-3 -2,-4 -1,-1 -2,-2 -4,-2z"/>
   <path id="7" class="fil14" d="M1156 82c0,-1 0,-2 -1,-2 -1,-1 -2,-2 -4,-2 -2,0 -4,-1 -5,-1 -1,-1 -2,-2 -2,-3 -1,0 -1,-1 -1,-2 0,-2 1,-4 2,-5 2,-1 4,-2 6,-2 3,0 5,1 6,2 2,1 3,3 3,5l-4 0c0,-1 -1,-2 -1,-3 -1,0 -2,-1 -4,-1 -1,0 -2,0 -3,1 -1,1 -1,1 -1,2 0,1 0,2 1,3 1,0 2,0 4,1 2,0 3,1 4,1 2,1 3,2 3,3 1,0 1,1 1,3 0,2 -1,3 -2,5 -2,1 -4,1 -7,1 -2,0 -3,0 -5,-1 -1,0 -2,-1 -3,-2 -1,-1 -1,-3 -1,-4l4 0c0,1 1,2 1,3 1,1 3,1 4,1 2,0 3,0 4,-1 1,0 1,-1 1,-2z"/>
   <path class="fil14" d="M578 920l0 -30 10 0c4,0 6,0 8,2 1,1 2,3 2,6 0,1 0,2 -1,4 -1,1 -2,1 -3,2 1,1 3,1 4,3 1,1 1,3 1,4 0,3 -1,5 -3,7 -1,1 -4,2 -7,2l-11 0zm4 -14l0 11 7 0c2,0 3,-1 4,-2 2,-1 2,-2 2,-4 0,-3 -2,-5 -6,-5l-7 0zm0 -3l6 0c2,0 4,-1 5,-2 1,-1 1,-2 1,-3 0,-2 0,-3 -1,-4 -1,-1 -3,-1 -5,-1l-6 0 0 10z"/>
   <path id="1" class="fil14" d="M615 901c0,0 -1,0 -2,0 -2,0 -4,1 -5,3l0 16 -4 0 0 -23 4 0 0 3c1,-2 3,-3 6,-3 0,0 1,0 1,0l0 4z"/>
   <path id="2" class="fil14" d="M632 920c0,0 0,-1 -1,-2 -1,2 -4,2 -6,2 -2,0 -4,0 -5,-1 -2,-2 -3,-3 -3,-5 0,-3 1,-4 3,-6 2,-1 4,-2 8,-2l3 0 0 -1c0,-2 0,-3 -1,-4 -1,0 -2,-1 -3,-1 -2,0 -3,1 -4,1 -1,1 -1,2 -1,3l-4 0c0,-1 0,-2 1,-4 1,-1 2,-1 3,-2 2,-1 3,-1 5,-1 2,0 4,1 6,2 1,1 2,3 2,5l0 11c0,2 0,3 1,5l0 0 -4 0zm-6 -3c1,0 2,0 3,-1 1,0 2,-1 2,-2l0 -5 -3 0c-4,0 -7,2 -7,4 0,2 1,2 1,3 1,1 2,1 4,1z"/>
   <path id="3" class="fil14" d="M645 897l0 3c2,-2 4,-3 7,-3 5,0 7,3 7,8l0 15 -4 0 0 -15c0,-2 0,-3 -1,-3 -1,-1 -2,-2 -3,-2 -2,0 -3,1 -4,1 -1,1 -1,2 -2,3l0 16 -4 0 0 -23 4 0z"/>
   <path id="4" class="fil14" d="M674 917c1,0 3,0 4,-1 1,-1 1,-2 1,-3l4 0c0,1 -1,2 -1,4 -1,1 -2,2 -4,2 -1,1 -3,1 -4,1 -3,0 -6,-1 -7,-3 -2,-2 -3,-4 -3,-8l0 -1c0,-2 0,-4 1,-6 1,-1 2,-3 4,-4 1,0 3,-1 5,-1 2,0 5,1 6,2 2,2 3,4 3,6l-4 0c0,-1 0,-2 -1,-3 -1,-1 -3,-2 -4,-2 -2,0 -4,1 -5,2 -1,2 -1,4 -1,6l0 1c0,3 0,5 1,6 1,2 3,2 5,2z"/>
   <path id="5" class="fil14" d="M691 900c2,-2 4,-3 7,-3 5,0 7,3 7,8l0 15 -4 0 0 -15c0,-2 0,-3 -1,-3 -1,-1 -2,-2 -3,-2 -2,0 -3,1 -4,1 -1,1 -1,2 -2,3l0 16 -4 0 0 -32 4 0 0 12z"/>
   <path id="6" class="fil14" d="M720 920c-3,0 -5,-1 -7,-3 -2,-2 -3,-4 -3,-8l0 0c0,-3 0,-5 1,-6 1,-2 2,-3 4,-4 1,-1 3,-2 5,-2 3,0 5,1 7,3 1,2 2,5 2,8l0 2 -15 0c0,2 0,4 2,5 1,2 2,2 4,2 2,0 3,0 4,-1 1,0 2,-1 2,-2l3 2c-2,3 -5,4 -9,4zm0 -20c-2,0 -3,1 -4,2 -1,1 -2,3 -2,5l11 0 0 -1c0,-2 -1,-3 -1,-4 -1,-1 -3,-2 -4,-2z"/>
   <path id="7" class="fil14" d="M747 914c0,-1 -1,-2 -2,-2 0,-1 -2,-1 -4,-2 -2,0 -3,-1 -4,-1 -1,-1 -2,-2 -3,-2 0,-1 -1,-2 -1,-3 0,-2 1,-4 3,-5 1,-1 3,-2 6,-2 2,0 4,1 6,2 1,1 2,3 2,5l-4 0c0,-1 0,-2 -1,-3 -1,0 -2,-1 -3,-1 -2,0 -3,1 -4,1 0,1 -1,2 -1,3 0,0 1,1 1,2 1,0 2,1 4,1 2,0 4,1 5,2 1,0 2,1 3,2 0,1 0,2 0,3 0,2 0,3 -2,5 -2,1 -4,1 -6,1 -2,0 -4,0 -5,0 -1,-1 -3,-2 -3,-3 -1,-1 -1,-3 -1,-4l3 0c0,1 1,2 2,3 1,1 2,1 4,1 1,0 2,0 3,-1 1,0 2,-1 2,-2z"/>
   <path class="fil14" d="M1402 920l0 -30 10 0c3,0 6,0 8,2 1,1 2,3 2,6 0,1 0,2 -1,4 -1,1 -2,1 -3,2 1,1 2,1 3,3 1,1 2,3 2,4 0,3 -1,5 -3,7 -2,1 -4,2 -7,2l-11 0zm4 -14l0 11 7 0c2,0 3,-1 4,-2 1,-1 2,-2 2,-4 0,-3 -2,-5 -6,-5l-7 0zm0 -3l6 0c2,0 3,-1 4,-2 1,-1 2,-2 2,-3 0,-2 0,-3 -1,-4 -1,-1 -3,-1 -5,-1l-6 0 0 10z"/>
   <path id="1" class="fil14" d="M1439 901c-1,0 -1,0 -2,0 -2,0 -4,1 -5,3l0 16 -4 0 0 -23 4 0 0 3c1,-2 3,-3 5,-3 1,0 2,0 2,0l0 4z"/>
   <path id="2" class="fil14" d="M1456 920c0,0 -1,-1 -1,-2 -2,2 -4,2 -6,2 -2,0 -4,0 -6,-1 -1,-2 -2,-3 -2,-5 0,-3 1,-4 3,-6 2,-1 4,-2 7,-2l4 0 0 -1c0,-2 0,-3 -1,-4 -1,0 -2,-1 -4,-1 -1,0 -2,1 -3,1 -1,1 -2,2 -2,3l-3 0c0,-1 0,-2 1,-4 1,-1 2,-1 3,-2 1,-1 3,-1 5,-1 2,0 4,1 6,2 1,1 2,3 2,5l0 11c0,2 0,3 1,5l0 0 -4 0zm-7 -3c2,0 3,0 4,-1 1,0 2,-1 2,-2l0 -5 -3 0c-5,0 -7,2 -7,4 0,2 0,2 1,3 1,1 2,1 3,1z"/>
   <path id="3" class="fil14" d="M1469 897l0 3c2,-2 4,-3 7,-3 4,0 7,3 7,8l0 15 -4 0 0 -15c0,-2 0,-3 -1,-3 -1,-1 -2,-2 -4,-2 -1,0 -2,1 -3,1 -1,1 -2,2 -2,3l0 16 -4 0 0 -23 4 0z"/>
   <path id="4" class="fil14" d="M1498 917c1,0 2,0 3,-1 1,-1 2,-2 2,-3l4 0c0,1 -1,2 -2,4 -1,1 -2,2 -3,2 -1,1 -3,1 -4,1 -3,0 -6,-1 -8,-3 -1,-2 -2,-4 -2,-8l0 -1c0,-2 0,-4 1,-6 1,-1 2,-3 3,-4 2,0 4,-1 6,-1 2,0 4,1 6,2 2,2 3,4 3,6l-4 0c0,-1 -1,-2 -2,-3 -1,-1 -2,-2 -3,-2 -2,0 -4,1 -5,2 -1,2 -2,4 -2,6l0 1c0,3 1,5 2,6 1,2 3,2 5,2z"/>
   <path id="5" class="fil14" d="M1515 900c2,-2 4,-3 7,-3 4,0 7,3 7,8l0 15 -4 0 0 -15c0,-2 0,-3 -1,-3 -1,-1 -2,-2 -4,-2 -1,0 -2,1 -3,1 -1,1 -2,2 -2,3l0 16 -4 0 0 -32 4 0 0 12z"/>
   <path id="6" class="fil14" d="M1544 920c-3,0 -6,-1 -8,-3 -1,-2 -2,-4 -2,-8l0 0c0,-3 0,-5 1,-6 1,-2 2,-3 3,-4 2,-1 4,-2 5,-2 3,0 6,1 7,3 2,2 3,5 3,8l0 2 -16 0c0,2 1,4 2,5 2,2 3,2 5,2 2,0 3,0 4,-1 1,0 1,-1 2,-2l2 2c-1,3 -4,4 -8,4zm-1 -20c-1,0 -2,1 -3,2 -2,1 -2,3 -2,5l11 0 0 -1c0,-2 -1,-3 -2,-4 -1,-1 -2,-2 -4,-2z"/>
   <path id="7" class="fil14" d="M1570 914c0,-1 0,-2 -1,-2 -1,-1 -2,-1 -4,-2 -2,0 -3,-1 -5,-1 -1,-1 -2,-2 -2,-2 -1,-1 -1,-2 -1,-3 0,-2 1,-4 2,-5 2,-1 4,-2 6,-2 3,0 5,1 7,2 1,1 2,3 2,5l-4 0c0,-1 0,-2 -1,-3 -1,0 -2,-1 -4,-1 -1,0 -2,1 -3,1 -1,1 -1,2 -1,3 0,0 0,1 1,2 1,0 2,1 4,1 2,0 3,1 5,2 1,0 2,1 2,2 1,1 1,2 1,3 0,2 -1,3 -2,5 -2,1 -4,1 -6,1 -2,0 -4,0 -5,0 -2,-1 -3,-2 -4,-3 0,-1 -1,-3 -1,-4l4 0c0,1 1,2 2,3 1,1 2,1 4,1 1,0 2,0 3,-1 1,0 1,-1 1,-2z"/>
   <path class="fil14" d="M139 1871l0 -30 9 0c4,0 6,0 8,2 2,1 2,3 2,6 0,1 0,2 -1,4 -1,1 -2,1 -3,2 2,1 3,1 4,3 1,1 1,3 1,4 0,3 -1,5 -2,7 -2,1 -5,2 -8,2l-10 0zm4 -14l0 11 6 0c2,0 4,-1 5,-2 1,-1 1,-2 1,-4 0,-3 -2,-5 -6,-5l-6 0zm0 -3l6 0c1,0 3,-1 4,-2 1,-1 1,-2 1,-3 0,-2 0,-3 -1,-4 -1,-1 -3,-1 -5,-1l-5 0 0 10z"/>
   <path id="1" class="fil14" d="M175 1852c0,0 -1,0 -1,0 -3,0 -5,1 -6,3l0 16 -3 0 0 -23 3 0 0 3c2,-2 3,-3 6,-3 0,0 1,0 1,0l0 4z"/>
   <path id="2" class="fil14" d="M192 1871c0,0 0,-1 0,-2 -2,2 -4,2 -7,2 -2,0 -4,0 -5,-1 -2,-2 -2,-3 -2,-5 0,-3 0,-4 2,-6 2,-1 5,-2 8,-2l4 0 0 -1c0,-2 -1,-3 -2,-4 -1,0 -2,-1 -3,-1 -2,0 -3,1 -4,1 -1,1 -1,2 -1,3l-4 0c0,-1 0,-2 1,-4 1,-1 2,-1 3,-2 2,-1 3,-1 5,-1 3,0 5,1 6,2 2,1 2,3 2,5l0 11c0,2 1,3 1,5l0 0 -4 0zm-6 -3c1,0 2,0 3,-1 1,0 2,-1 3,-2l0 -5 -4 0c-4,0 -7,1 -7,4 0,2 1,2 2,3 0,1 1,1 3,1z"/>
   <path id="3" class="fil14" d="M205 1848l0 3c2,-2 4,-3 7,-3 5,0 7,3 7,8l0 15 -4 0 0 -15c0,-2 0,-3 -1,-3 -1,-1 -2,-2 -3,-2 -1,0 -3,1 -4,1 0,1 -1,2 -2,3l0 16 -4 0 0 -23 4 0z"/>
   <path id="4" class="fil14" d="M234 1868c1,0 3,0 4,-1 1,-1 1,-2 1,-3l4 0c0,1 0,2 -1,4 -1,1 -2,2 -4,2 -1,1 -2,1 -4,1 -3,0 -5,-1 -7,-3 -2,-2 -3,-4 -3,-8l0 -1c0,-2 0,-4 1,-6 1,-1 2,-3 4,-4 1,0 3,-1 5,-1 3,0 5,1 6,2 2,2 3,4 3,6l-4 0c0,-1 0,-2 -1,-3 -1,-1 -3,-2 -4,-2 -2,0 -3,1 -5,2 -1,2 -1,4 -1,6l0 1c0,3 0,5 1,6 2,2 3,2 5,2z"/>
   <path id="5" class="fil14" d="M251 1851c2,-2 4,-3 7,-3 5,0 7,3 7,8l0 15 -4 0 0 -15c0,-2 0,-3 -1,-3 -1,-1 -2,-2 -3,-2 -1,0 -3,1 -4,1 0,1 -1,2 -2,3l0 16 -4 0 0 -32 4 0 0 12z"/>
   <path id="6" class="fil14" d="M280 1871c-3,0 -5,-1 -7,-3 -2,-2 -3,-4 -3,-8l0 0c0,-3 0,-5 1,-6 1,-2 2,-3 4,-4 1,-1 3,-2 5,-2 3,0 5,1 7,3 1,2 2,5 2,8l0 2 -15 0c0,2 1,4 2,5 1,2 3,2 5,2 1,0 2,0 3,-1 1,0 2,-1 2,-2l3 2c-2,3 -5,4 -9,4zm0 -20c-2,0 -3,1 -4,2 -1,1 -2,3 -2,5l11 0 0 -1c0,-2 0,-3 -1,-4 -1,-1 -3,-2 -4,-2z"/>
   <path id="7" class="fil14" d="M307 1865c0,-1 -1,-2 -1,-2 -1,-1 -3,-1 -5,-2 -2,0 -3,-1 -4,-1 -1,-1 -2,-2 -3,-2 0,-1 -1,-2 -1,-3 0,-2 1,-4 3,-5 1,-1 3,-2 6,-2 2,0 4,1 6,2 2,1 2,3 2,5l-4 0c0,-1 0,-2 -1,-3 -1,0 -2,-1 -3,-1 -2,0 -3,1 -4,1 0,1 -1,2 -1,3 0,0 1,1 1,2 1,0 2,1 4,1 2,0 4,1 5,2 1,0 2,1 3,2 0,1 1,2 1,3 0,2 -1,3 -3,5 -1,1 -4,1 -6,1 -2,0 -4,0 -5,0 -1,-1 -2,-2 -3,-3 -1,-1 -1,-3 -1,-4l3 0c1,1 1,2 2,3 1,1 2,1 4,1 1,0 3,0 3,-1 1,0 2,-1 2,-2z"/>
   <path class="fil14" d="M1000 1871l0 -30 10 0c3,0 6,0 7,2 2,1 3,3 3,6 0,1 -1,2 -2,4 0,1 -1,1 -3,2 2,1 3,1 4,3 1,1 1,3 1,4 0,3 0,5 -2,7 -2,1 -4,2 -8,2l-10 0zm4 -14l0 11 6 0c2,0 4,-1 5,-2 1,-1 1,-2 1,-4 0,-3 -2,-5 -6,-5l-6 0zm0 -3l6 0c2,0 3,-1 4,-2 1,-1 2,-2 2,-3 0,-2 -1,-3 -2,-4 -1,-1 -2,-1 -4,-1l-6 0 0 10z"/>
   <path id="1" class="fil14" d="M1037 1852c-1,0 -1,0 -2,0 -3,0 -4,1 -5,3l0 16 -4 0 0 -23 4 0 0 3c1,-2 3,-3 5,-3 1,0 1,0 2,0l0 4z"/>
   <path id="2" class="fil14" d="M1053 1871c0,0 0,-1 0,-2 -2,2 -4,2 -7,2 -2,0 -4,0 -5,-1 -1,-2 -2,-3 -2,-5 0,-3 1,-4 2,-6 2,-1 5,-2 8,-2l4 0 0 -1c0,-2 -1,-3 -1,-4 -1,0 -2,-1 -4,-1 -1,0 -3,1 -3,1 -1,1 -2,2 -2,3l-4 0c0,-1 1,-2 1,-4 1,-1 2,-1 4,-2 1,-1 3,-1 4,-1 3,0 5,1 6,2 2,1 3,3 3,5l0 11c0,2 0,3 0,5l0 0 -4 0zm-6 -3c1,0 2,0 3,-1 2,0 2,-1 3,-2l0 -5 -3 0c-5,0 -7,1 -7,4 0,2 0,2 1,3 1,1 2,1 3,1z"/>
   <path id="3" class="fil14" d="M1066 1848l0 3c2,-2 4,-3 7,-3 5,0 7,3 7,8l0 15 -3 0 0 -15c0,-2 -1,-3 -2,-3 0,-1 -1,-2 -3,-2 -1,0 -2,1 -3,1 -1,1 -2,2 -2,3l0 16 -4 0 0 -23 3 0z"/>
   <path id="4" class="fil14" d="M1095 1868c2,0 3,0 4,-1 1,-1 2,-2 2,-3l3 0c0,1 0,2 -1,4 -1,1 -2,2 -3,2 -2,1 -3,1 -5,1 -3,0 -5,-1 -7,-3 -2,-2 -3,-4 -3,-8l0 -1c0,-2 1,-4 1,-6 1,-1 2,-3 4,-4 1,0 3,-1 5,-1 3,0 5,1 7,2 1,2 2,4 2,6l-3 0c0,-1 -1,-2 -2,-3 -1,-1 -2,-2 -4,-2 -2,0 -3,1 -4,2 -1,2 -2,4 -2,6l0 1c0,3 1,5 2,6 1,2 2,2 4,2z"/>
   <path id="5" class="fil14" d="M1113 1851c1,-2 3,-3 6,-3 5,0 7,3 7,8l0 15 -3 0 0 -15c0,-2 -1,-3 -2,-3 0,-1 -1,-2 -3,-2 -1,0 -2,1 -3,1 -1,1 -2,2 -2,3l0 16 -4 0 0 -32 4 0 0 12z"/>
   <path id="6" class="fil14" d="M1142 1871c-3,0 -6,-1 -8,-3 -2,-2 -3,-4 -3,-8l0 0c0,-3 1,-5 2,-6 0,-2 2,-3 3,-4 2,-1 3,-2 5,-2 3,0 5,1 7,3 2,2 2,5 2,8l0 2 -15 0c0,2 1,4 2,5 1,2 3,2 5,2 1,0 2,0 3,-1 1,0 2,-1 3,-2l2 2c-2,3 -5,4 -8,4zm-1 -20c-1,0 -3,1 -4,2 -1,1 -2,3 -2,5l12 0 0 -1c-1,-2 -1,-3 -2,-4 -1,-1 -2,-2 -4,-2z"/>
   <path id="7" class="fil14" d="M1168 1865c0,-1 0,-2 -1,-2 -1,-1 -2,-1 -4,-2 -2,0 -4,-1 -5,-1 -1,-1 -2,-2 -2,-2 -1,-1 -1,-2 -1,-3 0,-2 0,-4 2,-5 2,-1 4,-2 6,-2 3,0 5,1 6,2 2,1 3,3 3,5l-4 0c0,-1 -1,-2 -2,-3 0,0 -2,-1 -3,-1 -1,0 -2,1 -3,1 -1,1 -1,2 -1,3 0,0 0,1 1,2 0,0 2,1 4,1 2,0 3,1 4,2 2,0 2,1 3,2 1,1 1,2 1,3 0,2 -1,3 -3,5 -1,1 -3,1 -6,1 -2,0 -3,0 -5,0 -1,-1 -2,-2 -3,-3 -1,-1 -1,-3 -1,-4l4 0c0,1 0,2 1,3 1,1 3,1 4,1 2,0 3,0 4,-1 1,0 1,-1 1,-2z"/>
   <path class="fil14" d="M1865 1871l0 -30 10 0c3,0 6,0 8,2 1,1 2,3 2,6 0,1 0,2 -1,4 -1,1 -2,1 -3,2 1,1 2,1 3,3 1,1 2,3 2,4 0,3 -1,5 -3,7 -2,1 -4,2 -7,2l-11 0zm4 -14l0 11 7 0c2,0 3,-1 4,-2 1,-1 2,-2 2,-4 0,-3 -2,-5 -6,-5l-7 0zm0 -3l6 0c2,0 3,-1 4,-2 1,-1 2,-2 2,-3 0,-2 0,-3 -1,-4 -1,-1 -3,-1 -5,-1l-6 0 0 10z"/>
   <path id="1" class="fil14" d="M1902 1852c0,0 -1,0 -2,0 -2,0 -4,1 -5,3l0 16 -4 0 0 -23 4 0 0 3c1,-2 3,-3 5,-3 1,0 2,0 2,0l0 4z"/>
   <path id="2" class="fil14" d="M1919 1871c0,0 -1,-1 -1,-2 -2,2 -4,2 -6,2 -2,0 -4,0 -6,-1 -1,-2 -2,-3 -2,-5 0,-3 1,-4 3,-6 2,-1 4,-2 7,-2l4 0 0 -1c0,-2 0,-3 -1,-4 -1,0 -2,-1 -4,-1 -1,0 -2,1 -3,1 -1,1 -1,2 -1,3l-4 0c0,-1 0,-2 1,-4 1,-1 2,-1 3,-2 1,-1 3,-1 5,-1 2,0 4,1 6,2 1,1 2,3 2,5l0 11c0,2 0,3 1,5l0 0 -4 0zm-7 -3c2,0 3,0 4,-1 1,0 2,-1 2,-2l0 -5 -3 0c-5,0 -7,1 -7,4 0,2 0,2 1,3 1,1 2,1 3,1z"/>
   <path id="3" class="fil14" d="M1932 1848l0 3c2,-2 4,-3 7,-3 4,0 7,3 7,8l0 15 -4 0 0 -15c0,-2 0,-3 -1,-3 -1,-1 -2,-2 -4,-2 -1,0 -2,1 -3,1 -1,1 -2,2 -2,3l0 16 -4 0 0 -23 4 0z"/>
   <path id="4" class="fil14" d="M1961 1868c1,0 2,0 3,-1 1,-1 2,-2 2,-3l4 0c0,1 -1,2 -2,4 0,1 -2,2 -3,2 -1,1 -3,1 -4,1 -3,0 -6,-1 -8,-3 -1,-2 -2,-4 -2,-8l0 -1c0,-2 0,-4 1,-6 1,-1 2,-3 3,-4 2,0 4,-1 6,-1 2,0 4,1 6,2 2,2 3,4 3,6l-4 0c0,-1 -1,-2 -2,-3 -1,-1 -2,-2 -3,-2 -2,0 -4,1 -5,2 -1,2 -2,4 -2,6l0 1c0,3 1,5 2,6 1,2 3,2 5,2z"/>
   <path id="5" class="fil14" d="M1978 1851c2,-2 4,-3 7,-3 4,0 7,3 7,8l0 15 -4 0 0 -15c0,-2 0,-3 -1,-3 -1,-1 -2,-2 -4,-2 -1,0 -2,1 -3,1 -1,1 -2,2 -2,3l0 16 -4 0 0 -32 4 0 0 12z"/>
   <path id="6" class="fil14" d="M2007 1871c-3,0 -6,-1 -8,-3 -1,-2 -2,-4 -2,-8l0 0c0,-3 0,-5 1,-6 1,-2 2,-3 3,-4 2,-1 4,-2 5,-2 3,0 6,1 7,3 2,2 3,5 3,8l0 2 -16 0c1,2 1,4 2,5 2,2 3,2 5,2 2,0 3,0 4,-1 1,0 1,-1 2,-2l2 2c-1,3 -4,4 -8,4zm-1 -20c-1,0 -2,1 -3,2 -2,1 -2,3 -2,5l11 0 0 -1c0,-2 -1,-3 -2,-4 -1,-1 -2,-2 -4,-2z"/>
   <path id="7" class="fil14" d="M2033 1865c0,-1 0,-2 -1,-2 -1,-1 -2,-1 -4,-2 -2,0 -3,-1 -5,-1 -1,-1 -2,-2 -2,-2 -1,-1 -1,-2 -1,-3 0,-2 1,-4 2,-5 2,-1 4,-2 6,-2 3,0 5,1 7,2 1,1 2,3 2,5l-4 0c0,-1 0,-2 -1,-3 -1,0 -2,-1 -4,-1 -1,0 -2,1 -3,1 -1,1 -1,2 -1,3 0,0 0,1 1,2 1,0 2,1 4,1 2,0 4,1 5,2 1,0 2,1 2,2 1,1 1,2 1,3 0,2 -1,3 -2,5 -2,1 -4,1 -6,1 -2,0 -4,0 -5,0 -2,-1 -3,-2 -4,-3 0,-1 -1,-3 -1,-4l4 0c0,1 1,2 2,3 1,1 2,1 4,1 1,0 2,0 3,-1 1,0 1,-1 1,-2z"/>
  </g>
 </g>
</svg>
