<?xml version="1.0" encoding="UTF-8"?>
<!DOCTYPE svg PUBLIC "-//W3C//DTD SVG 1.1//EN" "http://www.w3.org/Graphics/SVG/1.1/DTD/svg11.dtd">
<!-- Creator: CorelDRAW X7 -->
<svg xmlns="http://www.w3.org/2000/svg" xml:space="preserve" width="4.321in" height="4.144in" version="1.1" style="shape-rendering:geometricPrecision; text-rendering:geometricPrecision; image-rendering:optimizeQuality; fill-rule:evenodd; clip-rule:evenodd"
viewBox="0 0 4321 4144"
 xmlns:xlink="http://www.w3.org/1999/xlink">
 <defs>
  <style type="text/css">
   <![CDATA[
    .str8 {stroke:#373435;stroke-width:20.8346}
    .str9 {stroke:#333333;stroke-width:20.8346}
    .str4 {stroke:#FFEEBA;stroke-width:92.5945}
    .str6 {stroke:#201F4C;stroke-width:49.6693;stroke-linecap:round}
    .str1 {stroke:#333333;stroke-width:20.8346;stroke-linecap:round}
    .str5 {stroke:#333333;stroke-width:23.2323;stroke-linecap:round;stroke-linejoin:round}
    .str0 {stroke:#333333;stroke-width:10.4173;stroke-linecap:round;stroke-linejoin:round}
    .str7 {stroke:#201F4C;stroke-width:20.8346;stroke-linecap:round;stroke-linejoin:round}
    .str2 {stroke:#333333;stroke-width:20.8346;stroke-linecap:round;stroke-linejoin:round}
    .str3 {stroke:#333333;stroke-width:23.1496;stroke-linecap:round;stroke-linejoin:round}
    .fil5 {fill:none;fill-rule:nonzero}
    .fil3 {fill:#0E2249;fill-rule:nonzero}
    .fil11 {fill:#201F4C;fill-rule:nonzero}
    .fil4 {fill:#333333;fill-rule:nonzero}
    .fil6 {fill:#994436;fill-rule:nonzero}
    .fil12 {fill:#9AACC0;fill-rule:nonzero}
    .fil7 {fill:#CF8906;fill-rule:nonzero}
    .fil10 {fill:#FF457A;fill-rule:nonzero}
    .fil1 {fill:#FFA191;fill-rule:nonzero}
    .fil0 {fill:#FFC14E;fill-rule:nonzero}
    .fil8 {fill:#FFEEBA;fill-rule:nonzero}
    .fil2 {fill:white;fill-rule:nonzero}
    .fil9 {fill:#FF457A;fill-rule:nonzero;fill-opacity:0.458824}
   ]]>
  </style>
 </defs>
 <g id="Layer_x0020_1">
  <metadata id="CorelCorpID_0Corel-Layer"/>
  <g id="_779351888">
   <path class="fil0" d="M2042 940c-18,137 -9,282 -71,406 -23,47 -55,88 -77,135 -69,146 -27,328 79,450 105,122 264,189 424,210 89,12 182,12 267,-16 79,-26 151,-74 232,-91 86,-19 177,-1 259,33 122,51 228,138 355,176 147,45 313,18 446,-60 347,-204 439,-656 308,-1016 -66,-182 -178,-356 -313,-494 -160,-164 -311,-340 -497,-475 -208,-150 -477,-244 -721,-169 -364,112 -644,550 -691,911z"/>
   <path class="fil1" d="M2229 1620l149 -292 241 209 65 665 -67 9c-51,7 -100,-19 -123,-64l-265 -527z"/>
   <path class="fil2" d="M2489 1086l347 -98 448 7c0,0 275,43 361,167 28,41 38,216 0,359 -39,142 -79,935 -79,935 0,0 -381,126 -711,36 -331,-91 -328,-164 -328,-164l133 -143 -87 -569 -261 -159c0,0 76,-326 177,-371z"/>
   <path class="fil1" d="M3129 681c0,0 29,211 85,253 56,42 87,67 87,67 0,0 -289,136 -480,-8l55 -26 -9 -220 262 -66z"/>
   <polygon class="fil3" points="2117,1521 1995,1162 2242,1089 2385,1555 "/>
   <path class="fil1" d="M3199 1517c0,0 139,1 362,113l-240 625 -108 52c0,0 -240,14 -755,-585l-296 -41 -49 -91c0,0 -80,-111 -76,-122 3,-10 38,-59 38,-59l28 56 275 76c0,0 -42,-125 -42,-163 0,-38 205,247 205,247 0,0 453,254 568,327l90 -435z"/>
   <path class="fil4" d="M3135 708c-1,-5 -2,-9 -2,-12l-183 31 -81 20 5 139c201,14 251,-134 261,-178z"/>
   <path class="fil1" d="M2652 426c25,149 113,440 263,425 158,-17 229,-111 239,-261 0,0 82,22 68,-85 -6,-47 -57,-18 -57,-18 0,0 59,-397 -190,-410 -249,-12 -358,145 -323,349z"/>
   <path class="fil4" d="M2924 416c-4,3 -8,6 -13,8 -5,1 -10,0 -14,-5 -4,-6 -2,-17 2,-24 8,-14 23,-19 37,-23 14,-4 28,-8 42,-7 15,1 29,7 40,20 1,2 2,3 3,6 0,3 -2,5 -5,6 -2,1 -4,1 -7,0 -29,-5 -59,2 -85,19z"/>
   <path class="fil4" d="M2777 446c5,1 9,3 14,3 4,-1 8,-4 9,-9 2,-8 -4,-17 -10,-22 -12,-10 -25,-11 -38,-10 -13,1 -26,2 -38,8 -11,6 -21,16 -25,32 -1,2 -1,4 0,6 1,3 3,5 5,5 3,0 4,-2 6,-3 23,-15 50,-18 77,-10z"/>
   <path class="fil5 str0" d="M2851 520c9,34 1,70 -7,104 -1,3 -2,7 0,10 1,1 2,2 3,3 7,5 15,7 23,8 11,0 25,-4 33,3"/>
   <path class="fil4" d="M2744 524c-5,-25 2,-48 15,-50 13,-2 27,16 32,41 4,26 -2,48 -15,50 -13,3 -27,-16 -32,-41z"/>
   <path class="fil4" d="M2945 497c-5,-25 2,-48 15,-50 13,-2 27,16 32,41 4,26 -2,48 -15,50 -13,3 -27,-16 -32,-41z"/>
   <path class="fil2" d="M2811 698c0,0 101,11 190,-29 0,0 -25,79 -88,85 -62,6 -102,-56 -102,-56z"/>
   <path class="fil5 str1" d="M2895 769c0,0 15,12 48,-5"/>
   <path class="fil6" d="M2582 310c-14,-8 -32,-15 -35,-30 -3,-15 11,-28 24,-36 13,-7 29,-13 37,-26 -32,-1 -50,-41 -41,-71 7,-27 29,-48 53,-61 25,-13 53,-19 80,-23 52,-8 104,-12 157,-12 44,0 92,2 126,-27 9,-8 17,-18 29,-23 19,-6 40,8 49,26 8,18 7,39 6,59 20,-9 44,-15 64,-4 19,10 26,42 7,53 -6,4 -14,6 -16,13 -3,7 4,14 10,20 46,43 75,105 78,168 2,64 -21,128 -64,175 -24,-53 -55,-101 -80,-152 -25,-51 -44,-108 -40,-165 -92,79 -218,106 -339,102 -9,0 -19,0 -26,6 -7,7 -8,18 -8,27 -1,36 -2,72 -3,108 6,-51 -23,-104 -68,-127z"/>
   <path class="fil5 str2" d="M3153 484c-54,-104 -92,-217 -113,-332 2,12 -43,32 -51,37 -29,16 -61,30 -93,40 -85,25 -172,24 -260,30 -13,1 -26,2 -35,10 -9,7 -12,24 -3,31"/>
   <path class="fil5 str2" d="M2616 208c43,-29 98,-27 150,-26 76,0 155,-3 222,-38"/>
   <polyline class="fil5 str3" points="2264,1697 2458,1722 2613,1895 "/>
   <polyline class="fil5 str3" points="2505,1575 2541,1625 2578,1645 "/>
   <line class="fil5 str3" x1="3637" y1="1553" x2="3596" y2= "1645" />
   <path class="fil5 str3" d="M3596 1645c0,0 -229,-122 -429,-128"/>
   <line class="fil5 str3" x1="3167" y1="1517" x2="3210" y2= "1375" />
   <line class="fil5 str3" x1="2573" y1="1616" x2="2616" y2= "1399" />
   <path class="fil7" d="M1721 858c-158,-28 -264,-179 -236,-337 28,-157 178,-263 336,-235 158,28 263,178 236,336 -28,158 -179,263 -336,236z"/>
   <polygon class="fil7" points="1860,783 2113,913 1985,651 "/>
   <g>
    <g>
     <path class="fil2" d="M1715 673c-2,-5 -3,-10 -4,-16 -1,-6 -1,-11 -1,-17 0,-8 0,-15 2,-22 2,-7 4,-14 7,-20 3,-6 8,-11 12,-17 5,-5 11,-11 17,-16 7,-6 13,-11 18,-16 5,-5 10,-10 13,-15 4,-5 7,-10 9,-15 1,-6 2,-12 2,-18 0,-6 -1,-11 -3,-16 -2,-4 -5,-9 -8,-12 -4,-3 -8,-6 -14,-8 -5,-2 -11,-3 -17,-3 -14,0 -29,3 -44,9 -15,6 -30,14 -43,26l0 -81c14,-8 29,-14 45,-19 17,-4 34,-6 51,-6 17,0 32,2 47,6 14,4 27,9 37,17 11,8 19,18 25,31 6,12 9,27 9,44 0,11 -1,21 -3,30 -3,9 -6,17 -11,25 -5,8 -11,16 -18,23 -8,7 -16,15 -25,22 -7,6 -12,10 -17,15 -5,4 -9,9 -12,13 -3,5 -5,9 -7,14 -2,5 -2,11 -2,17 0,5 0,9 1,13 2,5 3,9 5,12l-71 0zm40 118l0 0c-15,0 -27,-4 -36,-13 -10,-9 -15,-20 -15,-32 0,-12 5,-23 15,-31 9,-9 21,-13 36,-13 14,0 26,4 35,13 9,8 14,18 14,31 0,13 -5,24 -14,32 -9,9 -21,13 -35,13z"/>
    </g>
   </g>
   <path class="fil1" d="M2095 1213c1,5 7,6 11,9 8,5 9,16 7,25 -1,9 -4,19 -2,28 1,6 4,11 7,16 9,23 -3,49 -15,69 -11,18 -23,36 -36,52 -2,3 -4,6 -8,7 -8,4 -17,-4 -19,-12 -3,-9 -3,-18 -6,-26 -5,-14 -19,-22 -27,-34 -9,-13 -11,-31 -9,-47 3,-16 10,-31 17,-45 17,-35 37,-69 60,-101 1,-2 3,-4 5,-5 5,-2 10,3 12,8 8,14 10,32 4,47 -1,3 -2,6 -1,9z"/>
   <path class="fil0" d="M1450 3922c134,-59 261,-147 407,-159 55,-4 110,2 164,-4 170,-17 313,-155 366,-318 52,-162 25,-342 -43,-499 -37,-88 -89,-171 -161,-234 -67,-57 -149,-96 -209,-160 -65,-68 -98,-160 -112,-253 -21,-138 0,-282 -35,-418 -40,-158 -155,-293 -299,-371 -375,-203 -835,-39 -1089,277 -129,160 -226,356 -277,555 -61,234 -138,468 -158,710 -22,271 40,566 242,746 301,268 851,283 1204,128z"/>
   <path class="fil5 str4" d="M1370 1869c108,90 201,198 263,324 29,58 55,120 57,184 1,26 -3,52 -15,74 -20,36 -61,60 -68,101 -7,34 14,67 34,96 38,55 77,111 102,174 24,62 33,134 9,197 -20,52 -60,94 -93,139"/>
   <path class="fil8" d="M797 2520c-69,137 -283,81 -391,184 -67,65 -88,171 -63,261 57,209 307,303 502,335 260,42 803,73 870,-281 16,-81 -4,-168 -49,-237 -42,-63 -142,-123 -119,-211 14,-56 70,-90 88,-146 23,-69 4,-146 -25,-211 -72,-159 -161,-370 -360,-390 -126,-13 -263,41 -345,138 -73,87 -81,201 -81,309 -1,81 8,178 -27,249z"/>
   <path class="fil4" d="M1476 2194c-18,0 -66,0 -84,0 -26,0 -47,59 -47,132 0,72 21,131 47,131 18,0 66,0 84,0 26,0 47,-59 47,-131 0,-73 -21,-132 -47,-132z"/>
   <g>
    <g>
     <path class="fil1" d="M1093 2446c0,0 8,337 -2,363 -10,27 -106,69 -106,69 0,0 204,172 455,7 0,0 -64,-53 -73,-73 -9,-20 -17,-240 -17,-240l-257 -126z"/>
     <path class="fil4" d="M1354 2630c0,-19 -4,-58 -4,-58l-166 -81 -90 -6 0 1c0,10 0,21 0,34 28,28 110,128 184,129 31,0 56,-7 76,-19z"/>
     <path class="fil1" d="M1493 2152c18,315 -126,446 -195,450 -88,5 -241,-69 -274,-209 0,0 -109,-4 -115,-67 -12,-115 72,-52 72,-52 0,0 -143,-289 139,-389 226,-81 358,9 373,267z"/>
     <path class="fil4" d="M1126 2198c2,-8 15,-8 20,-10 12,-3 24,-4 36,-2 9,2 19,5 28,8 6,3 17,8 23,2 3,-3 3,-11 0,-16 -7,-12 -23,-14 -33,-17 -29,-6 -61,-3 -74,35z"/>
     <path class="fil4" d="M1454 2195c-2,-8 -15,-8 -20,-10 -12,-3 -24,-4 -36,-2 -9,2 -19,5 -28,8 -6,3 -17,8 -23,2 -3,-3 -2,-11 0,-16 7,-12 23,-14 33,-17 29,-6 61,-3 74,35z"/>
     <path class="fil9" d="M1113 2350c0,-14 22,-25 49,-24 28,1 50,12 49,26 0,14 -22,25 -50,24 -27,0 -49,-12 -48,-26z"/>
     <path class="fil9" d="M1377 2349c0,-14 20,-25 44,-25 24,1 44,13 44,26 -1,14 -21,25 -45,24 -24,0 -43,-12 -43,-25z"/>
     <path class="fil4" d="M1294 2393c17,-1 28,-20 29,-20 0,-1 0,-3 0,-4 -28,-49 -23,-106 -23,-106 0,-2 -2,-4 -3,-4 -2,0 -4,1 -4,3 0,2 -5,58 23,109 -3,4 -11,14 -23,15 0,0 0,0 -1,0 -2,0 -3,2 -3,4 0,2 2,3 4,3 0,0 1,0 1,0z"/>
     <path class="fil10" d="M1353 2456l-47 -30 -15 10 -14 -10 -72 29c0,0 21,74 80,77 49,2 68,-76 68,-76z"/>
     <path class="fil2" d="M1353 2455l-148 -1c0,0 43,45 84,47 40,2 64,-46 64,-46z"/>
     <path class="fil4" d="M1424 2254c0,-26 -11,-47 -25,-47 -15,0 -26,21 -26,47 0,26 11,48 26,48 14,0 25,-22 25,-48z"/>
     <path class="fil4" d="M1216 2254c0,-26 -11,-47 -26,-47 -14,0 -25,21 -25,47 0,26 11,48 25,48 15,0 26,-22 26,-48z"/>
    </g>
   </g>
   <path class="fil2" d="M1362 2750l99 80 268 101 123 454 43 -77 117 164c0,0 11,211 -131,326 0,0 -123,2 -145,-7 -21,-10 -115,-292 -115,-292l-43 34 -40 351 56 125c0,0 -268,302 -786,3l92 -102c35,-34 37,-84 26,-132l-69 -294 -70 233 505 32c0,0 30,280 -53,228 -4,-2 -490,-11 -682,-14 -41,-1 -72,-38 -65,-78 35,-211 135,-798 188,-922l305 -120 101 -76c0,0 124,100 178,107 0,0 85,-50 98,-124z"/>
   <path class="fil5 str2" d="M985 2843c0,0 77,174 208,179"/>
   <polyline class="fil5 str2" points="1193,3022 1264,2874 1386,2994 "/>
   <path class="fil5 str2" d="M1386 2994c0,0 71,-55 75,-164"/>
   <path class="fil5 str2" d="M680 2963c0,0 230,37 227,321"/>
   <line class="fil5 str2" x1="907" y1="3284" x2="858" y2= "3496" />
   <path class="fil5 str5" d="M1299 2909c0,0 153,302 98,1194"/>
   <path class="fil8" d="M1276 1841c-83,-7 -170,10 -239,56 -28,18 -52,41 -76,64 -12,11 -24,23 -32,38 -12,20 -15,44 -18,66 -3,26 -6,51 -7,77 -1,32 4,68 30,86 18,13 41,51 60,63 50,-51 254,-244 294,-310 64,96 227,229 243,251 46,-88 -26,-190 -71,-265 -26,-45 -60,-88 -108,-109 -24,-11 -50,-15 -76,-17z"/>
   <path class="fil5 str5" d="M1242 2920c0,0 187,394 99,1189"/>
   <path class="fil5 str2" d="M1729 2931c0,0 -81,38 -122,196"/>
   <line class="fil5 str2" x1="1607" y1="3127" x2="1695" y2= "3368" />
   <path class="fil5 str2" d="M1695 3368c0,0 -28,144 -141,172"/>
   <path class="fil4" d="M1295 3442c0,0 -172,205 -340,20 0,0 144,240 340,-20z"/>
   <path class="fil11" d="M1852 3385c0,0 -78,97 -96,149 0,0 6,-55 73,-151l-58 47c0,0 40,-53 74,-70l7 25z"/>
   <path class="fil4" d="M1297 2938c0,-8 -7,-14 -15,-13 -7,0 -13,7 -13,14 1,8 7,14 15,14 8,-1 13,-8 13,-15z"/>
   <path class="fil4" d="M1331 3050c0,-8 -7,-13 -15,-13 -7,1 -13,7 -13,15 1,8 7,13 15,13 8,-1 14,-7 13,-15z"/>
   <path class="fil4" d="M1357 3164c-1,-8 -7,-14 -15,-13 -8,0 -14,7 -13,14 0,8 7,14 15,13 7,0 13,-7 13,-14z"/>
   <path class="fil4" d="M1372 3257c-1,-7 -7,-13 -15,-13 -8,1 -14,7 -13,15 0,8 7,13 15,13 7,0 13,-7 13,-15z"/>
   <path class="fil4" d="M1385 3362c-1,-8 -7,-14 -15,-14 -8,1 -14,8 -13,15 0,8 7,14 15,13 7,0 13,-7 13,-14z"/>
   <path class="fil4" d="M1394 3474c0,-8 -7,-13 -15,-13 -7,0 -13,7 -13,15 1,7 7,13 15,13 8,-1 14,-7 13,-15z"/>
   <path class="fil4" d="M1400 3588c-1,-8 -7,-13 -15,-13 -8,1 -14,7 -13,15 0,8 7,13 15,13 7,-1 13,-7 13,-15z"/>
   <path class="fil4" d="M1399 3712c0,-8 -7,-14 -15,-13 -7,0 -13,7 -13,15 1,7 7,13 15,13 8,-1 14,-7 13,-15z"/>
   <path class="fil4" d="M1401 3836c0,-8 -7,-14 -14,-14 -8,1 -14,8 -13,15 0,8 7,14 14,13 8,0 14,-7 13,-14z"/>
   <path class="fil4" d="M1391 3976c0,-8 -7,-14 -15,-13 -7,0 -13,7 -13,15 1,7 7,13 15,13 8,-1 14,-7 13,-15z"/>
   <path class="fil5 str4" d="M952 1927c-68,34 -109,107 -127,180 -18,74 -17,150 -24,226 -5,64 -18,132 -59,182 -100,122 -315,87 -417,208 -20,23 -34,50 -46,78 -14,34 -27,70 -31,107 -6,51 4,103 28,148 30,59 83,103 141,135 58,32 121,53 184,73"/>
   <path class="fil5 str6" d="M1290 1954c59,91 157,145 224,230 67,84 99,212 18,300 -40,43 -96,66 -109,129 -21,98 89,135 87,223"/>
   <path class="fil5 str6" d="M1500 2216c20,43 35,83 41,131 3,31 0,64 -15,92 -42,80 -156,93 -164,197 -4,61 45,91 54,145"/>
   <path class="fil5 str7" d="M1290 1951c-45,55 -96,106 -153,150 -46,36 -113,64 -131,124 -20,68 -13,141 -23,211 -11,68 -39,133 -83,186 -74,91 -173,112 -276,156 -67,28 -134,76 -152,147 -17,70 23,145 87,177"/>
   <g>
    <path class="fil4 str8" d="M1039 2175c0,0 -26,-232 9,-324 0,0 -46,20 -80,46 0,0 -39,142 11,281l60 -3z"/>
    <path class="fil5 str9" d="M1004 2392c0,0 -29,145 76,145 104,0 117,-21 117,-21"/>
    <path class="fil4 str8" d="M1182 2482c18,0 34,16 34,34 0,19 -16,35 -34,35 -19,0 -35,-16 -35,-35 0,-18 16,-34 35,-34z"/>
    <path class="fil4 str8" d="M1036 2167c-18,0 -65,0 -83,0 -26,0 -47,59 -47,131 0,73 21,132 47,132 18,0 65,0 83,0 27,0 48,-59 48,-132 0,-72 -21,-131 -48,-131z"/>
    <g>
     <path class="fil2 str8" d="M960 2167c25,5 45,62 45,132 0,67 -19,122 -43,131 2,0 3,0 5,0 23,-13 40,-67 40,-131 0,-66 -18,-121 -42,-132 -1,0 -2,0 -3,0 -1,0 -1,0 -2,0z"/>
     <path class="fil2 str8" d="M1032 2430c19,-31 32,-78 32,-130 0,-54 -14,-103 -35,-133 -1,0 -2,0 -3,0 21,30 35,78 35,133 0,53 -13,99 -33,130 2,0 3,0 4,0z"/>
    </g>
   </g>
   <path class="fil5 str7" d="M1012 2396c14,122 -22,252 -107,340 -44,44 -97,76 -152,104 -33,17 -66,33 -95,56 -28,23 -52,54 -58,90 -6,36 9,77 42,94"/>
   <path class="fil1" d="M1250 3763l113 9 204 -69 127 53 71 102 -92 21 -39 7 -60 -56 43 60c0,0 7,17 -25,4 -31,-13 -58,-48 -58,-48 0,0 -91,48 -171,35l-132 -3 19 -115z"/>
   <polyline class="fil5 str2" points="847,3968 1213,3953 1250,3747 911,3729 "/>
   <path class="fil7" d="M2235 2740c158,-28 263,-178 235,-336 -27,-158 -178,-263 -336,-235 -158,27 -263,178 -235,336 28,158 178,263 336,235z"/>
   <polygon class="fil7" points="2095,2666 1842,2796 1971,2533 "/>
   <g>
    <path class="fil2" d="M2181 2328c-15,0 -28,-5 -38,-14 -9,-9 -14,-20 -14,-33 0,-14 5,-25 14,-33 10,-9 23,-13 38,-13 16,0 28,4 38,13 10,8 14,19 14,33 0,14 -4,25 -14,34 -10,9 -22,13 -38,13zm45 341l0 0 -91 0 0 -294 91 0 0 294z"/>
   </g>
   <g>
    <g>
     <polygon class="fil12" points="1197,3999 1902,3989 1901,3914 1196,3924 "/>
     <polygon class="fil12" points="2896,3169 1790,3184 1648,3993 2754,3977 "/>
     <polygon class="fil4" points="1836,3184 2896,3170 2896,3169 1790,3184 1648,3993 1694,3992 "/>
    </g>
    <path class="fil2" d="M2404 3551c-1,-53 -44,-95 -97,-94 -52,1 -94,44 -93,96 0,53 43,95 96,94 52,-1 94,-44 94,-96z"/>
   </g>
  </g>
 </g>
</svg>
