<?xml version="1.0" encoding="UTF-8"?>
<!DOCTYPE svg PUBLIC "-//W3C//DTD SVG 1.1//EN" "http://www.w3.org/Graphics/SVG/1.1/DTD/svg11.dtd">
<!-- Creator: CorelDRAW X7 -->
<svg xmlns="http://www.w3.org/2000/svg" xml:space="preserve" width="5.533in" height="3.762in" version="1.1" style="shape-rendering:geometricPrecision; text-rendering:geometricPrecision; image-rendering:optimizeQuality; fill-rule:evenodd; clip-rule:evenodd"
viewBox="0 0 5533 3762"
 xmlns:xlink="http://www.w3.org/1999/xlink">
 <defs>
  <style type="text/css">
   <![CDATA[
    .str0 {stroke:#CF8906;stroke-width:3}
    .str1 {stroke:#FFDA94;stroke-width:3}
    .fil10 {fill:#00CFFF;fill-rule:nonzero}
    .fil13 {fill:#0980F2;fill-rule:nonzero}
    .fil14 {fill:#1E1440;fill-rule:nonzero}
    .fil18 {fill:#2B2B75;fill-rule:nonzero}
    .fil20 {fill:#2D1C66;fill-rule:nonzero}
    .fil31 {fill:#352263;fill-rule:nonzero}
    .fil32 {fill:#452A95;fill-rule:nonzero}
    .fil22 {fill:#504B66;fill-rule:nonzero}
    .fil19 {fill:#5551E5;fill-rule:nonzero}
    .fil27 {fill:#6737BE;fill-rule:nonzero}
    .fil9 {fill:#6737C0;fill-rule:nonzero}
    .fil3 {fill:#6737C1;fill-rule:nonzero}
    .fil5 {fill:#6A4FE9;fill-rule:nonzero}
    .fil23 {fill:#7447FC;fill-rule:nonzero}
    .fil26 {fill:#8B6DFC;fill-rule:nonzero}
    .fil6 {fill:#8E6DFF;fill-rule:nonzero}
    .fil30 {fill:#A493FF;fill-rule:nonzero}
    .fil28 {fill:#AA1548;fill-rule:nonzero}
    .fil21 {fill:#AC1548;fill-rule:nonzero}
    .fil11 {fill:#BB254F;fill-rule:nonzero}
    .fil1 {fill:#CF8906;fill-rule:nonzero}
    .fil15 {fill:#D7D4FF;fill-rule:nonzero}
    .fil25 {fill:#F8C622;fill-rule:nonzero}
    .fil8 {fill:#FBC921;fill-rule:nonzero}
    .fil33 {fill:#FBCA21;fill-rule:nonzero}
    .fil29 {fill:#FC2D56;fill-rule:nonzero}
    .fil24 {fill:#FCA601;fill-rule:nonzero}
    .fil7 {fill:#FF2D56;fill-rule:nonzero}
    .fil17 {fill:#FF9294;fill-rule:nonzero}
    .fil12 {fill:#FFA800;fill-rule:nonzero}
    .fil16 {fill:#FFADAE;fill-rule:nonzero}
    .fil4 {fill:#FFC14E;fill-rule:nonzero}
    .fil0 {fill:#FFDA94;fill-rule:nonzero}
    .fil2 {fill:white;fill-rule:nonzero}
   ]]>
  </style>
 </defs>
 <g id="Layer_x0020_1">
  <metadata id="CorelCorpID_0Corel-Layer"/>
  <g id="_778603184">
   <path class="fil0" d="M4510 3631c35,-68 69,-136 104,-204 263,-517 584,-963 556,-1572 -26,-560 -277,-1105 -744,-1433 -537,-376 -1362,-440 -1893,-15 -226,180 -376,441 -586,638 -240,223 -551,330 -860,420 -217,63 -434,139 -623,264 -685,454 -456,1225 -284,1886 0,0 4330,16 4330,16z"/>
   <g>
    <path class="fil1" d="M1695 3736l254 -5 254 -4 509 -7 127 -2 128 -2c84,-2 169,-2 254,0l127 2c43,2 85,3 127,4 85,4 170,8 255,14l0 5c-85,6 -170,10 -255,13 -42,2 -84,3 -127,4l-127 3c-85,1 -170,1 -254,0l-128 -3 -127 -2 -509 -6 -254 -5 -254 -4 0 -5z"/>
   </g>
   <path class="fil2" d="M5154 1197c119,51 176,189 125,309 -50,120 -188,176 -308,126 -120,-51 -176,-189 -126,-309 50,-120 189,-176 309,-126z"/>
   <g>
    <path class="fil2" d="M4628 1232c-35,85 -44,176 -30,261 13,72 42,141 86,200 48,67 115,121 196,155 145,61 305,43 430,-34 80,-49 147,-123 186,-217 69,-165 37,-347 -67,-478 -48,-59 -110,-107 -185,-138 -238,-101 -515,12 -616,251zm774 -96l0 0c100,121 131,294 65,449 -42,101 -119,179 -211,224 -110,54 -242,62 -364,10 -62,-25 -114,-64 -156,-111 -57,-63 -94,-142 -108,-225 -12,-78 -4,-160 29,-239 94,-223 352,-329 575,-235 69,29 126,73 170,127z"/>
   </g>
   <path class="fil2" d="M895 1433c120,51 177,189 126,309 -50,120 -188,176 -308,126 -120,-51 -177,-189 -126,-309 50,-120 188,-176 308,-126z"/>
   <g>
    <path class="fil2" d="M370 1468c-36,85 -44,175 -30,261 12,72 42,141 85,200 49,67 115,121 196,155 146,61 306,43 431,-34 80,-49 146,-123 186,-217 69,-165 37,-347 -68,-478 -47,-59 -109,-107 -184,-139 -239,-100 -515,13 -616,252zm773 -97l0 0c100,122 131,294 66,450 -43,101 -120,179 -212,224 -110,53 -242,61 -363,10 -62,-26 -115,-64 -157,-111 -57,-63 -94,-142 -107,-225 -13,-78 -4,-161 29,-239 94,-223 352,-329 575,-235 68,29 125,73 169,126z"/>
   </g>
   <g>
    <g>
     <path class="fil3 str0" d="M352 1011c-2,-1 -3,-3 -3,-5 -1,-4 -1,-8 -1,-12 1,-2 3,-5 6,-5 2,0 4,3 4,5 0,4 0,8 1,12 0,3 -3,5 -5,5 -1,0 -2,0 -2,0z"/>
    </g>
    <g>
     <path class="fil3 str0" d="M353 976c-2,-1 -4,-3 -3,-5 0,-8 1,-16 2,-24 1,-3 3,-4 6,-4 3,0 4,3 4,6 -1,7 -2,15 -3,22 0,3 -2,5 -5,5 0,0 -1,0 -1,0zm7 -46l0 0c-3,-1 -4,-4 -4,-6 2,-8 4,-15 6,-23 1,-3 4,-4 6,-3 3,0 4,3 4,6 -2,7 -4,15 -6,22 0,3 -3,4 -6,4 0,0 0,0 0,0zm12 -45l0 0c-2,-1 -4,-4 -3,-6 3,-8 6,-15 9,-22 1,-3 4,-4 6,-3 3,1 4,4 3,6 -3,7 -6,15 -8,22 -1,2 -4,4 -7,3zm18 -43l0 0c0,0 0,0 0,0 -3,-1 -4,-4 -3,-7 4,-7 8,-14 11,-21 2,-2 5,-3 7,-2 3,2 3,5 2,7 -4,7 -7,14 -11,20 -1,3 -3,4 -6,3zm23 -41l0 0c0,0 -1,0 -1,0 -2,-2 -3,-5 -1,-7 4,-7 8,-13 13,-19 2,-3 5,-3 7,-1 2,1 3,4 1,6 -5,7 -9,13 -13,19 -1,2 -4,3 -6,2zm28 -37l0 0c-1,0 -2,-1 -2,-1 -2,-2 -2,-5 -1,-7 5,-6 10,-12 16,-18 2,-2 5,-2 7,0 2,2 2,5 0,7 -5,5 -10,11 -15,17 -1,2 -4,2 -5,2zm31 -34l0 0c-1,-1 -1,-1 -2,-2 -2,-2 -2,-5 0,-7 6,-5 12,-10 18,-16 2,-1 5,-1 7,1 2,2 1,5 -1,7 -6,5 -11,10 -17,15 -1,2 -3,2 -5,2zm256 83l0 0c-2,-1 -3,-1 -4,-2 -5,-1 -9,-3 -13,-6 -2,-1 -3,-4 -2,-6 1,-3 4,-4 7,-2 3,2 7,3 11,5 3,1 6,2 9,3 3,1 5,3 4,6 -1,3 -4,4 -6,4 -2,-1 -4,-2 -6,-2zm28 5l0 0c-1,-1 -3,-3 -3,-5 0,-3 2,-5 5,-5 7,0 15,-1 22,-3 3,0 5,1 6,4 1,3 -1,5 -4,6 -8,2 -16,3 -24,3 -1,0 -1,0 -2,0zm-63 -26l0 0c-1,0 -1,0 -2,-1 -6,-5 -11,-12 -15,-18 -2,-3 -1,-6 1,-7 2,-2 5,-1 7,1 4,6 9,12 14,17 2,2 2,5 0,7 -1,1 -3,2 -5,1zm108 15l0 0c-1,-1 -2,-2 -3,-3 -1,-2 0,-5 2,-6 7,-4 13,-8 18,-13 2,-2 5,-2 7,0 2,2 2,5 0,7 -6,5 -13,10 -20,14 -1,1 -3,1 -4,1zm-133 -53l0 0c-1,-1 -3,-2 -3,-3 -3,-8 -5,-16 -6,-24 0,-3 2,-5 4,-6 3,0 6,2 6,5 1,7 3,15 5,21 1,3 0,6 -3,7 -1,0 -2,0 -3,0zm-160 -55l0 0c-1,0 -2,0 -3,-1 -1,-2 -1,-6 1,-7 7,-5 13,-9 20,-14 2,-1 5,-1 7,2 1,2 0,5 -2,7 -6,4 -13,8 -19,13 -1,1 -3,1 -4,0zm326 76l0 0c0,0 0,-1 -1,-1 -2,-1 -3,-4 -1,-6 3,-6 5,-11 7,-16 0,-1 1,-3 1,-5 1,-2 4,-4 6,-3 3,1 4,3 4,6 -1,2 -1,3 -2,5 -2,6 -4,12 -8,18 -1,2 -3,2 -6,2zm-287 -101l0 0c-1,0 -2,-1 -3,-2 -1,-3 0,-6 2,-7 7,-4 14,-7 21,-11 3,-1 5,0 7,3 1,2 0,5 -3,6 -7,4 -14,7 -20,11 -1,1 -3,1 -4,0zm114 34l0 0c-2,-1 -3,-3 -3,-5 0,-8 1,-16 2,-24 1,-3 3,-4 6,-4 3,1 5,3 4,6 -1,7 -2,15 -2,22 0,3 -3,5 -5,5 -1,0 -1,0 -2,0zm-72 -53l0 0c-1,-1 -2,-2 -3,-3 -1,-3 0,-6 3,-7 7,-2 15,-5 22,-7 3,-1 6,1 6,3 1,3 0,6 -3,6 -7,2 -14,5 -22,8 -1,0 -2,0 -3,0zm257 75l0 0c-2,0 -4,-2 -4,-4 0,-7 -2,-14 -5,-21 -1,-2 0,-5 3,-6 2,-2 5,0 6,2 3,8 5,16 6,24 0,3 -2,5 -4,6 -1,0 -2,0 -2,-1zm-176 -68l0 0c-3,-1 -4,-3 -3,-6 2,-8 6,-15 9,-22 1,0 1,0 1,-1 0,0 -1,-1 -1,-1 0,-3 2,-5 5,-6 8,0 16,0 24,1 3,0 5,2 5,5 -1,2 -3,5 -6,4 -6,0 -12,0 -18,0 0,1 0,2 -1,3 -3,6 -6,13 -9,20 -1,3 -4,4 -6,3zm-36 -20l0 0c-2,-1 -3,-2 -4,-4 0,-3 2,-5 4,-6 8,-1 16,-3 24,-4 2,0 5,2 5,5 0,2 -1,5 -4,5 -8,1 -15,2 -23,4 -1,0 -2,0 -2,0zm194 46l0 0c-1,0 -2,-1 -2,-2 -5,-5 -10,-11 -16,-16 -2,-1 -2,-5 0,-7 1,-2 4,-2 7,0 6,5 12,11 17,17 1,2 1,5 -1,7 -2,1 -3,1 -5,1zm-102 -50l0 0c-2,-1 -3,-3 -3,-5 0,-3 3,-5 5,-4 8,1 16,2 24,3 2,1 4,4 4,6 -1,3 -4,5 -6,4 -8,-1 -15,-3 -23,-4 0,0 0,0 -1,0zm67 20l0 0c-1,0 -1,0 -1,0 -7,-4 -14,-7 -21,-10 -2,-1 -3,-4 -3,-6 1,-3 4,-4 7,-3 7,3 15,6 22,10 2,1 3,4 2,7 -2,2 -4,3 -6,2zm-102 -37l0 0c0,0 -1,0 -1,0 -2,-2 -3,-5 -1,-7 4,-7 9,-13 13,-19 2,-3 5,-3 7,-1 3,1 3,4 1,7 -4,6 -9,12 -13,18 -1,2 -4,3 -6,2zm29 -36l0 0c-1,-1 -1,-1 -2,-2 -2,-1 -2,-5 0,-7 5,-5 11,-11 16,-16 2,-2 5,-2 7,0 2,2 2,5 0,7 -5,5 -11,11 -16,16 -1,2 -3,2 -5,2zm34 -32l0 0c-1,-1 -2,-1 -3,-2 -1,-2 -1,-5 1,-7 6,-5 13,-9 19,-14 3,-1 6,-1 7,1 2,3 1,6 -1,7 -6,5 -13,9 -19,14 -1,1 -3,1 -4,1zm38 -26l0 0c-1,-1 -2,-2 -3,-3 -1,-2 0,-5 2,-6 7,-4 14,-8 21,-12 3,-1 6,0 7,3 1,2 0,5 -3,6 -6,4 -13,7 -20,11 -1,1 -3,1 -4,1zm42 -21l0 0c-1,0 -2,-1 -3,-3 -1,-2 0,-5 3,-6 7,-3 14,-6 22,-8 2,-1 5,0 6,3 1,2 0,5 -3,6 -7,3 -15,5 -22,8 -1,1 -2,1 -3,0zm44 -15l0 0c-1,0 -3,-1 -3,-3 -1,-3 1,-5 3,-6 8,-2 16,-4 23,-5 3,-1 6,1 6,3 1,3 -1,6 -4,6 -7,2 -15,4 -22,6 -1,0 -2,0 -3,-1zm46 -9l0 0c-2,-1 -3,-2 -4,-4 0,-3 2,-5 4,-6 8,-1 16,-2 24,-3 2,0 5,2 5,5 0,3 -2,5 -4,5 -8,1 -16,2 -23,3 -1,0 -2,0 -2,0zm453 137l0 0c-1,0 -1,0 -2,-1 -5,-5 -11,-10 -17,-15 -2,-2 -2,-5 -1,-7 2,-2 5,-2 7,-1 6,5 12,10 18,16 2,2 2,5 0,7 -1,1 -3,2 -5,1zm-407 -142l0 0c-2,0 -3,-2 -4,-4 0,-3 2,-5 5,-5 8,-1 16,-1 24,-1 2,0 5,2 5,5 0,2 -3,5 -5,5 -8,0 -16,0 -23,0 -1,0 -2,0 -2,0zm371 112l0 0c0,0 -1,0 -1,0 -6,-5 -12,-10 -19,-14 -2,-2 -3,-5 -1,-7 2,-2 5,-3 7,-1 6,4 13,9 19,14 2,1 3,4 1,7 -1,1 -4,2 -6,1zm-325 -112l0 0c-2,-1 -3,-3 -3,-5 0,-3 2,-5 5,-5 8,0 16,1 24,1 2,1 4,3 4,6 0,2 -2,4 -5,4 -8,0 -16,-1 -23,-1 -1,0 -1,0 -2,0zm287 86l0 0c0,0 -1,-1 -1,-1 -6,-4 -13,-8 -20,-12 -2,-1 -3,-4 -2,-6 2,-3 5,-4 7,-2 7,4 14,8 20,12 3,1 3,4 2,7 -1,2 -4,2 -6,2zm-240 -83l0 0c-2,-1 -4,-3 -4,-5 1,-3 3,-5 6,-4 8,0 15,1 23,3 3,0 5,3 4,5 0,3 -3,5 -5,5 -8,-2 -16,-3 -23,-4 -1,0 -1,0 -1,0zm200 60l0 0c-1,0 -1,-1 -1,-1 -7,-3 -14,-6 -21,-10 -2,-1 -3,-4 -2,-6 1,-3 4,-4 6,-3 7,4 15,7 22,11 2,1 3,4 2,6 -1,2 -4,3 -6,3zm-154 -53l0 0c-2,0 -4,-3 -3,-5 0,-3 3,-5 5,-4 8,1 16,3 23,5 3,0 5,3 4,6 -1,2 -3,4 -6,3 -7,-1 -15,-3 -23,-5 0,0 0,0 0,0zm111 33l0 0c0,0 0,0 0,0 -4,-1 -8,-3 -12,-4 -3,-2 -6,-3 -9,-4 -3,-1 -4,-4 -3,-6 0,-3 3,-4 6,-3 3,1 6,2 10,3 4,2 8,3 12,5 2,1 4,4 3,6 -1,3 -4,4 -7,3zm-66 -22l0 0c-2,-1 -4,-4 -3,-6 1,-3 3,-4 6,-4 8,2 15,5 23,7 2,1 4,4 3,6 -1,3 -4,4 -6,4 -8,-3 -15,-5 -23,-7 0,0 0,0 0,0z"/>
    </g>
    <g>
     <path class="fil3 str0" d="M1403 644c-1,0 -2,-1 -2,-1 -3,-3 -6,-6 -8,-8 -2,-2 -2,-6 0,-7 1,-2 5,-2 7,0 2,2 5,5 8,8 2,2 2,5 0,7 -2,1 -4,2 -5,1z"/>
    </g>
   </g>
   <polygon class="fil0" points="1386,653 1396,684 1693,631 "/>
   <polygon class="fil0" points="1375,542 1392,588 1693,631 "/>
   <polygon class="fil4" points="1375,542 1425,488 1693,631 "/>
   <polygon class="fil4" points="1343,581 1269,663 1693,631 "/>
   <g>
    <path class="fil2" d="M4574 2115c-15,2 -29,-8 -31,-23 -3,-14 7,-28 22,-31 15,-2 28,8 31,23 2,14 -8,28 -22,31z"/>
    <g>
     <path class="fil5" d="M4592 2875c7,-9 14,-15 21,-23 6,-7 10,-15 14,-23 2,-3 -3,-6 -5,-3 -5,9 -10,18 -17,26 -6,6 -12,12 -18,20 -2,3 3,6 5,3z"/>
    </g>
    <path class="fil6" d="M4620 2845c0,0 -132,-51 24,-183 0,0 45,-30 73,-24 10,2 44,230 -97,207z"/>
    <path class="fil5" d="M4516 3029c0,0 -89,-111 -170,48 -15,30 -17,66 -6,98 1,1 1,1 1,2 0,1 1,2 1,3 1,5 2,16 -1,24 -1,4 1,8 5,8 36,5 169,15 207,-81 31,-80 -37,-102 -37,-102z"/>
    <path class="fil5" d="M4660 2962c0,0 -49,-50 16,-79 59,-27 82,20 114,18 4,0 6,3 5,7 -14,29 -70,135 -135,54z"/>
    <path class="fil7" d="M4556 2933c0,0 42,-164 -248,-141 0,0 -4,248 248,141z"/>
    <path class="fil5" d="M4585 2171l25 1084c0,12 -9,21 -20,21 -11,0 -20,-9 -20,-20 2,-149 9,-1046 0,-1085l15 0z"/>
    <path class="fil8" d="M4569 2175c-5,1 -8,1 -8,1 0,0 -166,28 -110,-228 0,0 0,-17 -4,-32 -1,-3 -2,-5 -2,-8 0,0 190,4 222,128 28,107 -68,133 -98,139z"/>
    <path class="fil9" d="M4349 2054c0,0 182,37 166,171 0,0 -78,108 -166,-171z"/>
    <g>
     <path class="fil5" d="M4602 3017c7,-17 15,-35 30,-47 13,-12 29,-14 42,-25 3,-2 -1,-6 -4,-4 -7,6 -17,8 -25,12 -7,4 -15,9 -21,15 -13,13 -21,30 -28,46 -1,3 4,7 6,3z"/>
    </g>
    <g>
     <path class="fil5" d="M4506 3038c14,-20 61,-29 79,-10 2,2 7,-2 4,-5 -21,-21 -72,-11 -89,12 -2,3 3,6 6,3z"/>
    </g>
    <g>
     <path class="fil5" d="M4600 3131c34,-41 91,-39 120,7 2,3 8,0 5,-3 -31,-49 -93,-53 -130,-9 -2,3 2,8 5,5z"/>
    </g>
    <g>
     <path class="fil5" d="M4549 2671c7,4 14,6 20,11 5,5 9,9 15,13 3,1 6,-4 3,-6 -6,-3 -11,-9 -16,-13 -6,-4 -13,-7 -19,-11 -3,-1 -6,4 -3,6z"/>
    </g>
    <g>
     <path class="fil5" d="M4588 2616c16,-19 38,-26 60,-34 4,-1 2,-7 -1,-6 -23,8 -47,16 -63,35 -3,3 2,8 4,5z"/>
    </g>
    <g>
     <path class="fil5" d="M4432 2332c47,30 129,53 149,112 1,3 7,2 6,-2 -21,-60 -104,-85 -152,-115 -3,-3 -6,3 -3,5z"/>
    </g>
    <g>
     <path class="fil5" d="M4588 2404c7,-24 30,-50 45,-68 15,-16 33,-35 52,-46 4,-2 0,-8 -3,-6 -22,13 -42,35 -58,54 -16,18 -35,41 -42,64 -1,4 5,6 6,2z"/>
    </g>
    <g>
     <path class="fil9" d="M4498 2223c13,9 24,20 38,26 12,5 27,13 40,16 4,0 5,-6 2,-6 -12,-2 -28,-11 -39,-16 -14,-6 -25,-17 -38,-26 -3,-2 -6,4 -3,6z"/>
    </g>
    <path class="fil6" d="M4959 2438c0,0 -73,-58 -176,-42 -23,4 -47,11 -73,23 0,0 65,-111 163,-71 6,3 12,5 17,8 80,38 69,82 69,82z"/>
    <path class="fil10" d="M4441 2338c-62,-12 -114,-7 -157,5 -95,27 -142,91 -142,91 0,0 -56,-73 91,-153 80,-44 136,-22 169,6 27,24 39,51 39,51z"/>
    <path class="fil5" d="M4949 2717c0,0 -25,-39 -74,-75 -54,-40 -138,-77 -252,-54 0,0 46,-45 105,-66 31,-10 65,-15 98,-5 98,31 120,123 123,200z"/>
    <path class="fil6" d="M4561 2676c-307,-52 -461,126 -461,126 -2,-19 -1,-36 1,-52 0,-5 1,-9 2,-12 13,-72 68,-128 139,-146 154,-38 241,5 284,42 25,22 35,42 35,42z"/>
    <path class="fil10" d="M4554 2457c0,0 -87,2 -147,-14 -60,-17 -88,53 48,179 0,0 9,-30 134,-62 124,-33 117,-147 -35,-103z"/>
    <path class="fil8" d="M4802 3233c0,0 -5,1 -13,2 -40,4 -153,7 -151,-92 1,-14 10,-27 24,-32 9,-3 23,-6 39,-7 19,-2 41,0 67,7 80,22 -14,87 34,122z"/>
    <path class="fil6" d="M4370 3161c-4,5 -14,3 -14,-5 -2,-20 3,-38 13,-57 15,-26 34,-58 62,-71 16,-8 23,-6 36,6 12,10 25,7 37,16 14,9 11,32 2,44 -11,15 -34,13 -51,17 -27,6 -65,26 -85,50z"/>
    <path class="fil11" d="M4347 2837c-5,-5 -12,1 -9,7 7,12 16,24 23,35 17,23 38,40 64,51 17,6 72,22 71,-11 -1,-31 -41,-35 -62,-42 -30,-9 -62,-20 -87,-40z"/>
    <path class="fil6" d="M4763 2914c-2,-5 -7,-7 -11,-5 -23,11 -62,11 -65,43 -2,23 24,19 38,16 14,-4 49,-22 38,-54z"/>
    <path class="fil2" d="M4418 2469c24,5 48,12 74,10 27,-1 53,-5 80,-8 15,-1 67,-8 49,23 -11,21 -56,28 -77,34 -15,3 -29,6 -44,11 -11,3 -21,10 -31,13 -3,-15 -21,-34 -33,-43 -6,-3 -45,-29 -18,-40z"/>
    <path class="fil6" d="M4406 2118c12,28 21,58 37,85 6,10 24,30 35,14 9,-12 -1,-29 -8,-39 -13,-16 -28,-33 -64,-60z"/>
    <path class="fil12" d="M4569 2175c-5,-25 32,-40 46,-52 20,-16 29,-39 22,-65 -14,-52 -66,-82 -109,-108 -27,-11 -47,-18 -67,-28 -4,-2 -9,-4 -14,-6 -1,-3 -2,-5 -2,-8 0,0 190,4 222,128 28,107 -68,133 -98,139z"/>
    <path class="fil13" d="M4441 2338c-62,-12 -114,-7 -157,5 -2,-2 -4,-3 -7,-5 -7,-3 -14,-2 -22,-1 -17,2 -34,9 -51,13 -6,1 -21,7 -19,-4 1,-5 15,-15 19,-18 34,-26 77,-36 119,-41 19,-2 39,-4 58,-3 8,0 15,2 21,3 27,24 39,51 39,51z"/>
    <path class="fil5" d="M4855 2229c-8,1 -17,2 -23,4 -31,7 -58,17 -84,36 -23,3 -47,11 -72,23 0,0 64,-111 162,-71 6,3 12,5 17,8z"/>
    <path class="fil5" d="M4561 2676c-307,-52 -461,126 -461,126 -2,-19 -1,-36 1,-52 13,-12 27,-23 41,-32 35,-22 69,-44 107,-59 36,-14 72,-17 110,-17 34,0 69,0 102,5 21,3 58,11 65,-13 25,22 35,42 35,42z"/>
    <path class="fil9" d="M4875 2642c-54,-40 -138,-77 -252,-54 0,0 46,-45 105,-66 -3,4 -7,8 -8,14 -2,12 7,15 18,19 22,7 46,6 68,15 22,8 33,26 48,43 6,6 17,18 21,29z"/>
    <path class="fil12" d="M4802 3233c0,0 -5,1 -13,2 -10,-5 -19,-11 -27,-17 -14,-11 -21,-25 -31,-38 -10,-12 -20,-21 -15,-36 4,-13 8,-26 -5,-36 -3,-2 -6,-3 -10,-4 19,-2 41,0 67,7 80,22 -14,87 34,122z"/>
    <g>
     <path class="fil5" d="M4535 2927c8,3 14,8 21,12 8,4 16,8 23,14 3,3 8,-2 5,-4 -7,-6 -15,-10 -22,-14 -8,-4 -16,-10 -24,-14 -3,-1 -6,4 -3,6z"/>
    </g>
    <polygon class="fil6" points="4766,3255 4660,3621 4506,3621 4473,3509 4471,3503 4400,3255 "/>
    <path class="fil5" d="M4766 3255l-106 366 -154 0 -33 -112c113,-44 168,-156 194,-254l99 0z"/>
    <polygon class="fil14" points="4766,3268 4400,3268 4400,3243 4766,3243 "/>
   </g>
   <path class="fil4" d="M2015 3344c-31,0 -60,-12 -82,-34 -22,-22 -34,-51 -34,-81l2 -2551c0,-64 52,-115 115,-115l1288 0c31,0 60,13 82,35 21,21 33,50 33,81l-1 2551c0,63 -52,115 -116,115l-1287 -1z"/>
   <path class="fil4" d="M3424 1264l0 -355c0,-7 6,-13 14,-13l25 0c8,0 14,6 14,13l0 355c0,7 -6,14 -14,14l-25 0c-8,0 -14,-7 -14,-14z"/>
   <path class="fil4" d="M1841 1264l0 -355c0,-7 7,-13 14,-13l26 0c7,0 14,6 14,13l0 355c0,7 -7,14 -14,14l-26 0c-7,0 -14,-7 -14,-14z"/>
   <path class="fil4" d="M1841 1699l0 -354c0,-8 7,-14 14,-14l26 0c7,0 14,6 14,14l0 354c0,8 -7,14 -14,14l-26 0c-7,0 -14,-6 -14,-14z"/>
   <path class="fil4" d="M4766 659c31,13 45,48 33,79 -13,31 -49,45 -79,32 -31,-13 -45,-48 -33,-79 13,-30 49,-45 79,-32z"/>
   <path class="fil4" d="M4472 613c31,13 46,48 33,79 -13,31 -49,45 -79,32 -31,-13 -45,-48 -33,-79 13,-30 49,-45 79,-32z"/>
   <path class="fil4" d="M4218 1049c16,6 23,24 16,39 -6,15 -24,23 -39,16 -15,-6 -22,-24 -16,-39 6,-15 24,-23 39,-16z"/>
   <g>
    <path class="fil4" d="M4632 668c-9,22 -11,45 -8,67 4,18 11,36 22,51 13,17 30,31 50,40 38,15 78,11 110,-9 21,-13 38,-32 48,-56 18,-42 10,-89 -17,-122 -12,-15 -28,-27 -47,-35 -61,-26 -132,3 -158,64zm198 -25l0 0c25,31 33,75 17,115 -11,26 -31,46 -54,57 -29,14 -62,16 -94,3 -15,-6 -29,-16 -40,-28 -14,-16 -24,-37 -27,-58 -3,-20 -1,-41 7,-61 24,-57 90,-84 148,-60 17,7 32,19 43,32z"/>
   </g>
   <path class="fil4" d="M4293 882c11,5 16,17 11,28 -4,11 -17,16 -28,12 -11,-5 -16,-18 -11,-29 4,-11 17,-16 28,-11z"/>
   <g>
    <path class="fil4" d="M4207 869c-7,15 -8,32 -6,47 2,13 8,25 15,36 9,12 21,22 36,28 26,11 54,7 77,-6 14,-9 26,-23 33,-39 13,-30 7,-63 -12,-86 -8,-11 -20,-19 -33,-25 -43,-18 -92,2 -110,45zm138 -17l0 0c18,22 24,53 12,80 -8,19 -21,33 -38,41 -20,9 -43,11 -65,2 -11,-5 -21,-12 -28,-20 -10,-12 -17,-26 -19,-41 -3,-14 -1,-29 5,-43 17,-40 63,-59 103,-42 12,5 22,13 30,23z"/>
   </g>
   <path class="fil4" d="M4548 1061c0,-17 14,-30 30,-30 17,0 30,13 30,30 0,17 -13,30 -30,30 -16,0 -30,-13 -30,-30z"/>
   <path class="fil0" d="M1274 910c31,13 45,49 32,79 -13,31 -48,45 -79,32 -30,-12 -45,-48 -32,-79 13,-30 48,-45 79,-32z"/>
   <path class="fil0" d="M980 864c31,13 45,49 32,79 -13,31 -48,45 -79,33 -30,-13 -45,-49 -32,-79 13,-31 48,-46 79,-33z"/>
   <path class="fil0" d="M726 1300c15,6 22,24 16,39 -7,16 -24,23 -39,16 -16,-6 -23,-24 -16,-39 6,-15 24,-22 39,-16z"/>
   <g>
    <path class="fil0" d="M1140 919c-10,22 -12,45 -8,67 3,18 11,36 22,51 12,17 29,31 50,40 37,15 78,11 110,-9 21,-13 38,-31 48,-55 17,-43 9,-89 -18,-123 -12,-15 -28,-27 -47,-35 -61,-26 -132,3 -157,64zm197 -25l0 0c26,32 34,76 17,115 -11,26 -30,46 -54,58 -28,13 -62,16 -93,2 -16,-6 -29,-16 -40,-28 -15,-16 -24,-36 -27,-58 -4,-20 -1,-41 7,-61 24,-57 90,-84 147,-60 18,7 32,19 43,32z"/>
   </g>
   <path class="fil0" d="M800 1133c11,5 17,17 12,28 -5,11 -17,17 -28,12 -11,-5 -16,-17 -12,-28 5,-11 17,-16 28,-12z"/>
   <g>
    <path class="fil15 str1" d="M714 1120c-6,16 -8,32 -5,47 2,13 7,25 15,36 9,12 21,22 35,28 26,11 55,8 77,-6 15,-9 27,-22 34,-39 12,-30 7,-63 -12,-86 -9,-11 -20,-19 -33,-25 -43,-18 -93,2 -111,45zm139 -17l0 0c18,22 23,53 12,81 -8,18 -22,32 -38,40 -20,9 -44,11 -66,2 -11,-5 -20,-12 -28,-20 -10,-12 -16,-26 -19,-41 -2,-14 -1,-28 5,-42 17,-41 63,-59 104,-43 12,5 22,13 30,23z"/>
   </g>
   <path class="fil0" d="M1056 1312c0,-16 13,-30 30,-30 16,0 30,14 30,30 0,17 -14,30 -30,30 -17,0 -30,-13 -30,-30z"/>
   <polygon class="fil0" points="3419,3311 1901,3311 1901,2995 3419,2995 "/>
   <polygon class="fil0" points="3418,838 1900,838 1900,596 3418,596 "/>
   <g>
    <path class="fil1" d="M2652 1531c-51,0 -92,51 -92,113 0,63 41,114 92,114 51,0 93,-51 93,-114 0,-62 -42,-113 -93,-113zm0 193l0 0c-32,0 -59,-36 -59,-80 0,-43 27,-79 59,-79 33,0 59,36 59,79 0,44 -26,80 -59,80z"/>
    <path class="fil1" d="M2652 1855c-46,0 -88,-23 -120,-63 -32,-40 -49,-92 -49,-148 0,-55 17,-107 49,-147 32,-41 74,-63 120,-63 37,0 72,14 101,42 7,6 8,17 1,24 -6,7 -16,7 -23,1 -23,-22 -50,-33 -79,-33 -74,0 -135,79 -135,176 0,98 61,177 135,177 75,0 136,-79 136,-177 0,-25 -4,-50 -13,-73 -3,-9 2,-19 10,-22 9,-3 19,1 22,10 9,27 14,56 14,85 0,56 -17,108 -48,148 -32,40 -75,63 -121,63z"/>
    <path class="fil1" d="M2822 1434c-45,-57 -105,-89 -170,-89 -27,0 -53,6 -77,16 -8,4 -16,8 -24,12 -9,5 -18,12 -27,19 -15,12 -29,26 -42,42 -18,23 -33,49 -44,77 -4,11 -8,22 -11,33l0 0c-2,9 -5,18 -6,28 -5,23 -8,48 -8,72 0,80 25,154 69,211 26,32 57,57 91,72 25,11 52,17 79,17 28,0 55,-6 80,-17 34,-15 65,-40 90,-72 45,-57 69,-131 69,-211 0,-79 -24,-154 -69,-210zm-170 476l0 0c-113,0 -205,-119 -205,-266 0,-37 6,-72 17,-105 5,-17 13,-33 21,-48 10,-19 22,-35 35,-50 12,-12 25,-23 38,-32 28,-19 60,-30 94,-30 113,0 206,119 206,265 0,147 -93,266 -206,266z"/>
    <path class="fil1" d="M2652 2044c-23,0 -46,-4 -68,-10 -9,-2 -15,-12 -12,-21 2,-9 12,-14 20,-12 20,6 40,9 60,9 157,0 284,-164 284,-366 0,-201 -127,-365 -284,-365 -156,0 -283,164 -283,365 0,70 15,138 44,196 4,8 1,19 -8,23 -8,4 -18,1 -22,-8 -31,-63 -48,-136 -48,-211 0,-105 33,-205 92,-280 60,-77 140,-119 225,-119 86,0 166,42 226,119 59,75 91,175 91,280 0,106 -32,206 -91,281 -60,76 -140,119 -226,119z"/>
    <path class="fil1" d="M2992 1867c-2,0 -4,-1 -6,-2 -8,-3 -13,-13 -9,-21 23,-63 35,-130 35,-200 0,-254 -161,-461 -360,-461 -57,0 -111,16 -162,49 -8,5 -18,3 -23,-5 -5,-8 -3,-18 5,-23 55,-36 118,-55 180,-55 106,0 205,52 280,146 73,94 113,218 113,349 0,74 -12,145 -37,212 -2,6 -9,11 -16,11z"/>
    <path class="fil1" d="M2652 2140c-105,0 -205,-52 -279,-147 -73,-93 -114,-217 -114,-349 0,-108 27,-210 78,-297 5,-8 16,-10 23,-5 8,4 11,15 6,23 -48,81 -73,177 -73,279 0,255 161,462 359,462 96,0 185,-47 253,-134 6,-7 17,-8 24,-2 7,5 8,16 3,23 -75,95 -174,147 -280,147z"/>
    <path class="fil1" d="M2317 2039c-5,0 -10,-3 -14,-8 -74,-107 -115,-244 -115,-387 0,-127 32,-247 91,-349 29,-49 64,-92 103,-127 40,-37 84,-64 131,-83 9,-3 18,1 22,10 3,8 -1,18 -10,22 -85,34 -163,103 -217,196 -57,96 -87,211 -87,331 0,136 39,267 110,368 5,7 3,18 -4,23 -3,3 -7,4 -10,4z"/>
    <path class="fil1" d="M2652 2231c-46,0 -93,-9 -137,-26 -9,-4 -13,-14 -10,-22 4,-9 13,-13 22,-10 41,16 83,24 125,24 238,0 431,-248 431,-553 0,-129 -35,-254 -100,-353 -63,-97 -150,-164 -246,-188 -9,-2 -14,-12 -12,-21 2,-9 11,-14 20,-12 104,27 199,98 266,202 68,105 106,237 106,372 0,156 -48,303 -135,413 -43,55 -92,97 -148,127 -57,31 -119,47 -182,47z"/>
    <path class="fil1" d="M2950 1100c-4,0 -8,-1 -11,-4 -43,-37 -91,-65 -140,-84 -9,-4 -13,-13 -10,-22 3,-9 13,-13 21,-10 54,20 104,51 151,90 7,6 7,17 1,24 -3,4 -8,6 -12,6z"/>
    <path class="fil1" d="M2174 1957c-7,0 -13,-4 -16,-10 -36,-95 -54,-197 -54,-303 0,-169 48,-332 137,-459 5,-8 16,-9 23,-4 8,6 10,16 4,24 -84,121 -131,277 -131,439 0,102 18,200 52,290 4,9 -1,19 -9,22 -2,1 -4,1 -6,1z"/>
    <path class="fil1" d="M2877 2275c-6,0 -11,-3 -14,-9 -5,-8 -2,-18 6,-23 45,-27 87,-62 125,-105 6,-7 17,-7 23,-1 7,6 8,17 2,24 -40,45 -85,83 -133,111 -3,2 -6,3 -9,3z"/>
    <path class="fil1" d="M3054 2105c-3,0 -6,-1 -9,-3 -8,-6 -10,-16 -5,-24 82,-120 128,-274 128,-434 0,-120 -26,-238 -74,-340 -4,-9 -1,-19 7,-23 9,-4 19,0 23,8 50,107 77,230 77,355 0,167 -47,328 -133,453 -3,5 -8,8 -14,8z"/>
   </g>
   <path class="fil1" d="M3304 530l-1288 -1 0 0c-81,0 -147,67 -147,149l-1 2551c0,82 66,148 147,149l1287 0 0 0c81,0 147,-66 147,-148l2 -2551c0,-82 -66,-149 -147,-149zm82 2700l0 0c0,45 -38,81 -84,81l-1287 0c-23,0 -45,-9 -61,-25 -15,-16 -23,-36 -23,-57l1 -2551c0,-45 38,-82 84,-82l0 0 107 0 1009 0 0 1 172 0c23,0 44,9 60,25 15,15 24,35 24,57l-2 2551z"/>
   <g>
    <g>
     <path class="fil2" d="M3610 1118c-49,0 -97,-9 -142,-28 -43,-19 -82,-45 -116,-78 -33,-34 -60,-72 -78,-116 -19,-45 -29,-92 -29,-141 0,-50 9,-97 28,-142 18,-44 45,-83 78,-117 33,-33 72,-60 116,-78 45,-19 92,-29 142,-29l1 0c49,0 97,9 142,28 43,18 82,45 115,78 34,33 60,72 79,116 19,45 29,92 29,141 0,50 -10,97 -29,142 -18,44 -44,83 -77,117 -34,33 -73,60 -116,78 -45,19 -93,29 -142,29l-1 0z"/>
     <path class="fil12" d="M3610 404c47,0 93,9 135,28 42,17 79,42 111,74 32,32 58,69 75,111 19,43 28,88 28,135 0,48 -9,93 -27,136 -17,42 -42,79 -74,112 -32,32 -70,57 -111,75 -43,18 -89,28 -136,28l-1 0c-47,0 -93,-10 -136,-28 -41,-17 -79,-42 -111,-74 -32,-32 -57,-69 -75,-111 -18,-43 -27,-88 -27,-135 0,-48 9,-93 27,-136 17,-42 42,-79 74,-112 32,-32 69,-57 111,-75 43,-18 89,-28 136,-28l1 0 0 0 0 0zm0 -31l0 0c-1,0 -1,0 -1,0 -210,1 -380,172 -380,382 1,209 171,379 381,379 0,0 1,0 1,0 210,-1 380,-172 379,-382 0,-209 -171,-379 -380,-379z"/>
    </g>
   </g>
   <g>
    <g>
     <polygon class="fil12" points="3847,999 3803,947 3855,990 "/>
    </g>
   </g>
   <g>
    <path class="fil4" d="M3610 754c-10,7 -20,13 -30,19 -10,6 -21,11 -31,17 -11,5 -22,10 -33,14 -10,5 -21,9 -32,14l-33 14 -32 14c-22,9 -44,18 -66,27l0 -2c21,-10 42,-21 63,-32l31 -16 32 -15c11,-6 21,-11 32,-16 10,-6 21,-11 32,-15 11,-5 22,-9 33,-13 11,-4 22,-8 34,-11l0 1z"/>
   </g>
   <path class="fil4" d="M3628 753c0,10 -8,18 -18,18 -10,0 -18,-8 -18,-17 0,-10 8,-18 18,-18 10,0 17,8 18,17z"/>
   <g>
    <path class="fil4" d="M3502 647c9,7 18,15 28,23l14 12 13 12c5,4 10,8 14,12 5,4 9,8 13,13 4,5 8,9 12,14 4,5 7,10 10,16l-1 1c-6,-3 -11,-6 -16,-10 -5,-3 -10,-7 -15,-11 -4,-4 -9,-8 -13,-13 -4,-4 -8,-9 -12,-14l-12 -13 -12 -14c-8,-9 -16,-18 -24,-27l1 -1z"/>
   </g>
   <g>
    <polygon class="fil12" points="3622,412 3610,480 3597,412 "/>
   </g>
   <g>
    <g>
     <polygon class="fil12" points="3597,1095 3610,1027 3622,1095 "/>
    </g>
   </g>
   <g>
    <g>
     <polygon class="fil12" points="3951,766 3883,753 3951,741 "/>
    </g>
   </g>
   <g>
    <g>
     <polygon class="fil12" points="3269,741 3336,753 3269,766 "/>
    </g>
   </g>
   <g>
    <g>
     <polygon class="fil12" points="3855,517 3803,560 3847,508 "/>
    </g>
   </g>
   <g>
    <g>
     <polygon class="fil12" points="3364,990 3416,947 3373,999 "/>
    </g>
   </g>
   <g>
    <g>
     <polygon class="fil12" points="3373,508 3416,560 3364,517 "/>
    </g>
   </g>
   <path class="fil1" d="M3634 373c0,14 -11,24 -24,24 -14,0 -25,-10 -25,-24 0,-13 11,-24 25,-24 13,0 24,11 24,24z"/>
   <polygon class="fil1" points="3616,373 3604,373 3604,0 3616,0 "/>
   <g>
    <path class="fil16" d="M2003 1858l11 -10c15,-15 22,-37 20,-58l-1 -8c0,-2 0,-4 0,-6l6 -28c1,-4 1,-9 -1,-13l0 0c-2,-4 1,-8 5,-9 0,0 0,0 1,0 2,0 3,1 5,2l4 4c6,7 10,15 11,25l1 17 36 -15c7,-2 14,-2 20,2l5 3c3,2 4,4 5,7 0,2 1,4 2,5 4,2 6,6 6,11l0 6c0,3 1,6 3,8 2,2 3,5 3,9l0 0c0,2 0,4 0,6l-8 23c-2,6 -6,10 -11,13 -17,7 -54,22 -54,22l-47 48 -22 -64z"/>
    <path class="fil17" d="M2086 1765l-5 14c-2,4 0,10 5,12l0 0c5,2 6,7 3,11 -1,3 -1,6 2,8l7 5c3,2 5,5 6,8l3 14c0,0 -16,-15 -42,-13l-5 -15c-2,-5 -2,-10 -1,-15l6 -20 21 -9z"/>
    <polygon class="fil14" points="1362,1459 1482,1407 1508,1484 1408,1545 "/>
    <path class="fil18" d="M1692 2373c0,0 94,482 -113,1151l-44 1c0,0 -33,-707 0,-887 34,-180 -15,-256 -15,-256l172 -9z"/>
    <path class="fil19" d="M1595 2362c0,0 -16,261 -208,1154l-57 -2c0,0 -48,-977 28,-1152l237 0z"/>
    <g>
     <polygon class="fil20" points="1363,3525 1352,3525 1374,2446 1386,2446 "/>
    </g>
    <path class="fil7" d="M2009 1848l28 70c0,0 -66,101 -130,175 -41,49 -81,87 -101,79 -51,-19 -89,-178 -89,-178l5 180c63,228 10,311 10,311 -35,-72 -137,-104 -137,-104 -146,98 -293,103 -293,103 -3,-145 53,-254 53,-254l-52 -298c-51,61 -131,113 -158,130 -6,3 -10,5 -10,5 3,3 5,5 8,8l0 0c27,27 67,76 95,110 6,8 11,15 16,20 9,13 15,20 15,20l-48 66c-3,-2 -6,-4 -9,-6 -12,-9 -23,-17 -34,-24 -274,-198 -182,-245 -182,-245 0,0 208,-231 285,-271 4,-1 7,-3 11,-5 5,-2 11,-5 17,-7 68,-27 137,-28 138,-28 159,-14 234,29 234,29 3,1 5,2 8,3 4,1 7,3 11,4 80,43 132,219 132,219 0,0 18,-14 103,-67l74 -45z"/>
    <g>
     <path class="fil14" d="M1349 1583c-3,13 -4,27 -3,40 1,14 6,27 17,35 10,8 25,9 39,8 14,-1 28,-5 42,-10 -13,6 -27,11 -42,14 -14,2 -30,2 -43,-6 -7,-4 -12,-10 -16,-17 -4,-7 -6,-15 -8,-22 -2,-15 -2,-30 1,-45l13 3z"/>
    </g>
    <path class="fil21" d="M1595 2381c-146,98 -293,103 -293,103 -3,-145 53,-254 53,-254l-52 -298 74 176c10,23 14,48 14,73l-1 42 110 17 -1 5c-7,29 -27,54 -53,67l-50 26c-11,5 -18,15 -21,27l-6 27c-4,18 12,34 30,31l196 -42z"/>
    <path class="fil21" d="M1907 2093c-41,49 -81,87 -101,79 -51,-19 -89,-178 -89,-178 0,0 15,-56 0,-108 0,0 70,132 84,193 14,60 124,-7 124,-7l-18 21z"/>
    <path class="fil7" d="M1500 2240c-10,35 -56,6 -79,11 -24,5 -28,37 -49,51 -18,12 -37,18 -56,18 1,-27 2,-54 0,-79 0,-1 0,-3 0,-4 6,-2 12,-6 20,-18 15,-22 16,-33 45,-37 43,-5 91,32 119,58z"/>
    <path class="fil2" d="M1422 1713c27,-8 79,-16 149,0 8,2 14,8 15,15 11,45 42,202 -33,266 0,0 -86,-61 -145,-256 -3,-11 3,-22 14,-25z"/>
    <path class="fil14" d="M1536 3525c-5,27 -5,53 -5,81 11,25 28,18 53,20 3,0 6,-1 9,-1 43,-1 120,-2 120,-2 7,-1 11,-8 6,-13l-2 -2c-9,-9 -20,-16 -33,-20l-45 -14c-15,-4 -27,-13 -35,-25l-25 -25 -43 1z"/>
    <path class="fil14" d="M1330 3514c0,0 -14,27 -14,27 -11,16 -18,46 -7,64 8,12 28,14 42,16 12,2 23,3 35,2 10,0 24,1 33,-3 10,-5 7,-23 4,-31 -3,-12 -10,-23 -16,-34 0,0 -20,-39 -20,-39l-57 -2z"/>
    <path class="fil16" d="M1571 1769c-16,15 -42,21 -62,19 -26,-4 -58,-13 -75,-34 -16,-19 -8,-44 -6,-69 3,-31 1,-59 -11,-88l76 3 26 1c0,0 6,26 7,29 3,10 7,19 12,28 9,18 24,32 35,50 8,14 15,34 6,49 -2,4 -5,8 -8,12z"/>
    <path class="fil17" d="M1563 1694c-70,6 -104,-37 -116,-58 6,3 13,6 20,8 20,4 44,4 61,-7 7,20 16,34 29,50 2,2 4,5 6,7z"/>
    <path class="fil14" d="M1322 1465c-19,6 -35,22 -39,41 -5,19 2,40 16,54 10,9 24,15 35,24 12,9 21,21 26,34 4,10 6,21 12,29 11,14 37,16 50,3 10,-11 12,-26 12,-40 1,-35 -7,-70 -21,-102 -8,-17 -18,-33 -34,-43 -15,-10 -38,-11 -51,1l-6 -1z"/>
    <path class="fil16" d="M1601 1500c0,1 0,2 0,3 -1,35 -9,69 -25,100 -5,9 -10,19 -18,27 -18,20 -65,31 -91,25 -24,-6 -44,-23 -58,-43 -13,-20 -20,-43 -26,-66 -20,3 -41,-14 -41,-33 1,-20 13,-33 42,-29 1,0 2,0 3,-1 55,-9 96,-47 147,-65 9,-3 35,-15 43,-9 3,3 6,8 8,12 5,8 8,17 10,26 3,12 5,23 5,35 1,6 1,12 1,18z"/>
    <path class="fil16" d="M1597 1457c-26,5 -58,3 -96,-5 -10,-2 -21,-3 -30,-3 20,-11 41,-23 63,-31 9,-3 35,-15 43,-9 3,3 6,8 8,12 5,8 8,17 10,26 1,4 2,7 2,10z"/>
    <g>
     <path class="fil2" d="M1383 1548c11,44 32,98 82,110 21,5 41,4 61,-6 16,-8 35,-19 45,-35 2,-3 -3,-6 -5,-3 -9,14 -26,25 -41,33 -20,10 -41,10 -62,5 -45,-12 -64,-65 -74,-105 -1,-3 -7,-2 -6,1z"/>
    </g>
    <path class="fil17" d="M1601 1500c-41,6 -124,11 -168,5 -26,-3 -39,-13 -46,-22 55,-9 96,-47 147,-65 9,-3 35,-15 43,-9 3,3 6,8 8,12 5,8 8,17 10,26 3,12 5,23 5,35 1,6 1,12 1,18z"/>
    <g>
     <path class="fil14" d="M1551 1384c5,-1 3,-8 -1,-7 -5,0 -4,7 1,7z"/>
    </g>
    <path class="fil2" d="M1469 1579l71 -11c2,0 4,2 4,4 -2,11 -10,44 -44,46 -36,1 -35,-28 -34,-36 0,-2 2,-3 3,-3z"/>
    <path class="fil16" d="M1501 2240c-11,35 -57,6 -80,11 -24,5 -28,37 -49,51 -18,12 -37,19 -56,18 -8,-1 -17,-2 -26,-5 -4,-2 -7,-3 -10,-4 0,-1 1,-1 1,-2 4,-4 6,-10 8,-15 6,-15 7,-32 3,-46 0,0 -1,-1 -1,-1 12,-6 19,-7 25,-10 6,-2 12,-6 20,-18 15,-22 16,-33 45,-37 20,-2 41,4 61,15 2,1 3,2 5,2 21,12 40,28 54,41z"/>
    <path class="fil17" d="M1501 2240c-11,35 -57,6 -80,11 -24,5 -28,37 -49,51 -18,12 -37,19 -56,18 -8,-1 -17,-2 -26,-5 -4,-2 -7,-3 -10,-4 0,-1 1,-1 1,-2 4,-4 6,-10 8,-15 3,1 7,2 10,3 12,2 24,3 35,-3 16,-9 31,-23 40,-40 6,-13 -1,-56 7,-72 20,-2 41,4 61,15 1,3 2,5 4,3 1,0 1,0 1,-1 21,12 40,28 54,41z"/>
    <path class="fil16" d="M1330 2230l22 -44c3,-5 4,-11 4,-16l-1 -11c-1,-4 4,-6 7,-4l7 5c7,5 11,13 10,21l-1 24 -48 25z"/>
    <path class="fil14" d="M1340 1567c0,0 -7,94 56,92l-13 -56 -43 -36z"/>
    <g>
     <path class="fil14" d="M1307 1486c0,1 0,0 0,0 0,1 0,0 1,0 0,0 0,0 0,0 0,0 0,-1 0,-1 0,-1 0,-2 0,-3 -1,-2 -4,-4 -8,-6 -3,-1 -7,-2 -12,-2 -4,0 -8,0 -13,0 4,-2 8,-5 12,-7 4,-2 9,-4 14,-5 6,0 12,0 18,2 3,2 7,4 9,7 1,1 3,2 4,4 0,1 1,2 1,3 1,0 1,1 1,1 0,1 0,1 1,3l-28 4z"/>
    </g>
    <g>
     <path class="fil14" d="M1405 1472c-1,4 -2,10 -2,16 0,5 0,10 1,16 1,11 4,22 12,30 -5,-3 -9,-7 -13,-12 -4,-4 -7,-10 -9,-15 -3,-6 -5,-12 -7,-17 -1,-6 -3,-12 -3,-19l21 1z"/>
    </g>
    <path class="fil14" d="M1686 1365c-21,57 -49,84 -89,92 -26,5 -58,3 -96,-5 -10,-2 -21,-3 -30,-3 -43,0 -70,19 -84,34l0 0c-1,1 -2,1 -3,1 -13,-2 -23,0 -29,4l-30 -20c-7,-191 129,-126 129,-126l29 -55c96,-152 238,-18 203,78z"/>
    <g>
     <path class="fil14" d="M1332 1491c-4,-5 -7,-10 -10,-16 -3,-5 -5,-10 -7,-16 -2,-6 -4,-11 -5,-17 -1,-6 -1,-12 1,-18 0,6 2,11 4,16 2,5 5,10 9,14 3,4 7,8 11,12 4,4 8,7 12,10l-15 15z"/>
    </g>
    <g>
     <path class="fil14" d="M1390 1471c8,-5 15,-9 24,-12 8,-3 16,-5 25,-6 17,-3 36,-1 52,7l6 2 5 3c4,1 7,3 11,4 7,3 14,5 22,6 15,4 31,4 47,3 7,-1 15,-2 23,-4 7,-3 14,-5 21,-9 14,-7 26,-17 37,-30 20,-24 30,-56 35,-88 -3,32 -12,65 -31,92 -10,13 -23,24 -37,33 -7,4 -15,7 -23,10 -8,3 -16,5 -24,6 -17,3 -34,3 -50,0 -8,-1 -17,-3 -25,-5 -4,-1 -8,-3 -12,-4l-6 -3 -5 -2c-13,-5 -28,-6 -43,-3 -7,1 -14,4 -21,7 -7,3 -14,6 -19,10l-1 0c-4,4 -11,3 -14,-2 -4,-5 -3,-11 2,-15 0,0 1,0 1,0z"/>
    </g>
    <g>
     <path class="fil22" d="M1619 1256c18,7 33,22 42,40 9,18 10,39 7,59 -2,10 -5,20 -10,29 -3,4 -5,9 -9,13 -1,2 -3,4 -5,6l-5 5c-16,13 -36,20 -56,23 -20,4 -41,4 -61,3 -10,-1 -20,-2 -30,-3 -10,-2 -19,-3 -29,-4l-7 0c-3,0 -5,0 -7,0 -5,0 -10,1 -14,2 -9,2 -18,6 -26,11 -15,10 -24,27 -28,45l-14 -3c5,-21 17,-41 36,-53 9,-5 19,-9 29,-11 6,-1 11,-2 16,-2 3,0 5,0 8,0l8 1c10,1 20,3 30,4 9,2 19,3 29,4 20,2 39,2 59,0 19,-3 38,-9 53,-21l6 -5c2,-2 3,-4 5,-5 3,-4 6,-8 8,-12 5,-9 9,-18 10,-27 4,-20 4,-40 -4,-58 -8,-18 -23,-33 -41,-41z"/>
    </g>
    <path class="fil21" d="M1269 2225l-48 66c-15,-11 -30,-21 -43,-30 24,-7 57,-23 76,-56 9,13 15,20 15,20z"/>
    <path class="fil7" d="M1280 2323c0,0 -59,-1 -81,-32l64 -82 15 12 9 7 10 8c0,0 14,57 -17,87z"/>
    <path class="fil2" d="M1325 1819c-2,12 -3,24 -8,36 4,-12 4,-24 4,-36 0,-12 0,-24 -2,-36 -2,-12 -4,-23 -10,-33 -3,-4 -6,-8 -10,-9 -3,-1 -5,-1 -7,-1 5,-2 11,-5 17,-7 4,3 7,8 9,12 6,13 7,25 8,37 1,13 0,25 -1,37z"/>
    <path class="fil2" d="M1694 1797c-3,-12 -7,-23 -8,-35 0,-6 0,-12 1,-19 1,-2 1,-4 2,-6 4,1 7,3 11,4 -4,6 -6,13 -7,21 -1,11 0,23 1,35z"/>
    <g>
     <g>
      <path class="fil2" d="M1567 1959c22,86 32,174 27,261 -5,-87 -23,-172 -54,-252l27 -9z"/>
     </g>
    </g>
    <path class="fil2" d="M1135 2067c3,3 5,5 8,8 -5,-2 -9,-5 -13,-7 -3,-2 -5,-3 -8,-4 -3,-1 -6,-2 -9,-3 -13,-4 -27,-5 -40,-6 13,-1 27,-2 41,-1 3,0 7,1 10,1 4,1 8,2 11,3 3,2 7,3 10,4 -6,3 -10,5 -10,5z"/>
    <path class="fil2" d="M1287 2228c-1,4 -2,7 -4,10 -4,12 -10,23 -16,33 4,-11 7,-23 9,-34 1,-6 2,-11 2,-16l9 7z"/>
    <polygon class="fil14" points="1977,1377 2137,2109 2171,2091 "/>
    <path class="fil16" d="M2093 1781c4,-3 8,-6 9,-10 0,-4 -4,-8 -8,-7 -6,1 -22,8 -20,14 2,6 13,7 19,3z"/>
    <path class="fil16" d="M2115 1808c2,4 1,10 -4,13 -5,4 -12,4 -18,5 -6,1 -13,2 -13,-5 0,-5 5,-10 10,-13 4,-2 8,-4 12,-4 2,0 4,0 6,1 2,0 4,2 7,3z"/>
    <path class="fil16" d="M2114 1792c0,15 -21,13 -32,10 -2,0 -6,-1 -8,-3 -1,-2 1,-5 3,-7 4,-6 13,-8 20,-8 8,0 15,5 17,8z"/>
    <path class="fil16" d="M2117 1827c3,2 2,7 1,11 -2,4 -7,6 -11,8 -3,3 -9,7 -11,3 -2,-3 0,-10 2,-14 4,-6 12,-9 19,-8z"/>
    <path class="fil21" d="M1732 2485l-24 21c0,0 -7,-63 -7,-63 1,1 24,22 31,42z"/>
   </g>
   <g>
    <path class="fil10" d="M890 2689c19,67 21,145 21,145 1,-1 3,-3 5,-4 112,-103 171,-197 201,-273 -139,92 -34,0 15,-43 24,-80 15,-133 13,-142 0,-1 0,-1 0,-1 0,0 -35,53 -62,59 -26,6 -50,13 -74,33 -24,20 -16,76 -57,93 0,59 -3,182 -28,13 -34,21 -50,64 -34,120z"/>
    <path class="fil23" d="M572 2584c0,0 28,186 191,260 0,0 142,-11 -191,-260z"/>
    <path class="fil24" d="M933 3080c0,0 66,-37 74,-124 0,0 29,-61 77,-53 48,8 110,-83 170,-133 60,-49 123,-37 123,-37 0,0 -71,-23 -165,34 -94,58 -137,94 -137,94l-84 57c0,0 -73,123 -58,162z"/>
    <path class="fil25" d="M933 3081c0,0 0,0 28,-62 28,-61 28,-104 91,-136 61,-32 157,-113 160,-116 -32,18 -86,24 -128,33 -3,26 -13,78 -40,13 -9,5 -14,10 -14,18 -1,36 -36,53 -36,53 -143,89 -61,197 -61,197z"/>
    <path class="fil26" d="M573 2584c16,27 39,57 69,87 142,140 121,173 121,173 0,0 10,64 71,106 0,0 50,-158 -85,-271 -21,-17 -40,-31 -57,-43 7,38 8,75 -42,-27 -71,-44 -109,-68 -119,-201 0,0 -19,76 42,176z"/>
    <path class="fil23" d="M509 2833c0,-2 0,-3 0,-3 0,0 0,2 0,3z"/>
    <path class="fil27" d="M694 2976c0,0 60,6 64,61 3,56 36,122 61,122 0,0 177,-247 -79,-245l-5 0c27,30 75,86 -35,0 -182,-7 -192,-64 -191,-81 -2,21 1,108 185,143z"/>
    <path class="fil27" d="M826 3137c0,0 -2,88 17,254 -4,0 -7,-3 -7,-6 -3,-39 -20,-234 -38,-253 -52,-56 28,5 28,5z"/>
    <path class="fil23" d="M899 2994c0,0 -28,110 -17,386 0,6 -5,11 -11,11 -6,0 -11,-5 -11,-11 1,-56 7,-322 32,-384l7 -2z"/>
    <path class="fil25" d="M940 3076l-22 315c0,4 -4,6 -7,6 -4,0 -7,-3 -6,-7l28 -310 7 -4z"/>
    <g>
     <path class="fil2" d="M1150 2368c-16,40 -33,76 -59,112 -29,40 -59,80 -85,123 -26,43 -50,88 -66,135 -16,48 -20,98 -32,146 -1,5 -8,3 -7,-2 12,-47 16,-95 31,-141 14,-45 36,-87 59,-127 25,-41 52,-81 81,-120 30,-41 53,-81 72,-128 1,-4 8,-2 6,2z"/>
    </g>
    <g>
     <path class="fil27" d="M823 2931c0,-48 -4,-93 -30,-135 -21,-36 -50,-66 -79,-96 -3,-3 2,-8 5,-5 31,32 63,64 84,104 23,41 27,86 27,132 0,5 -7,5 -7,0z"/>
    </g>
    <g>
     <path class="fil24" d="M933 3079c3,-53 13,-111 49,-153 2,-2 4,1 3,3 -35,40 -46,98 -48,150 0,3 -4,3 -4,0z"/>
    </g>
    <path class="fil28" d="M587 3169c0,0 53,-66 96,-34 44,31 100,148 100,148 0,0 20,-101 -66,-161 -85,-60 -137,30 -137,30l7 17z"/>
    <path class="fil29" d="M409 3392c0,0 -5,-163 67,-162 15,0 29,-3 42,-8 59,-83 55,-61 40,-24 11,-9 20,-19 29,-29 0,0 0,-1 0,-1 12,-14 21,-28 28,-39 20,-29 78,-15 96,-9 4,1 6,2 6,2 -4,-4 -89,-91 -193,-35 48,11 95,27 -29,34 -13,21 -37,51 -72,67 -59,29 -14,204 -14,204z"/>
    <path class="fil28" d="M777 3270c0,0 21,90 25,143 0,3 2,5 4,5 3,0 5,-3 4,-6 -3,-24 -20,-131 -33,-163 -16,-36 0,21 0,21z"/>
    <g>
     <path class="fil2" d="M749 3129c-21,-42 -117,-38 -153,-17 -34,20 -55,54 -96,61 -4,1 -6,-6 -2,-7 51,-9 76,-65 127,-73 34,-5 113,-1 130,32 2,4 13,26 11,22l-17 -18z"/>
    </g>
    <path class="fil23" d="M910 2832c0,0 -43,77 -17,193 0,0 21,-161 134,-318 0,0 -106,58 -117,125z"/>
    <path class="fil24" d="M994 3216c50,-21 61,-48 61,-48 0,0 5,-11 82,-44 6,-3 12,-6 17,-9 -62,3 -1,-20 36,-33 20,-31 17,-62 17,-62 -18,16 -76,34 -76,34 -153,57 -137,162 -137,162z"/>
    <g>
     <path class="fil2" d="M994 3218c7,-30 31,-52 54,-72 29,-25 61,-45 92,-66 1,-1 3,1 1,3 -29,20 -59,38 -86,61 -24,20 -51,43 -59,75 0,2 -3,1 -2,-1z"/>
    </g>
    <path class="fil28" d="M944 3295l-24 103c0,2 -2,3 -4,2 -2,-1 -2,-2 -2,-4 4,-15 22,-80 25,-103 3,-25 5,2 5,2z"/>
    <path class="fil24" d="M999 3213c0,0 -37,113 -40,168 0,2 -2,3 -4,3 -1,0 -2,-2 -2,-4 3,-18 19,-119 41,-164l5 -3z"/>
    <path class="fil28" d="M937 3316c16,-75 48,-57 48,-57 106,2 140,-41 142,-43 -1,1 -31,29 -94,13 -13,11 -45,37 -18,-5 -4,-2 -7,-3 -11,-5 -85,-35 -67,97 -67,97z"/>
    <path class="fil26" d="M1064 3432c0,107 -86,194 -193,194 -57,0 -107,-24 -143,-63 -31,-34 -51,-80 -51,-131 0,-32 8,-62 22,-89 2,-3 3,-6 5,-9l333 0c17,29 27,62 27,98z"/>
    <path class="fil30" d="M929 3453c0,60 -89,110 -201,110 -31,-34 -51,-80 -51,-131 0,-32 8,-62 22,-89 9,-1 18,-1 27,-1 112,0 203,50 203,111z"/>
    <polygon class="fil14" points="1046,3352 696,3352 696,3316 1046,3316 "/>
   </g>
   <g>
    <path class="fil1" d="M0 3626l732 -9 732 -7 367 -4 183 -2 91 1 92 0 183 3c61,1 122,2 183,4 122,3 244,7 366,14l0 4c-122,7 -244,11 -366,14 -61,2 -122,2 -183,4l-183 2 -92 1 -91 0 -183 -1 -367 -4 -732 -7 -732 -9 0 -4z"/>
   </g>
   <path class="fil14" d="M4173 1639c2,5 4,9 6,13 1,5 3,9 4,13 3,9 5,17 7,26 4,18 6,36 6,54 0,35 -9,72 -27,102 -9,16 -20,30 -32,42 -3,4 -6,6 -10,9l-4 5 -6 4 -10 8 -11 7c-29,20 -61,34 -94,44 33,-12 64,-28 91,-48l10 -8 10 -9 4 -4 5 -4c3,-4 6,-6 8,-10 12,-12 21,-26 29,-41 15,-30 21,-64 19,-97 -1,-16 -4,-33 -9,-49 -2,-8 -4,-16 -7,-24 -2,-3 -3,-7 -5,-11 -2,-4 -3,-8 -5,-11l21 -11z"/>
   <path class="fil14" d="M3639 1404c8,22 10,46 7,68 -4,23 -12,43 -24,62 -22,39 -58,64 -79,99 -5,9 -9,18 -11,27 -1,3 -1,5 -2,8 0,2 0,5 0,7l-1 7c1,3 1,5 1,8 2,20 12,39 25,54 14,15 31,27 50,37 19,9 39,16 59,21 -21,-4 -41,-10 -60,-18 -20,-9 -38,-21 -53,-36 -15,-15 -27,-35 -30,-57 0,-3 -1,-5 -1,-8l0 -8c0,-3 0,-6 0,-9 1,-2 1,-5 2,-8 2,-11 6,-21 11,-31 21,-39 56,-66 74,-101 9,-18 16,-37 18,-57 2,-19 -1,-38 -8,-56 -3,-6 0,-13 6,-15 6,-3 13,0 15,6 1,0 1,0 1,0l0 0z"/>
   <path class="fil14" d="M3830 1410c-19,-17 -43,-27 -60,-47 -18,-21 -36,-44 -39,-71 -8,-70 56,-108 120,-101 63,6 116,37 133,101 13,50 16,101 46,147 16,23 38,41 59,60 7,7 14,13 21,20 30,34 55,72 67,114 4,10 6,21 8,32 16,79 -30,156 -89,206 -46,37 -105,41 -151,14 -77,-50 -72,-146 -98,-221 -4,-14 -8,-28 -12,-41 -2,-9 -2,-19 -2,-29 3,-51 30,-100 15,-153 -5,-15 -14,-22 -18,-31z"/>
   <path class="fil14" d="M3850 1652l-13 -40 0 -1 0 -1c-1,-9 -2,-19 -1,-29 0,-10 1,-19 3,-29 4,-18 9,-36 12,-54 4,-17 6,-35 4,-52 -1,-4 -1,-8 -2,-12 -1,-5 -2,-8 -4,-12 -2,-4 -4,-7 -6,-11 -3,-3 -6,-7 -9,-12l2 2c-16,-15 -38,-24 -55,-42 -5,-5 -8,-9 -12,-14 -4,-4 -7,-9 -11,-14 -7,-10 -13,-20 -17,-32 -2,-6 -4,-12 -5,-18 0,-3 0,-6 -1,-9 0,-3 0,-6 0,-9 0,-12 3,-25 8,-36 5,-12 12,-22 22,-30 10,-8 21,-14 32,-18 23,-7 48,-8 71,-5 24,3 47,10 68,21 10,6 20,13 29,21 2,2 4,4 6,7 2,2 4,4 6,7l5 7c1,1 2,3 2,4l3 4c1,2 2,5 4,8l3 8c2,3 2,5 3,8 1,3 2,6 3,9 4,11 6,22 9,34 4,22 8,45 15,67 3,11 7,21 12,31 1,3 3,5 5,8 1,2 2,4 4,7l5 7 6 6c29,35 67,63 95,101 14,18 25,39 33,61 8,22 12,45 10,68 -2,24 -12,46 -25,65 -13,19 -29,36 -46,52l0 -1c-7,9 -14,19 -19,30 -4,10 -7,22 -8,33 1,-11 3,-23 8,-34 4,-10 11,-20 18,-29l0 0 0 0c17,-16 33,-33 46,-52 13,-19 22,-41 23,-64 2,-23 -2,-46 -10,-67 -8,-21 -20,-41 -34,-60 -28,-36 -66,-63 -96,-99l-6 -6 -5 -7c-2,-3 -4,-5 -5,-8 -2,-2 -3,-5 -5,-7 -5,-11 -10,-22 -14,-33 -7,-22 -10,-45 -15,-68 -3,-11 -6,-22 -9,-33 -4,-10 -8,-21 -13,-31l-3 -3c0,-2 -1,-3 -2,-4l-5 -7c-1,-2 -3,-4 -5,-6 -2,-2 -4,-4 -6,-6 -8,-7 -17,-14 -27,-19 -20,-11 -42,-17 -64,-19 -22,-3 -45,-1 -66,6 -10,3 -20,9 -28,15 -8,7 -14,16 -19,26 -4,9 -6,20 -6,31 0,3 1,5 1,8 0,3 0,6 1,8 0,5 2,10 4,15 4,10 9,20 16,29 3,4 7,9 10,13 4,4 8,9 11,12 15,16 37,25 56,42l0 0 1 2c4,6 11,14 15,23 3,5 4,10 5,15 2,4 3,9 3,14 3,20 1,39 -3,58 -3,18 -8,36 -11,53 -2,9 -3,18 -3,27 0,8 0,17 1,26l0 -2 13 40 -18 6z"/>
   <path class="fil31" d="M3948 1496c19,16 36,35 50,57 13,21 22,46 25,72 2,26 -3,53 -14,77 -11,24 -27,45 -44,64 -4,4 -10,4 -14,0 -4,-3 -4,-9 0,-13 0,0 0,0 0,-1 18,-16 34,-35 45,-57 11,-21 18,-45 17,-69 -1,-25 -8,-49 -19,-71 -12,-22 -28,-42 -46,-59z"/>
   <path class="fil31" d="M4054 1545c11,11 22,24 30,37 5,7 9,14 13,22 3,7 7,14 10,22 6,15 10,31 13,48 2,16 2,33 1,49 -2,17 -6,34 -11,49 -6,16 -13,32 -23,46 -10,14 -21,27 -35,38 -13,11 -28,20 -44,27 -8,3 -16,0 -19,-7 -3,-8 0,-16 7,-19 1,0 1,0 1,-1l0 0c14,-4 28,-11 40,-20 12,-8 23,-19 33,-31 9,-12 17,-25 23,-39 6,-14 11,-29 13,-45 3,-15 4,-31 3,-46 -1,-16 -4,-32 -9,-47 -2,-7 -5,-15 -8,-22 -3,-8 -7,-15 -11,-22 -7,-14 -16,-27 -27,-39z"/>
   <path class="fil14" d="M3761 1288c-61,-20 -161,27 -152,101 6,52 50,103 32,157 -12,36 -50,55 -70,86 -23,35 -23,74 5,107 41,54 100,18 136,-12 6,-4 12,-8 18,-11 35,-15 71,-46 82,-84 14,-44 5,-83 -5,-126 -11,-45 -19,-98 -46,-218z"/>
   <path class="fil10" d="M3496 2490c1,3 1,6 2,9 1,3 1,5 2,8 15,47 64,71 113,72 15,1 30,-1 43,-6 43,-12 65,-50 77,-91 0,0 0,0 0,0 7,-26 10,-54 13,-79 0,-2 0,-4 1,-5 2,-28 3,-55 3,-83 0,-9 0,-19 0,-29 0,-1 0,-2 0,-4 -1,-5 -1,-10 -1,-16 0,-1 0,-3 0,-5 -1,-26 -1,-52 -1,-78 0,-11 0,-22 0,-32 1,-21 1,-41 -1,-60 0,-4 0,-8 -1,-13 -2,-26 -6,-52 -9,-79 -7,-53 -7,-106 -12,-159 -1,-12 26,-19 34,-114 1,-8 2,-17 2,-27 0,-2 0,-3 0,-5 0,0 0,0 0,0 1,-11 1,-24 0,-38 -1,3 -2,5 -4,7 -2,2 -4,4 -6,5l0 0c0,1 -1,1 -2,2l0 0c-3,3 -7,5 -11,7 -19,11 -43,16 -43,16 0,0 -6,18 -16,45l0 0c-20,54 -55,145 -85,202 0,0 0,0 0,0 -2,5 -4,9 -7,13 -2,4 -3,7 -5,10l0 0c-10,16 -19,27 -26,29 0,5 18,85 29,132 0,2 1,4 1,6 0,1 0,1 0,1 3,14 5,23 5,25 1,14 0,28 -2,41 -1,9 -2,16 -4,24 0,0 0,0 0,1 -9,35 -24,68 -44,98 -8,13 -16,26 -23,39 -1,3 -2,5 -3,8 -1,2 -2,3 -2,5 -1,1 -2,3 -2,5 -15,35 -22,73 -15,113z"/>
   <path class="fil10" d="M3761 1645c0,0 -173,14 -220,202 -46,188 -47,220 -47,220 0,0 -45,-36 -187,-129l-67 41c0,0 110,209 272,228 0,0 78,7 110,-140 32,-147 139,-422 139,-422z"/>
   <path class="fil13" d="M3750 2286c-1,-1 -1,-2 -2,-4 -3,-6 -5,-12 -7,-17 -4,-9 -6,-15 -6,-16 0,-5 -28,-64 -43,-95 -6,-10 -10,-18 -10,-19 -2,-2 -17,1 -30,3 -3,1 -6,2 -9,2 0,0 0,0 0,0 -5,1 -8,2 -8,2 0,0 1,5 3,14 3,18 9,51 11,88l0 0c2,52 -5,110 -36,145 -37,41 -71,16 -92,-13 -1,-2 -2,-3 -3,-4 -1,-2 -2,-3 -3,-5 -1,2 -2,3 -2,5 -1,1 -2,3 -2,5 -15,35 -22,73 -15,113 1,3 1,6 2,9 1,3 1,5 2,8 15,47 64,71 113,72 15,1 30,-1 43,-6 43,-12 65,-50 77,-91 0,0 0,0 0,0 7,-26 10,-54 13,-79 0,-2 0,-4 1,-5 2,-28 3,-55 3,-83 0,-9 0,-19 0,-29z"/>
   <path class="fil16" d="M3743 1708c14,41 78,13 96,-8 25,-28 21,-52 25,-87 3,-20 4,-36 5,-47 3,-61 -18,-29 -105,-27 10,21 13,52 8,77 0,1 0,2 0,3 -6,23 -37,67 -29,89z"/>
   <path class="fil20" d="M3688 2257c0,0 -75,310 -95,507 -4,41 5,82 25,117l347 598 52 -31c0,0 -92,-488 -225,-596l164 -415 -268 -180z"/>
   <path class="fil17" d="M3772 1616c53,6 82,-25 97,-50 3,-61 -18,-29 -105,-27 10,21 13,52 8,77z"/>
   <path class="fil32" d="M3692 2257c0,0 29,147 44,636 0,0 -4,356 -31,631 0,0 11,15 50,9 0,0 192,-526 123,-650 0,0 145,-225 126,-349 -18,-125 -255,-285 -255,-285l-57 8z"/>
   <path class="fil16" d="M3698 1417c0,6 0,12 0,19 0,69 51,160 129,134 6,-2 13,-4 19,-7 18,-8 33,-21 42,-41 4,-6 8,-12 11,-19 5,-11 8,-22 10,-33 3,-14 3,-26 -2,-38 -9,-26 -39,-51 -105,-88 -19,-10 -40,-21 -64,-33 -16,29 -31,50 -37,79 -2,8 -3,17 -3,27z"/>
   <path class="fil2" d="M3860 1649c0,0 -107,136 -103,5 0,0 -158,157 -95,565 4,26 21,47 45,55 23,8 56,13 103,5l50 -630z"/>
   <g>
    <path class="fil14" d="M3728 3541c11,-47 21,-94 31,-142 9,-47 18,-95 25,-143 8,-47 14,-95 19,-143 2,-24 4,-48 6,-72 1,-24 1,-48 0,-72 0,-6 0,-12 -1,-18 0,-6 -1,-12 -2,-18l-1 -9c0,-3 -1,-6 -1,-9 -2,-5 -4,-10 -8,-14 -1,-2 -3,-4 -5,-6 -1,0 -1,-1 -2,-1l-1 -1 0 0c-1,0 -1,-1 -2,-1 -1,-2 -2,-5 -1,-7 1,-2 3,-3 5,-4 1,0 1,0 1,0l1 0 0 0 1 0 3 0 4 0 9 0 18 0c3,0 8,0 6,0 0,0 0,0 0,0 0,0 0,0 0,0 0,0 0,0 0,0 0,0 0,0 0,0l0 -1 -13 -13 -1 -1c-1,-1 -1,-1 -2,-2 -1,-2 -2,-3 -3,-5 -2,-3 -3,-7 -3,-11 -1,-3 0,-7 2,-11 1,-1 1,-3 2,-4l2 -4c1,-3 2,-5 4,-8 1,-3 2,-5 3,-8 10,-22 18,-45 25,-68 6,-23 11,-46 15,-70l2 -18c1,-6 1,-12 2,-18 1,-12 2,-24 2,-36 2,-48 -2,-96 -11,-144l1 0c2,12 5,24 7,36l6 36 1 18 1 9c1,3 1,6 1,9l1 18 0 9c0,3 0,6 0,9 0,49 -7,98 -19,145 -7,23 -15,46 -25,69 -1,3 -2,5 -3,8 -2,3 -3,6 -4,9l-2 4c-1,1 -2,2 -2,3 -1,2 -2,5 -2,7 0,2 1,5 2,7 1,1 1,1 2,2 0,1 1,1 2,2l1 1 13 13 0 1 1 1c0,0 1,1 1,2 1,1 1,2 1,4 0,3 -2,6 -4,7 -1,1 -3,2 -4,2 -1,0 -1,0 -1,0l-1 0 0 0 -1 0 -5 0 -18 0 -17 0c1,0 2,-2 1,-4 0,0 0,0 0,0l0 0 1 1c1,0 1,1 2,1 3,3 5,5 7,8 4,5 7,11 9,17 1,4 1,7 1,10l1 9c1,6 1,12 2,18 1,6 1,12 1,18 1,25 0,49 -1,73 -2,24 -4,48 -7,73 -5,48 -12,96 -20,143 -8,48 -18,95 -28,143 -10,47 -20,94 -32,141l-1 0z"/>
   </g>
   <path class="fil10" d="M3753 2391c3,38 23,74 40,107 33,63 86,106 159,106 40,0 82,-1 111,-33 24,-27 37,-69 41,-105 6,-60 -8,-127 -32,-182 -5,-12 -10,-23 -16,-35 -10,-21 -19,-42 -27,-64 -2,-8 -4,-15 -6,-23 -6,-24 -10,-49 -17,-73 -18,-67 -16,-276 -20,-345 0,-17 -3,-45 -120,-98 -16,-7 -74,159 -80,175 -13,35 -21,71 -21,109 0,66 -3,132 3,198 5,60 7,116 -4,175 -5,28 -13,59 -11,88z"/>
   <path class="fil13" d="M3869 2191c59,82 148,68 187,58 -10,-21 -19,-42 -27,-64 -2,-8 -4,-15 -6,-23 -79,-37 -205,-41 -154,29z"/>
   <path class="fil17" d="M3701 1390c10,-22 22,-31 35,1 26,62 127,100 163,112 5,-11 8,-22 10,-33 3,-14 3,-26 -2,-38l-74 -37 -31 -51c-19,-10 -40,-21 -64,-33 -16,29 -31,50 -37,79z"/>
   <path class="fil14" d="M3940 1587c23,-40 -13,-102 -47,-126 -16,-11 -36,-18 -53,-27 -19,-11 -38,-22 -54,-35 -35,-30 -83,-101 -39,-143 40,-38 113,19 143,46 27,25 50,56 64,90 15,35 9,67 -14,195z"/>
   <g>
    <path class="fil2" d="M3896 1516c-26,71 -139,87 -175,14 -2,-5 5,-9 8,-4 32,65 135,53 159,-12 2,-5 10,-3 8,2z"/>
   </g>
   <path class="fil2" d="M3778 1512l61 -16c0,0 6,34 -26,40 -33,6 -35,-24 -35,-24z"/>
   <path class="fil31" d="M3831 1221c-25,5 -52,19 -62,44 -5,12 -6,25 -4,39 1,7 2,13 5,20 2,6 5,12 9,18 7,11 18,21 29,28 12,8 24,15 37,21 12,7 25,13 37,21 12,8 23,18 29,31 -7,-13 -18,-22 -30,-29 -12,-8 -25,-13 -38,-19 -13,-6 -26,-12 -38,-20 -12,-8 -23,-17 -32,-29 -4,-6 -8,-13 -11,-19 -3,-7 -5,-14 -6,-22 -1,-7 -2,-14 -1,-22 0,-7 1,-15 4,-22 6,-15 16,-27 28,-36 6,-4 13,-8 20,-11 7,-3 13,-6 21,-7 4,-1 8,1 9,5 1,4 -2,8 -6,9 0,0 0,0 0,0l0 0z"/>
   <path class="fil14" d="M3740 1319c0,0 0,1 -1,2 0,1 0,3 -1,4 0,2 0,5 -1,7 0,6 1,11 2,16 2,11 7,21 14,30 3,5 7,10 10,14 5,4 8,9 13,13 9,8 18,16 28,22 9,7 20,14 30,19 11,6 22,11 33,16 11,5 23,10 32,19 9,8 16,19 20,30 -5,-11 -12,-21 -21,-29 -10,-7 -21,-12 -33,-16 -11,-4 -22,-8 -34,-13 -11,-5 -22,-11 -33,-18 -10,-6 -20,-13 -30,-21 -5,-4 -9,-8 -14,-13 -4,-4 -9,-9 -13,-14 -8,-10 -15,-22 -18,-35 -2,-6 -3,-13 -4,-20 0,-3 1,-7 1,-11 0,-1 1,-3 1,-5 1,-2 1,-3 2,-6l1 -1c2,-5 8,-7 13,-5 4,2 7,8 4,13 0,0 0,1 -1,2z"/>
   <path class="fil14" d="M3755 3533l-3 94 -191 -1c0,0 13,-50 124,-48l22 -52 48 7z"/>
   <path class="fil14" d="M4014 3450l28 61c4,9 3,20 -3,27l-77 95 -110 -1c0,0 7,-63 86,-71l30 -84 46 -27z"/>
   <g>
    <path class="fil2" d="M3652 1761c-19,40 -34,82 -45,126l-3 16 -2 8 -2 8 -3 17 -2 16 -1 8c-1,3 -1,6 -1,9l-2 16 0 4 0 5 0 8c0,6 -1,11 -1,17l1 16c0,6 1,11 1,17 1,11 2,23 2,34 2,22 3,45 2,68 0,22 -1,45 -6,67 -3,11 -6,22 -11,33 -4,10 -10,20 -16,29l-1 0c6,-10 11,-20 15,-30 4,-11 7,-22 9,-33 4,-22 5,-44 4,-66 0,-23 -1,-45 -3,-68 -1,-11 -2,-22 -4,-33 -1,-11 -1,-23 -2,-34 -2,-45 3,-91 15,-135 6,-22 13,-44 23,-65 4,-10 9,-20 15,-30l4 -7 4 -8c3,-5 6,-9 9,-14l1 1z"/>
   </g>
   <path class="fil7" d="M3475 2064c0,0 -11,-54 34,-16 45,38 -14,69 -34,16z"/>
   <path class="fil21" d="M3498 2039c0,0 31,13 35,47 0,0 6,-36 -33,-58l-2 11z"/>
   <g>
    <path class="fil2" d="M3765 2303c-2,11 -2,22 -3,34 0,11 0,22 0,33 1,22 3,45 8,66 5,22 12,43 22,62l4 7c2,3 3,5 4,7 1,1 2,3 3,4l2 3c2,2 3,5 5,7 3,4 7,8 11,12 2,2 3,4 5,6l7 5c2,2 4,4 6,5 2,2 4,4 7,5 4,4 9,7 13,10 10,6 20,11 30,16 20,9 41,15 63,17 22,3 45,0 66,-7 11,-4 21,-9 30,-15 9,-6 18,-13 25,-22l1 0c-7,10 -15,18 -25,24 -9,7 -19,12 -30,16 -21,9 -44,12 -67,10 -23,-1 -45,-7 -66,-16 -11,-5 -21,-10 -31,-16 -5,-3 -10,-6 -15,-9 -2,-2 -4,-3 -7,-5 -2,-2 -4,-3 -7,-5l-6 -6c-2,-2 -4,-4 -6,-6 -5,-4 -8,-8 -12,-13 -2,-2 -4,-4 -6,-7l-2 -3c-1,-1 -2,-2 -3,-4 -1,-2 -3,-4 -5,-7l-4 -7c-12,-21 -19,-43 -23,-65 -2,-12 -4,-23 -5,-35 0,-11 -1,-22 0,-34 0,-11 1,-23 3,-34 1,-11 3,-22 6,-33l2 0z"/>
   </g>
   <path class="fil16" d="M3298 1943l0 -17 9 -28c2,-8 1,-17 -4,-24l-41 -59c0,0 -16,27 10,45 0,0 -30,30 0,58l16 31 10 -6z"/>
   <g>
    <path class="fil33" d="M3663 1859l-62 -6 7 -78c11,-111 -71,-211 -183,-221 -111,-11 -211,71 -221,183l-8 78 -62 -6 8 -78c14,-146 143,-253 289,-239 146,14 253,144 239,289l-7 78z"/>
   </g>
   <path class="fil7" d="M3749 1884l-47 487 -704 -67 47 -488c3,-27 27,-48 55,-45l604 58c27,2 48,27 45,55z"/>
   <polygon class="fil12" points="3710,2288 3702,2371 2998,2304 3006,2221 "/>
   <path class="fil21" d="M3433 2042c3,-34 -22,-65 -57,-68 -34,-4 -65,22 -68,56 -2,24 9,46 27,58l-5 52c-1,16 11,31 27,32 17,2 31,-10 33,-27l5 -51c20,-9 35,-28 38,-52z"/>
   <path class="fil16" d="M3706 2095l-20 -21 -28 -35c-3,-3 -7,-4 -11,-2 -4,2 -6,6 -4,10l10 38 -102 -46c-3,-2 -6,0 -8,3 -1,2 0,5 2,7l60 39 -66 -27c-3,-2 -8,0 -9,3 -2,4 0,8 3,10l60 33 -68 -21c-4,-1 -8,2 -8,6l0 0c0,3 1,5 4,6 14,7 63,29 63,29l-52 -10c-5,-1 -9,3 -8,8 0,2 2,4 4,5l69 22 41 14c11,4 21,4 32,1l27 -7 40 -20 -31 -45z"/>
   <path class="fil12" d="M3749 1884l-3 28 -704 -67 3 -29c3,-27 27,-48 55,-45l604 58c27,2 47,27 45,55z"/>
   <path class="fil10" d="M3860 1659c27,19 62,22 93,31 39,13 60,56 70,93 20,70 49,134 60,206 5,37 9,75 13,112 4,41 3,69 -35,92 -41,26 -92,20 -139,16 -50,-5 -100,-12 -150,-20 -29,-5 -72,-5 -80,-40 -3,-15 1,-31 3,-46 1,-6 7,-11 13,-12 67,-2 134,3 201,1 3,-65 -20,-122 -25,-185 -4,-54 -9,-122 17,-171 9,-17 24,-24 8,-41 -7,-7 -27,-20 -49,-36z"/>
   <g>
    <path class="fil2" d="M3947 1691c-23,4 -45,16 -59,34 -8,9 -13,20 -17,31 -4,10 -6,22 -7,34 -1,11 0,23 1,35 0,2 1,5 1,8l1 4c0,1 0,2 0,2l1 2c1,6 2,12 4,18 1,5 3,11 4,17 2,6 3,11 5,17 4,11 7,22 14,33l-1 0c-5,-4 -9,-9 -12,-14 -2,-2 -3,-5 -5,-8 -1,-2 -3,-5 -4,-8 -5,-11 -9,-23 -13,-34 -2,-6 -3,-12 -5,-18l0 -2c0,-1 0,-2 0,-3l-1 -4c0,-3 -1,-6 -1,-9l0 -10 0 -9c0,-3 0,-6 1,-9l0 -5 0 -4c2,-13 5,-25 9,-36 5,-12 12,-23 20,-32 4,-4 9,-8 14,-12 5,-4 10,-7 16,-9 11,-6 22,-9 34,-11l0 2z"/>
   </g>
   <g>
    <path class="fil2" d="M3849 2091c13,-1 25,-2 38,-3 13,-1 26,-1 38,0 7,0 13,0 20,1 6,0 13,1 19,3 6,1 12,4 18,7 6,3 12,6 16,11l0 1c-12,-4 -24,-6 -37,-8 -6,0 -12,-1 -18,-3 -6,-1 -12,-2 -18,-3 -7,-1 -13,-1 -19,-2 -6,0 -13,-1 -19,-1 -13,-1 -25,-1 -38,-1l0 -2z"/>
   </g>
   <g>
    <path class="fil2" d="M3954 2084c3,0 6,-1 8,-1 3,0 5,0 8,0 5,0 10,0 15,0 5,1 10,2 14,4 5,1 9,4 13,6 -4,-1 -9,-2 -13,-3 -5,0 -10,0 -14,1 -5,0 -9,1 -14,2 -2,1 -4,2 -6,2 -2,1 -4,2 -6,3l-5 -14z"/>
   </g>
   <g>
    <path class="fil1" d="M3204 3626l250 -5 251 -4 501 -7 125 -2 126 -2c83,-2 167,-2 250,0l125 2c42,2 84,2 126,4 83,3 167,7 250,14l0 4c-83,7 -167,11 -250,14 -42,2 -84,3 -126,4l-125 3c-83,1 -167,1 -250,-1l-126 -2 -125 -2 -501 -7 -251 -4 -250 -5 0 -4z"/>
   </g>
   <path class="fil2" d="M3339 2120l-12 -1 2 -28c-26,-22 -33,-53 -21,-82 13,-30 41,-47 69,-41l-2 12c-26,-5 -47,14 -55,34 -11,25 -4,51 19,69 2,1 3,3 3,5l-3 32z"/>
   <path class="fil2" d="M3488 2358l-490 -48c-4,0 -6,-3 -6,-7l35 -361 13 2 -35 354 484 48 -1 12z"/>
   <polygon class="fil2" points="3346,1802 3112,1778 3114,1765 3348,1789 "/>
   <g>
    <path class="fil1" d="M2277 2692l-9 -34c-2,-7 -9,-11 -16,-9l-35 11c-12,4 -21,-11 -12,-21l26 -25c5,-5 4,-13 -1,-18l-27 -25c-9,-8 -1,-24 12,-21l35 9c7,2 14,-2 15,-9l8 -35c3,-12 21,-13 24,0l9 34c2,7 9,11 16,9l34 -11c13,-4 22,11 13,21l-26 25c-5,5 -5,13 1,18l26 25c10,8 1,24 -11,21l-35 -9c-7,-2 -14,2 -15,9l-8 34c-3,13 -21,14 -24,1z"/>
    <path class="fil1" d="M2653 2692l-9 -34c-2,-7 -9,-11 -16,-9l-34 11c-13,4 -22,-11 -13,-21l26 -25c5,-5 5,-13 0,-18l-27 -25c-10,-8 -1,-24 11,-21l35 9c7,2 14,-2 15,-9l8 -35c3,-12 21,-13 24,0l9 34c2,7 9,11 16,9l35 -11c12,-4 21,11 12,21l-26 25c-5,5 -4,13 1,18l27 25c9,8 1,24 -12,21l-35 -9c-7,-2 -14,2 -15,9l-8 34c-3,13 -21,14 -24,1z"/>
    <path class="fil1" d="M3022 2692l-10 -34c-1,-7 -9,-11 -15,-9l-35 11c-12,4 -21,-11 -12,-21l25 -25c5,-5 5,-13 0,-18l-27 -25c-9,-8 -1,-24 12,-21l35 9c7,2 13,-2 15,-9l8 -35c2,-12 20,-13 24,0l9 34c2,7 9,11 15,9l35 -11c12,-4 22,11 13,21l-26 25c-5,5 -5,13 0,18l27 25c10,8 1,24 -11,21l-35 -9c-7,-2 -14,2 -16,9l-7 34c-3,13 -21,14 -24,1z"/>
   </g>
  </g>
 </g>
</svg>
