<?xml version="1.0" encoding="UTF-8"?>
<!DOCTYPE svg PUBLIC "-//W3C//DTD SVG 1.1//EN" "http://www.w3.org/Graphics/SVG/1.1/DTD/svg11.dtd">
<!-- Creator: CorelDRAW X7 -->
<svg xmlns="http://www.w3.org/2000/svg" xml:space="preserve" width="0.962953in" height="0.634291in" version="1.1" style="shape-rendering:geometricPrecision; text-rendering:geometricPrecision; image-rendering:optimizeQuality; fill-rule:evenodd; clip-rule:evenodd"
viewBox="0 0 963 634"
 xmlns:xlink="http://www.w3.org/1999/xlink">
 <defs>
  <style type="text/css">
   <![CDATA[
    .fil0 {fill:#783D1D}
    .fil1 {fill:#F2AE03}
   ]]>
  </style>
 </defs>
 <g id="Layer_x0020_1">
  <metadata id="CorelCorpID_0Corel-Layer"/>
  <g id="_854724896">
   <path class="fil0" d="M1 246l0 388 85 0 0 -289c0,-20 -1,-39 -1,-60 0,-20 0,-40 0,-60 0,-18 4,-39 8,-53 7,-24 16,-42 32,-60l11 -11c41,-32 93,-36 143,-28 24,4 55,16 74,29 3,1 5,2 7,4 2,1 4,3 6,4 19,15 37,33 48,55 26,52 6,64 26,76 7,5 22,8 32,9 6,1 13,1 19,2 6,0 12,1 18,1 7,1 13,1 19,2 37,4 84,8 106,38 5,7 11,19 11,31l83 0c3,0 1,-4 1,-9 -2,-10 -4,-20 -7,-29 -6,-16 -11,-27 -20,-39l-6 -7c-1,-1 -2,-2 -3,-3 -2,-3 -8,-8 -12,-12 -1,-1 -2,-1 -4,-2 -21,-16 -48,-28 -73,-34 -6,-2 -13,-3 -19,-5 -19,-5 -40,-8 -60,-12l-15 -3c-1,0 -3,0 -5,-1 0,-7 -12,-30 -16,-36 -12,-23 -29,-42 -48,-59l-14 -12c-28,-21 -53,-34 -88,-45 -15,-5 -37,-10 -54,-13 -51,-7 -108,-3 -155,17 -11,5 -28,14 -38,21l-15 12c-6,5 -11,10 -17,16 -13,14 -14,16 -26,33 -1,2 -2,3 -2,5 -1,2 -2,3 -3,5 -2,3 -4,6 -5,10 -1,2 -2,3 -3,5 0,1 -1,3 -2,5 -9,23 -19,59 -18,85 0,5 -1,9 -1,14l1 15z"/>
   <path class="fil1" d="M644 130c0,26 9,49 24,68 1,1 2,3 3,4 4,6 10,12 16,17l7 6c6,5 12,10 19,14l13 7c2,1 3,1 5,2 2,1 3,1 5,2 14,5 27,8 42,11 26,3 37,-5 68,11 16,8 32,28 32,47 0,13 -2,21 -8,31 -2,4 -5,7 -7,9 -2,3 -6,6 -9,8 -13,11 -32,17 -50,17 -11,0 -19,-2 -27,-5 -4,-1 -8,-2 -11,-4l-11 -6c-12,-8 -21,-21 -25,-35 0,-1 0,-2 -1,-2l-84 0c0,12 6,29 11,40 2,4 4,8 7,11 1,2 2,4 3,5 1,2 2,4 4,5 43,54 116,70 182,54 5,-1 10,-3 14,-4 17,-7 33,-15 47,-26 7,-5 13,-11 19,-17 15,-16 26,-39 30,-60 2,-17 1,-33 -4,-48 -2,-9 -6,-17 -11,-25l-9 -13c-4,-6 -10,-12 -15,-17 -1,-2 -3,-3 -4,-5l-6 -4c-8,-7 -17,-13 -26,-18 -3,-1 -4,-2 -7,-3 -16,-8 -40,-15 -57,-15 -4,0 -6,0 -9,-1 -2,0 -5,1 -9,1 -21,0 -44,-8 -56,-19 -2,-3 -5,-6 -8,-9 -15,-20 -17,-45 -1,-66 14,-17 37,-28 60,-28 14,0 27,1 39,7 7,3 6,4 15,4l97 0c-2,-7 -12,-19 -16,-25 -2,-1 -3,-2 -4,-3 -1,-2 -2,-3 -3,-4 -30,-30 -74,-49 -117,-49 -28,0 -49,2 -73,12 -13,5 -24,10 -35,18 -4,2 -7,4 -11,7 -1,1 -3,2 -4,4l-5 4c-6,6 -12,12 -16,19 -3,3 -5,7 -7,11 -10,17 -16,34 -16,55z"/>
   <path class="fil1" d="M246 384c-20,0 -29,0 -49,-3 -49,-9 -76,-30 -79,-31l0 82 26 9c49,14 96,16 147,9 30,-5 67,-16 93,-30 22,-12 47,-28 64,-46l11 -10c11,-12 23,-28 31,-42 9,-17 16,-35 20,-53 0,-2 1,-5 1,-6 -11,0 -52,-6 -63,-8l-20 -5c-6,27 -15,46 -32,67l-5 5c-15,15 -24,23 -44,34 -2,2 -4,3 -7,4 -8,5 -33,14 -42,17 -17,4 -35,7 -52,7z"/>
   <path class="fil1" d="M438 59c2,0 7,5 8,6 2,2 3,2 4,4 2,1 2,2 4,3 3,3 5,6 8,8l13 14c0,1 1,1 1,2 3,3 5,6 7,9 2,3 11,15 12,18 2,-1 1,1 1,-2 1,-1 1,-2 1,-3 7,-29 40,-48 69,-48 14,0 25,0 38,6 4,2 11,8 14,11l6 6c2,1 11,11 13,11 0,-2 2,-8 3,-11 4,-10 8,-18 14,-28 1,-1 2,-2 3,-4 1,-1 1,-2 2,-4 2,-1 2,-2 3,-3l18 -18 -10 -7c-2,-2 -4,-3 -6,-4 -10,-6 -18,-9 -29,-14 -25,-9 -45,-11 -73,-11 -29,0 -64,11 -88,26 -4,3 -13,9 -17,12l-6 5c-3,3 -12,12 -13,16z"/>
   <path class="fil1" d="M438 395c1,2 5,7 8,10l16 13c12,9 16,11 29,18 23,12 54,17 80,17 27,0 63,-8 87,-21 3,-3 7,-5 11,-7l11 -7c-3,-5 -10,-10 -14,-14 -4,-5 -8,-10 -12,-16 -7,-10 -11,-21 -15,-33 -1,-1 -1,-4 -2,-5l-5 7c-9,11 -25,20 -39,24 -17,4 -34,3 -50,-2 -6,-1 -11,-4 -16,-7 -15,-8 -26,-22 -31,-40 -2,0 -1,0 -4,3l-15 23c-5,6 -21,22 -26,27 -3,2 -7,6 -13,10z"/>
   <path class="fil0" d="M692 525c0,10 0,18 8,26 17,17 53,8 53,-23 0,-24 -24,-37 -43,-29 -4,2 -6,4 -9,6 -2,1 -2,3 -4,4 -3,4 -5,11 -5,16zm30 -16c9,0 16,9 16,19 0,11 -7,19 -16,19 -9,0 -16,-8 -16,-19 0,-10 7,-19 16,-19z"/>
   <path class="fil0" d="M424 559l14 0 0 -39 24 33c0,1 1,2 1,3 1,1 1,1 2,3l13 0 0 -61 -13 0 0 38c-1,-1 -21,-29 -24,-34 -4,-5 -2,-4 -17,-4l0 61z"/>
   <path class="fil0" d="M232 559l14 0 0 -24 2 0c0,2 6,10 7,12 3,4 6,8 8,12l15 0c-1,-2 -7,-11 -8,-13 -3,-4 -6,-9 -9,-13 16,-4 16,-35 -6,-35l-23 0 0 61zm12 -51l7 0c4,0 7,3 7,7l0 3c0,3 -3,6 -7,6l-7 0 0 -16z"/>
   <path class="fil0" d="M799 559l13 0 0 -24c3,0 3,2 5,5l12 19 16 0c-2,-4 -16,-24 -17,-26 14,-3 17,-35 -7,-35l-22 0 0 61zm13 -51l7 0c3,0 6,3 6,7l0 3c0,3 -3,6 -6,6l-7 0 0 -16z"/>
   <path class="fil0" d="M321 559l13 0c1,-4 4,-9 5,-12l23 0 5 12 13 0c0,-3 -11,-27 -12,-31 -1,-2 -12,-28 -12,-30l-11 0 -21 53c-1,1 -1,2 -2,3 0,2 -1,3 -1,5zm29 -43l8 18 -15 0 7 -18z"/>
   <path class="fil0" d="M607 559l14 0 0 -24c7,0 14,0 20,-5 11,-9 7,-32 -11,-32l-23 0 0 61zm13 -51l7 0c4,0 7,3 7,7l0 3c0,3 -3,6 -7,6l-7 0 0 -16z"/>
   <path class="fil0" d="M524 515c0,7 4,12 9,15 6,2 15,4 15,10 0,3 -3,6 -8,6 -3,0 -7,-4 -10,-6 -2,3 -7,8 -8,11 6,4 13,11 24,8 11,-3 21,-16 13,-29 -5,-7 -21,-9 -21,-16 0,-3 2,-6 5,-5 4,0 6,2 9,3 1,-1 8,-7 8,-9 -6,-8 -28,-10 -34,4 -1,2 -2,6 -2,8z"/>
   <polygon class="fil0" points="885,511 899,511 899,559 913,559 913,511 926,511 926,498 885,498 "/>
   <polygon class="fil0" points="147,511 161,511 161,559 175,559 175,511 188,511 188,498 147,498 "/>
  </g>
 </g>
</svg>
