<?xml version="1.0" encoding="UTF-8"?>
<!DOCTYPE svg PUBLIC "-//W3C//DTD SVG 1.1//EN" "http://www.w3.org/Graphics/SVG/1.1/DTD/svg11.dtd">
<!-- Creator: CorelDRAW X7 -->
<svg xmlns="http://www.w3.org/2000/svg" xml:space="preserve" width="3.313in" height="3.622in" version="1.1" style="shape-rendering:geometricPrecision; text-rendering:geometricPrecision; image-rendering:optimizeQuality; fill-rule:evenodd; clip-rule:evenodd"
viewBox="0 0 3313 3622"
 xmlns:xlink="http://www.w3.org/1999/xlink">
 <defs>
  <style type="text/css">
   <![CDATA[
    .fil27 {fill:#121B38;fill-rule:nonzero}
    .fil22 {fill:#2A2953;fill-rule:nonzero}
    .fil63 {fill:#8B8B8B;fill-rule:nonzero}
    .fil24 {fill:#B1AFB3;fill-rule:nonzero}
    .fil13 {fill:#C63338;fill-rule:nonzero}
    .fil31 {fill:#D0EAEA;fill-rule:nonzero}
    .fil40 {fill:#EB9820;fill-rule:nonzero}
    .fil30 {fill:#F1F4D2;fill-rule:nonzero}
    .fil9 {fill:#F55561;fill-rule:nonzero}
    .fil3 {fill:#FFC14E;fill-rule:nonzero}
    .fil0 {fill:#FFDA94;fill-rule:nonzero}
    .fil65 {fill:#FFDA94;fill-rule:nonzero}
    .fil8 {fill:white;fill-rule:nonzero}
    .fil21 {fill:#0F0C0F;fill-rule:nonzero}
    .fil26 {fill:#454545;fill-rule:nonzero}
    .fil33 {fill:#D7D7D7;fill-rule:nonzero}
    .fil25 {fill:#EBEBEC;fill-rule:nonzero}
    .fil2 {fill:#EFEFF0;fill-rule:nonzero}
    .fil45 {fill:black;fill-rule:nonzero;fill-opacity:0.101961}
    .fil12 {fill:black;fill-rule:nonzero;fill-opacity:0.149020}
    .fil38 {fill:black;fill-rule:nonzero;fill-opacity:0.200000}
    .fil55 {fill:#EB9820;fill-rule:nonzero;fill-opacity:0.301961}
    .fil41 {fill:#FFAB70;fill-rule:nonzero;fill-opacity:0.301961}
    .fil37 {fill:#C1C2C2;fill-rule:nonzero;fill-opacity:0.301961}
    .fil36 {fill:#D7D7D7;fill-rule:nonzero;fill-opacity:0.301961}
    .fil35 {fill:#E1E1E1;fill-rule:nonzero;fill-opacity:0.301961}
    .fil59 {fill:#EB9820;fill-rule:nonzero;fill-opacity:0.400000}
    .fil23 {fill:#2A2953;fill-rule:nonzero;fill-opacity:0.600000}
    .fil18 {fill:#C63338;fill-rule:nonzero}
    .fil19 {fill:#D7D7D7;fill-rule:nonzero}
    .fil44 {fill:url(#id0);fill-rule:nonzero}
    .fil51 {fill:url(#id1);fill-rule:nonzero}
    .fil20 {fill:url(#id2);fill-rule:nonzero}
    .fil60 {fill:url(#id3);fill-rule:nonzero}
    .fil7 {fill:url(#id4);fill-rule:nonzero}
    .fil32 {fill:url(#id5);fill-rule:nonzero}
    .fil54 {fill:url(#id6);fill-rule:nonzero}
    .fil34 {fill:url(#id7);fill-rule:nonzero}
    .fil49 {fill:url(#id8);fill-rule:nonzero}
    .fil46 {fill:url(#id9);fill-rule:nonzero}
    .fil53 {fill:url(#id10);fill-rule:nonzero}
    .fil48 {fill:url(#id11);fill-rule:nonzero}
    .fil47 {fill:url(#id12);fill-rule:nonzero}
    .fil50 {fill:url(#id13);fill-rule:nonzero}
    .fil58 {fill:url(#id14);fill-rule:nonzero}
    .fil52 {fill:url(#id15);fill-rule:nonzero}
    .fil62 {fill:url(#id16);fill-rule:nonzero}
    .fil6 {fill:url(#id17);fill-rule:nonzero}
    .fil39 {fill:url(#id18);fill-rule:nonzero}
    .fil11 {fill:url(#id19);fill-rule:nonzero}
    .fil4 {fill:url(#id20);fill-rule:nonzero}
    .fil10 {fill:url(#id21);fill-rule:nonzero}
    .fil5 {fill:url(#id22);fill-rule:nonzero}
    .fil43 {fill:url(#id23);fill-rule:nonzero}
    .fil57 {fill:url(#id24);fill-rule:nonzero}
    .fil56 {fill:url(#id25);fill-rule:nonzero}
    .fil14 {fill:url(#id26);fill-rule:nonzero}
    .fil64 {fill:url(#id27);fill-rule:nonzero}
    .fil16 {fill:url(#id28);fill-rule:nonzero}
    .fil1 {fill:url(#id29);fill-rule:nonzero}
    .fil15 {fill:url(#id30);fill-rule:nonzero;fill-opacity:0.301961}
    .fil61 {fill:url(#id31);fill-rule:nonzero;fill-opacity:0.600000}
    .fil42 {fill:url(#id32);fill-rule:nonzero;fill-opacity:0.600000}
    .fil29 {fill:url(#id33);fill-rule:nonzero}
    .fil28 {fill:url(#id34);fill-rule:nonzero}
    .fil17 {fill:url(#id35);fill-rule:nonzero}
   ]]>
  </style>
  <linearGradient id="id0" gradientUnits="userSpaceOnUse" x1="886.858" y1="1825.2" x2="886.858" y2="1716.46">
   <stop offset="0" style="stop-opacity:1; stop-color:#FFBC49"/>
   <stop offset="1" style="stop-opacity:1; stop-color:#FFCB59"/>
  </linearGradient>
  <linearGradient id="id1" gradientUnits="userSpaceOnUse" x1="1612.68" y1="1332.79" x2="1612.68" y2="1296.61">
   <stop offset="0" style="stop-opacity:1; stop-color:#804DB0"/>
   <stop offset="1" style="stop-opacity:1; stop-color:#BD6FD3"/>
  </linearGradient>
  <linearGradient id="id2" gradientUnits="userSpaceOnUse" x1="2175.07" y1="1914.44" x2="2175.07" y2="1900.57">
   <stop offset="0" style="stop-opacity:1; stop-color:#4C2971"/>
   <stop offset="1" style="stop-opacity:1; stop-color:#7D3F94"/>
  </linearGradient>
  <linearGradient id="id3" gradientUnits="userSpaceOnUse" x1="1244.85" y1="531.441" x2="1244.85" y2="581.043">
   <stop offset="0" style="stop-opacity:1; stop-color:#FFD149"/>
   <stop offset="1" style="stop-opacity:1; stop-color:#FCAF31"/>
  </linearGradient>
  <linearGradient id="id4" gradientUnits="userSpaceOnUse" x1="1692.39" y1="1557.02" x2="1692.39" y2="2116.76">
   <stop offset="0" style="stop-opacity:1; stop-color:#FBD7F8"/>
   <stop offset="1" style="stop-opacity:1; stop-color:#FBEAF8"/>
  </linearGradient>
  <linearGradient id="id5" gradientUnits="userSpaceOnUse" x1="2404.1" y1="1941.5" x2="2404.1" y2="1984.54">
   <stop offset="0" style="stop-opacity:1; stop-color:white"/>
   <stop offset="1" style="stop-opacity:1; stop-color:#C8C8C9"/>
  </linearGradient>
  <linearGradient id="id6" gradientUnits="userSpaceOnUse" xlink:href="#id1" x1="1681.98" y1="1332.79" x2="1681.98" y2="1303.05">
  </linearGradient>
  <linearGradient id="id7" gradientUnits="userSpaceOnUse" x1="2157.25" y1="1562.33" x2="2157.25" y2="1854.47">
   <stop offset="0" style="stop-opacity:1; stop-color:white"/>
   <stop offset="1" style="stop-opacity:1; stop-color:#E1E1E1"/>
  </linearGradient>
  <linearGradient id="id8" gradientUnits="userSpaceOnUse" xlink:href="#id1" x1="1558.79" y1="1332.79" x2="1558.79" y2="1303.05">
  </linearGradient>
  <linearGradient id="id9" gradientUnits="userSpaceOnUse" xlink:href="#id1" x1="1476.92" y1="1332.79" x2="1476.92" y2="1293.13">
  </linearGradient>
  <linearGradient id="id10" gradientUnits="userSpaceOnUse" xlink:href="#id1" x1="1652.3" y1="1332.28" x2="1652.3" y2="1303.57">
  </linearGradient>
  <linearGradient id="id11" gradientUnits="userSpaceOnUse" xlink:href="#id1" x1="1533.17" y1="1343.86" x2="1533.17" y2="1292.68">
  </linearGradient>
  <linearGradient id="id12" gradientUnits="userSpaceOnUse" xlink:href="#id1" x1="1512.94" y1="1332.79" x2="1512.94" y2="1291.54">
  </linearGradient>
  <linearGradient id="id13" gradientUnits="userSpaceOnUse" xlink:href="#id1" x1="1588.96" y1="1332.79" x2="1588.96" y2="1303.05">
  </linearGradient>
  <linearGradient id="id14" gradientUnits="userSpaceOnUse" xlink:href="#id4" x1="1190.69" y1="1028.56" x2="1299" y2="650.787">
  </linearGradient>
  <linearGradient id="id15" gradientUnits="userSpaceOnUse" xlink:href="#id1" x1="1630.66" y1="1332.28" x2="1630.66" y2="1292.69">
  </linearGradient>
  <linearGradient id="id16" gradientUnits="userSpaceOnUse" x1="1286.5" y1="852.98" x2="1345.75" y2="667.496">
   <stop offset="0" style="stop-opacity:1; stop-color:#FBADC1"/>
   <stop offset="1" style="stop-opacity:1; stop-color:#FBDEE6"/>
  </linearGradient>
  <linearGradient id="id17" gradientUnits="userSpaceOnUse" xlink:href="#id1" x1="1643.93" y1="2886.55" x2="1737.53" y2="2746.07">
  </linearGradient>
  <linearGradient id="id18" gradientUnits="userSpaceOnUse" xlink:href="#id0" x1="647.445" y1="2165.71" x2="513.744" y2="1975.27">
  </linearGradient>
  <linearGradient id="id19" gradientUnits="userSpaceOnUse" xlink:href="#id1" x1="1613.06" y1="1513.57" x2="1673.16" y2="1421">
  </linearGradient>
  <linearGradient id="id20" gradientUnits="userSpaceOnUse" xlink:href="#id1" x1="1675" y1="870.26" x2="1670.62" y2="821.276">
  </linearGradient>
  <linearGradient id="id21" gradientUnits="userSpaceOnUse" xlink:href="#id2" x1="1262.7" y1="2080.06" x2="1334.71" y2="1977.83">
  </linearGradient>
  <linearGradient id="id22" gradientUnits="userSpaceOnUse" xlink:href="#id1" x1="1910.79" y1="864.406" x2="1868.81" y2="830.882">
  </linearGradient>
  <linearGradient id="id23" gradientUnits="userSpaceOnUse" xlink:href="#id0" x1="831.642" y1="2153.76" x2="919.193" y2="1938.48">
  </linearGradient>
  <linearGradient id="id24" gradientUnits="userSpaceOnUse" x1="1099.63" y1="986.386" x2="1390.06" y2="692.953">
   <stop offset="0" style="stop-opacity:1; stop-color:#FFBC49"/>
   <stop offset="1" style="stop-opacity:1; stop-color:#EA8B31"/>
  </linearGradient>
  <linearGradient id="id25" gradientUnits="userSpaceOnUse" xlink:href="#id3" x1="1341.33" y1="662.496" x2="1148.37" y2="1016.86">
  </linearGradient>
  <linearGradient id="id26" gradientUnits="userSpaceOnUse" x1="2821.91" y1="1702.74" x2="2642.25" y2="1861.37">
   <stop offset="0" style="stop-opacity:1; stop-color:#FFBC49"/>
   <stop offset="1" style="stop-opacity:1; stop-color:#FCAF31"/>
  </linearGradient>
  <linearGradient id="id27" gradientUnits="userSpaceOnUse" xlink:href="#id3" x1="2452.13" y1="1201.17" x2="2339" y2="1365.11">
  </linearGradient>
  <linearGradient id="id28" gradientUnits="userSpaceOnUse" xlink:href="#id2" x1="2340.31" y1="1953.6" x2="2056.78" y2="1953.6">
  </linearGradient>
  <linearGradient id="id29" gradientUnits="userSpaceOnUse" x1="1047.35" y1="2191.76" x2="1155.38" y2="2193.32">
   <stop offset="0" style="stop-opacity:1; stop-color:#FEBC84"/>
   <stop offset="1" style="stop-opacity:1; stop-color:#FFD9B7"/>
  </linearGradient>
  <linearGradient id="id30" gradientUnits="userSpaceOnUse" xlink:href="#id26" x1="2491.29" y1="1795.68" x2="2943.04" y2="1795.68">
  </linearGradient>
  <linearGradient id="id31" gradientUnits="userSpaceOnUse" xlink:href="#id3" x1="1104.06" y1="667.78" x2="1182.72" y2="667.78">
  </linearGradient>
  <linearGradient id="id32" gradientUnits="userSpaceOnUse" x1="714.268" y1="2070.49" x2="679.559" y2="2070.49">
   <stop offset="0" style="stop-opacity:1; stop-color:black"/>
   <stop offset="1" style="stop-opacity:1; stop-color:white"/>
  </linearGradient>
  <linearGradient id="id33" gradientUnits="userSpaceOnUse" xlink:href="#id26" x1="2584.07" y1="1794.63" x2="2624.83" y2="1794.63">
  </linearGradient>
  <linearGradient id="id34" gradientUnits="userSpaceOnUse" xlink:href="#id26" x1="2545.02" y1="1815.75" x2="2548.32" y2="1815.75">
  </linearGradient>
  <linearGradient id="id35" gradientUnits="userSpaceOnUse" xlink:href="#id26" x1="2914.51" y1="1927.07" x2="2914.51" y2="1924.62">
  </linearGradient>
 </defs>
 <g id="Layer_x0020_1">
  <metadata id="CorelCorpID_0Corel-Layer"/>
  <g id="_774866944">
   <g>
    <g>
     <path class="fil0" d="M1838 262c88,115 207,209 353,264 203,76 365,11 607,102 411,155 619,613 464,1024 -94,249 -300,423 -539,487 0,2 -373,73 -510,435 -59,159 -46,290 -106,449 -180,478 -713,719 -1190,539 -478,-179 -719,-712 -539,-1189 70,-187 204,-271 289,-497 84,-224 44,-464 -86,-644 0,-1 -237,-293 -78,-717 155,-411 613,-618 1024,-464 123,46 227,120 309,211 1,0 1,0 2,0z"/>
    </g>
   </g>
   <g>
    <path class="fil1" d="M1157 2071c0,0 -127,-2 -133,96 -6,97 60,140 133,147l22 0 -2 -238 -20 -5z"/>
   </g>
   <g>
    <path class="fil2" d="M2099 726c69,0 126,56 126,125l1 1959c0,70 -57,126 -126,126l-821 0c-69,0 -126,-56 -126,-125l-1 -1959c0,-70 57,-126 126,-126l821 0z"/>
    <g>
     <path class="fil2" d="M1143 1403c0,9 4,15 9,15 6,0 10,-6 10,-15l0 -220c0,-8 -5,-15 -10,-15 -5,0 -9,7 -9,15l0 220z"/>
    </g>
    <g>
     <path class="fil2" d="M2220 1472c0,9 3,15 8,15 5,0 9,-6 9,-15l0 -127c0,-8 -4,-15 -9,-15 -5,0 -8,7 -8,15l0 127z"/>
    </g>
    <g>
     <path class="fil2" d="M2220 1295c0,8 3,15 8,15 5,0 9,-7 9,-15l0 -127c0,-8 -4,-15 -9,-15 -5,0 -9,7 -9,15l1 127z"/>
    </g>
    <g>
     <path class="fil2" d="M2219 1106c0,8 4,14 9,14 5,0 9,-6 9,-14l0 -85c0,-9 -4,-15 -9,-15 -5,0 -9,6 -9,15l0 85z"/>
    </g>
   </g>
   <g>
    <path class="fil3" d="M1159 2811c0,66 54,119 120,119l821 0c66,0 120,-54 120,-120l-1 -1959c0,-66 -54,-120 -120,-119l-821 0c-66,0 -120,54 -120,120l1 1959z"/>
   </g>
   <g>
    <g>
     <g>
      <path class="fil4" d="M1826 846c0,6 -5,11 -11,11l-284 0c-6,0 -12,-5 -12,-11 0,-6 6,-11 12,-11l284 0c6,0 11,5 11,11z"/>
     </g>
     <g>
      <path class="fil5" d="M1909 848c0,10 -9,19 -19,19 -11,0 -19,-9 -19,-19 0,-11 8,-19 19,-19 10,0 19,8 19,19z"/>
     </g>
    </g>
   </g>
   <g>
    <g>
     <path class="fil6" d="M1694 2757c16,0 31,6 42,17 11,11 18,26 18,42 0,16 -7,31 -18,42 -11,12 -26,18 -42,18l-7 0c-32,0 -59,-27 -59,-60 0,-33 27,-59 59,-59l7 0z"/>
    </g>
   </g>
   <g>
    <g>
     <polygon class="fil7" points="1193,2711 2192,2711 2192,962 1192,963 "/>
    </g>
    <path class="fil8" d="M2192 1174l0 -18 -134 0 0 -194 -18 0 0 194 -139 0 0 -194 -18 0 0 313 -232 0 0 -312 -18 0 0 312 -223 0 0 -312 -18 0 0 312 -18 0 0 -312 -18 0 0 312 -163 0 0 18 163 0 0 494 -163 0 0 18 163 0 0 350c0,13 -1,25 -2,38l-161 0 0 17 160 0c-12,125 -67,214 -160,261l0 21c104,-49 165,-145 178,-282l19 0c-7,103 -41,183 -102,240 -27,25 -59,45 -95,60l0 19c41,-16 77,-38 107,-66 5,-5 10,-9 14,-14 24,44 84,124 222,124l97 0 0 138 18 0 0 -138 232 0 0 138 18 0 0 -138 139 0 0 138 18 0 0 -138 134 0 0 -18 -134 0 0 -443 134 0 0 -18 -134 0 0 -289 134 0 0 -18 -134 0 0 -316 134 0 0 -17 -134 0 0 -280 134 0zm-818 119l0 0 18 0 0 494 -18 0 0 -494zm-2 900l0 0c1,-13 2,-25 2,-38l0 -350 18 0 0 364c0,8 0,16 -1,24l-19 0zm261 362l0 0 -97 0c-135,0 -190,-81 -209,-121 48,-57 75,-132 81,-224l225 0 0 345zm0 -362l0 0 -224 0c1,-8 1,-16 1,-24l0 -364 223 0 0 388zm0 -406l0 0 -223 0 0 -494 223 0 0 494zm18 -494l0 0 232 0 0 161 -232 0 0 -161zm0 178l0 0 232 0 0 290c-13,4 -22,14 -26,26l-206 0 0 -316zm232 1084l0 0 -232 0 0 -443 232 0 0 443zm0 -461l0 0 -232 0 0 -289 206 0c3,13 13,23 26,27l0 262zm9 -279l0 0c-3,0 -6,-1 -9,-2l0 0c-3,-2 -5,-5 -7,-8 -1,-2 -2,-5 -2,-8 0,-4 1,-7 2,-10 2,-2 4,-5 7,-6 0,0 0,0 0,0 3,-2 6,-3 9,-3 3,0 6,1 9,2 0,0 0,0 0,0 3,2 6,4 7,7 2,3 3,6 3,10 0,3 -1,6 -2,8 -2,4 -5,6 -8,8l0 0c-3,1 -6,2 -9,2zm148 740l0 0 -139 0 0 -443 139 0 0 443zm0 -461l0 0 -139 0 0 -262c13,-3 23,-14 27,-27l112 0 0 289zm0 -307l0 0 -113 0c-3,-12 -13,-22 -26,-26l0 -290 139 0 0 316zm0 -333l0 0 -139 0 0 -280 139 0 0 280z"/>
   </g>
   <g>
    <g>
     <path class="fil9" d="M1921 1258c0,61 82,150 82,150 0,0 81,-88 81,-150 0,-45 -36,-82 -81,-82 -46,0 -82,37 -82,82z"/>
    </g>
    <g>
     <path class="fil8" d="M1953 1258c0,27 22,49 50,49 27,0 49,-22 49,-49 0,-28 -22,-50 -49,-50 -28,0 -50,22 -50,50z"/>
    </g>
   </g>
   <g>
    <path class="fil9" d="M2023 1462c0,12 -9,22 -22,22 -12,0 -21,-10 -21,-22 0,-12 9,-22 21,-22 13,0 22,10 22,22z"/>
   </g>
   <g>
    <path class="fil10" d="M1217 1994c0,62 82,151 82,151 0,0 81,-89 81,-151 0,-45 -36,-81 -81,-81 -45,0 -82,36 -82,81z"/>
    <g>
     <path class="fil8" d="M1249 1994c0,28 22,50 50,50 27,0 49,-22 49,-50 0,-27 -22,-49 -49,-49 -28,0 -50,22 -50,49z"/>
    </g>
   </g>
   <g>
    <path class="fil9" d="M1322 2200c0,13 -10,24 -23,24 -14,0 -24,-11 -24,-24 0,-13 10,-24 24,-24 13,0 23,11 23,24z"/>
   </g>
   <g>
    <g>
     <path class="fil9" d="M1640 1453c-5,0 -10,5 -10,11 0,0 0,705 0,726 -20,0 -318,0 -318,0 -6,0 -11,5 -11,11 0,6 5,10 11,10l328 0c6,0 11,-4 11,-10 0,0 0,-706 0,-727 20,0 335,0 335,0 6,0 10,-5 10,-10 0,-6 -4,-11 -10,-11l-346 0z"/>
    </g>
   </g>
   <g>
    <path class="fil11" d="M1683 1467c0,22 -18,40 -40,40 -22,0 -40,-18 -40,-40 0,-22 18,-40 40,-40 22,0 40,18 40,40z"/>
    <g>
     <path class="fil8" d="M1666 1467c0,13 -10,23 -23,23 -13,0 -23,-10 -23,-23 0,-12 10,-23 23,-23 13,0 23,11 23,23z"/>
    </g>
   </g>
   <g>
    <path class="fil12" d="M1842 2062c0,6 252,10 563,10 311,0 563,-4 563,-10 0,-5 -252,-9 -563,-9 -311,0 -563,4 -563,9z"/>
    <g>
     <g>
      <path class="fil13" d="M2673 1984l272 0c3,-4 26,-33 26,-55 0,0 0,-1 0,-2 -22,0 -22,0 -22,0 -1,0 -1,0 -1,-1 0,0 -2,-80 -2,-98 1,-15 -39,-34 -79,-44 -40,-10 -40,-10 -40,-10 -1,0 -130,-126 -163,-162 -25,-29 -57,-32 -121,-32 -15,0 -31,0 -50,0l0 404 180 0z"/>
     </g>
     <path class="fil14" d="M2491 1578l0 408 182 0 272 0c0,0 30,-35 28,-60 -24,0 -24,0 -24,0 0,0 -1,-80 -1,-98 0,-18 -40,-35 -81,-45 -40,-10 -40,-10 -40,-10 0,0 -129,-126 -161,-162 -33,-37 -76,-33 -175,-33z"/>
     <path class="fil15" d="M2491 1817l0 -43 342 0c5,2 15,4 34,9 32,8 64,20 76,34l-452 0z"/>
     <g>
      <polygon class="fil16" points="1903,1919 2494,1919 2494,1968 2274,1968 2274,1988 1937,1988 1937,1968 1903,1968 "/>
     </g>
     <g>
      <polygon class="fil17" points="2949,1927 2949,1924 2880,1924 2880,1927 "/>
     </g>
     <g>
      <path class="fil18" d="M2699 1667c-6,-12 -23,-14 -44,-14 -1,0 -1,0 -2,0 -3,0 -6,0 -9,0 -23,0 -53,0 -60,0l0 117 169 1c-8,-15 -47,-90 -54,-104z"/>
     </g>
     <g>
      <path class="fil18" d="M2933 1885l14 0c0,-20 -1,-42 -1,-53l-13 0 0 53z"/>
     </g>
     <g>
      <path class="fil19" d="M2335 1995l0 -4 0 4zm135 -4l0 0 0 -56 -132 0 0 56 132 0z"/>
     </g>
     <g>
      <polygon class="fil20" points="1929,1920 2421,1920 2421,1895 1929,1895 "/>
     </g>
     <g>
      <path class="fil21" d="M2014 1982c0,46 36,82 82,82 45,0 82,-36 82,-82 0,-46 -37,-82 -82,-82 -46,0 -82,36 -82,82z"/>
      <g>
       <path class="fil22" d="M2014 1983c0,46 36,82 82,82 45,0 82,-36 82,-82 0,-46 -37,-82 -82,-82 -46,0 -82,36 -82,82z"/>
      </g>
      <g>
       <path class="fil23" d="M2096 1906c-24,0 -46,10 -60,25 14,-18 35,-30 60,-30 25,0 46,12 60,30 -13,-15 -36,-25 -60,-25z"/>
      </g>
      <path class="fil24" d="M2051 1982c0,25 20,45 45,45 25,0 45,-20 45,-45 0,-25 -20,-45 -45,-45 -25,0 -45,20 -45,45z"/>
      <path class="fil25" d="M2066 1982c0,16 14,30 30,30 16,0 30,-14 30,-30 0,-16 -14,-30 -30,-30 -16,0 -30,14 -30,30z"/>
      <path class="fil26" d="M2096 2030c19,0 35,-11 43,-27 -7,17 -23,29 -43,29 -20,0 -36,-12 -43,-29 8,16 24,27 43,27z"/>
     </g>
     <g>
      <path class="fil27" d="M2810 1891c51,0 93,41 93,92 0,1 0,2 0,3l-185 0c0,-1 0,-2 0,-3 0,-51 41,-92 92,-92z"/>
     </g>
     <g>
      <path class="fil21" d="M2728 1982c0,46 37,82 82,82 46,0 83,-36 83,-82 0,-46 -37,-82 -83,-82 -45,0 -82,36 -82,82z"/>
      <g>
       <path class="fil22" d="M2728 1983c0,46 37,82 82,82 46,0 83,-36 83,-82 0,-46 -37,-82 -83,-82 -45,0 -82,36 -82,82z"/>
      </g>
      <g>
       <path class="fil23" d="M2810 1906c-24,0 -46,10 -60,25 14,-18 36,-30 60,-30 25,0 47,12 61,30 -13,-15 -36,-25 -61,-25z"/>
      </g>
      <path class="fil24" d="M2766 1982c0,25 20,45 44,45 25,0 45,-20 45,-45 0,-25 -20,-45 -45,-45 -24,0 -44,20 -44,45z"/>
      <path class="fil25" d="M2778 1982c0,18 15,32 32,32 18,0 32,-14 32,-32 0,-18 -14,-32 -32,-32 -17,0 -32,14 -32,32z"/>
      <path class="fil26" d="M2810 2030c19,0 35,-11 44,-27 -7,17 -24,29 -44,29 -19,0 -36,-12 -43,-29 8,16 24,27 43,27z"/>
     </g>
     <g>
      <path class="fil28" d="M2548 1982l0 -333c0,0 0,-1 -1,-1 -1,0 -2,1 -2,1l0 333c0,1 1,2 2,2 1,0 1,-1 1,-2z"/>
     </g>
     <polygon class="fil29" points="2625,1800 2584,1800 2584,1789 2625,1789 "/>
     <path class="fil30" d="M2949 1887l-18 0 0 -57 17 0c0,11 0,36 1,57z"/>
     <path class="fil31" d="M2820 1765l-5 4 -43 0 -59 -109c40,40 88,88 107,105z"/>
     <path class="fil31" d="M2755 1773c0,0 -46,-91 -54,-107 -8,-15 -31,-14 -57,-14 -26,0 -62,0 -62,0l0 120 173 1z"/>
     <polygon class="fil32" points="2335,1995 2473,1995 2473,1931 2335,1931 "/>
     <g>
      <g>
       <polygon class="fil33" points="1852,1893 1852,1889 "/>
      </g>
      <path class="fil34" d="M1852 1874c0,12 9,22 21,22l568 0c12,0 22,-10 22,-22l0 -332c0,-11 -10,-21 -22,-21l-568 0c-12,0 -21,10 -21,21l0 332z"/>
      <g>
       <path class="fil35" d="M2408 1874l-500 0c-18,0 -32,-13 -32,-29l0 -276c0,-16 14,-28 32,-28l500 0c18,0 33,12 33,28l0 276c0,16 -15,29 -33,29zm30 -305l0 0c0,-14 -13,-25 -30,-25l-500 0c-16,0 -29,11 -29,25l0 276c0,14 13,25 29,25l500 0c17,0 30,-11 30,-25l0 -276z"/>
      </g>
     </g>
     <polygon class="fil35" points="1896,1621 2421,1621 2421,1618 1896,1618 "/>
     <polygon class="fil36" points="1896,1713 2421,1713 2421,1710 1896,1710 "/>
     <polygon class="fil37" points="1896,1805 2421,1805 2421,1802 1896,1802 "/>
    </g>
   </g>
   <g>
    <path class="fil38" d="M1133 2208c0,7 -173,13 -386,13 -213,0 -386,-6 -386,-13 0,-7 173,-13 386,-13 213,0 386,6 386,13z"/>
    <g>
     <g>
      <g>
       <path class="fil39" d="M746 2202c0,3 -3,6 -6,6l-319 0c-3,0 -6,-3 -6,-6l0 -263c0,-3 3,-6 6,-6l319 0c3,0 6,3 6,6l0 263z"/>
      </g>
      <g>
       <path class="fil40" d="M636 1971c0,6 -5,11 -11,11l-89 0c-6,0 -11,-5 -11,-11 0,-7 5,-12 11,-12l89 0c6,0 11,5 11,12z"/>
      </g>
      <path class="fil41" d="M415 1939l0 4 331 0 0 -4c0,-1 0,-2 -1,-3l-329 0c-1,1 -1,2 -1,3z"/>
     </g>
     <path class="fil42" d="M738 2202l0 -263c0,-3 -3,-6 -6,-6l-76 0 0 268c0,4 3,7 7,7l69 0c3,0 6,-3 6,-6z"/>
     <g>
      <g>
       <g>
        <path class="fil43" d="M1070 2201c0,4 -3,7 -7,7l-375 0c-4,0 -7,-3 -7,-7l0 -310c0,-4 3,-7 7,-7l375 0c4,0 7,3 7,7l0 310z"/>
       </g>
      </g>
      <g>
       <path class="fil40" d="M941 1929c0,7 -6,14 -14,14l-104 0c-7,0 -13,-7 -13,-14 0,-8 6,-14 13,-14l104 0c8,0 14,6 14,14z"/>
      </g>
      <path class="fil41" d="M681 1891l0 5 389 0 0 -5c0,-1 0,-2 -1,-3l-387 0c-1,1 -1,2 -1,3z"/>
     </g>
     <g>
      <g>
       <path class="fil44" d="M1023 1879c0,3 -2,5 -5,5l-262 0c-3,0 -5,-2 -5,-5l0 -216c0,-3 2,-5 5,-5l262 0c3,0 5,2 5,5l0 216z"/>
      </g>
      <g>
       <path class="fil40" d="M933 1689c0,5 -4,9 -10,9l-73 0c-5,0 -9,-4 -9,-9 0,-5 4,-10 9,-10l73 0c6,0 10,5 10,10z"/>
      </g>
      <path class="fil41" d="M751 1663l0 3 272 0 0 -3c0,-1 0,-2 -1,-3l-271 0c0,1 0,2 0,3z"/>
     </g>
    </g>
   </g>
   <path class="fil45" d="M1711 1262l-292 0c-11,0 -21,9 -21,21l0 81c0,12 10,21 21,21l124 0c0,1 46,46 46,46 6,7 8,3 8,-2 0,0 -9,-43 -9,-44l123 0c12,0 21,-9 21,-21l0 -81c0,-12 -9,-21 -21,-21z"/>
   <g>
    <path class="fil8" d="M1724 1252l-292 0c-12,0 -21,9 -21,21l0 82c0,11 9,21 21,21l123 0c0,0 46,45 46,45 7,7 9,3 8,-2 0,0 -9,-43 -9,-43l124 0c11,0 21,-10 21,-21l0 -82c0,-12 -10,-21 -21,-21z"/>
    <g>
     <path class="fil46" d="M1493 1314c0,3 0,6 -1,8 -1,2 -2,4 -3,6 -2,1 -4,3 -6,4 -1,0 -4,1 -6,1 -2,0 -5,-1 -7,-1 -1,-1 -3,-3 -5,-4 -1,-2 -2,-4 -3,-6 -1,-2 -1,-5 -1,-8l0 -2c0,-3 0,-6 1,-8 1,-2 2,-4 3,-6 2,-1 3,-3 5,-4 2,0 5,-1 7,-1 2,0 4,1 6,1 2,1 4,3 6,4 1,2 2,4 3,6 1,2 1,5 1,8l0 2zm-7 -2l0 0c0,-2 0,-4 0,-6 -1,-1 -1,-3 -2,-4 -1,-1 -2,-2 -3,-2 -1,-1 -3,-1 -4,-1 -2,0 -3,0 -4,1 -1,0 -2,1 -3,2 -1,1 -1,3 -2,4 0,2 0,4 0,6l0 2c0,2 0,4 0,6 1,1 1,3 2,4 1,1 2,2 3,2 1,1 3,1 4,1 3,0 5,-1 7,-3 1,-2 2,-6 2,-10l0 -2z"/>
     <path class="fil47" d="M1526 1318c0,2 -1,4 -1,6 -1,2 -1,3 -2,5 -1,1 -2,2 -4,3 -1,0 -3,1 -5,1 -1,0 -3,-1 -4,-1 -1,-1 -3,-2 -3,-3l-1 3 -6 0 0 -40 7 0 0 14c1,-1 2,-2 3,-2 1,-1 3,-1 4,-1 2,0 4,0 5,1 2,1 3,2 4,3 1,1 1,3 2,5 0,2 1,4 1,6l0 0zm-7 0l0 0c0,-2 0,-3 0,-4 0,-1 -1,-2 -1,-3 -1,-1 -1,-1 -2,-2 -1,0 -2,-1 -3,-1 -2,0 -3,1 -4,1 -1,1 -2,2 -2,3l0 12c0,1 1,2 2,3 1,0 2,1 4,1 1,0 2,-1 3,-1 1,-1 1,-1 2,-2 0,-1 1,-2 1,-3 0,-1 0,-2 0,-4l0 0z"/>
     <path class="fil48" d="M1539 1304l0 31c0,3 -1,5 -2,7 -2,1 -4,2 -7,2 0,0 -1,0 -1,0 -1,0 -1,0 -2,-1l0 -5c0,0 1,0 1,1 1,0 1,0 1,0 1,0 2,-1 3,-1 0,-1 1,-2 1,-3l0 -31 6 0zm-7 -8l0 0c0,-1 0,-2 1,-2 1,-1 1,-1 3,-1 1,0 2,0 2,1 1,0 1,1 1,2 0,1 0,2 -1,3 0,0 -1,1 -2,1 -2,0 -2,-1 -3,-1 -1,-1 -1,-2 -1,-3z"/>
     <path class="fil49" d="M1560 1333c-2,0 -4,-1 -6,-1 -2,-1 -3,-2 -4,-3 -1,-1 -2,-3 -3,-5 -1,-1 -1,-3 -1,-5l0 -1c0,-2 1,-4 1,-6 1,-2 2,-4 3,-5 1,-1 2,-2 4,-3 2,-1 3,-1 5,-1 2,0 4,0 6,1 1,1 2,2 3,3 1,1 2,3 3,4 0,2 0,4 0,6l0 3 -18 0c0,1 0,2 0,3 1,1 1,2 2,2 1,1 1,2 2,2 1,0 2,1 3,1 2,0 3,-1 4,-1 2,-1 3,-2 3,-3l4 3c0,1 -1,2 -2,2 0,1 -1,2 -2,2 -1,1 -2,1 -3,1 -1,1 -3,1 -4,1zm-1 -25l0 0c-2,0 -3,1 -4,2 -1,1 -2,3 -2,5l12 0 0 0c0,-1 0,-2 0,-3 -1,0 -1,-1 -1,-2 -1,0 -1,-1 -2,-1 -1,-1 -2,-1 -3,-1z"/>
     <path class="fil50" d="M1590 1328c0,0 1,0 2,-1 0,0 1,0 2,-1 0,0 0,-1 1,-1 0,-1 0,-2 0,-2l6 0c0,1 0,2 -1,4 0,1 -1,2 -2,3 -1,1 -2,1 -4,2 -1,1 -3,1 -4,1 -3,0 -4,-1 -6,-1 -2,-1 -3,-2 -4,-3 -1,-2 -2,-3 -3,-5 0,-2 0,-4 0,-6l0 -1c0,-1 0,-3 0,-5 1,-2 2,-3 3,-5 1,-1 2,-2 4,-3 1,-1 3,-1 6,-1 1,0 3,0 4,1 2,0 3,1 4,2 1,1 2,2 2,3 1,2 1,3 1,5l-6 0c0,-1 0,-2 0,-2 0,-1 -1,-2 -1,-2 -1,-1 -1,-1 -2,-1 -1,-1 -2,-1 -2,-1 -2,0 -3,0 -4,1 -1,1 -1,1 -2,2 0,1 -1,2 -1,3 0,1 0,2 0,3l0 1c0,2 0,3 0,4 0,1 1,2 1,3 1,1 1,1 2,2 1,0 2,1 4,1z"/>
     <path class="fil51" d="M1616 1297l0 7 5 0 0 4 -5 0 0 16c0,1 0,2 0,2 0,0 0,1 0,1 1,0 1,0 1,0 1,0 1,0 2,0 0,0 0,0 1,0 0,0 1,0 1,0l0 5c-1,0 -1,0 -2,1 -1,0 -1,0 -2,0 -1,0 -2,0 -3,-1 -1,0 -2,0 -3,-1 0,-1 -1,-1 -1,-2 -1,-2 -1,-3 -1,-4l0 -17 -5 0 0 -4 5 0 0 -7 7 0z"/>
     <path class="fil52" d="M1627 1296c0,-1 0,-2 1,-2 1,-1 1,-1 3,-1 1,0 2,0 2,1 1,0 1,1 1,2 0,1 0,2 -1,3 0,0 -1,1 -2,1 -2,0 -2,-1 -3,-1 -1,-1 -1,-2 -1,-3zm7 36l0 0 -7 0 0 -28 7 0 0 28z"/>
     <polygon class="fil53" points="1652,1324 1658,1304 1665,1304 1655,1332 1650,1332 1640,1304 1646,1304 "/>
     <path class="fil54" d="M1683 1333c-2,0 -4,-1 -6,-1 -1,-1 -3,-2 -4,-3 -1,-1 -2,-3 -3,-5 0,-1 -1,-3 -1,-5l0 -1c0,-2 1,-4 1,-6 1,-2 2,-4 3,-5 1,-1 3,-2 4,-3 2,-1 4,-1 5,-1 2,0 4,0 6,1 1,1 3,2 4,3 1,1 1,3 2,4 0,2 1,4 1,6l0 3 -19 0c0,1 0,2 1,3 0,1 0,2 1,2 1,1 2,2 2,2 1,0 2,1 3,1 2,0 3,-1 5,-1 1,-1 2,-2 3,-3l3 3c0,1 -1,2 -2,2 0,1 -1,2 -2,2 -1,1 -2,1 -3,1 -1,1 -2,1 -4,1zm-1 -25l0 0c-1,0 -3,1 -4,2 -1,1 -2,3 -2,5l12 0 0 0c0,-1 0,-2 0,-3 0,0 -1,-1 -1,-2 -1,0 -1,-1 -2,-1 -1,-1 -2,-1 -3,-1z"/>
    </g>
   </g>
   <path class="fil45" d="M1410 707l6 -8 10 -13c5,-7 3,-16 -3,-21l-19 -14c-6,-4 -15,-3 -20,3l-16 21c-27,-15 -57,-26 -90,-29l0 -32 24 0c15,0 28,-12 28,-27 0,-15 -13,-28 -28,-28l-93 0c-15,0 -28,13 -28,28 0,15 13,27 28,27l24 0 0 32c-114,11 -203,107 -203,224 0,125 101,226 225,226 125,0 226,-101 226,-226 0,-64 -27,-122 -71,-163z"/>
   <g>
    <g>
     <polygon class="fil40" points="1267,620 1223,620 1223,568 1267,568 "/>
    </g>
    <g>
     <g>
      <path class="fil40" d="M1396 680c-4,7 -14,8 -20,3l-19 -14c-6,-4 -7,-14 -2,-20l18 -25c5,-7 14,-8 21,-3l18 14c7,4 8,14 3,20l-19 25z"/>
     </g>
    </g>
    <path class="fil55" d="M1404 667l-38 -28c-1,-1 -2,-1 -3,-2l-8 12c-5,6 -4,16 2,20l19 14c6,5 16,4 20,-3l9 -12c0,0 -1,-1 -1,-1z"/>
    <path class="fil56" d="M1470 840c0,124 -101,225 -225,225 -125,0 -226,-101 -226,-225 0,-125 101,-226 226,-226 124,0 225,101 225,226z"/>
    <path class="fil57" d="M1423 840c0,98 -80,178 -178,178 -98,0 -178,-80 -178,-178 0,-99 80,-178 178,-178 98,0 178,79 178,178z"/>
    <g>
     <path class="fil58" d="M1404 840c0,87 -71,159 -159,159 -88,0 -159,-72 -159,-159 0,-88 71,-159 159,-159 88,0 159,71 159,159z"/>
    </g>
    <g>
     <polygon class="fil59" points="1223,592 1267,592 1267,572 1223,572 "/>
    </g>
    <path class="fil60" d="M1319 556c0,15 -12,28 -27,28l-94 0c-15,0 -27,-13 -27,-28 0,-15 12,-27 27,-27l94 0c15,0 27,12 27,27z"/>
    <g>
     <path class="fil61" d="M1182 650c2,7 -3,15 -11,18 -15,5 -30,13 -42,24 -6,5 -15,6 -21,1 -6,-6 -5,-16 2,-23 15,-13 33,-23 52,-30 10,-3 19,2 20,10z"/>
    </g>
    <g>
     <path class="fil62" d="M1387 770c-25,-53 -79,-89 -142,-89l0 159 142 -70z"/>
    </g>
    <g>
     <g>
      <g>
       <path class="fil9" d="M1350 779l-146 73c-4,2 -5,6 -3,10 1,3 6,5 9,3l147 -73c4,-2 5,-6 3,-9 -2,-4 -6,-6 -10,-4z"/>
      </g>
     </g>
     <g>
      <path class="fil9" d="M1231 812c-15,7 -22,26 -14,41 7,16 26,22 42,15 15,-8 21,-27 14,-42 -8,-16 -27,-22 -42,-14z"/>
     </g>
     <g>
      <path class="fil9" d="M1237 825c9,-4 19,-1 23,7 4,8 1,19 -8,23 -8,4 -18,0 -22,-8 -4,-8 -1,-18 7,-22z"/>
     </g>
    </g>
   </g>
   <path class="fil3" d="M1071 1395c0,48 -40,87 -88,87 -48,0 -87,-39 -87,-87 0,-48 39,-87 87,-87 48,0 88,39 88,87z"/>
   <path class="fil8" d="M981 1349c1,-4 3,-4 5,0l10 24c1,3 5,6 9,7l26 2c4,0 4,2 2,4l-20 18c-3,2 -5,7 -4,10l6 26c1,3 -1,5 -4,3l-22 -14c-3,-2 -8,-2 -11,0l-23 14c-3,2 -5,0 -4,-3l6 -26c1,-3 0,-8 -3,-10l-20 -18c-3,-2 -2,-4 1,-4l27 -2c3,-1 7,-4 9,-7l10 -24z"/>
   <g>
    <path class="fil63" d="M1060 1004c-1,0 -2,1 -3,1 -2,2 -4,3 -6,5l-3 2c-2,2 -3,5 -1,7 1,2 3,2 4,2 1,0 2,0 3,0 3,-3 6,-5 10,-8 2,-2 2,-5 0,-7 -1,-1 -3,-2 -4,-2zm-42 34l0 0c-1,0 -2,0 -3,1 -3,2 -6,4 -8,7 -3,2 -3,5 -1,7 1,1 2,2 4,2 1,0 2,0 3,-1 3,-2 6,-5 9,-8 2,-2 2,-4 0,-7 -1,-1 -2,-1 -4,-1zm-40 35l0 0c-1,0 -2,1 -3,1l-3 3c-2,2 -4,3 -5,5 -2,2 -3,5 -1,7 1,1 3,2 4,2 2,0 3,0 4,-1 3,-3 5,-6 8,-8 2,-2 2,-5 0,-7 -1,-1 -2,-2 -4,-2zm-38 37l0 0c-1,0 -3,1 -4,2l-3 3c-1,2 -3,3 -4,5 -2,2 -2,5 0,7 1,1 2,2 3,2 2,0 3,-1 4,-2 1,0 1,0 1,-1 2,-2 5,-5 7,-7 2,-2 2,-5 0,-7 -1,-1 -3,-2 -4,-2zm-36 40l0 0c-2,0 -3,0 -4,1l-2 2c-2,2 -4,4 -6,7 -1,2 -1,5 1,7 1,1 2,1 4,1 1,0 2,0 3,-1 3,-3 5,-6 8,-9 1,-2 1,-5 -1,-7 -1,-1 -2,-1 -3,-1zm-35 41l0 0c-1,0 -3,0 -4,2 -1,1 -3,3 -4,5l-3 3c-1,2 -1,6 1,7 1,1 3,2 4,2 1,0 2,-1 3,-2 3,-3 5,-6 8,-9 1,-3 1,-6 -1,-7 -1,-1 -3,-1 -4,-1zm-32 42l0 0c-2,0 -3,1 -4,2 -2,2 -3,5 -5,7l-2 2c-1,3 -1,6 2,8 1,0 2,1 3,1 1,0 3,-1 4,-2 2,-3 4,-7 6,-10 2,-2 1,-5 -1,-7 -1,-1 -2,-1 -3,-1zm-30 44l0 0c-2,0 -4,1 -5,3 -1,2 -3,5 -4,7l-1 2c-2,2 -1,6 1,7 1,1 2,1 3,1 2,0 3,-1 4,-2 2,-3 5,-7 7,-10 1,-2 0,-5 -2,-7 -1,0 -2,-1 -3,-1zm-28 46l0 0c-2,0 -4,1 -5,3 -1,3 -3,6 -5,9 -1,3 0,6 2,7 1,1 2,1 3,1 1,0 3,-1 4,-2 2,-4 4,-7 6,-11 1,-2 0,-5 -2,-6 -1,-1 -2,-1 -3,-1zm-25 47l0 0c-2,0 -4,1 -5,3 -2,3 -3,6 -5,9 -1,3 0,6 2,8 1,0 2,0 3,0 1,0 3,-1 4,-2 2,-4 4,-7 6,-11 0,-2 -1,-5 -3,-6 -1,-1 -2,-1 -2,-1zm-24 48l0 0c-2,0 -4,1 -4,3 -1,2 -2,3 -2,4 -1,2 -2,4 -3,6 -1,3 0,6 3,7 1,0 1,1 2,1 2,0 4,-2 5,-4 0,0 0,0 0,-1 2,-3 3,-6 5,-9 0,-3 -1,-5 -3,-6 -1,-1 -2,-1 -3,-1zm-20 49l0 0c-2,0 -4,2 -5,4 -2,3 -3,6 -4,10 -1,3 0,6 3,7 1,0 1,0 2,0 2,0 4,-1 5,-3 1,-4 2,-8 4,-11 0,-3 -1,-5 -3,-6 -1,0 -2,-1 -2,-1zm-18 51l0 0c-3,0 -5,1 -6,3 -1,4 -2,7 -3,10 -1,3 1,6 4,7 0,0 1,0 1,0 2,0 4,-1 5,-3 1,-3 2,-7 4,-11 0,-3 -1,-5 -4,-6 0,0 -1,0 -1,0zm-16 51l0 0c-3,0 -5,1 -5,4 -1,3 -2,7 -3,10 -1,3 1,6 4,7 0,0 1,0 1,0 2,0 4,-1 5,-3 1,-4 2,-8 3,-12 1,-3 -1,-5 -4,-6 0,0 -1,0 -1,0zm-13 52l0 0c-3,0 -5,1 -5,4 -1,2 -1,4 -2,7l-1 3c0,3 2,6 4,7 1,0 1,0 2,0 2,0 4,-2 5,-4 0,-4 1,-7 2,-11 0,-3 -1,-6 -4,-6 0,0 -1,0 -1,0zm-11 52l0 0c-2,0 -4,2 -5,4 0,3 -1,6 -1,8l-1 3c0,3 2,6 5,6 0,0 0,0 1,0 2,0 4,-1 5,-3 0,-4 1,-8 2,-12 0,-3 -2,-5 -5,-6 0,0 0,0 -1,0zm-7 53l0 0c-3,0 -5,2 -6,5 0,2 0,4 0,6 -1,1 -1,3 -1,4 0,3 2,6 5,6 0,0 0,0 0,0 3,0 5,-1 6,-4 0,-4 0,-8 1,-12 0,-2 -2,-5 -5,-5 0,0 0,0 0,0zm-6 53l0 0c-2,0 -5,2 -5,5 0,2 0,5 0,7l-1 4c0,3 3,5 5,5 1,0 1,0 1,0 2,0 4,-1 5,-4 0,-4 0,-8 1,-12 0,-2 -2,-5 -5,-5 0,0 0,0 -1,0zm-2 54l0 0c-3,0 -5,2 -5,5 0,2 0,5 0,7l-1 3c0,3 3,6 6,6 0,0 0,0 0,0 2,0 5,-2 5,-5 0,-4 0,-7 0,-11 0,-3 -2,-5 -5,-5 0,0 0,0 0,0zm0 53l0 0c0,0 0,0 0,0 -3,0 -5,3 -5,5 0,4 0,8 0,11 0,3 3,5 5,5 1,0 1,0 1,0 2,0 4,-2 5,-4 0,-4 -1,-8 -1,-12 0,-3 -2,-5 -5,-5zm75 365l0 0c-1,0 -2,0 -2,0 -3,1 -4,4 -3,7l1 3c1,2 2,5 3,7 0,2 2,3 4,3 1,0 2,0 2,0 3,-1 4,-4 4,-7 -2,-3 -3,-7 -5,-11 -1,-1 -3,-2 -4,-2zm21 49l0 0c-1,0 -2,0 -3,0 -2,2 -4,5 -2,7 0,2 1,3 2,4 0,2 1,4 2,6 1,2 3,3 5,3 1,0 2,0 2,0 3,-1 4,-4 3,-7 -2,-3 -3,-7 -5,-11 -1,-1 -3,-2 -4,-2zm23 48l0 0c-1,0 -2,0 -3,1 -2,1 -3,4 -2,7 2,3 3,6 5,9 1,2 3,3 5,3 1,0 1,0 2,-1 3,-1 4,-4 3,-6 -2,-4 -4,-7 -6,-11 -1,-1 -2,-2 -4,-2zm26 47l0 0c-1,0 -2,0 -3,1 -3,1 -4,4 -2,7 1,2 3,4 4,7l1 2c1,2 3,3 5,3 1,0 2,-1 3,-1 2,-1 3,-4 2,-7 -2,-3 -4,-7 -6,-10 -1,-1 -3,-2 -4,-2zm28 45l0 0c-1,0 -2,1 -3,1 -3,2 -3,5 -2,8 1,1 3,3 4,5 1,1 1,2 2,3 1,2 3,3 5,3 1,0 2,0 2,-1 3,-1 3,-4 2,-7 -2,-3 -4,-6 -6,-10 -1,-1 -3,-2 -4,-2zm30 44l0 0c-1,0 -2,1 -3,1 -3,2 -3,5 -1,8 1,2 3,4 4,6l2 2c1,2 3,3 4,3 1,0 3,-1 4,-1 2,-2 2,-5 1,-7 -2,-3 -5,-7 -7,-10 -1,-1 -3,-2 -4,-2zm32 43l0 0c-1,0 -2,0 -3,1 -2,2 -3,5 -1,7 2,3 5,6 7,9 1,1 3,2 4,2 1,0 3,-1 4,-1 2,-2 2,-5 1,-7 -3,-3 -5,-7 -8,-10 -1,-1 -2,-1 -4,-1zm35 41l0 0c-1,0 -3,0 -4,1 -2,2 -2,5 0,8l3 2c1,2 3,4 4,6 1,1 3,1 4,1 1,0 3,0 4,-1 2,-2 2,-5 0,-7 -2,-3 -5,-6 -8,-9 -1,-1 -2,-1 -3,-1zm36 39l0 0c-1,0 -2,0 -3,1 -2,2 -2,6 0,8l2 3c2,1 4,3 5,4 1,1 3,2 4,2 1,0 3,-1 4,-2 2,-2 2,-5 0,-7 -1,-1 -2,-1 -2,-2 -2,-2 -4,-4 -6,-6 -1,-1 -2,-1 -4,-1zm1643 -140l0 0c-1,0 -3,1 -4,2 -2,3 -5,7 -7,10 -1,2 0,5 2,7 1,0 2,1 3,1 1,0 3,-1 4,-3 2,-2 4,-5 6,-8 2,-3 1,-6 -1,-8 -1,0 -2,-1 -3,-1zm29 -44l0 0c-1,0 -3,0 -4,2 -2,3 -4,7 -6,10 -1,2 0,5 2,7 1,0 2,0 3,0 1,0 3,0 4,-2 2,-3 4,-6 6,-9 2,-3 1,-6 -2,-7 -1,-1 -2,-1 -3,-1zm28 -46l0 0c-2,0 -4,1 -5,2 -2,3 -4,7 -6,11 -1,2 0,5 3,6 0,0 1,1 2,1 2,0 4,-1 5,-3l1 -2c1,-2 3,-5 4,-7 2,-3 1,-6 -2,-8 -1,0 -2,0 -2,0zm24 -48l0 0c-1,0 -3,1 -4,3 -2,4 -4,7 -5,11 -1,2 0,5 2,6 1,0 2,1 3,1 2,0 3,-2 4,-3l2 -4c1,-2 2,-4 3,-6 2,-3 0,-6 -2,-7 -1,0 -2,-1 -3,-1zm23 -48l0 0c-2,0 -4,1 -5,3 -1,3 -3,7 -5,10 0,3 1,6 3,7 1,0 2,0 3,0 2,0 4,-1 4,-3l2 -3c1,-3 2,-5 3,-7 1,-2 0,-6 -3,-7 -1,0 -1,0 -2,0zm20 -50l0 0c-2,0 -4,1 -5,3 -1,4 -3,7 -4,11 -1,3 1,6 3,7 1,0 1,0 2,0 2,0 4,-1 5,-4 1,-2 2,-4 2,-6l2 -3c1,-3 -1,-6 -3,-7 -1,-1 -2,-1 -2,-1zm17 -50l0 0c-2,0 -4,1 -5,3 -1,3 -2,7 -3,11 -1,3 1,5 3,6 1,0 1,1 2,1 2,0 4,-2 5,-4 1,-3 2,-5 2,-8l1 -2c1,-3 0,-6 -3,-7 -1,0 -1,0 -2,0zm15 -52l0 0c-2,0 -4,2 -5,4 -1,3 -2,7 -3,11 0,3 1,5 4,6 0,0 1,0 1,0 3,0 5,-1 5,-4 1,-2 2,-4 2,-6 0,-1 1,-2 1,-4 1,-3 -1,-6 -4,-6 0,-1 0,-1 -1,-1zm12 -52l0 0c-2,0 -4,2 -5,4 0,4 -1,8 -2,12 0,2 1,5 4,5 0,0 1,0 1,0 3,0 5,-1 5,-4 1,-3 2,-6 2,-9l1 -1c0,-3 -2,-6 -5,-7 0,0 0,0 -1,0zm4 -424l0 0c-1,0 -1,0 -1,0 -3,0 -5,3 -5,5 1,4 2,8 3,12 0,2 2,4 5,4 0,0 0,0 1,0 3,-1 4,-4 4,-7 -1,-3 -1,-7 -2,-10 -1,-3 -3,-4 -5,-4zm-12 -53l0 0c0,0 -1,0 -1,0 -3,1 -4,4 -4,6 1,4 2,8 3,12 1,2 3,3 5,3 0,0 1,0 1,0 3,0 5,-3 4,-6l-1 -3c0,-3 -1,-5 -2,-8 0,-2 -2,-4 -5,-4zm-14 -51l0 0c0,0 -1,0 -1,0 -3,1 -5,4 -4,6 1,4 2,8 3,12 1,2 3,3 5,3 1,0 1,0 2,-1 2,0 4,-3 3,-6l-1 -4c0,-2 -1,-4 -2,-6 0,-3 -2,-4 -5,-4zm-16 -51l0 0c-1,0 -2,0 -2,0 -3,1 -4,4 -4,7 2,4 3,7 4,11 1,2 3,3 5,3 1,0 1,0 2,-1 3,-1 4,-4 3,-6l-1 -3c-1,-2 -2,-5 -2,-8 -1,-2 -3,-3 -5,-3zm-20 -50l0 0c0,0 -1,0 -2,0 -2,1 -3,4 -3,7 2,4 3,7 5,11 1,2 3,3 4,3 1,0 2,-1 2,-1 3,-1 4,-4 3,-7l-2 -5 -2 -5c0,-2 -2,-3 -5,-3zm-21 -49l0 0c-1,0 -2,0 -3,1 -2,1 -3,4 -2,6 1,4 3,7 5,11 1,2 2,3 4,3 1,0 2,-1 2,-1 3,-1 4,-4 3,-7 -1,-2 -2,-4 -3,-7l-1 -3c-1,-2 -3,-3 -5,-3zm-24 -48l0 0c-1,0 -2,1 -3,1 -2,1 -3,4 -2,7 1,3 3,7 5,10 1,2 3,3 5,3 1,0 1,-1 2,-1 3,-1 4,-5 2,-7 -1,-2 -2,-4 -3,-6 -1,-2 -1,-3 -2,-4 -1,-2 -2,-3 -4,-3zm-27 -46l0 0c-1,0 -2,0 -3,1 -2,1 -3,4 -2,7 2,3 4,6 7,10 1,1 2,2 4,2 1,0 2,0 2,-1 3,-1 4,-5 2,-7 -1,-2 -2,-5 -4,-7l-1 -2c-1,-2 -3,-3 -5,-3zm-29 -45l0 0c-1,0 -2,0 -2,1 -3,1 -3,4 -2,7 2,3 4,6 6,10 1,1 3,1 4,1 1,0 2,0 3,0 3,-2 3,-5 2,-8 -2,-3 -4,-6 -6,-9 -1,-1 -3,-2 -5,-2zm-30 -44l0 0c-2,0 -3,1 -4,1 -2,2 -2,5 -1,7 2,4 5,7 7,10 1,1 3,2 4,2 1,0 2,-1 3,-1 2,-2 3,-5 1,-8 -2,-3 -4,-6 -6,-8 -1,-2 -3,-3 -4,-3zm-34 -42l0 0c-1,0 -2,1 -3,2 -2,1 -2,5 -1,7 3,3 5,6 8,9 1,1 2,1 3,1 1,0 3,0 4,-1 2,-2 2,-5 0,-7l-2 -3c-1,-2 -3,-4 -4,-6 -1,-1 -3,-2 -5,-2zm-35 -40l0 0c-1,0 -2,1 -3,1 -2,2 -3,5 -1,8 3,3 6,6 8,9 1,0 2,1 4,1 1,0 2,-1 3,-2 2,-2 2,-5 1,-7l-2 -2c-2,-2 -4,-4 -6,-6 -1,-1 -2,-2 -4,-2zm-37 -38l0 0c-1,0 -2,0 -4,1 -1,2 -2,5 0,7 3,3 6,6 9,9 1,0 2,1 3,1 1,0 3,-1 4,-2 2,-2 2,-5 0,-7 -3,-3 -5,-5 -8,-8 -1,-1 -2,-1 -4,-1zm-39 -37l0 0c-1,0 -3,1 -4,2 -1,2 -1,5 0,7 3,2 6,5 9,7 1,1 2,2 3,2 2,0 3,-1 4,-2 2,-2 2,-6 0,-8 -2,-1 -3,-3 -5,-4l-3 -3c-1,-1 -2,-1 -4,-1zm-40 -35l0 0c-2,0 -3,1 -5,2 -1,2 -1,5 1,7 3,3 6,5 9,8 1,0 2,1 3,1 1,0 3,-1 4,-2 2,-3 2,-6 -1,-8 -2,-1 -4,-3 -6,-5l-2 -1c-1,-1 -2,-2 -3,-2zm-43 -32l0 0c-1,0 -3,0 -4,2 -2,2 -1,5 1,7 3,2 6,5 9,7 1,1 2,1 3,1 1,0 3,-1 4,-2 2,-3 1,-6 -1,-8 -3,-2 -6,-4 -9,-6 -1,-1 -2,-1 -3,-1zm-44 -31l0 0c-1,0 -3,1 -4,3 -2,2 -1,5 1,7 3,2 7,4 10,6 1,1 1,1 2,1 2,0 4,-1 5,-2 1,-3 1,-6 -2,-8 -3,-2 -6,-4 -9,-6 -1,0 -2,-1 -3,-1zm-45 -28l0 0c-2,0 -4,1 -5,3 -1,2 0,5 2,7 4,2 7,4 10,6 1,0 1,0 2,0 2,0 4,-1 5,-2 1,-3 0,-6 -2,-8l-4 -2c-2,-1 -3,-2 -5,-3 -1,-1 -2,-1 -3,-1z"/>
   </g>
   <g>
    <path class="fil64" d="M2483 1283c0,48 -39,87 -87,87 -49,0 -88,-39 -88,-87 0,-48 39,-87 88,-87 48,0 87,39 87,87z"/>
    <g>
     <path class="fil8" d="M2373 1276l0 38c0,2 0,5 -1,6 0,0 0,0 -1,1 -1,0 -3,0 -5,0l-15 0c-1,0 -2,0 -2,0 -1,-1 -2,-1 -2,-2 0,-1 0,-4 0,-6l0 -40c0,-1 0,-2 0,-3 0,-1 1,-1 3,-2 1,0 3,0 5,0l11 0c2,0 4,0 5,1 1,0 2,0 2,1 0,1 0,4 0,6z"/>
     <path class="fil8" d="M2438 1280c1,1 3,3 3,5 1,3 -1,6 -3,7 -1,1 -2,1 -2,1 0,1 0,1 1,1 0,1 1,2 2,3 1,4 0,7 -2,9 -1,0 -2,0 -3,1 0,1 1,1 1,1 2,1 3,5 2,7 -1,2 -3,4 -5,4 -2,0 -5,0 -7,0 -13,0 -26,0 -39,0 -3,0 -7,1 -8,-1 -1,-1 0,-4 0,-6l0 -19c0,-4 -1,-8 0,-12 0,-16 8,-25 16,-34 0,-1 2,-2 3,-3 1,-1 2,-3 2,-4 1,-1 1,-2 1,-2 0,-1 0,-2 0,-3 0,-2 0,-4 0,-5 0,-3 2,-5 5,-5 3,0 6,2 7,4 3,4 4,11 2,18 0,2 -1,5 -2,7 -1,2 -2,4 -3,6 0,0 -1,1 -1,1 1,2 3,1 5,1 5,0 10,0 15,0 3,0 7,0 9,1 3,1 4,3 4,6 1,4 0,6 -3,8 0,1 -1,1 -2,1 0,1 1,1 2,2z"/>
    </g>
   </g>
   <g>
    <path class="fil65" d="M461 1649c17,-169 -93,-318 -247,-334 -154,-16 -190,124 -207,293 -18,168 -11,300 143,316 154,16 293,-107 311,-275z"/>
   </g>
   <g>
    <path class="fil65" d="M2389 2524c-117,122 -120,308 -8,415 112,106 226,17 343,-106 116,-123 191,-232 79,-338 -112,-107 -298,-94 -414,29z"/>
   </g>
  </g>
 </g>
</svg>
