<?xml version="1.0" encoding="UTF-8"?>
<!DOCTYPE svg PUBLIC "-//W3C//DTD SVG 1.1//EN" "http://www.w3.org/Graphics/SVG/1.1/DTD/svg11.dtd">
<!-- Creator: CorelDRAW X7 -->
<svg xmlns="http://www.w3.org/2000/svg" xml:space="preserve" width="0.839528in" height="0.858031in" version="1.1" style="shape-rendering:geometricPrecision; text-rendering:geometricPrecision; image-rendering:optimizeQuality; fill-rule:evenodd; clip-rule:evenodd"
viewBox="0 0 840 858"
 xmlns:xlink="http://www.w3.org/1999/xlink">
 <defs>
  <style type="text/css">
   <![CDATA[
    .fil4 {fill:#13CFFE;fill-rule:nonzero}
    .fil5 {fill:#27ABF8;fill-rule:nonzero}
    .fil11 {fill:#308CEE;fill-rule:nonzero}
    .fil1 {fill:#340D66;fill-rule:nonzero}
    .fil0 {fill:#393E9F;fill-rule:nonzero}
    .fil7 {fill:#E39E8C;fill-rule:nonzero}
    .fil3 {fill:#F9185D;fill-rule:nonzero}
    .fil9 {fill:#FB9B27;fill-rule:nonzero}
    .fil10 {fill:#FBCBC2;fill-rule:nonzero}
    .fil2 {fill:#FE4945;fill-rule:nonzero}
    .fil8 {fill:#FFB71E;fill-rule:nonzero}
    .fil6 {fill:#FFB8AB;fill-rule:nonzero}
   ]]>
  </style>
 </defs>
 <g id="Layer_x0020_1">
  <metadata id="CorelCorpID_0Corel-Layer"/>
  <g id="_914910608">
   <g>
    <path class="fil0" d="M680 276l0 20 -49 0 0 -20c0,-116 -95,-210 -211,-210 -116,0 -211,94 -211,210l0 20 -49 0 0 -20c0,-143 116,-260 260,-260 143,0 260,117 260,260z"/>
    <path class="fil1" d="M680 276l0 20 -49 0 0 -20c0,-116 -95,-210 -211,-210l0 -50c143,0 260,117 260,260z"/>
    <path class="fil2" d="M287 425l-90 0c-23,0 -41,-19 -41,-41l0 -72c0,-23 18,-41 41,-41l90 0 0 154z"/>
    <path class="fil3" d="M549 425l94 0c22,0 41,-19 41,-41l0 -72c0,-23 -19,-41 -41,-41l-94 0 0 154z"/>
    <path class="fil4" d="M840 788l0 69 -169 0 -25 -24 -25 24 -403 0 -24 -24 -25 24 -170 0 0 -69c0,-30 20,-57 48,-67l253 -82 241 0 0 0 251 82c29,10 48,37 48,67z"/>
    <path class="fil5" d="M840 788l0 69 -169 0 -25 -24 -25 24 -201 0 0 -218 121 0 0 0 251 82c29,10 48,37 48,67z"/>
    <path class="fil6" d="M541 520l0 119c0,0 -61,60 -121,60 -60,0 -120,-60 -120,-60l0 -119 241 0z"/>
    <path class="fil7" d="M541 520l0 119c0,0 -61,60 -121,60l0 -179 121 0z"/>
    <path class="fil8" d="M575 267l0 52 -16 17 -279 0 -16 -17 0 -52c0,-43 18,-82 46,-110 28,-28 67,-45 110,-45 86,0 155,69 155,155z"/>
    <path class="fil9" d="M575 267l0 52 -16 17 -139 0 0 -224c86,0 155,69 155,155z"/>
    <path class="fil10" d="M575 319l0 107c0,11 -1,21 -3,32 -1,8 -23,24 -23,24 0,0 10,17 6,25 -26,50 -77,84 -135,84 -43,0 -82,-18 -110,-48 -28,-30 -46,-72 -46,-117l0 -107 83 0c28,0 54,-11 73,-28 22,-20 35,-48 35,-80 0,60 49,108 108,108l12 0z"/>
    <path class="fil6" d="M575 319l0 107c0,11 -1,21 -3,32 -1,8 -23,24 -23,24 0,0 10,17 6,25 -26,50 -77,84 -135,84l0 -300c22,-20 35,-48 35,-80 0,60 49,108 108,108l12 0z"/>
    <path class="fil1" d="M572 458c-3,17 -9,34 -17,49l-107 0 0 -49 124 0z"/>
    <polygon class="fil5" points="169,782 218,782 218,857 169,857 "/>
    <polygon class="fil11" points="621,782 671,782 671,857 621,857 "/>
   </g>
  </g>
 </g>
</svg>
