<?xml version="1.0" encoding="UTF-8"?>
<!DOCTYPE svg PUBLIC "-//W3C//DTD SVG 1.1//EN" "http://www.w3.org/Graphics/SVG/1.1/DTD/svg11.dtd">
<!-- Creator: CorelDRAW X7 -->
<svg xmlns="http://www.w3.org/2000/svg" xml:space="preserve" width="0.985157in" height="0.858031in" version="1.1" style="shape-rendering:geometricPrecision; text-rendering:geometricPrecision; image-rendering:optimizeQuality; fill-rule:evenodd; clip-rule:evenodd"
viewBox="0 0 985 858"
 xmlns:xlink="http://www.w3.org/1999/xlink">
 <defs>
  <style type="text/css">
   <![CDATA[
    .fil9 {fill:#373435;fill-rule:nonzero}
    .fil5 {fill:#69D6F3;fill-rule:nonzero}
    .fil3 {fill:#959FAA;fill-rule:nonzero}
    .fil6 {fill:#AAB2BC;fill-rule:nonzero}
    .fil8 {fill:#B27946;fill-rule:nonzero}
    .fil4 {fill:#CCD1D9;fill-rule:nonzero}
    .fil7 {fill:#D3A06C;fill-rule:nonzero}
    .fil0 {fill:#FB6E50;fill-rule:nonzero}
    .fil2 {fill:#FBD770;fill-rule:nonzero}
    .fil1 {fill:#FF816E;fill-rule:nonzero}
   ]]>
  </style>
 </defs>
 <g id="Layer_x0020_1">
  <metadata id="CorelCorpID_0Corel-Layer"/>
  <g id="_915228624">
   <g>
    <g>
     <path class="fil0" d="M588 493l0 63 -540 0 -16 0c-9,0 -16,-7 -16,-16l0 -32c0,-8 7,-15 16,-15l16 0 190 0 191 0 159 0z"/>
    </g>
    <g>
     <path class="fil1" d="M588 556l0 191 -223 0c0,-53 -42,-96 -95,-96 -52,0 -95,43 -95,96l-96 0c-17,0 -31,-14 -31,-32l0 -32 79 0 16 -63 -95 0 0 -64 540 0z"/>
    </g>
    <g>
     <path class="fil1" d="M969 667l0 48c0,18 -14,32 -32,32l-63 0c0,-28 -12,-54 -32,-71l0 -152 0 -63 -15 -83c-2,-7 -8,-13 -16,-13l-144 0c-8,0 -16,8 -16,16l0 143 0 223 -63 0 0 -191 0 -63 0 -96 0 -32c0,-11 3,-22 8,-31 11,-19 32,-32 55,-32l169 0c31,0 58,22 63,53l23 138 28 14c22,11 35,33 35,57l0 24 -63 0 0 48 63 31z"/>
    </g>
    <g>
     <path class="fil0" d="M842 524l0 152c-17,-15 -39,-25 -63,-25 -53,0 -96,43 -96,96l-32 0 0 -223 143 0 16 0 32 0z"/>
    </g>
    <g>
     <polygon class="fil2" points="969,588 969,667 906,636 906,588 "/>
    </g>
    <g>
     <polygon class="fil2" points="143,620 127,683 48,683 48,620 "/>
    </g>
    <g>
     <path class="fil3" d="M842 676c20,17 32,43 32,71 0,52 -43,95 -95,95 -53,0 -96,-43 -96,-95 0,-53 43,-96 96,-96 24,0 46,10 63,25z"/>
    </g>
    <g>
     <path class="fil3" d="M270 651c53,0 95,43 95,96 0,52 -42,95 -95,95 -52,0 -95,-43 -95,-95 0,-53 43,-96 95,-96z"/>
    </g>
    <g>
     <path class="fil4" d="M779 715c17,0 31,14 31,32 0,17 -14,32 -31,32 -18,0 -32,-15 -32,-32 0,-18 14,-32 32,-32z"/>
    </g>
    <g>
     <path class="fil4" d="M270 715c18,0 32,14 32,32 0,17 -14,32 -32,32 -17,0 -32,-15 -32,-32 0,-18 15,-32 32,-32z"/>
    </g>
    <g>
     <path class="fil5" d="M747 477c0,26 21,47 47,47l-143 0 0 -143c0,-8 8,-16 16,-16l144 0c8,0 14,6 16,13l15 83 -79 0c-9,0 -16,7 -16,16z"/>
    </g>
    <g>
     <path class="fil6" d="M842 461l0 63 -32 0 -16 0c-26,0 -47,-21 -47,-47 0,-9 7,-16 16,-16l79 0z"/>
    </g>
    <g>
     <polygon class="fil7" points="48,334 238,334 238,493 48,493 "/>
    </g>
    <g>
     <polygon class="fil7" points="238,334 429,334 429,493 238,493 "/>
    </g>
    <g>
     <polygon class="fil7" points="429,334 620,334 620,493 429,493 "/>
    </g>
    <g>
     <polygon class="fil7" points="143,175 334,175 334,334 143,334 "/>
    </g>
    <g>
     <polygon class="fil7" points="334,175 524,175 524,334 334,334 "/>
    </g>
    <g>
     <polygon class="fil7" points="238,16 429,16 429,175 238,175 "/>
    </g>
    <g>
     <polygon class="fil8" points="302,16 365,16 365,79 302,79 "/>
    </g>
    <g>
     <polygon class="fil8" points="270,175 270,238 207,238 207,175 238,175 "/>
    </g>
    <g>
     <polygon class="fil8" points="461,175 461,238 397,238 397,175 429,175 "/>
    </g>
    <g>
     <path class="fil8" d="M524 334l72 0c-5,9 -8,20 -8,31l0 32 -95 0 0 -63 31 0z"/>
    </g>
    <g>
     <polygon class="fil8" points="365,334 365,397 302,397 302,334 334,334 "/>
    </g>
    <g>
     <polygon class="fil8" points="175,334 175,397 111,397 111,334 143,334 "/>
    </g>
   </g>
   <g>
    <path class="fil9" d="M779 699c-27,0 -48,22 -48,48 0,26 21,47 48,47 26,0 47,-21 47,-47 0,-26 -21,-48 -47,-48zm0 64l0 0c-9,0 -16,-7 -16,-16 0,-9 7,-16 16,-16 8,0 15,7 15,16 0,9 -7,16 -15,16z"/>
    <path class="fil9" d="M270 699c-26,0 -48,22 -48,48 0,26 22,47 48,47 26,0 48,-21 48,-47 0,-26 -22,-48 -48,-48zm0 64l0 0c-9,0 -16,-7 -16,-16 0,-9 7,-16 16,-16 9,0 16,7 16,16 0,9 -7,16 -16,16z"/>
    <path class="fil9" d="M941 493l-21 -11 -22 -130c-6,-38 -39,-66 -78,-66l-169 0c-25,0 -48,13 -63,32l-48 0 0 -159 -95 0 0 -159 -223 0 0 159 -95 0 0 159 -95 0 0 159c-18,0 -32,14 -32,31l0 32c0,18 14,32 32,32l0 143c0,26 21,48 47,48l81 0c8,53 54,95 110,95 56,0 102,-42 110,-95l289 0c7,53 54,95 110,95 56,0 102,-42 110,-95l48 0c27,0 48,-22 48,-48l0 -151c0,-31 -17,-58 -44,-71zm12 149l0 0 -31 -16 0 -22 31 0 0 38zm-635 -292l0 0 32 0 0 31 -32 0 0 -31zm63 63l0 0 0 -63 32 0 0 127 -159 0 0 -127 32 0 0 63 95 0zm191 64l0 0 -127 0 0 -127 32 0 0 63 95 0 0 64zm0 -112l0 0 0 16 -64 0 0 -31 66 0c-1,5 -2,10 -2,15zm-64 -47l0 0 -63 0 -32 0 -63 0 0 -127 31 0 0 63 96 0 0 -63 31 0 0 127zm-95 -127l0 0 32 0 0 31 -32 0 0 -31zm-95 -159l0 0 32 0 0 32 -32 0 0 -32zm-64 0l0 0 32 0 0 63 95 0 0 -63 32 0 0 127 -63 0 -32 0 -64 0 0 -127zm-32 159l0 0 32 0 0 31 -32 0 0 -31zm-63 0l0 0 32 0 0 63 95 0 0 -63 32 0 0 127 -64 0 -32 0 -63 0 0 -127zm-32 159l0 0 32 0 0 31 -32 0 0 -31zm-63 0l0 0 31 0 0 63 96 0 0 -63 31 0 0 127 -158 0 0 -127zm-32 158l0 0 540 0 0 32 -540 0 0 -32zm32 128l0 0 59 0 -8 31 -51 0 0 -31zm0 79l0 0 0 -16 76 0 23 -95 -99 0 0 -32 508 0 0 159 -192 0c-8,-54 -54,-95 -110,-95 -56,0 -102,41 -110,95l-81 0c-8,0 -15,-7 -15,-16zm206 111l0 0c-44,0 -79,-35 -79,-79 0,-44 35,-80 79,-80 44,0 80,36 80,80 0,44 -36,79 -80,79zm493 -349l0 0 63 0 0 31 -16 0 -16 0c-17,0 -31,-14 -31,-31zm0 -32l0 0c-18,0 -32,14 -32,32 0,11 3,22 9,31l-73 0 0 -127 144 0 12 64 -60 0zm-96 95l0 0 127 0 16 0 16 0 0 106c-14,-6 -30,-10 -47,-10 -56,0 -103,41 -110,95l-2 0 0 -191zm112 286l0 0c-44,0 -80,-35 -80,-79 0,-44 36,-80 80,-80 43,0 79,36 79,80 0,44 -36,79 -79,79zm158 -95l0 0 -48 0c-4,-24 -15,-45 -31,-62l0 -208 -16 -85c-2,-15 -16,-26 -31,-26l-144 0c-17,0 -31,14 -31,31l0 350 -32 0 0 -366c0,-26 21,-47 47,-47l169 0c23,0 43,17 47,40l24 145 36 18c16,8 26,24 26,43l0 8 -63 0 0 73 63 32 0 38c0,9 -7,16 -16,16z"/>
   </g>
  </g>
 </g>
</svg>
