<?xml version="1.0" encoding="UTF-8"?>
<!DOCTYPE svg PUBLIC "-//W3C//DTD SVG 1.1//EN" "http://www.w3.org/Graphics/SVG/1.1/DTD/svg11.dtd">
<!-- Creator: CorelDRAW X7 -->
<svg xmlns="http://www.w3.org/2000/svg" xml:space="preserve" width="0.839528in" height="0.858031in" version="1.1" style="shape-rendering:geometricPrecision; text-rendering:geometricPrecision; image-rendering:optimizeQuality; fill-rule:evenodd; clip-rule:evenodd"
viewBox="0 0 840 858"
 xmlns:xlink="http://www.w3.org/1999/xlink">
 <defs>
  <style type="text/css">
   <![CDATA[
    .fil1 {fill:#52658C}
    .fil0 {fill:#51417B}
    .fil3 {fill:#40586B}
    .fil2 {fill:#FFEA00}
   ]]>
  </style>
 </defs>
 <g id="Layer_x0020_1">
  <metadata id="CorelCorpID_0Corel-Layer"/>
  <g id="_918558880">
   <g>
    <g>
     <path class="fil0" d="M88 618l0 -65 40 0 0 65c-3,-2 -7,-9 -10,-12 -5,-7 -6,-11 -12,-12 -1,4 -5,8 -8,12l-7 9c-1,1 -2,2 -3,3zm-29 101l222 0 1 -180 -223 0 0 180z"/>
     <path class="fil0" d="M588 618l0 -65 40 0 0 65 -5 -5c-2,-3 -3,-4 -5,-7 -2,-4 -7,-10 -10,-12 -6,4 -15,21 -20,24zm194 101l0 -180 -222 0 -1 180 223 0z"/>
     <path class="fil0" d="M338 618l0 -65 41 0 0 67 -10 -13c-3,-4 -7,-11 -11,-13l-20 24zm-28 101l221 0 1 -181 -222 0 0 181z"/>
    </g>
    <path class="fil1" d="M353 196l0 -67 41 0 0 65c-3,-1 -18,-21 -19,-24 -6,1 -16,21 -22,26zm-27 99l221 0 1 -180 -222 0 0 180z"/>
    <g>
     <path class="fil1" d="M462 407l0 -66 41 0 0 65c-3,-2 -18,-21 -19,-25 -6,2 -16,22 -22,26zm-27 100l221 0 1 -180 -222 0 0 180z"/>
     <path class="fil1" d="M213 406l0 -65 41 0 0 66c-1,0 -2,-1 -3,-2l-8 -11c-4,-6 -7,-11 -12,-13 -1,4 -5,9 -8,13 -3,3 -7,10 -10,12zm-28 101l221 0 0 -180 -220 0 -1 180z"/>
    </g>
    <g>
     <path class="fil2" d="M466 34l49 0 0 29 -49 0 0 -29zm-20 49l90 0 0 -69 -90 0 0 69z"/>
     <path class="fil2" d="M339 34l49 0c1,4 1,25 0,30 -4,0 -45,1 -49,-1l0 -29zm-20 49l89 0 0 -69 -89 0 0 69z"/>
     <path class="fil2" d="M339 63c4,2 45,1 49,1 1,-5 1,-26 0,-30l-49 0 48 0 0 29 -48 0z"/>
    </g>
   </g>
   <rect class="fil3" x="11" y="720" width="817" height="140"/>
  </g>
 </g>
</svg>
