<?xml version="1.0" encoding="UTF-8"?>
<!DOCTYPE svg PUBLIC "-//W3C//DTD SVG 1.1//EN" "http://www.w3.org/Graphics/SVG/1.1/DTD/svg11.dtd">
<!-- Creator: CorelDRAW X7 -->
<svg xmlns="http://www.w3.org/2000/svg" xml:space="preserve" width="0.0533307in" height="0.0333307in" version="1.1" style="shape-rendering:geometricPrecision; text-rendering:geometricPrecision; image-rendering:optimizeQuality; fill-rule:evenodd; clip-rule:evenodd"
viewBox="0 0 53 33"
 xmlns:xlink="http://www.w3.org/1999/xlink">
 <defs>
  <style type="text/css">
   <![CDATA[
    .fil0 {fill:#783D1D}
    .fil1 {fill:#F2AE03}
   ]]>
  </style>
 </defs>
 <g id="Layer_x0020_1">
  <metadata id="CorelCorpID_0Corel-Layer"/>
  <g id="_797694720">
   <path class="fil0" d="M0 13l0 21 5 0 0 -16c0,-1 0,-2 0,-3 0,-1 0,-2 0,-3 0,-1 0,-3 0,-3 1,-2 1,-3 2,-4l1 0c2,-2 5,-2 8,-2 1,0 3,1 4,2 0,0 0,0 0,0 0,0 0,0 0,0 1,1 2,2 3,3 1,3 0,4 1,4 1,1 2,1 2,1 0,0 1,0 1,0 1,0 1,0 1,0 1,0 1,0 1,0 2,0 5,1 6,2 0,1 1,1 1,2l4 0c0,0 0,0 0,0 0,-1 0,-2 0,-2 0,-1 -1,-2 -1,-2l-1 -1c0,0 0,0 0,0 0,0 0,0 0,0 0,0 0,0 -1,-1 -1,0 -2,-1 -4,-1 0,0 0,-1 -1,-1 -1,0 -2,0 -3,0l-1 0c0,0 0,-1 0,-1 0,0 -1,-1 -1,-2 -1,-1 -2,-2 -3,-3l0 0c-2,-2 -3,-2 -5,-3 -1,0 -2,0 -3,-1 -3,0 -6,0 -9,1 0,1 -1,1 -2,1l-1 1c0,0 0,1 -1,1 0,1 0,1 -1,2 0,0 0,0 0,0 0,0 0,0 0,0 0,1 0,1 -1,1 0,0 0,0 0,0 0,0 0,0 0,0 0,2 -1,4 -1,5 0,0 0,1 0,1l0 1z"/>
   <path class="fil1" d="M36 6c0,2 0,3 1,4 0,0 0,0 0,0 0,1 1,1 1,1l0 1c1,0 1,0 1,0l1 1c0,0 0,0 0,0 1,0 1,0 1,0 0,0 1,0 2,1 1,0 2,-1 4,0 1,1 1,2 1,3 0,1 0,1 0,2 0,0 0,0 0,0 0,0 -1,0 -1,0 -1,1 -2,1 -3,1 0,0 -1,0 -1,0 0,0 -1,0 -1,0l0 0c-1,-1 -1,-2 -2,-2 0,0 0,-1 0,-1l-4 0c0,1 0,2 0,3 0,0 1,0 1,0 0,0 0,0 0,1 0,0 0,0 0,0 2,3 6,4 10,3 0,0 1,0 1,0 1,-1 2,-1 2,-2 1,0 1,0 1,-1 1,-1 2,-2 2,-3 0,-1 0,-2 0,-3 0,0 0,-1 -1,-1l0 -1c0,0 -1,0 -1,-1 0,0 0,0 0,0l-1 0c0,-1 -1,-1 -1,-1 0,0 0,0 0,0 -1,-1 -3,-1 -4,-1 0,0 0,0 0,0 0,0 0,0 -1,0 -1,0 -2,-1 -3,-1 0,0 0,-1 0,-1 -1,-1 -1,-2 0,-3 1,-1 2,-2 3,-2 1,0 2,0 2,0 1,1 1,1 1,1l5 0c0,-1 0,-1 0,-2 0,0 -1,0 -1,0 0,0 0,0 0,0 -1,-2 -4,-3 -6,-3 -2,0 -3,0 -4,1 -1,0 -2,0 -2,1 0,0 -1,0 -1,0 0,0 0,0 0,0l0 1c-1,0 -1,0 -1,1 0,0 0,0 -1,0 0,1 0,2 0,3z"/>
   <path class="fil1" d="M14 20c-1,0 -2,0 -3,0 -3,0 -4,-1 -4,-2l0 5 1 0c3,1 5,1 8,1 2,0 4,-1 5,-2 2,0 3,-1 4,-2l0 -1c1,0 2,-1 2,-2 1,-1 1,-2 1,-3 0,0 0,0 0,0 0,0 -3,-1 -3,-1l-1 0c-1,1 -1,3 -2,4l0 0c-1,1 -2,1 -3,2 0,0 0,0 0,0 -1,0 -2,1 -2,1 -1,0 -2,0 -3,0z"/>
   <path class="fil1" d="M24 2c0,0 1,1 1,1 0,0 0,0 0,0 0,0 0,0 0,0 0,0 0,0 1,1l0 0c0,0 0,0 0,1 1,0 1,0 1,0 0,0 0,1 0,1 1,0 0,0 0,0 0,0 1,0 1,0 0,-2 2,-3 3,-3 1,0 2,0 2,0 1,1 1,1 1,1l1 0c0,0 0,1 0,1 0,0 0,-1 0,-1 1,0 1,-1 1,-1 0,0 0,0 0,0 0,0 0,-1 0,-1 1,0 1,0 1,0l1 -1 -1 0c0,0 0,0 0,0 -1,-1 -1,-1 -2,-1 -1,-1 -2,-1 -4,-1 -1,0 -3,1 -5,2 0,0 0,0 -1,0l0 1c0,0 -1,0 -1,0z"/>
   <path class="fil1" d="M24 21c0,0 1,0 1,0l1 1c0,1 0,1 1,1 1,1 3,1 5,1 1,0 3,0 4,-1 1,0 1,0 1,0l1 -1c-1,0 -1,0 -1,-1 0,0 -1,0 -1,0 0,-1 0,-2 -1,-2 0,0 0,0 0,-1l0 1c-1,0 -1,1 -2,1 -1,0 -2,0 -3,0 0,0 -1,0 -1,0 -1,-1 -1,-2 -2,-3 0,0 0,0 0,1l-1 1c0,0 -1,1 -1,1 0,1 0,1 -1,1z"/>
   <path class="fil0" d="M38 28c0,1 0,1 1,2 1,0 3,0 3,-2 0,-1 -2,-2 -3,-1 0,0 0,0 0,0 0,0 0,0 0,0 -1,0 -1,1 -1,1zm2 -1c0,0 1,1 1,1 0,1 -1,1 -1,1 -1,0 -1,0 -1,-1 0,0 0,-1 1,-1z"/>
   <path class="fil0" d="M24 30l0 0 0 -2 2 2c0,0 0,0 0,0 0,0 0,0 0,0l0 0 0 -3 0 0 0 2c0,0 -1,-2 -2,-2 0,0 0,0 0,0l0 3z"/>
   <path class="fil0" d="M13 30l1 0 0 -1 0 0c0,0 0,0 0,0 0,1 1,1 1,1l0 0c0,0 0,-1 0,-1 0,0 0,0 0,0 0,-1 0,-2 -1,-2l-1 0 0 3zm1 -3l0 0c0,0 0,0 0,1l0 0c0,0 0,0 0,0l0 0 0 -1z"/>
   <path class="fil0" d="M44 30l1 0 0 -1c0,0 0,0 0,0l1 1 1 0c0,0 -1,-1 -1,-1 1,-1 1,-2 -1,-2l-1 0 0 3zm1 -3l0 0c0,0 1,0 1,1l0 0c0,0 -1,0 -1,0l0 0 0 -1z"/>
   <path class="fil0" d="M18 30l1 0c0,0 0,-1 0,-1l1 0 0 1 1 0c0,0 0,-1 -1,-2 0,0 0,-1 0,-1l-1 0 -1 3c0,0 0,0 0,0 0,0 0,0 0,0zm1 -2l1 1 -1 0 0 -1z"/>
   <path class="fil0" d="M34 30l0 0 0 -1c1,0 1,0 1,-1 1,0 1,-1 0,-1l-1 0 0 3zm0 -3l1 0c0,0 0,0 0,1l0 0c0,0 0,0 0,0l-1 0 0 -1z"/>
   <path class="fil0" d="M29 28c0,0 0,0 1,0 0,1 0,1 0,1 0,0 0,0 0,0 0,0 -1,0 -1,0 0,0 0,0 0,1 0,0 1,0 1,0 1,0 1,-1 1,-2 0,0 -1,0 -1,0 0,-1 0,-1 0,-1 0,0 0,0 1,0 0,0 0,0 0,0 0,-1 -2,-1 -2,0 0,0 0,0 0,1z"/>
   <polygon class="fil0" points="49,27 50,27 50,30 50,30 50,27 51,27 51,27 49,27 "/>
   <polygon class="fil0" points="8,27 9,27 9,30 10,30 10,27 11,27 11,27 8,27 "/>
  </g>
 </g>
</svg>
