<?xml version="1.0" encoding="UTF-8"?>
<!DOCTYPE svg PUBLIC "-//W3C//DTD SVG 1.1//EN" "http://www.w3.org/Graphics/SVG/1.1/DTD/svg11.dtd">
<!-- Creator: CorelDRAW X7 -->
<svg xmlns="http://www.w3.org/2000/svg" xml:space="preserve" width="5.995in" height="2.733in" version="1.1" style="shape-rendering:geometricPrecision; text-rendering:geometricPrecision; image-rendering:optimizeQuality; fill-rule:evenodd; clip-rule:evenodd"
viewBox="0 0 5995 2733"
 xmlns:xlink="http://www.w3.org/1999/xlink">
 <defs>
  <style type="text/css">
   <![CDATA[
    .fil14 {fill:#FEFEFE;fill-rule:nonzero}
    .fil1 {fill:#FCB639;fill-rule:nonzero}
    .fil13 {fill:#FAB891;fill-rule:nonzero}
    .fil12 {fill:#F79334;fill-rule:nonzero}
    .fil25 {fill:#F05237;fill-rule:nonzero}
    .fil38 {fill:#F8F0E1;fill-rule:nonzero}
    .fil34 {fill:#F8CD89;fill-rule:nonzero}
    .fil2 {fill:#E4A238;fill-rule:nonzero}
    .fil10 {fill:#DE7C35;fill-rule:nonzero}
    .fil26 {fill:#CF4835;fill-rule:nonzero}
    .fil0 {fill:#F1F1F0;fill-rule:nonzero}
    .fil37 {fill:#E5B267;fill-rule:nonzero}
    .fil11 {fill:#B66831;fill-rule:nonzero}
    .fil35 {fill:#E3B56D;fill-rule:nonzero}
    .fil7 {fill:#E2C8B4;fill-rule:nonzero}
    .fil33 {fill:#BE965D;fill-rule:nonzero}
    .fil18 {fill:#C6967B;fill-rule:nonzero}
    .fil22 {fill:#BD8769;fill-rule:nonzero}
    .fil36 {fill:#B18A50;fill-rule:nonzero}
    .fil16 {fill:#C6C7CC;fill-rule:nonzero}
    .fil3 {fill:#C3DADE;fill-rule:nonzero}
    .fil19 {fill:#BDC1C7;fill-rule:nonzero}
    .fil4 {fill:#BCD0D4;fill-rule:nonzero}
    .fil29 {fill:#85775D;fill-rule:nonzero}
    .fil32 {fill:#69563D;fill-rule:nonzero}
    .fil9 {fill:#65493C;fill-rule:nonzero}
    .fil6 {fill:#6F5649;fill-rule:nonzero}
    .fil31 {fill:#65543C;fill-rule:nonzero}
    .fil30 {fill:#65563D;fill-rule:nonzero}
    .fil28 {fill:#9BBDC6;fill-rule:nonzero}
    .fil8 {fill:#4E4338;fill-rule:nonzero}
    .fil5 {fill:#544C42;fill-rule:nonzero}
    .fil17 {fill:#49433C;fill-rule:nonzero}
    .fil20 {fill:#48453E;fill-rule:nonzero}
    .fil27 {fill:#303C3A;fill-rule:nonzero}
    .fil23 {fill:#2C6478;fill-rule:nonzero}
    .fil24 {fill:#2B5A6D;fill-rule:nonzero}
    .fil15 {fill:#294F5E;fill-rule:nonzero}
    .fil21 {fill:#2A2C44;fill-rule:nonzero}
   ]]>
  </style>
 </defs>
 <g id="Layer_x0020_1">
  <metadata id="CorelCorpID_0Corel-Layer"/>
  <g id="_1017193168">
   <path class="fil0" d="M4369 722c-32,57 -59,115 -181,322 0,0 -141,154 -227,154 -31,0 -55,21 -1,42 55,22 237,-10 329,-126 65,-82 269,-267 256,-317 -19,-69 -116,-178 -176,-75z"/>
   <path class="fil1" d="M3925 1193c-9,6 -20,9 -31,7 -27,-6 -41,-38 -51,-59 -12,-27 -29,11 1,46 0,0 -39,-22 -69,5 -28,26 -15,101 90,62 15,-5 30,-6 45,-3l66 15c26,-13 18,-116 8,-109l-59 36z"/>
   <path class="fil2" d="M3763 1231c4,4 7,8 8,9 12,8 39,16 90,-3 16,-6 34,-7 51,-3l60 13c7,-1 13,-3 18,-5 -3,11 -7,20 -14,24l-66 -15c-15,-3 -30,-2 -45,3 -67,25 -97,3 -102,-23z"/>
   <path class="fil3" d="M4171 1061c11,-10 17,-17 17,-17 0,0 0,0 0,0 0,0 -6,7 -17,17 0,0 0,0 0,0z"/>
   <path class="fil4" d="M4156 1106c0,0 0,-1 0,-2 7,-14 32,-60 32,-60 0,0 -6,7 -17,17 -7,21 -16,45 -15,45z"/>
   <path class="fil4" d="M4094 1233c68,-18 145,-56 195,-119 15,-19 38,-44 64,-72 0,-9 -1,-19 -2,-28 -52,61 -111,130 -124,142 -13,14 -83,51 -133,77z"/>
   <polygon class="fil5" points="3978,1474 4017,1282 4191,1252 4187,1230 3998,1262 3956,1470 "/>
   <polygon class="fil5" points="3998,1279 4016,1266 3885,1090 3867,1103 "/>
   <path class="fil5" d="M2547 2372c0,199 162,361 361,361 200,0 361,-162 361,-361 0,-200 -161,-362 -361,-362 -199,0 -361,162 -361,362z"/>
   <path class="fil6" d="M2613 2372c0,199 161,361 361,361 199,0 360,-162 360,-361 0,-200 -161,-362 -360,-362 -200,0 -361,162 -361,362z"/>
   <path class="fil7" d="M2547 2366c3,-197 164,-356 361,-356 1,0 1,0 1,0 0,0 0,0 -1,0 -197,0 -358,159 -361,356zm698 -232c-66,-76 -163,-124 -271,-124 -1,0 -1,0 -2,0 1,0 1,0 2,0 108,0 205,48 271,124z"/>
   <path class="fil8" d="M2908 2733c9,0 17,-1 24,-3 -86,-9 -163,-50 -220,-110l-65 0c65,70 158,113 261,113zm-352 -281l66 0c-6,-26 -9,-53 -9,-80 0,-186 139,-339 320,-359 -8,-1 -16,-3 -24,-3 0,0 0,0 -1,0 -197,0 -358,159 -361,356 0,2 0,4 0,6l0 0c0,27 4,54 9,80z"/>
   <path class="fil9" d="M2974 2733c199,0 360,-162 360,-361 0,-91 -33,-175 -89,-238 -66,-76 -163,-124 -271,-124 -1,0 -1,0 -2,0 -10,0 -21,3 -31,4 -3,-1 -6,-1 -8,-1 -181,20 -320,173 -320,359 0,27 3,54 9,80l287 0 0 168 -197 0c57,60 134,101 220,110 3,0 6,0 9,0 11,1 21,3 33,3z"/>
   <path class="fil5" d="M4823 1908l-1834 14 478 -1338c62,-173 226,-289 410,-289l613 0c92,0 170,70 179,162l154 1451zm-1955 100l2049 -16 -163 -1544c-15,-136 -128,-238 -264,-238l-613 0c-219,0 -416,139 -490,345l-519 1453z"/>
   <polygon class="fil10" points="2560,239 2375,239 2375,74 2560,74 "/>
   <path class="fil10" d="M3423 1626l0 701c0,87 66,159 153,166l-301 0c-86,-7 -153,-79 -153,-166l0 -701 301 0z"/>
   <polygon class="fil10" points="3256,233 2658,233 2658,69 3256,69 "/>
   <polygon class="fil11" points="3337,2538 3278,2538 3278,1664 3337,1664 "/>
   <polygon class="fil12" points="3392,1664 3246,1664 3246,1605 3392,1605 "/>
   <polygon class="fil11" points="3246,1664 3107,1664 3107,1605 3246,1605 "/>
   <polygon class="fil12" points="3392,2099 3246,2099 3246,2040 3392,2040 "/>
   <polygon class="fil11" points="3249,2099 3107,2099 3107,2040 3249,2040 "/>
   <polygon class="fil12" points="3392,2620 3246,2620 3246,2493 3392,2493 "/>
   <polygon class="fil6" points="3223,1603 3164,1603 3164,233 3223,233 "/>
   <polygon class="fil10" points="3164,257 2658,257 2658,189 3164,189 "/>
   <path class="fil5" d="M4511 1928l1000 0 0 -211c0,-50 -41,-91 -91,-91l-732 0c-38,0 -73,24 -87,60l-90 242z"/>
   <path class="fil5" d="M4600 2463c0,149 121,270 270,270 149,0 270,-121 270,-270 0,-150 -121,-271 -270,-271 -149,0 -270,121 -270,271z"/>
   <path class="fil6" d="M4649 2463c0,149 121,270 270,270 149,0 270,-121 270,-270 0,-150 -121,-271 -270,-271 -149,0 -270,121 -270,271z"/>
   <path class="fil7" d="M4870 2733l0 0c-149,0 -270,-121 -270,-270l0 0c0,149 121,270 270,270zm49 0l0 0c0,0 0,0 0,0 0,0 0,0 0,0zm-319 -281c6,-145 124,-260 270,-260 -146,0 -264,115 -270,260zm319 -260l0 0c0,0 0,0 0,0l0 0 0 0z"/>
   <path class="fil8" d="M4870 2733l0 0c6,0 12,-1 18,-2 -135,-15 -239,-130 -239,-268 0,-139 104,-254 239,-269 -6,-1 -12,-2 -18,-2l0 0c-146,0 -264,115 -270,260 0,3 0,7 0,11 0,149 121,270 270,270z"/>
   <path class="fil9" d="M4919 2733c133,0 244,-97 266,-223 2,-16 4,-31 4,-47 0,-150 -121,-271 -270,-271 0,0 0,0 0,0 -9,0 -16,2 -25,3 -2,-1 -4,-1 -6,-1 -135,15 -239,130 -239,269 0,138 104,253 239,268 2,0 4,0 6,-1 9,1 16,3 25,3 0,0 0,0 0,0l0 0z"/>
   <polygon class="fil12" points="3366,2538 3307,2538 3307,1664 3366,1664 "/>
   <path class="fil6" d="M4660 1926l485 0 180 -863c10,-46 -26,-90 -74,-90l-390 0 -201 953z"/>
   <path class="fil5" d="M4561 1843l483 0 184 -870 -438 0c-27,0 -50,18 -55,44l-174 826z"/>
   <path class="fil5" d="M3671 1767c7,0 14,-3 18,-9l337 -472c7,-11 5,-25 -5,-32 -11,-8 -25,-5 -32,5l-337 472c-7,10 -5,25 5,32 4,3 9,4 14,4z"/>
   <path class="fil5" d="M3958 1291c12,30 42,46 69,36 27,-10 40,-43 29,-73 -11,-30 -42,-46 -69,-36 -27,10 -40,43 -29,73z"/>
   <path class="fil13" d="M4880 497c-21,103 -15,243 -15,243l-114 102 -124 -26 -28 -68 14 -77 68 8c0,0 84,-98 93,-139 8,-41 106,-43 106,-43z"/>
   <path class="fil14" d="M4868 719c73,34 183,103 151,233 -32,129 -140,242 -154,368 -14,125 10,332 10,332 0,0 -224,110 -508,-95 0,0 62,-487 57,-632 -5,-145 117,-274 117,-274 0,0 70,12 78,13 0,0 2,63 36,86 41,28 83,34 125,30 49,-5 88,-61 88,-61z"/>
   <path class="fil0" d="M4541 651c0,0 -118,-24 -174,81 -56,105 22,629 22,629l214 -623 -62 -87z"/>
   <path class="fil15" d="M4687 1802c-14,9 -27,17 -41,24 -14,6 -28,11 -42,12 -13,2 -27,-4 -41,-11 -7,-3 -14,-7 -20,-11 -7,-4 -13,-8 -18,-15 1,8 7,15 12,22 6,6 12,11 19,16 14,9 30,18 49,17 18,-2 34,-9 48,-18 14,-10 25,-22 34,-36z"/>
   <path class="fil16" d="M4681 679c0,0 4,-5 11,-12l-2 -11 -2 0 -23 21 16 2z"/>
   <path class="fil17" d="M4692 667c2,-3 5,-7 8,-10l-10 -1 2 11z"/>
   <path class="fil16" d="M4867 611c2,-10 3,-20 2,-30 0,-1 0,-2 0,-3 -1,11 -2,22 -2,33zm4 -52c3,-17 12,-36 21,-54 -3,-11 -7,-23 -10,-35 0,0 -2,0 -5,0 -13,0 -47,1 -68,10 -2,12 -6,23 -10,33 32,-15 81,-16 81,-16 -4,20 -7,41 -9,62z"/>
   <path class="fil18" d="M4643 738c25,-8 63,-20 72,-23 20,-8 43,-16 55,-21 50,-17 86,-46 97,-83 0,-11 1,-22 2,-33 0,-6 0,-12 2,-19 2,-21 5,-42 9,-62 0,0 -49,1 -81,16 -2,4 -4,9 -6,12 0,51 -39,123 -39,123l-36 9 -18 0c-3,3 -6,7 -8,10 -7,7 -11,12 -11,12l-16 -2 -36 31c0,0 -1,0 -1,1 3,10 8,20 15,29z"/>
   <path class="fil16" d="M4607 746c6,0 13,-1 13,-1 2,-1 11,-4 23,-7 -7,-9 -12,-19 -15,-29 -4,2 -21,13 -28,26l3 3 -3 7c2,1 4,1 7,1z"/>
   <path class="fil19" d="M4600 745l3 -7 -3 -3c0,0 -1,1 -1,2 -2,5 -1,7 1,8z"/>
   <path class="fil20" d="M4875 1652c0,-6 -23,-209 -10,-332 13,-111 97,-211 139,-322 -42,111 -126,211 -139,322 -14,123 10,326 10,332z"/>
   <path class="fil3" d="M4806 1663c52,-2 69,-11 69,-11l0 0c0,0 0,0 0,0 0,-6 -24,-209 -10,-332 13,-111 97,-211 139,-322 2,-3 3,-7 4,-10 -2,3 -4,7 -7,11 -10,24 -31,64 -66,102 -14,14 -37,36 -67,61 -41,159 -73,341 -62,501zm182 -856c0,-1 -1,-2 -2,-3 0,0 0,0 0,0 1,1 2,2 2,3z"/>
   <path class="fil13" d="M4930 392c-2,21 -73,106 -68,158 5,52 -37,92 -99,114 -63,22 -145,45 -157,32 -13,-14 10,-81 5,-124 -4,-43 -16,-100 3,-119 19,-19 -12,-55 -23,-67 -11,-12 -9,-84 9,-98 17,-14 164,-102 202,-67 38,35 138,53 128,171z"/>
   <path class="fil21" d="M4766 357c-11,-11 -26,-17 -41,-18 -8,-1 -17,-2 -24,2 -7,3 -14,8 -18,16l1 2c9,0 16,0 22,-1 6,-1 12,-4 19,-5 13,-2 27,-1 40,5l1 -1z"/>
   <path class="fil21" d="M4598 383c6,-7 15,-10 23,-12 10,0 13,-1 24,-11l1 -3c-8,-14 -25,-11 -33,-2 -9,7 -17,15 -17,27l2 1z"/>
   <path class="fil21" d="M4704 411c3,8 9,13 15,12 5,-2 8,-10 6,-17 -2,-8 -9,-14 -14,-12 -6,1 -9,9 -7,17z"/>
   <path class="fil21" d="M4631 419c3,8 9,12 14,11 4,-2 6,-9 4,-17 -3,-7 -9,-11 -14,-10 -4,2 -6,9 -4,16z"/>
   <path class="fil22" d="M4673 397c-11,18 -21,37 -31,56 -2,5 -5,9 -7,15 -2,3 -2,9 2,14 3,3 7,5 10,5 13,2 23,0 34,-5l-1 -1c-10,-3 -21,-3 -29,-6 -2,-1 -3,-2 -4,-2 1,0 0,0 0,-2 1,-4 3,-9 5,-14l11 -30c4,-10 7,-20 11,-30l-1 0z"/>
   <path class="fil14" d="M4698 538c-17,1 -49,8 -61,17 0,0 -1,34 21,27 33,-10 40,-44 40,-44z"/>
   <path class="fil21" d="M4821 289c0,0 41,125 -10,214 -50,89 55,29 60,18 6,-11 53,-72 53,-72l11 -76 -38 -76 -76 -8z"/>
   <path class="fil13" d="M4886 453c31,-23 63,11 42,45 -20,34 -55,48 -66,43 -10,-5 3,-74 24,-88z"/>
   <path class="fil21" d="M4746 549c0,0 -27,-43 -94,-39 -67,4 -35,57 -35,57 0,0 -2,-21 25,-32 28,-11 92,4 104,14z"/>
   <path class="fil2" d="M4927 415c-22,-51 -56,-97 -115,-132 -61,-37 -166,-2 -192,25 -26,28 -36,61 -36,61 0,0 51,-254 231,-198 40,12 90,68 106,104 33,72 6,140 6,140z"/>
   <path class="fil1" d="M4898 343c-41,-53 -96,-93 -159,-105 -53,-9 -117,-4 -156,50 -40,54 -14,104 -2,102 6,-1 8,-3 9,-9 2,-17 5,-23 14,-38 9,-14 20,-22 34,-29 33,-15 103,-43 164,-23 61,20 117,102 124,127 8,26 12,-21 -28,-75z"/>
   <path class="fil5" d="M3950 1081c94,-28 196,35 228,140 31,106 -20,214 -114,242 -94,29 -196,-34 -227,-139 -32,-106 19,-214 113,-243zm121 404c106,-31 164,-153 129,-270 -36,-118 -151,-187 -257,-155 -106,31 -163,153 -128,270 35,118 150,187 256,155z"/>
   <path class="fil23" d="M4365 1626c1,-23 2,-44 2,-69 0,0 62,-487 57,-632 -5,-145 117,-274 117,-274 0,0 33,6 57,10 0,0 -113,170 -102,272 0,0 35,48 164,67 0,0 31,-172 245,-262 17,10 35,22 51,36 -95,-13 -215,155 -223,368 -7,185 21,456 28,522 88,1 114,-12 114,-12 21,149 -44,235 -121,245l-565 89c0,0 -395,79 -395,-98 0,-176 73,-327 571,-262z"/>
   <path class="fil15" d="M4424 1727c-49,-14 -99,-25 -149,-32 -51,-7 -102,-7 -154,-3 -50,7 -103,21 -144,57 -19,19 -34,42 -40,68 -6,26 -4,52 1,76 -4,-50 13,-101 51,-131 38,-29 86,-42 135,-47 98,-12 199,2 300,12z"/>
   <path class="fil6" d="M5487 1908l-1834 14 478 -1338c61,-173 226,-289 410,-289l612 0c93,0 170,70 180,162l154 1451zm-1955 100l2049 -16 -164 -1544c-14,-136 -128,-238 -264,-238l-612 0c-219,0 -416,139 -490,345l-519 1453z"/>
   <path class="fil12" d="M3601 1626c39,0 77,12 108,33l220 151c25,17 55,26 86,26l1339 0c58,0 111,-33 137,-85l9 -18c32,-66 99,-107 172,-107l231 0c51,0 92,41 92,92l0 683c0,51 -41,92 -92,92l-2327 0c-87,-7 -153,-79 -153,-166l0 -701 178 0z"/>
   <path class="fil5" d="M5241 2463c0,149 121,270 270,270 149,0 270,-121 270,-270 0,-150 -121,-271 -270,-271 -149,0 -270,121 -270,271z"/>
   <path class="fil6" d="M5289 2463c0,149 121,270 270,270 150,0 271,-121 271,-270 0,-150 -121,-271 -271,-271 -149,0 -270,121 -270,271z"/>
   <path class="fil12" d="M5559 2623c89,0 161,-72 161,-161 0,-88 -72,-160 -161,-160 -88,0 -160,72 -160,160 0,89 72,161 160,161z"/>
   <path class="fil5" d="M3527 2372c0,199 162,361 361,361 200,0 361,-162 361,-361 0,-200 -161,-362 -361,-362 -199,0 -361,162 -361,362z"/>
   <path class="fil6" d="M3592 2372c0,199 162,361 361,361 200,0 361,-162 361,-361 0,-200 -161,-362 -361,-362 -199,0 -361,162 -361,362z"/>
   <path class="fil12" d="M3953 2586c118,0 215,-96 215,-214 0,-119 -97,-215 -215,-215 -118,0 -214,96 -214,215 0,118 96,214 214,214z"/>
   <path class="fil0" d="M4784 876c-39,55 -23,81 -167,283 0,0 -164,150 -261,147 -36,-1 -63,19 -2,42 61,23 268,-2 376,-115 76,-80 295,-186 298,-309 5,-162 -142,-192 -244,-48z"/>
   <path class="fil1" d="M4315 1300c-11,5 -23,8 -35,5 -31,-7 -46,-39 -56,-60 -13,-27 -34,10 -1,46 0,0 -43,-23 -78,3 -33,25 -20,100 100,65l0 0c17,-5 34,-5 51,-2l75 17c30,-12 23,-115 12,-108l-68 34z"/>
   <path class="fil2" d="M4130 1332c4,5 7,8 9,10 14,8 43,17 102,0 19,-6 39,-6 58,-2l68 15c8,-1 15,-2 20,-4 -3,11 -8,20 -16,23l-75 -17c-17,-3 -34,-3 -51,2l0 0c-77,22 -110,-1 -115,-27z"/>
   <path class="fil24" d="M4596 1177c8,-6 14,-12 18,-15 0,0 0,0 0,0 -4,3 -9,8 -18,15l0 0z"/>
   <path class="fil4" d="M4579 1213c10,-20 26,-39 35,-51 -4,3 -10,9 -18,15l-17 36z"/>
   <polygon class="fil24" points="4622,1153 4622,1153 "/>
   <path class="fil25" d="M5103 137l109 0 -19 -126c-19,-15 -45,-14 -67,0l-23 126z"/>
   <path class="fil26" d="M5126 11c14,-9 30,-12 45,-9 -9,1 -17,4 -25,9l-23 126 -20 0 23 -126z"/>
   <path class="fil10" d="M5103 136l-1763 0c-8,0 -15,7 -15,15l0 45c0,8 7,14 15,14l1763 0c8,0 14,-6 14,-14l0 -45c0,-8 -6,-15 -14,-15z"/>
   <path class="fil12" d="M5575 173c0,21 -16,37 -37,37l-1591 0c-20,0 -37,-16 -37,-37 0,-20 17,-37 37,-37l1591 0c21,0 37,17 37,37z"/>
   <polygon class="fil10" points="3557,233 3392,233 3392,69 3557,69 "/>
   <polygon class="fil12" points="3557,233 3474,233 3474,69 3557,69 "/>
   <polygon class="fil6" points="3392,1605 3256,1605 3256,69 3392,69 "/>
   <path class="fil27" d="M4372 1523c50,44 109,86 210,104 45,8 140,14 177,11 51,-3 92,-13 113,-18 10,-3 15,52 6,56 -36,15 -193,46 -321,9 -129,-36 -161,-63 -191,-102 -8,-8 -4,-61 6,-60z"/>
   <path class="fil3" d="M4733 1264c49,-32 97,-69 135,-102 4,-16 9,-32 13,-48 -56,43 -115,82 -149,116 0,12 1,23 1,34z"/>
   <path class="fil28" d="M4868 1162c30,-25 53,-47 67,-61 35,-38 56,-78 66,-102 -27,41 -73,79 -120,115 -4,16 -9,32 -13,48z"/>
   <path class="fil24" d="M4556 1339c46,0 112,-33 177,-75 0,-11 -1,-22 -1,-34 -1,1 -1,2 -2,3 -50,53 -122,86 -191,105 5,1 11,1 17,1z"/>
   <path class="fil4" d="M4539 1338c69,-19 141,-52 191,-105 1,-1 1,-2 2,-3 34,-34 93,-73 149,-116 47,-36 93,-74 120,-115 2,-3 3,-6 4,-9 -58,95 -213,178 -275,243 -50,53 -123,86 -191,104l0 1c0,0 0,0 0,0z"/>
   <polygon class="fil5" points="2658,594 2560,594 2560,69 2658,69 "/>
   <polygon class="fil5" points="2525,594 2463,594 2463,233 2525,233 "/>
   <path class="fil29" d="M339 2620l2308 0c-44,-46 -76,-104 -91,-168l-2217 0 0 168z"/>
   <path class="fil30" d="M2647 2620l0 0c-44,-46 -76,-104 -91,-168l0 0c15,64 47,122 91,168z"/>
   <path class="fil31" d="M2647 2620l65 0c-44,-46 -76,-104 -90,-168l-66 0c15,64 47,122 91,168z"/>
   <path class="fil32" d="M2712 2620l197 0 0 -168 -287 0c14,64 46,122 90,168z"/>
   <polygon class="fil33" points="3135,2620 2909,2620 2909,2349 3135,2349 "/>
   <polygon class="fil33" points="2436,2620 2209,2620 2209,2349 2436,2349 "/>
   <polygon class="fil34" points="3248,2620 3022,2620 3022,2349 3248,2349 "/>
   <polygon class="fil34" points="2549,2620 2322,2620 2322,2349 2549,2349 "/>
   <polygon class="fil34" points="1849,2620 1623,2620 1623,2349 1849,2349 "/>
   <polygon class="fil35" points="1625,2620 1399,2620 1399,2349 1625,2349 "/>
   <polygon class="fil36" points="1039,2620 813,2620 813,2349 1039,2349 "/>
   <polygon class="fil36" points="339,2620 113,2620 113,2349 339,2349 "/>
   <polygon class="fil34" points="3248,2452 1625,2452 1625,2349 3248,2349 "/>
   <polygon class="fil37" points="1624,2452 1,2452 1,2349 1624,2349 "/>
   <polygon class="fil37" points="926,2620 699,2620 699,2349 926,2349 "/>
   <polygon class="fil37" points="226,2620 0,2620 0,2349 226,2349 "/>
   <polygon class="fil34" points="3135,1021 2255,1021 2255,594 3135,594 "/>
   <polygon class="fil37" points="2255,1021 1376,1021 1376,594 2255,594 "/>
   <polygon class="fil38" points="3135,914 2573,914 2573,701 3135,701 "/>
   <polygon class="fil33" points="2854,914 2731,914 2731,701 2854,701 "/>
   <polygon class="fil33" points="2700,914 2573,914 2573,701 2700,701 "/>
   <polygon class="fil33" points="3135,1033 2255,1033 2255,1010 3135,1010 "/>
   <polygon class="fil36" points="2255,1033 1376,1033 1376,1010 2255,1010 "/>
   <polygon class="fil34" points="3135,1461 2255,1461 2255,1033 3135,1033 "/>
   <polygon class="fil37" points="2255,1461 1376,1461 1376,1033 2255,1033 "/>
   <polygon class="fil38" points="3135,1354 2573,1354 2573,1140 3135,1140 "/>
   <polygon class="fil33" points="2854,1354 2731,1354 2731,1140 2854,1140 "/>
   <polygon class="fil33" points="2700,1354 2573,1354 2573,1140 2700,1140 "/>
   <polygon class="fil33" points="3135,1472 2255,1472 2255,1449 3135,1449 "/>
   <polygon class="fil36" points="2255,1472 1376,1472 1376,1449 2255,1449 "/>
   <polygon class="fil34" points="3135,1900 2255,1900 2255,1472 3135,1472 "/>
   <polygon class="fil37" points="2255,1900 1376,1900 1376,1472 2255,1472 "/>
   <polygon class="fil38" points="3135,1793 2573,1793 2573,1579 3135,1579 "/>
   <polygon class="fil33" points="2854,1793 2731,1793 2731,1579 2854,1579 "/>
   <polygon class="fil33" points="2700,1793 2573,1793 2573,1579 2700,1579 "/>
   <polygon class="fil33" points="3135,1911 2255,1911 2255,1888 3135,1888 "/>
   <polygon class="fil36" points="2255,1911 1376,1911 1376,1888 2255,1888 "/>
   <polygon class="fil34" points="3135,2339 2255,2339 2255,1911 3135,1911 "/>
   <polygon class="fil37" points="2255,2339 1376,2339 1376,1911 2255,1911 "/>
   <polygon class="fil38" points="3135,2232 2573,2232 2573,2018 3135,2018 "/>
   <polygon class="fil33" points="2854,2232 2731,2232 2731,2018 2854,2018 "/>
   <polygon class="fil33" points="2700,2232 2573,2232 2573,2018 2700,2018 "/>
   <polygon class="fil33" points="3135,2351 2255,2351 2255,2328 3135,2328 "/>
   <polygon class="fil36" points="2255,2351 1376,2351 1376,2328 2255,2328 "/>
   <polygon class="fil34" points="1953,1021 1073,1021 1073,594 1953,594 "/>
   <polygon class="fil37" points="1073,1021 194,1021 194,594 1073,594 "/>
   <polygon class="fil38" points="1953,914 1390,914 1390,701 1953,701 "/>
   <polygon class="fil33" points="1671,914 1549,914 1549,701 1671,701 "/>
   <polygon class="fil33" points="1518,914 1390,914 1390,701 1518,701 "/>
   <polygon class="fil33" points="1953,1033 1073,1033 1073,1010 1953,1010 "/>
   <polygon class="fil36" points="1073,1033 194,1033 194,1010 1073,1010 "/>
   <polygon class="fil34" points="1953,1461 1073,1461 1073,1033 1953,1033 "/>
   <polygon class="fil37" points="1073,1461 194,1461 194,1033 1073,1033 "/>
   <polygon class="fil38" points="1953,1354 1390,1354 1390,1140 1953,1140 "/>
   <polygon class="fil33" points="1671,1354 1549,1354 1549,1140 1671,1140 "/>
   <polygon class="fil33" points="1518,1354 1390,1354 1390,1140 1518,1140 "/>
   <polygon class="fil33" points="1953,1472 1073,1472 1073,1449 1953,1449 "/>
   <polygon class="fil36" points="1073,1472 194,1472 194,1449 1073,1449 "/>
   <polygon class="fil34" points="1953,1900 1073,1900 1073,1472 1953,1472 "/>
   <polygon class="fil37" points="1073,1900 194,1900 194,1472 1073,1472 "/>
   <polygon class="fil38" points="1953,1793 1390,1793 1390,1579 1953,1579 "/>
   <polygon class="fil33" points="1671,1793 1549,1793 1549,1579 1671,1579 "/>
   <polygon class="fil33" points="1518,1793 1390,1793 1390,1579 1518,1579 "/>
   <polygon class="fil33" points="1953,1911 1073,1911 1073,1888 1953,1888 "/>
   <polygon class="fil36" points="1073,1911 194,1911 194,1888 1073,1888 "/>
   <polygon class="fil34" points="1953,2339 1073,2339 1073,1911 1953,1911 "/>
   <polygon class="fil37" points="1073,2339 194,2339 194,1911 1073,1911 "/>
   <polygon class="fil38" points="1953,2232 1390,2232 1390,2018 1953,2018 "/>
   <polygon class="fil33" points="1671,2232 1549,2232 1549,2018 1671,2018 "/>
   <polygon class="fil33" points="1518,2232 1390,2232 1390,2018 1518,2018 "/>
   <polygon class="fil33" points="1953,2351 1073,2351 1073,2328 1953,2328 "/>
   <polygon class="fil36" points="1073,2351 194,2351 194,2328 1073,2328 "/>
  </g>
 </g>
</svg>
