<?xml version="1.0" encoding="UTF-8"?>
<!DOCTYPE svg PUBLIC "-//W3C//DTD SVG 1.1//EN" "http://www.w3.org/Graphics/SVG/1.1/DTD/svg11.dtd">
<!-- Creator: CorelDRAW X7 -->
<svg xmlns="http://www.w3.org/2000/svg" xml:space="preserve" width="5.51in" height="3.966in" version="1.1" style="shape-rendering:geometricPrecision; text-rendering:geometricPrecision; image-rendering:optimizeQuality; fill-rule:evenodd; clip-rule:evenodd"
viewBox="0 0 5510 3966"
 xmlns:xlink="http://www.w3.org/1999/xlink">
 <defs>
  <style type="text/css">
   <![CDATA[
    .fil8 {fill:#FFA353}
    .fil2 {fill:#FFCC29;fill-rule:nonzero}
    .fil1 {fill:#F6A348;fill-rule:nonzero}
    .fil19 {fill:black;fill-rule:nonzero}
    .fil15 {fill:#51585D;fill-rule:nonzero}
    .fil13 {fill:#6D8499;fill-rule:nonzero}
    .fil22 {fill:#C9927A;fill-rule:nonzero}
    .fil25 {fill:#D38631;fill-rule:nonzero}
    .fil14 {fill:#D4E9FF;fill-rule:nonzero}
    .fil24 {fill:#DCAD69;fill-rule:nonzero}
    .fil23 {fill:#E6BC7B;fill-rule:nonzero}
    .fil18 {fill:#E6F3F4;fill-rule:nonzero}
    .fil16 {fill:#E7E8E9;fill-rule:nonzero}
    .fil9 {fill:#F89C00;fill-rule:nonzero}
    .fil21 {fill:#FBAE17;fill-rule:nonzero}
    .fil26 {fill:#FBDCAE;fill-rule:nonzero}
    .fil10 {fill:#FEC12F;fill-rule:nonzero}
    .fil20 {fill:#FF5B5B;fill-rule:nonzero}
    .fil12 {fill:#FF7E53;fill-rule:nonzero}
    .fil6 {fill:#FF9797;fill-rule:nonzero}
    .fil7 {fill:#FFA353;fill-rule:nonzero}
    .fil17 {fill:#FFC200;fill-rule:nonzero}
    .fil4 {fill:#FFCC29;fill-rule:nonzero}
    .fil11 {fill:white;fill-rule:nonzero}
    .fil5 {fill:white;fill-rule:nonzero;fill-opacity:0.501961}
    .fil0 {fill:url(#id0);fill-rule:nonzero}
    .fil3 {fill:url(#id1);fill-rule:nonzero}
   ]]>
  </style>
  <linearGradient id="id0" gradientUnits="userSpaceOnUse" x1="2943.68" y1="3945.86" x2="2943.68" y2="3734.8">
   <stop offset="0" style="stop-opacity:1; stop-color:#FFFCBF"/>
   <stop offset="1" style="stop-opacity:1; stop-color:#FBCF7C"/>
  </linearGradient>
  <linearGradient id="id1" gradientUnits="userSpaceOnUse" xlink:href="#id0" x1="2638.08" y1="975.469" x2="2977.61" y2="4039.31">
  </linearGradient>
 </defs>
 <g id="Layer_x0020_1">
  <metadata id="CorelCorpID_0Corel-Layer"/>
  <g id="_871516176">
   <path class="fil0" d="M5236 3840c0,70 -1027,126 -2292,126 -1266,0 -2292,-56 -2292,-126 0,-69 1026,-125 2292,-125 1265,0 2292,56 2292,125z"/>
   <path class="fil1" d="M505 2859c472,1090 1602,1174 2365,695 763,-480 942,-1569 399,-2432 -543,-864 -1115,526 -1935,-644 -566,-808 -1234,1446 -829,2381z"/>
   <path class="fil2" d="M5491 1978c0,1029 -834,1862 -1862,1862 -1029,0 -1862,-833 -1862,-1862 0,-1028 716,-2568 1862,-1423 727,727 1862,395 1862,1423z"/>
   <path class="fil3" d="M1028 3840c-166,-332 -185,-753 -185,-1212 0,-2184 1479,-1479 1938,-636 513,939 1533,-471 1939,636 157,431 -65,880 -264,1212l-3428 0z"/>
   <path class="fil4" d="M2256 334c-19,145 -251,233 -517,197 -266,-36 -466,-182 -447,-326 20,-145 251,-233 517,-197 266,36 467,182 447,326z"/>
   <g>
    <g>
     <polygon class="fil5" points="5341,2055 5362,2076 5384,2055 5362,2033 "/>
     <polygon class="fil5" points="5214,2055 5236,2076 5257,2055 5236,2033 "/>
     <polygon class="fil5" points="5088,2055 5109,2076 5131,2055 5109,2033 "/>
     <polygon class="fil5" points="4961,2055 4983,2076 5004,2055 4983,2033 "/>
     <polygon class="fil5" points="4835,2055 4856,2076 4878,2055 4856,2033 "/>
     <polygon class="fil5" points="5488,2033 5467,2055 5488,2076 5510,2055 "/>
    </g>
    <g>
     <polygon class="fil5" points="5341,2234 5362,2256 5384,2234 5362,2213 "/>
     <polygon class="fil5" points="5214,2234 5236,2256 5257,2234 5236,2213 "/>
     <polygon class="fil5" points="5088,2234 5109,2256 5131,2234 5109,2213 "/>
     <polygon class="fil5" points="4961,2234 4983,2256 5004,2234 4983,2213 "/>
     <polygon class="fil5" points="4835,2234 4856,2256 4878,2234 4856,2213 "/>
     <polygon class="fil5" points="5488,2213 5467,2234 5488,2256 5510,2234 "/>
    </g>
    <g>
     <polygon class="fil5" points="5341,2414 5362,2435 5384,2414 5362,2392 "/>
     <polygon class="fil5" points="5214,2414 5236,2435 5257,2414 5236,2392 "/>
     <polygon class="fil5" points="5088,2414 5109,2435 5131,2414 5109,2392 "/>
     <polygon class="fil5" points="4961,2414 4983,2435 5004,2414 4983,2392 "/>
     <polygon class="fil5" points="4835,2414 4856,2435 4878,2414 4856,2392 "/>
     <polygon class="fil5" points="5488,2392 5467,2414 5488,2435 5510,2414 "/>
    </g>
    <g>
     <polygon class="fil5" points="5341,2593 5362,2615 5384,2593 5362,2572 "/>
     <polygon class="fil5" points="5214,2593 5236,2615 5257,2593 5236,2572 "/>
     <polygon class="fil5" points="5088,2593 5109,2615 5131,2593 5109,2572 "/>
     <polygon class="fil5" points="4961,2593 4983,2615 5004,2593 4983,2572 "/>
     <polygon class="fil5" points="4835,2593 4856,2615 4878,2593 4856,2572 "/>
     <polygon class="fil5" points="5488,2572 5467,2593 5488,2615 5510,2593 "/>
    </g>
    <g>
     <polygon class="fil5" points="5341,2773 5362,2795 5384,2773 5362,2752 "/>
     <polygon class="fil5" points="5214,2773 5236,2795 5257,2773 5236,2752 "/>
     <polygon class="fil5" points="5088,2773 5109,2795 5131,2773 5109,2752 "/>
     <polygon class="fil5" points="4961,2773 4983,2795 5004,2773 4983,2752 "/>
     <polygon class="fil5" points="4835,2773 4856,2795 4878,2773 4856,2752 "/>
     <polygon class="fil5" points="5488,2752 5467,2773 5488,2795 5510,2773 "/>
    </g>
    <g>
     <polygon class="fil5" points="5341,2953 5362,2974 5384,2953 5362,2931 "/>
     <polygon class="fil5" points="5214,2953 5236,2974 5257,2953 5236,2931 "/>
     <polygon class="fil5" points="5088,2953 5109,2974 5131,2953 5109,2931 "/>
     <polygon class="fil5" points="4961,2953 4983,2974 5004,2953 4983,2931 "/>
     <polygon class="fil5" points="4835,2953 4856,2974 4878,2953 4856,2931 "/>
     <polygon class="fil5" points="5488,2931 5467,2953 5488,2974 5510,2953 "/>
    </g>
    <g>
     <polygon class="fil5" points="5341,3132 5362,3154 5384,3132 5362,3111 "/>
     <polygon class="fil5" points="5214,3132 5236,3154 5257,3132 5236,3111 "/>
     <polygon class="fil5" points="5088,3132 5109,3154 5131,3132 5109,3111 "/>
     <polygon class="fil5" points="4961,3132 4983,3154 5004,3132 4983,3111 "/>
     <polygon class="fil5" points="4835,3132 4856,3154 4878,3132 4856,3111 "/>
     <polygon class="fil5" points="5488,3111 5467,3132 5488,3154 5510,3132 "/>
    </g>
    <g>
     <polygon class="fil5" points="5341,3312 5362,3333 5384,3312 5362,3290 "/>
     <polygon class="fil5" points="5214,3312 5236,3333 5257,3312 5236,3290 "/>
     <polygon class="fil5" points="5088,3312 5109,3333 5131,3312 5109,3290 "/>
     <polygon class="fil5" points="4961,3312 4983,3333 5004,3312 4983,3290 "/>
     <polygon class="fil5" points="4835,3312 4856,3333 4878,3312 4856,3290 "/>
     <polygon class="fil5" points="5488,3290 5467,3312 5488,3333 5510,3312 "/>
    </g>
    <g>
     <polygon class="fil5" points="5341,3492 5362,3513 5384,3492 5362,3470 "/>
     <polygon class="fil5" points="5214,3492 5236,3513 5257,3492 5236,3470 "/>
     <polygon class="fil5" points="5088,3492 5109,3513 5131,3492 5109,3470 "/>
     <polygon class="fil5" points="4961,3492 4983,3513 5004,3492 4983,3470 "/>
     <polygon class="fil5" points="4835,3492 4856,3513 4878,3492 4856,3470 "/>
     <polygon class="fil5" points="5488,3470 5467,3492 5488,3513 5510,3492 "/>
    </g>
    <g>
     <polygon class="fil5" points="5341,1875 5362,1897 5384,1875 5362,1854 "/>
     <polygon class="fil5" points="5214,1875 5236,1897 5257,1875 5236,1854 "/>
     <polygon class="fil5" points="5088,1875 5109,1897 5131,1875 5109,1854 "/>
     <polygon class="fil5" points="4961,1875 4983,1897 5004,1875 4983,1854 "/>
     <polygon class="fil5" points="4835,1875 4856,1897 4878,1875 4856,1854 "/>
     <polygon class="fil5" points="5488,1854 5467,1875 5488,1897 5510,1875 "/>
    </g>
    <g>
     <polygon class="fil5" points="5341,3671 5362,3693 5384,3671 5362,3650 "/>
     <polygon class="fil5" points="5214,3671 5236,3693 5257,3671 5236,3650 "/>
     <polygon class="fil5" points="5088,3671 5109,3693 5131,3671 5109,3650 "/>
     <polygon class="fil5" points="4961,3671 4983,3693 5004,3671 4983,3650 "/>
     <polygon class="fil5" points="4835,3671 4856,3693 4878,3671 4856,3650 "/>
     <polygon class="fil5" points="5488,3650 5467,3671 5488,3693 5510,3671 "/>
    </g>
   </g>
   <g>
    <g>
     <polygon class="fil5" points="201,3254 223,3233 201,3211 180,3233 "/>
     <polygon class="fil5" points="201,3381 223,3359 201,3338 180,3359 "/>
     <polygon class="fil5" points="201,3507 223,3486 201,3464 180,3486 "/>
     <polygon class="fil5" points="201,3634 223,3612 201,3591 180,3612 "/>
     <polygon class="fil5" points="201,3760 223,3738 201,3717 180,3738 "/>
     <polygon class="fil5" points="180,3107 201,3128 223,3107 201,3085 "/>
    </g>
    <g>
     <polygon class="fil5" points="381,3254 402,3233 381,3211 359,3233 "/>
     <polygon class="fil5" points="381,3381 402,3359 381,3338 359,3359 "/>
     <polygon class="fil5" points="381,3507 402,3486 381,3464 359,3486 "/>
     <polygon class="fil5" points="381,3634 402,3612 381,3591 359,3612 "/>
     <polygon class="fil5" points="381,3760 402,3738 381,3717 359,3738 "/>
     <polygon class="fil5" points="359,3107 381,3128 402,3107 381,3085 "/>
    </g>
    <g>
     <polygon class="fil5" points="560,3254 582,3233 560,3211 539,3233 "/>
     <polygon class="fil5" points="560,3381 582,3359 560,3338 539,3359 "/>
     <polygon class="fil5" points="560,3507 582,3486 560,3464 539,3486 "/>
     <polygon class="fil5" points="560,3634 582,3612 560,3591 539,3612 "/>
     <polygon class="fil5" points="560,3760 582,3738 560,3717 539,3738 "/>
     <polygon class="fil5" points="539,3107 560,3128 582,3107 560,3085 "/>
    </g>
    <g>
     <polygon class="fil5" points="740,3254 762,3233 740,3211 719,3233 "/>
     <polygon class="fil5" points="740,3381 762,3359 740,3338 719,3359 "/>
     <polygon class="fil5" points="740,3507 762,3486 740,3464 719,3486 "/>
     <polygon class="fil5" points="740,3634 762,3612 740,3591 719,3612 "/>
     <polygon class="fil5" points="740,3760 762,3738 740,3717 719,3738 "/>
     <polygon class="fil5" points="719,3107 740,3128 762,3107 740,3085 "/>
    </g>
    <g>
     <polygon class="fil5" points="920,3254 941,3233 920,3211 898,3233 "/>
     <polygon class="fil5" points="920,3381 941,3359 920,3338 898,3359 "/>
     <polygon class="fil5" points="920,3507 941,3486 920,3464 898,3486 "/>
     <polygon class="fil5" points="920,3634 941,3612 920,3591 898,3612 "/>
     <polygon class="fil5" points="920,3760 941,3738 920,3717 898,3738 "/>
     <polygon class="fil5" points="898,3107 920,3128 941,3107 920,3085 "/>
    </g>
    <g>
     <polygon class="fil5" points="1099,3254 1121,3233 1099,3211 1078,3233 "/>
     <polygon class="fil5" points="1099,3381 1121,3359 1099,3338 1078,3359 "/>
     <polygon class="fil5" points="1099,3507 1121,3486 1099,3464 1078,3486 "/>
     <polygon class="fil5" points="1099,3634 1121,3612 1099,3591 1078,3612 "/>
     <polygon class="fil5" points="1099,3760 1121,3738 1099,3717 1078,3738 "/>
     <polygon class="fil5" points="1078,3107 1099,3128 1121,3107 1099,3085 "/>
    </g>
    <g>
     <polygon class="fil5" points="1279,3254 1300,3233 1279,3211 1257,3233 "/>
     <polygon class="fil5" points="1279,3381 1300,3359 1279,3338 1257,3359 "/>
     <polygon class="fil5" points="1279,3507 1300,3486 1279,3464 1257,3486 "/>
     <polygon class="fil5" points="1279,3634 1300,3612 1279,3591 1257,3612 "/>
     <polygon class="fil5" points="1279,3760 1300,3738 1279,3717 1257,3738 "/>
     <polygon class="fil5" points="1257,3107 1279,3128 1300,3107 1279,3085 "/>
    </g>
    <g>
     <polygon class="fil5" points="1459,3254 1480,3233 1459,3211 1437,3233 "/>
     <polygon class="fil5" points="1459,3381 1480,3359 1459,3338 1437,3359 "/>
     <polygon class="fil5" points="1459,3507 1480,3486 1459,3464 1437,3486 "/>
     <polygon class="fil5" points="1459,3634 1480,3612 1459,3591 1437,3612 "/>
     <polygon class="fil5" points="1459,3760 1480,3738 1459,3717 1437,3738 "/>
     <polygon class="fil5" points="1437,3107 1459,3128 1480,3107 1459,3085 "/>
    </g>
    <g>
     <polygon class="fil5" points="1638,3254 1660,3233 1638,3211 1617,3233 "/>
     <polygon class="fil5" points="1638,3381 1660,3359 1638,3338 1617,3359 "/>
     <polygon class="fil5" points="1638,3507 1660,3486 1638,3464 1617,3486 "/>
     <polygon class="fil5" points="1638,3634 1660,3612 1638,3591 1617,3612 "/>
     <polygon class="fil5" points="1638,3760 1660,3738 1638,3717 1617,3738 "/>
     <polygon class="fil5" points="1617,3107 1638,3128 1660,3107 1638,3085 "/>
    </g>
    <g>
     <polygon class="fil5" points="22,3254 43,3233 22,3211 0,3233 "/>
     <polygon class="fil5" points="22,3381 43,3359 22,3338 0,3359 "/>
     <polygon class="fil5" points="22,3507 43,3486 22,3464 0,3486 "/>
     <polygon class="fil5" points="22,3634 43,3612 22,3591 0,3612 "/>
     <polygon class="fil5" points="22,3760 43,3738 22,3717 0,3738 "/>
     <polygon class="fil5" points="0,3107 22,3128 43,3107 22,3085 "/>
    </g>
    <g>
     <polygon class="fil5" points="1818,3254 1839,3233 1818,3211 1796,3233 "/>
     <polygon class="fil5" points="1818,3381 1839,3359 1818,3338 1796,3359 "/>
     <polygon class="fil5" points="1818,3507 1839,3486 1818,3464 1796,3486 "/>
     <polygon class="fil5" points="1818,3634 1839,3612 1818,3591 1796,3612 "/>
     <polygon class="fil5" points="1818,3760 1839,3738 1818,3717 1796,3738 "/>
     <polygon class="fil5" points="1796,3107 1818,3128 1839,3107 1818,3085 "/>
    </g>
   </g>
   <g>
    <path class="fil6" d="M2872 1109l-39 0c-9,0 -17,-6 -20,-15 -2,-8 -6,-16 -10,-24 -4,-8 -2,-17 4,-24l27 -27c9,-8 9,-21 0,-30l-16 -16c-8,-8 -22,-8 -30,0l-27 27c-6,6 -16,8 -24,4 -8,-4 -16,-7 -24,-10 -9,-3 -14,-11 -14,-20l0 -38c0,-12 -10,-21 -21,-21l-24 0c-11,0 -21,9 -21,21l0 38c0,9 -5,17 -14,20 -8,3 -16,6 -24,10 -8,4 -18,2 -24,-4l-27 -27c-9,-8 -22,-8 -30,0l-17 16c-8,9 -8,22 0,30l28 27c6,7 8,16 4,24 -4,8 -8,16 -10,24 -3,9 -11,15 -20,15l-39 0c-11,0 -21,9 -21,21l0 23c0,12 10,21 21,21l39 0c9,0 17,6 20,14 2,8 6,17 10,24 4,8 2,18 -4,24l-28 28c-8,8 -8,21 0,29l17 17c8,8 21,8 30,0l27 -28c6,-6 16,-8 24,-3 8,4 16,7 24,10 9,2 14,10 14,19l0 39c0,11 10,21 21,21l24 0c11,0 21,-10 21,-21l0 -39c0,-9 5,-17 14,-19 8,-3 16,-6 24,-10 8,-5 18,-3 24,3l27 28c8,8 22,8 30,0l16 -17c9,-8 9,-21 0,-29l-27 -28c-6,-6 -8,-16 -4,-24 4,-7 8,-16 10,-24 3,-8 11,-14 20,-14l39 0c11,0 20,-9 20,-21l0 -23c0,-12 -9,-21 -20,-21zm-127 48l0 0c-6,31 -32,57 -63,63 -57,11 -105,-38 -95,-94 6,-32 32,-57 63,-63 57,-11 105,37 95,94z"/>
    <g>
     <polygon class="fil7" points="3590,981 3045,987 3532,1302 3543,1154 3635,1104 3210,1012 3579,1054 3605,1026 3647,980 "/>
     <g>
      <path class="fil8" d="M3779 1132l-5 15c-8,-2 -17,-5 -26,-7l4 -15c9,2 18,4 27,7z"/>
      <polygon class="fil8" points="3705,1113 3732,1119 3728,1135 3702,1129 "/>
      <polygon class="fil8" points="3658,1103 3685,1109 3681,1124 3655,1119 "/>
      <polygon class="fil8" points="3886,1183 3891,1168 3917,1178 3911,1193 "/>
      <path class="fil8" d="M3846 1152c8,3 17,6 25,9l-5 15c-9,-3 -17,-6 -25,-9l5 -15z"/>
      <path class="fil8" d="M3825 1145l-4 16c-9,-3 -17,-6 -26,-8l5 -15c8,2 17,5 25,7z"/>
      <path class="fil8" d="M4023 1232c8,5 16,9 23,15l-9 13c-7,-5 -15,-10 -22,-15l8 -13z"/>
      <path class="fil8" d="M4005 1221l-8 14c-8,-5 -16,-9 -24,-13l8 -14c8,4 16,8 24,13z"/>
      <path class="fil8" d="M3930 1201l7 -14c8,3 16,7 24,11l-7 15c-8,-4 -16,-8 -24,-12z"/>
      <path class="fil8" d="M4117 1342l14 -8c4,8 8,16 12,25l-15 6c-3,-8 -7,-16 -11,-23z"/>
      <path class="fil8" d="M4089 1304l11 -11c7,7 12,15 18,22l-12 9c-6,-6 -11,-13 -17,-20z"/>
      <polygon class="fil8" points="4054,1273 4064,1260 4085,1278 4074,1290 "/>
      <path class="fil8" d="M4141 1481c-3,9 -7,17 -11,26l-15 -7c4,-8 8,-16 11,-24l15 5z"/>
      <path class="fil8" d="M4137 1431l16 1 -2 14c-1,5 -1,10 -3,14l-16 -4c2,-4 2,-8 3,-13l2 -12z"/>
      <path class="fil8" d="M4136 1397l-2 -12 16 -4 2 14c1,5 2,10 2,15l-17 0c1,-4 0,-8 -1,-13z"/>
      <path class="fil8" d="M4056 1602c-6,7 -13,13 -20,19l-10 -12c7,-6 13,-12 19,-18l11 11z"/>
      <polygon class="fil8" points="4090,1567 4072,1587 4060,1576 4077,1556 "/>
      <polygon class="fil8" points="4105,1518 4118,1526 4111,1538 4103,1549 4090,1540 4098,1529 "/>
      <polygon class="fil8" points="3940,1692 3917,1706 3909,1693 3932,1678 "/>
      <polygon class="fil8" points="3981,1665 3959,1680 3950,1667 3972,1652 "/>
      <path class="fil8" d="M4019 1635c-6,6 -14,12 -21,17l-10 -13c7,-5 15,-10 21,-16l10 12z"/>
      <polygon class="fil8" points="3806,1748 3813,1762 3788,1774 3782,1759 "/>
      <path class="fil8" d="M3856 1741c-8,4 -16,8 -24,12l-7 -15c8,-4 16,-7 24,-12l7 15z"/>
      <path class="fil8" d="M3899 1717c-8,5 -16,9 -24,14l-8 -15c8,-4 16,-8 24,-13l8 14z"/>
      <polygon class="fil8" points="3674,1805 3680,1820 3654,1830 3649,1815 "/>
      <polygon class="fil8" points="3718,1787 3724,1802 3700,1812 3694,1797 "/>
      <polygon class="fil8" points="3762,1768 3769,1783 3744,1794 3738,1779 "/>
      <polygon class="fil8" points="3538,1854 3543,1869 3517,1877 3513,1862 "/>
      <polygon class="fil8" points="3584,1838 3589,1854 3563,1862 3558,1847 "/>
      <polygon class="fil8" points="3629,1822 3634,1837 3609,1847 3603,1831 "/>
      <polygon class="fil8" points="3400,1895 3404,1911 3378,1918 3374,1902 "/>
      <polygon class="fil8" points="3446,1882 3451,1898 3425,1905 3420,1890 "/>
      <polygon class="fil8" points="3492,1868 3497,1884 3471,1892 3466,1876 "/>
      <polygon class="fil8" points="3234,1937 3260,1931 3264,1946 3237,1952 "/>
      <polygon class="fil8" points="3307,1920 3311,1935 3285,1942 3281,1926 "/>
      <polygon class="fil8" points="3353,1908 3357,1923 3331,1930 3327,1915 "/>
     </g>
    </g>
    <g>
     <polygon class="fil6" points="1279,1841 1354,1882 1279,1922 1238,1997 1197,1922 1122,1882 1197,1841 1238,1766 "/>
     <polygon class="fil6" points="1460,1974 1503,1997 1460,2021 1436,2064 1413,2021 1369,1997 1413,1974 1436,1930 "/>
    </g>
    <g>
     <polygon class="fil6" points="4551,1417 4476,1458 4551,1499 4592,1574 4633,1499 4707,1458 4633,1417 4592,1342 "/>
     <polygon class="fil6" points="4370,1550 4326,1574 4370,1597 4393,1641 4417,1597 4460,1574 4417,1550 4393,1507 "/>
    </g>
    <g>
     <path class="fil9" d="M5112 2158c0,140 -113,253 -252,253 -140,0 -253,-113 -253,-252 0,-140 113,-253 252,-253 140,0 253,113 253,252z"/>
     <path class="fil10" d="M5071 2158c0,118 -94,213 -211,213 -118,0 -213,-95 -213,-212 0,-117 95,-212 212,-212 117,0 212,94 212,211z"/>
     <g>
      <path class="fil11" d="M4924 2194c0,9 -2,16 -5,23 -3,7 -7,13 -13,18 -5,5 -12,9 -20,12 -7,2 -16,4 -25,5l0 32c0,1 -1,1 -1,2 0,0 -1,1 -2,1 -1,1 -2,1 -4,1 -1,1 -3,1 -6,1 -3,0 -6,0 -7,-1 -2,0 -4,0 -5,-1 -1,-1 -2,-1 -2,-2 0,-1 -1,-2 0,-3l0 -30c-5,-1 -9,-1 -12,-2 -4,-1 -8,-2 -11,-3 -3,-2 -5,-3 -8,-4 -2,-1 -3,-2 -5,-3 -1,-2 -2,-3 -2,-5 -1,-3 -1,-6 -1,-10 0,-4 0,-6 1,-9 0,-2 0,-3 1,-5 0,-1 1,-2 1,-2 1,0 2,-1 3,-1 1,0 3,1 6,3 2,1 5,3 9,4 4,2 9,4 14,5 5,2 12,2 19,2 12,0 20,-2 26,-6 6,-4 8,-10 8,-17 0,-5 -1,-9 -3,-12 -3,-3 -6,-5 -10,-8 -4,-2 -8,-4 -14,-6 -5,-2 -10,-4 -15,-6 -5,-2 -11,-4 -16,-7 -5,-3 -9,-6 -13,-10 -4,-4 -8,-9 -10,-15 -3,-6 -4,-13 -4,-21 0,-7 1,-14 4,-20 2,-6 6,-11 11,-16 4,-4 10,-8 17,-11 6,-3 14,-5 23,-6l-1 -28c0,-1 0,-1 1,-2 0,0 0,-1 1,-1 1,-1 3,-1 4,-1 2,0 4,0 6,0 3,0 6,0 8,0 2,0 4,1 5,1 1,1 1,1 2,2 0,1 0,2 0,3l1 27c3,0 6,1 9,1 3,1 6,2 8,3 3,1 5,2 8,3 2,1 3,2 4,2 1,1 2,2 2,3 0,1 1,2 1,3 0,1 0,3 1,4 0,2 0,4 0,6 0,4 0,6 -1,8 0,2 0,3 0,5 -1,1 -1,1 -2,2 0,0 -1,0 -1,0 -2,0 -4,-1 -6,-2 -3,-1 -6,-2 -9,-4 -4,-1 -8,-3 -13,-4 -4,-1 -9,-2 -15,-2 -5,0 -10,1 -13,2 -4,0 -7,2 -9,4 -2,1 -4,4 -5,6 -1,2 -2,5 -2,8 0,5 2,9 4,12 2,3 6,6 10,8 4,2 9,4 14,6 5,2 10,4 16,6 5,2 10,4 15,7 6,3 10,6 14,10 4,4 7,9 10,15 2,5 4,12 4,20z"/>
     </g>
    </g>
    <g>
     <g>
      <path class="fil9" d="M5312 3493c12,21 37,6 37,6 0,0 -1,-7 -13,-13 -8,-5 -21,-1 -25,1l-14 -1 0 0c-3,0 -6,1 -9,1 40,-14 21,-61 21,-61 0,0 -13,0 -26,18 -11,14 -7,38 -5,44 -16,2 -32,7 -46,12 1,-2 3,-4 5,-6 16,-19 9,-53 9,-53 -55,7 -44,58 -41,70 -17,8 -34,19 -49,29 4,-5 8,-13 11,-24 7,-25 -16,-57 -16,-57 -54,33 -15,82 -8,91 -10,7 -18,15 -26,22 -9,8 -17,16 -24,23 2,-7 5,-18 2,-35 -3,-28 -40,-51 -40,-51 -39,55 17,88 30,95 -25,26 -39,48 -40,48l5 3c0,0 10,-14 26,-33 21,65 92,32 92,32 0,0 -2,-18 -28,-36 -17,-11 -42,-8 -56,-5 10,-11 23,-24 37,-37 4,-4 9,-8 15,-13 18,62 84,31 84,31 0,0 -2,-16 -26,-32 -15,-10 -37,-8 -50,-6 15,-12 33,-23 52,-34 11,59 73,35 73,35 0,0 0,-15 -21,-30 -13,-11 -34,-10 -45,-8 20,-11 43,-19 67,-24 -1,53 56,43 56,43 0,0 2,-12 -13,-29 -11,-13 -35,-14 -41,-14 8,-1 16,-2 25,-3l15 1z"/>
      <g>
       <g>
        <path class="fil7" d="M4848 3807c0,0 -119,-268 -32,-518 86,-250 294,-323 294,-323 0,0 -124,143 -52,366 68,211 -62,475 -62,475l-148 0z"/>
        <path class="fil12" d="M4891 3807c0,0 -31,-546 98,-690 -117,181 -68,690 -68,690l-30 0z"/>
       </g>
       <path class="fil13" d="M5095 3807l-127 0c5,-22 23,-90 69,-141 55,-62 125,-56 125,-56 0,0 -38,42 -44,117 -2,30 -12,58 -23,80z"/>
       <path class="fil9" d="M4801 3510c92,121 113,279 115,297l-180 0c-45,-42 -101,-110 -102,-192 -1,-146 -68,-233 -68,-233 0,0 136,-1 235,128z"/>
       <path class="fil14" d="M5009 3807l-9 0c18,-41 64,-138 107,-158 -42,28 -81,116 -98,158z"/>
       <path class="fil10" d="M4859 3807l-18 0c-22,-72 -89,-274 -174,-341 87,48 169,273 192,341z"/>
      </g>
     </g>
     <polygon class="fil15" points="4632,3829 5169,3829 5169,3807 4632,3807 "/>
    </g>
    <g>
     <path class="fil16" d="M436 3445l-90 0c-13,18 -24,37 -31,53 -6,12 -9,29 -12,48l94 0 39 -101z"/>
     <path class="fil15" d="M732 3751c0,81 -66,147 -148,147 -82,0 -148,-66 -148,-147 0,-81 66,-147 148,-147 82,0 148,66 148,147z"/>
     <path class="fil15" d="M2140 3751c0,81 -67,147 -149,147 -82,0 -148,-66 -148,-147 0,-81 66,-147 148,-147 82,0 149,66 149,147z"/>
     <path class="fil17" d="M889 3612l232 0 0 -617c-100,3 -251,1 -321,41 -78,45 -247,265 -310,283 -46,13 -105,71 -144,126l90 0 -39 101 -94 0c-13,87 -7,230 -7,230l89 0c-1,-9 -2,-19 -2,-29 0,-111 91,-201 203,-201 112,0 202,90 202,201 0,10 0,20 -2,29l335 0 0 -110 -300 0 68 -54z"/>
     <polygon class="fil9" points="889,3612 821,3666 1121,3666 1121,3612 "/>
     <path class="fil18" d="M1041 3065c-2,-12 -184,-14 -220,20 -6,5 -38,39 -77,80l0 147c73,-2 154,-5 196,-9 9,-1 18,-2 25,-4 44,-9 76,-47 76,-91 0,-54 1,-135 0,-143z"/>
     <path class="fil9" d="M601 3315c0,0 67,-1 143,-3l0 -147c-63,66 -143,150 -143,150z"/>
     <polygon class="fil13" points="2285,3570 2285,3716 2361,3716 2361,3570 "/>
     <path class="fil6" d="M676 3751c0,50 -42,91 -92,91 -51,0 -92,-41 -92,-91 0,-50 41,-91 92,-91 50,0 92,41 92,91z"/>
     <path class="fil6" d="M2083 3751c0,50 -41,91 -92,91 -50,0 -91,-41 -91,-91 0,-50 41,-91 91,-91 51,0 92,41 92,91z"/>
     <path class="fil19" d="M1005 3385l-58 0c-7,0 -13,-6 -13,-14l0 -7c0,-7 6,-13 13,-13l58 0c7,0 13,6 13,13l0 7c0,8 -6,14 -13,14z"/>
     <path class="fil20" d="M1497 3445l864 0 0 -611c0,-29 -23,-52 -53,-52l-1134 0c-29,0 -53,23 -53,52l0 942 323 0 0 -278c0,-30 24,-53 53,-53z"/>
     <path class="fil15" d="M1783 3746c0,-116 94,-210 211,-210 117,0 212,94 212,210 0,10 -1,20 -2,30l157 0 0 -60 -76 0 0 -146 76 0 0 -125 -864 0c-29,0 -53,23 -53,53l0 278 341 0c-2,-10 -2,-20 -2,-30z"/>
    </g>
    <g>
     <path class="fil7" d="M1540 1523c0,0 39,270 90,337 52,67 151,107 151,107 0,0 99,-40 150,-107 52,-67 90,-337 90,-337l-240 -87 -241 87z"/>
     <path class="fil11" d="M1781 1474l-207 75c0,0 33,231 78,288 44,58 129,92 129,92 0,0 85,-34 129,-92 44,-57 77,-288 77,-288l-206 -75z"/>
     <g>
      <path class="fil9" d="M1882 1676c0,56 -45,101 -101,101 -56,0 -102,-45 -102,-101 0,-56 46,-102 102,-102 56,0 101,46 101,102z"/>
      <g>
       <path class="fil11" d="M1756 1726c-2,2 -5,2 -6,0l-45 -44 14 -14 31 31c2,2 4,2 6,0l86 -79 13 14 -99 92z"/>
      </g>
     </g>
    </g>
    <g>
     <path class="fil15" d="M2051 2198l-624 6c-20,0 -36,16 -36,36l0 38 1 77 2 232c0,20 17,36 37,36l624 -6c20,0 37,-16 37,-37l-2 -232 -1 -76 0 -38c-1,-20 -17,-36 -38,-36z"/>
     <g>
      <path class="fil21" d="M1502 2339l0 -18 -18 0 1 18c2,-1 6,-2 9,-2 3,0 5,1 8,2z"/>
      <path class="fil21" d="M1514 2360c0,-11 -9,-19 -20,-19 -11,0 -20,9 -20,20 0,10 9,19 20,19 11,0 20,-9 20,-20z"/>
      <path class="fil21" d="M1486 2382l0 14 17 0 0 -14c-3,1 -6,1 -9,1 -3,0 -5,0 -8,-1z"/>
      <path class="fil21" d="M1551 2368l0 -17 -36 0c2,3 2,6 2,9 0,3 0,6 -1,8l35 0z"/>
      <path class="fil21" d="M1505 2340c4,2 6,5 9,8l37 -1 0 -18c0,-5 -5,-9 -10,-9l-36 1 0 19z"/>
      <path class="fil21" d="M1483 2380c-4,-1 -6,-4 -8,-7l-34 0 0 14c0,6 5,10 10,10l32 -1 0 -16z"/>
      <path class="fil21" d="M1514 2372c-2,3 -4,6 -7,8l0 16 35 0c5,0 9,-4 9,-10l0 -15 -37 1z"/>
      <path class="fil21" d="M1441 2353l0 17 32 0c-2,-3 -2,-6 -2,-9 0,-3 0,-6 1,-8l-31 0z"/>
      <path class="fil21" d="M1474 2349c2,-3 4,-6 7,-8l0 0 0 -20 -31 0c-5,0 -9,4 -9,10l0 18 33 0z"/>
     </g>
     <path class="fil21" d="M2031 2581l-155 2c-3,0 -6,-3 -6,-7l-1 -50c0,-4 3,-7 7,-7l154 -1c4,0 7,3 7,6l0 51c0,3 -3,6 -6,6z"/>
     <g>
      <path class="fil11" d="M1572 2444l-122 1c-4,0 -8,3 -8,5l0 21c0,3 4,5 9,5l121 -1c5,0 9,-2 9,-5l0 -21c0,-3 -4,-5 -9,-5z"/>
      <path class="fil11" d="M1724 2442l-122 2c-5,0 -9,2 -9,5l1 20c0,3 4,6 8,6l122 -1c5,0 9,-3 9,-6l0 -20c-1,-3 -4,-6 -9,-6z"/>
      <path class="fil11" d="M1876 2441l-122 1c-5,0 -9,3 -9,6l0 20c0,3 4,5 9,5l122 -1c5,0 8,-2 8,-5l0 -21c0,-3 -4,-5 -8,-5z"/>
      <path class="fil11" d="M2027 2440l-122 1c-4,0 -8,2 -8,5l0 21c0,3 4,5 9,5l122 -1c4,0 8,-3 8,-6l0 -20c0,-3 -4,-5 -9,-5z"/>
     </g>
    </g>
    <g>
     <path class="fil22" d="M2766 2331l-100 616c0,0 300,323 402,381 101,59 308,170 308,170l304 319 950 0c0,0 -792,-716 -799,-786 -8,-70 47,-493 39,-536 -8,-43 -98,-286 -106,-333 -8,-47 -113,-82 -137,12 -23,94 -15,244 16,320 27,64 1,132 -11,128 -11,-4 -83,-76 -83,-76 0,0 -736,-243 -783,-215z"/>
     <g>
      <path class="fil15" d="M2642 3310l929 0c50,0 90,-40 90,-90l0 -1619c0,-50 -40,-91 -90,-91l-929 0c-50,0 -90,41 -90,91l0 1619c0,50 40,90 90,90z"/>
      <path class="fil20" d="M3087 1583c0,11 9,19 19,19 11,0 20,-8 20,-19 0,-11 -9,-20 -20,-20 -10,0 -19,9 -19,20z"/>
      <path class="fil18" d="M2649 1557l331 0c18,0 33,15 33,33 0,19 15,34 33,34l120 0c19,0 34,-15 34,-34 0,-18 14,-33 33,-33l330 0c33,0 59,27 59,59l0 824 0 780c0,27 -21,49 -47,49l-938 0c-25,0 -46,-22 -46,-49l0 -780 0 -824c0,-32 26,-59 58,-59z"/>
      <g>
       <g>
        <polygon class="fil13" points="3622,2938 2591,3041 2591,3147 3622,3044 "/>
       </g>
       <path class="fil7" d="M3144 2676l4 241c0,11 9,19 19,18l322 -41c9,-1 15,-9 15,-18l0 -200c0,-10 -8,-18 -17,-18l-326 0c-9,0 -17,8 -17,18z"/>
       <path class="fil11" d="M2591 3174c116,-10 685,-64 1031,-98l0 20c-92,9 -297,29 -499,48 -160,16 -288,28 -379,36 -55,5 -97,9 -126,12 -12,1 -20,1 -27,2l0 -20z"/>
       <path class="fil11" d="M2745 2991l268 -25c3,-1 5,-3 5,-6 0,-1 0,-1 0,-1 0,-3 -3,-6 -6,-6l-262 25 -9 -281 92 -10 8 255c0,3 3,6 6,6 3,0 6,-3 6,-6 0,0 0,-1 0,-1l-8 -256 109 -12 8 243c0,3 3,6 6,6 4,0 6,-3 6,-7 0,0 0,0 0,0l-8 -243 4 -1c7,0 13,-3 19,-7l19 -14c8,8 19,13 32,13 6,0 12,-1 17,-3l25 35 8 247c0,6 5,11 10,11 6,0 11,-5 11,-11 0,0 0,-1 0,-1l-8 -250c0,-3 0,-5 -2,-7l-27 -38c5,-5 9,-12 10,-20l287 0c12,0 23,-5 31,-14 8,-8 12,-19 12,-31 0,-1 0,-1 0,-2l-9 -224c-1,-10 -4,-20 -10,-28l-157 -196c-4,-5 -12,-5 -17,-1 -5,4 -5,12 -1,18l134 167 -124 20c-1,0 -1,0 -1,0l-85 -123c-12,-18 -36,-23 -54,-12 -10,6 -18,17 -20,29 -2,12 0,25 7,35l59 86c3,4 6,7 10,10l-44 92 -107 -146c-4,-5 -10,-5 -15,-2 -4,4 -5,11 -2,16l114 154 -44 92c-2,0 -5,-1 -8,-1 -11,0 -21,4 -29,10l-57 -51c-1,-1 -2,-2 -3,-3l-143 -203 299 -255 107 -51c20,24 72,90 124,159 122,160 135,195 136,202 8,51 0,238 0,240 -1,5 1,10 4,13 3,3 8,5 12,5l132 -2 0 -35 -115 2c2,-50 6,-184 -1,-229 -1,-10 -6,-38 -142,-218 -39,-51 -77,-100 -103,-132l49 -40 162 216 -31 24c-4,3 -4,8 -2,11 2,4 7,5 10,2l90 -71 55 72c4,6 11,7 16,2 5,-4 6,-12 2,-17l-55 -71 65 -52 0 -19 -74 58 -168 -221 -34 -79c16,-15 60,-53 105,-92 106,-90 129,-100 133,-101 9,-1 22,-2 38,-2l0 -19c0,-2 0,-4 0,-5 -17,0 -32,1 -41,2 -7,1 -26,5 -144,106 -56,47 -108,94 -112,98l-133 103 -252 -363 -41 0c2,2 3,4 4,6l290 418 -96 47 -215 -300c-2,-2 -4,-4 -7,-4 -3,-1 -6,0 -8,2l-276 227 0 28 281 -230 63 88 -344 292 0 29 357 -303 69 97 -290 246 -34 -47c-3,-5 -10,-6 -14,-3 -5,4 -6,11 -3,16l96 136 -97 83c-8,6 -9,17 -3,24 6,8 16,9 23,3l97 -82 138 197 -99 13 -164 0c-3,0 -5,3 -5,6 0,4 2,7 5,7l164 0c1,0 1,0 1,0l107 -15c1,0 1,1 1,1l58 52c-3,6 -5,14 -5,21 0,5 1,10 2,15l-19 14c-3,2 -6,3 -9,4l-283 31c-7,1 -12,7 -11,14 1,7 7,12 13,11l43 -5 9 287c0,2 1,4 2,5 2,1 3,2 5,1zm877 -525l-57 3c-9,0 -16,8 -16,18 1,9 8,17 18,17l55 -3 0 -35zm0 -778l-50 2c-6,1 -13,3 -18,8l-129 116c-3,3 -4,9 -1,12 3,4 8,5 12,1l110 -99 14 92c0,0 -1,0 -1,1l-81 62c-12,10 -15,27 -7,41 4,7 11,13 19,14 8,2 16,0 23,-5l56 -43c3,-2 5,-5 7,-8l46 25 0 -18 -41 -21c0,-3 0,-5 0,-8l-22 -144 6 -5c2,-2 5,-3 8,-3l49 -2 0 -18zm0 238l-81 68c-4,3 -4,8 -2,11 3,3 7,4 11,1l72 -60 0 -20zm-60 -88l0 0 4 24c1,6 -1,12 -6,15l-56 43c-3,2 -5,3 -8,3 -1,0 -2,0 -3,0 -4,-1 -8,-3 -10,-7 -3,-7 -2,-15 4,-20l75 -58zm-241 130l0 0 45 -36 164 215 -46 36 -163 -215zm-70 36l0 0c-11,-13 -18,-22 -20,-24l-25 -38 122 -95 30 72 -107 85zm-463 286l0 0 -49 -70 291 -246 49 68 -291 248zm418 49l0 0 -33 6c-8,1 -16,-2 -20,-9l-59 -85c-2,-4 -4,-8 -4,-13 0,-1 1,-3 1,-4 1,-6 4,-11 9,-14 9,-6 21,-4 27,5l79 114zm-84 122l0 0 44 -93c3,0 6,0 10,-1l194 -32 7 8c3,4 4,8 4,13l4 99 -263 6zm-38 140l0 0c-3,-10 -8,-19 -16,-26l43 -91 275 -6 4 102c1,6 -1,11 -5,15 -4,4 -8,6 -14,6l-287 0zm-46 41l0 0c-14,0 -26,-13 -26,-28 0,-15 12,-28 26,-28 15,0 27,13 27,28 0,15 -12,28 -27,28z"/>
       <path class="fil7" d="M3105 1749c23,31 71,100 87,124 4,4 10,5 14,2l161 -124c7,-6 3,-18 -6,-18l-248 0c-8,0 -12,9 -8,16z"/>
      </g>
      <path class="fil20" d="M2687 2077c0,55 69,200 100,200 31,0 100,-145 100,-200 0,-55 -44,-100 -100,-100 -55,0 -100,45 -100,100zm41 7l0 0c0,-33 26,-60 59,-60 33,0 60,27 60,60 0,33 -27,59 -60,59 -33,0 -59,-26 -59,-59z"/>
     </g>
     <g>
      <path class="fil22" d="M2413 2117c21,-63 128,-84 133,-85l6 -1 0 217 -7 -3c-7,-2 -153,-63 -132,-128z"/>
      <path class="fil22" d="M2430 2366c15,-35 111,-70 115,-71l7 -3 0 73c21,10 140,69 169,133 16,35 4,72 -33,106 -16,13 -38,17 -56,8 -20,-10 -50,-23 -80,-38l0 33c21,10 140,69 169,133 23,51 -16,93 -42,113 -11,9 -27,11 -40,4 -20,-9 -53,-24 -87,-41l0 37c17,8 99,50 119,94 12,26 2,54 -26,78 -7,6 -15,8 -22,8 -5,0 -10,-1 -15,-3 -22,-10 -65,-31 -99,-47 -50,-26 -56,-102 -46,-129 8,-20 51,-38 71,-47 -14,-6 -27,-13 -40,-19 -70,-35 -79,-142 -64,-180 9,-21 45,-41 78,-56 -5,-2 -10,-4 -14,-7 -70,-35 -79,-141 -64,-179z"/>
     </g>
    </g>
    <g>
     <g>
      <g>
       <polygon class="fil23" points="2488,3830 2695,3821 2695,3585 2488,3585 "/>
       <polygon class="fil24" points="2404,3816 2488,3830 2488,3585 2404,3585 "/>
       <polygon class="fil25" points="2567,3827 2599,3825 2599,3585 2567,3585 "/>
      </g>
      <polygon class="fil26" points="2499,3672 2521,3672 2521,3597 2499,3597 "/>
      <g>
       <polygon class="fil25" points="2690,3814 2677,3815 2677,3801 2690,3801 "/>
       <polygon class="fil25" points="2670,3815 2656,3816 2656,3802 2670,3802 "/>
       <polygon class="fil25" points="2649,3803 2649,3816 2636,3817 2636,3803 "/>
      </g>
     </g>
     <g>
      <g>
       <polygon class="fil23" points="3136,3839 2706,3822 2706,3331 3136,3331 "/>
       <polygon class="fil24" points="3311,3811 3136,3839 3136,3331 3311,3331 "/>
       <polygon class="fil25" points="2971,3833 2905,3830 2905,3331 2971,3331 "/>
      </g>
      <polygon class="fil26" points="3113,3513 3068,3513 3068,3355 3113,3355 "/>
      <g>
       <polygon class="fil25" points="2716,3807 2745,3809 2745,3781 2716,3779 "/>
       <polygon class="fil25" points="2758,3809 2787,3811 2787,3782 2758,3781 "/>
       <polygon class="fil25" points="2801,3783 2801,3811 2830,3813 2830,3785 "/>
      </g>
     </g>
     <g>
      <g>
       <polygon class="fil23" points="3429,3828 3668,3819 3668,3545 3429,3545 "/>
       <polygon class="fil24" points="3332,3812 3429,3828 3429,3545 3332,3545 "/>
       <polygon class="fil25" points="3520,3824 3557,3823 3557,3545 3520,3545 "/>
      </g>
      <polygon class="fil26" points="3442,3646 3467,3646 3467,3559 3442,3559 "/>
      <g>
       <polygon class="fil25" points="3662,3810 3647,3811 3647,3795 3662,3795 "/>
       <polygon class="fil25" points="3639,3811 3623,3812 3623,3796 3639,3796 "/>
       <polygon class="fil25" points="3615,3797 3615,3813 3599,3813 3599,3798 "/>
      </g>
     </g>
    </g>
    <g>
     <g>
      <g>
       <polygon class="fil23" points="4636,3841 4469,3834 4469,3643 4636,3643 "/>
       <polygon class="fil24" points="4703,3829 4636,3841 4636,3643 4703,3643 "/>
       <polygon class="fil25" points="4572,3838 4546,3837 4546,3643 4572,3643 "/>
      </g>
      <polygon class="fil26" points="4627,3714 4609,3714 4609,3653 4627,3653 "/>
      <g>
       <polygon class="fil25" points="4473,3828 4484,3829 4484,3818 4473,3817 "/>
       <polygon class="fil25" points="4489,3829 4500,3829 4500,3819 4489,3818 "/>
       <polygon class="fil25" points="4506,3819 4506,3830 4517,3830 4517,3819 "/>
      </g>
     </g>
     <g>
      <g>
       <polygon class="fil23" points="4113,3848 4460,3834 4460,3438 4113,3438 "/>
       <polygon class="fil24" points="3973,3825 4113,3848 4113,3438 3973,3438 "/>
       <polygon class="fil25" points="4246,3843 4300,3841 4300,3438 4246,3438 "/>
      </g>
      <polygon class="fil26" points="4132,3585 4169,3585 4169,3458 4132,3458 "/>
      <g>
       <polygon class="fil25" points="4452,3822 4429,3824 4429,3801 4452,3800 "/>
       <polygon class="fil25" points="4418,3824 4395,3825 4395,3802 4418,3801 "/>
       <polygon class="fil25" points="4383,3803 4383,3826 4360,3827 4360,3804 "/>
      </g>
     </g>
     <g>
      <g>
       <polygon class="fil23" points="3878,3839 3685,3832 3685,3611 3878,3611 "/>
       <polygon class="fil24" points="3956,3826 3878,3839 3878,3611 3956,3611 "/>
       <polygon class="fil25" points="3804,3836 3774,3835 3774,3611 3804,3611 "/>
      </g>
      <polygon class="fil26" points="3867,3693 3847,3693 3847,3622 3867,3622 "/>
      <g>
       <polygon class="fil25" points="3689,3825 3702,3825 3702,3813 3689,3812 "/>
       <polygon class="fil25" points="3708,3826 3721,3826 3721,3814 3708,3813 "/>
       <polygon class="fil25" points="3727,3814 3727,3827 3740,3827 3740,3815 "/>
      </g>
     </g>
    </g>
    <g>
     <path class="fil22" d="M4385 2487l-10 -18c0,0 -5,-35 -14,-43 -9,-9 -19,-27 -34,-36 -14,-9 -29,3 -33,7 -3,5 15,32 22,42 7,10 -3,15 -2,25 2,11 25,10 29,15 2,3 6,12 9,20l0 0c0,0 1,1 1,2 2,4 3,7 4,8 14,32 60,134 58,138 -2,4 -36,22 -36,22l23 67c0,0 81,-62 80,-79 -2,-14 -81,-143 -97,-170z"/>
     <g>
      <g>
       <polygon class="fil23" points="4132,2550 4469,2480 4406,2092 4066,2148 "/>
       <polygon class="fil24" points="3990,2550 4132,2550 4066,2148 3928,2171 "/>
       <polygon class="fil25" points="4261,2523 4313,2513 4248,2118 4196,2126 "/>
      </g>
      <polygon class="fil26" points="4107,2289 4143,2283 4123,2159 4087,2165 "/>
      <g>
       <polygon class="fil25" points="4459,2470 4437,2475 4433,2452 4456,2448 "/>
       <polygon class="fil25" points="4426,2477 4404,2482 4401,2459 4423,2455 "/>
       <polygon class="fil25" points="4389,2462 4393,2484 4370,2489 4367,2467 "/>
      </g>
     </g>
     <polygon class="fil22" points="4254,2780 4212,2783 4208,2728 4249,2724 "/>
     <g>
      <path class="fil22" d="M4429 3737l-5 29c-3,-1 -39,-7 -39,-7l6 -29 38 7z"/>
      <path class="fil15" d="M4436 3757c0,0 75,58 77,59 1,1 5,2 9,4 7,3 10,10 9,16 0,3 -1,4 -1,5 -1,1 -162,-30 -162,-30 0,0 6,-53 15,-53 9,0 37,12 53,-1z"/>
      <g>
       <polygon class="fil11" points="4479,3790 4469,3803 4474,3806 4484,3794 "/>
       <polygon class="fil11" points="4488,3797 4478,3808 4482,3812 4492,3800 "/>
       <polygon class="fil11" points="4495,3803 4486,3814 4491,3818 4500,3806 "/>
      </g>
     </g>
     <g>
      <path class="fil22" d="M4189 3731l5 29c3,-1 39,-7 39,-7l-6 -29 -38 7z"/>
      <path class="fil15" d="M4183 3752c0,0 -76,57 -78,58 -1,1 -4,2 -9,4 -6,3 -10,10 -9,16 1,3 1,5 1,5 1,1 162,-30 162,-30 0,0 -6,-52 -15,-53 -9,0 -37,12 -52,0z"/>
      <g>
       <polygon class="fil11" points="4139,3784 4149,3797 4145,3801 4134,3788 "/>
       <polygon class="fil11" points="4131,3791 4140,3803 4136,3806 4126,3795 "/>
       <polygon class="fil11" points="4123,3797 4132,3808 4127,3812 4118,3801 "/>
      </g>
     </g>
     <path class="fil7" d="M4202 2744c0,0 18,40 46,12 15,-16 10,-25 10,-25l128 -66 30 75 -88 68 65 336 -233 15 -10 -308 -116 -43 34 -57 134 -7z"/>
     <path class="fil15" d="M4393 3144c0,0 68,154 74,224 7,70 -28,375 -28,375l-66 -14c0,0 1,-314 -22,-354 -24,-40 -65,-160 -65,-160 0,0 -34,87 -50,158 -16,74 3,360 3,360l-63 0c0,0 -54,-340 -44,-396 10,-57 28,-178 28,-178l233 -15z"/>
     <g>
      <path class="fil22" d="M4156 2654c-1,0 -1,0 -2,0 0,0 -1,1 -1,2 -2,4 -1,9 0,13 2,4 4,8 7,12 3,5 7,10 12,10 1,0 2,0 2,0 0,0 0,-1 1,-1 1,-5 -1,-10 -3,-14 -4,-7 -6,-21 -16,-22z"/>
      <path class="fil22" d="M4294 2651c1,5 -2,10 -4,15 -1,3 -2,5 -2,8 -1,3 -1,6 -3,9 -2,3 -5,4 -8,3 -2,-2 -3,-5 -3,-7 -2,-10 -1,-18 5,-27 4,-5 15,-13 15,-1z"/>
      <path class="fil22" d="M4169 2648c0,7 1,14 2,21 2,7 4,14 7,20 4,8 10,14 16,20 5,5 11,10 18,11 8,0 15,-4 22,-4 5,1 10,3 15,2 6,-1 10,-8 14,-13 4,-4 8,-7 11,-12 2,-3 3,-7 4,-11 1,-5 2,-10 2,-15 2,-17 -3,-32 -5,-49 -4,-3 -9,-6 -14,-8 -6,-2 -12,-3 -18,-2 -4,1 -8,3 -11,6 0,1 0,1 -1,1 -12,0 -24,2 -36,4 -9,2 -18,5 -25,11 -1,1 -2,2 -3,3 3,2 2,13 2,15z"/>
      <path class="fil15" d="M4283 2641c-1,-7 7,-17 -6,-21 -1,0 -2,-1 -2,-2 2,17 7,32 5,49 0,5 -1,10 -2,15 -1,4 -2,8 -4,11 -3,5 -7,8 -11,12 -4,5 -8,12 -14,13 -5,1 -10,-1 -15,-2 -7,0 -14,4 -22,4 -7,-1 -13,-6 -18,-11 -6,-6 -12,-12 -16,-20 -3,-6 -5,-13 -7,-20 -1,-7 -2,-14 -2,-21 0,-1 1,-9 -1,-13 0,0 0,-1 0,-1 0,-1 1,-2 1,-3 0,-1 -1,-2 -1,-3 0,-1 -1,-2 -2,-2 -1,-1 -2,0 -3,0 -1,1 -2,2 -2,3 -1,1 -2,2 -2,4 0,0 0,1 0,1 0,1 0,2 0,3 1,3 1,6 1,10 0,1 0,2 0,4 0,0 0,0 0,0 0,2 0,3 0,4 1,11 5,22 10,32 4,9 10,18 16,26 6,8 14,15 23,19 9,5 19,7 29,4 9,-3 17,-10 24,-17 10,-10 19,-21 23,-34 2,-10 2,-20 1,-30 -1,-5 -1,-10 -3,-14z"/>
      <path class="fil15" d="M4166 2594c6,-12 18,-20 31,-24 5,-1 10,-2 15,-3 18,-2 36,-5 51,-14 9,-6 16,-13 24,-18 1,-1 2,-2 3,-2 3,0 5,3 6,5 5,9 6,21 4,31 -2,11 -6,21 -11,30 -3,6 -6,13 -5,19 1,3 2,7 0,9 -2,3 -7,0 -9,-2 -4,-3 -8,-7 -13,-7 -5,-1 -10,1 -14,3 -15,4 -32,1 -46,8 -5,2 -10,6 -15,9 -5,3 -11,6 -16,5 -12,0 -12,-9 -13,-18 -1,-11 2,-22 8,-31z"/>
     </g>
     <path class="fil22" d="M4064 2567l10 -18c0,0 5,-35 14,-43 9,-9 19,-27 33,-36 14,-9 30,3 34,7 3,5 -15,32 -22,42 -7,10 3,15 2,25 -2,11 -25,10 -29,15 -2,3 -6,12 -10,20l0 0c0,0 0,1 0,2 -2,4 -4,7 -4,8 -14,32 -64,144 -62,148 2,4 38,15 38,15l-18 54c0,0 -87,-40 -86,-56 1,-15 83,-156 100,-183z"/>
    </g>
   </g>
  </g>
 </g>
</svg>
