<?xml version="1.0" encoding="UTF-8"?>
<!DOCTYPE svg PUBLIC "-//W3C//DTD SVG 1.1//EN" "http://www.w3.org/Graphics/SVG/1.1/DTD/svg11.dtd">
<!-- Creator: CorelDRAW X7 -->
<svg xmlns="http://www.w3.org/2000/svg" xml:space="preserve" width="9.562in" height="4.671in" version="1.1" style="shape-rendering:geometricPrecision; text-rendering:geometricPrecision; image-rendering:optimizeQuality; fill-rule:evenodd; clip-rule:evenodd"
viewBox="0 0 9562 4671"
 xmlns:xlink="http://www.w3.org/1999/xlink">
 <defs>
  <style type="text/css">
   <![CDATA[
    .fil21 {fill:#163560;fill-rule:nonzero}
    .fil25 {fill:#183E7A;fill-rule:nonzero}
    .fil26 {fill:#1F437C;fill-rule:nonzero}
    .fil15 {fill:#233862;fill-rule:nonzero}
    .fil23 {fill:#234884;fill-rule:nonzero}
    .fil9 {fill:#2A4E96;fill-rule:nonzero}
    .fil20 {fill:#2C3A64;fill-rule:nonzero}
    .fil10 {fill:#618DC1;fill-rule:nonzero}
    .fil1 {fill:#699DEE;fill-rule:nonzero}
    .fil27 {fill:#80B4FF;fill-rule:nonzero}
    .fil4 {fill:#9DC3F3;fill-rule:nonzero}
    .fil19 {fill:#A9453D;fill-rule:nonzero}
    .fil8 {fill:#A9C8ED;fill-rule:nonzero}
    .fil18 {fill:#C15E1B;fill-rule:nonzero}
    .fil7 {fill:#C1D8F4;fill-rule:nonzero}
    .fil2 {fill:#C3DAFC;fill-rule:nonzero}
    .fil3 {fill:#D4E4F8;fill-rule:nonzero}
    .fil0 {fill:#D5E5FB;fill-rule:nonzero}
    .fil17 {fill:#D8702A;fill-rule:nonzero}
    .fil13 {fill:#DD732C;fill-rule:nonzero}
    .fil5 {fill:#E3F0FF;fill-rule:nonzero}
    .fil22 {fill:#ED7D2B;fill-rule:nonzero}
    .fil11 {fill:#ED823A;fill-rule:nonzero}
    .fil16 {fill:#ED975D;fill-rule:nonzero}
    .fil24 {fill:#ED985F;fill-rule:nonzero}
    .fil12 {fill:#FF9E55;fill-rule:nonzero}
    .fil14 {fill:#FFB27D;fill-rule:nonzero}
    .fil6 {fill:white;fill-rule:nonzero}
   ]]>
  </style>
 </defs>
 <g id="Layer_x0020_1">
  <metadata id="CorelCorpID_0Corel-Layer"/>
  <g id="_966754352">
   <polygon class="fil0" points="2886,3879 3338,3879 3338,0 2886,0 "/>
   <polygon class="fil0" points="6086,3879 6538,3879 6538,0 6086,0 "/>
   <polygon class="fil1" points="0,4671 9562,4671 9562,3864 0,3864 "/>
   <polygon class="fil2" points="1499,1482 2024,1482 2024,1049 1499,1049 "/>
   <polygon class="fil3" points="1761,1482 2286,1482 2286,1049 1761,1049 "/>
   <polygon class="fil4" points="1499,1372 1582,1372 1575,1348 1582,1332 1499,1332 "/>
   <polygon class="fil5" points="1761,1183 1845,1183 1837,1159 1845,1143 1761,1143 "/>
   <polygon class="fil4" points="1761,1143 1678,1143 1686,1166 1678,1183 1761,1183 "/>
   <polygon class="fil5" points="2286,1377 2203,1377 2211,1400 2203,1417 2286,1417 "/>
   <polygon class="fil6" points="2101,1137 2252,1137 2252,1078 2101,1078 "/>
   <polygon class="fil2" points="4848,1482 5198,1482 5198,1193 4848,1193 "/>
   <polygon class="fil3" points="5023,1482 5373,1482 5373,1193 5023,1193 "/>
   <polygon class="fil4" points="4848,1408 4903,1408 4898,1393 4903,1382 4848,1382 "/>
   <polygon class="fil5" points="5023,1282 5078,1282 5073,1267 5078,1256 5023,1256 "/>
   <polygon class="fil4" points="5023,1256 4967,1256 4972,1271 4967,1282 5023,1282 "/>
   <polygon class="fil5" points="5373,1412 5317,1412 5322,1427 5317,1438 5373,1438 "/>
   <polygon class="fil6" points="5249,1252 5350,1252 5350,1213 5249,1213 "/>
   <polygon class="fil2" points="4079,1482 4533,1482 4533,1108 4079,1108 "/>
   <polygon class="fil3" points="4306,1482 4760,1482 4760,1108 4306,1108 "/>
   <polygon class="fil4" points="4079,1387 4151,1387 4145,1367 4151,1352 4079,1352 "/>
   <polygon class="fil5" points="4306,1223 4378,1223 4372,1203 4378,1189 4306,1189 "/>
   <polygon class="fil4" points="4306,1189 4234,1189 4240,1209 4234,1223 4306,1223 "/>
   <polygon class="fil5" points="4760,1391 4688,1391 4694,1411 4688,1425 4760,1425 "/>
   <polygon class="fil6" points="4600,1184 4730,1184 4730,1133 4600,1133 "/>
   <polygon class="fil2" points="572,1482 1097,1482 1097,1049 572,1049 "/>
   <polygon class="fil3" points="834,1482 1359,1482 1359,1049 834,1049 "/>
   <polygon class="fil4" points="572,1372 655,1372 648,1348 655,1332 572,1332 "/>
   <polygon class="fil5" points="834,1183 918,1183 910,1159 918,1143 834,1143 "/>
   <polygon class="fil4" points="834,1143 751,1143 758,1166 751,1183 834,1183 "/>
   <polygon class="fil5" points="1359,1377 1276,1377 1283,1400 1276,1417 1359,1417 "/>
   <polygon class="fil6" points="1174,1137 1325,1137 1325,1078 1174,1078 "/>
   <polygon class="fil7" points="6990,3866 9225,3866 9225,1781 6990,1781 "/>
   <polygon class="fil5" points="7060,2050 9155,2050 9155,1846 7060,1846 "/>
   <polygon class="fil5" points="7060,2455 9155,2455 9155,2251 7060,2251 "/>
   <polygon class="fil3" points="7060,2252 9155,2252 9155,2048 7060,2048 "/>
   <polygon class="fil5" points="7060,2860 9155,2860 9155,2656 7060,2656 "/>
   <polygon class="fil3" points="7060,2657 9155,2657 9155,2453 7060,2453 "/>
   <polygon class="fil5" points="7060,3261 9155,3261 9155,3056 7060,3056 "/>
   <polygon class="fil3" points="7060,3058 9155,3058 9155,2854 7060,2854 "/>
   <polygon class="fil3" points="7060,3461 9155,3461 9155,3257 7060,3257 "/>
   <polygon class="fil5" points="7060,3665 9155,3665 9155,3461 7060,3461 "/>
   <polygon class="fil3" points="7060,3866 9155,3866 9155,3662 7060,3662 "/>
   <polygon class="fil0" points="6990,1633 9225,1633 9225,1246 6990,1246 "/>
   <polygon class="fil2" points="232,3890 434,3890 434,1482 232,1482 "/>
   <polygon class="fil2" points="2446,3890 2614,3890 2614,1482 2446,1482 "/>
   <polygon class="fil1" points="434,1544 2614,1544 2614,1482 434,1482 "/>
   <polygon class="fil1" points="434,2686 2614,2686 2614,2623 434,2623 "/>
   <polygon class="fil1" points="434,3643 2614,3643 2614,3581 434,3581 "/>
   <polygon class="fil8" points="1535,2623 2078,2623 2078,2176 1535,2176 "/>
   <polygon class="fil3" points="1807,2623 2349,2623 2349,2176 1807,2176 "/>
   <polygon class="fil4" points="1536,2510 1622,2510 1614,2485 1622,2468 1536,2468 "/>
   <polygon class="fil5" points="1807,2314 1893,2314 1885,2290 1893,2273 1807,2273 "/>
   <polygon class="fil4" points="1807,2273 1721,2273 1728,2297 1721,2314 1807,2314 "/>
   <polygon class="fil5" points="2349,2514 2263,2514 2271,2539 2263,2556 2349,2556 "/>
   <polygon class="fil6" points="2158,2267 2314,2267 2314,2206 2158,2206 "/>
   <polygon class="fil2" points="839,2623 1382,2623 1382,2176 839,2176 "/>
   <polygon class="fil3" points="1110,2623 1653,2623 1653,2176 1110,2176 "/>
   <polygon class="fil4" points="839,2510 925,2510 918,2485 925,2468 839,2468 "/>
   <polygon class="fil5" points="1110,2314 1196,2314 1189,2290 1196,2273 1110,2273 "/>
   <polygon class="fil4" points="1110,2273 1024,2273 1032,2297 1024,2314 1110,2314 "/>
   <polygon class="fil5" points="1653,2514 1567,2514 1575,2539 1567,2556 1653,2556 "/>
   <polygon class="fil5" points="1653,2267 1567,2267 1575,2291 1567,2308 1653,2308 "/>
   <polygon class="fil6" points="1165,2575 1420,2575 1420,2476 1165,2476 "/>
   <polygon class="fil2" points="1535,3579 2004,3579 2004,3192 1535,3192 "/>
   <polygon class="fil3" points="1770,3579 2239,3579 2239,3192 1770,3192 "/>
   <polygon class="fil4" points="1536,3481 1610,3481 1603,3460 1610,3445 1536,3445 "/>
   <polygon class="fil5" points="1770,3312 1844,3312 1838,3291 1844,3276 1770,3276 "/>
   <polygon class="fil4" points="1770,3276 1696,3276 1702,3297 1696,3312 1770,3312 "/>
   <polygon class="fil5" points="2239,3485 2165,3485 2171,3506 2165,3521 2239,3521 "/>
   <polygon class="fil6" points="2073,3271 2208,3271 2208,3219 2073,3219 "/>
   <polygon class="fil2" points="644,3579 1187,3579 1187,3132 644,3132 "/>
   <polygon class="fil3" points="916,3579 1459,3579 1459,3132 916,3132 "/>
   <polygon class="fil9" points="645,3466 731,3466 723,3441 731,3424 645,3424 "/>
   <polygon class="fil10" points="916,3270 1002,3270 994,3246 1002,3229 916,3229 "/>
   <polygon class="fil9" points="916,3229 830,3229 837,3253 830,3270 916,3270 "/>
   <polygon class="fil10" points="1459,3470 1373,3470 1380,3495 1373,3512 1459,3512 "/>
   <polygon class="fil6" points="1267,3223 1423,3223 1423,3162 1267,3162 "/>
   <polygon class="fil2" points="797,2174 1212,2174 1212,1831 797,1831 "/>
   <polygon class="fil3" points="1005,2174 1420,2174 1420,1831 1005,1831 "/>
   <polygon class="fil4" points="797,2087 863,2087 857,2068 863,2055 797,2055 "/>
   <polygon class="fil5" points="1005,1937 1070,1937 1065,1919 1070,1906 1005,1906 "/>
   <polygon class="fil4" points="1005,1906 939,1906 945,1924 939,1937 1005,1937 "/>
   <polygon class="fil5" points="1420,2090 1354,2090 1360,2109 1354,2122 1420,2122 "/>
   <polygon class="fil6" points="1273,1901 1392,1901 1392,1855 1273,1855 "/>
   <polygon class="fil2" points="1538,2174 1953,2174 1953,1831 1538,1831 "/>
   <polygon class="fil3" points="1746,2174 2161,2174 2161,1831 1746,1831 "/>
   <polygon class="fil4" points="1539,2087 1604,2087 1599,2068 1604,2055 1539,2055 "/>
   <polygon class="fil5" points="1746,1937 1812,1937 1806,1919 1812,1906 1746,1906 "/>
   <polygon class="fil4" points="1746,1906 1680,1906 1686,1924 1680,1937 1746,1937 "/>
   <polygon class="fil5" points="2161,2090 2095,2090 2101,2109 2095,2122 2161,2122 "/>
   <polygon class="fil6" points="2014,1901 2134,1901 2134,1855 2014,1855 "/>
   <polygon class="fil11" points="939,3131 1254,3131 1254,2872 939,2872 "/>
   <polygon class="fil12" points="782,3131 1096,3131 1096,2872 782,2872 "/>
   <polygon class="fil13" points="1253,3066 1204,3066 1208,3052 1204,3042 1253,3042 "/>
   <polygon class="fil14" points="1096,2952 1046,2952 1051,2938 1046,2928 1096,2928 "/>
   <polygon class="fil13" points="1096,2928 1146,2928 1142,2942 1146,2952 1096,2952 "/>
   <polygon class="fil14" points="782,3068 832,3068 827,3082 832,3092 782,3092 "/>
   <polygon class="fil6" points="802,2925 893,2925 893,2890 802,2890 "/>
   <polygon class="fil6" points="434,1976 929,1976 929,1482 434,1482 "/>
   <polygon class="fil12" points="461,1950 903,1950 903,1508 461,1508 "/>
   <polygon class="fil2" points="3283,3890 3467,3890 3467,1482 3283,1482 "/>
   <polygon class="fil2" points="5468,3890 5647,3890 5647,1482 5468,1482 "/>
   <polygon class="fil1" points="3467,1538 5647,1538 5647,1482 3467,1482 "/>
   <polygon class="fil1" points="3467,2686 5647,2686 5647,2623 3467,2623 "/>
   <polygon class="fil1" points="3467,3655 5647,3655 5647,3581 3467,3581 "/>
   <polygon class="fil2" points="4568,2623 5111,2623 5111,2176 4568,2176 "/>
   <polygon class="fil3" points="4840,2623 5382,2623 5382,2176 4840,2176 "/>
   <polygon class="fil4" points="4569,2510 4655,2510 4647,2485 4655,2468 4569,2468 "/>
   <polygon class="fil5" points="4840,2314 4926,2314 4918,2290 4926,2273 4840,2273 "/>
   <polygon class="fil4" points="4840,2273 4754,2273 4761,2297 4754,2314 4840,2314 "/>
   <polygon class="fil5" points="5382,2514 5296,2514 5304,2539 5296,2556 5382,2556 "/>
   <polygon class="fil6" points="5191,2267 5347,2267 5347,2206 5191,2206 "/>
   <polygon class="fil2" points="3872,2623 4415,2623 4415,2176 3872,2176 "/>
   <polygon class="fil3" points="4143,2623 4686,2623 4686,2176 4143,2176 "/>
   <polygon class="fil15" points="3872,2510 3958,2510 3950,2485 3958,2468 3872,2468 "/>
   <polygon class="fil9" points="4143,2314 4229,2314 4222,2290 4229,2273 4143,2273 "/>
   <polygon class="fil15" points="4143,2273 4057,2273 4065,2297 4057,2314 4143,2314 "/>
   <polygon class="fil9" points="4686,2514 4600,2514 4607,2539 4600,2556 4686,2556 "/>
   <polygon class="fil6" points="4186,2575 4396,2575 4396,2494 4186,2494 "/>
   <polygon class="fil2" points="3770,3579 4232,3579 4232,3199 3770,3199 "/>
   <polygon class="fil3" points="4001,3579 4463,3579 4463,3199 4001,3199 "/>
   <polygon class="fil4" points="3771,3483 3844,3483 3837,3462 3844,3447 3771,3447 "/>
   <polygon class="fil5" points="4001,3316 4074,3316 4068,3296 4074,3281 4001,3281 "/>
   <polygon class="fil4" points="4001,3281 3928,3281 3935,3302 3928,3316 4001,3316 "/>
   <polygon class="fil5" points="4463,3487 4389,3487 4396,3507 4389,3522 4463,3522 "/>
   <polygon class="fil6" points="4300,3276 4432,3276 4432,3224 4300,3224 "/>
   <polygon class="fil2" points="4519,3579 4981,3579 4981,3198 4519,3198 "/>
   <polygon class="fil3" points="4750,3579 5212,3579 5212,3198 4750,3198 "/>
   <polygon class="fil4" points="4519,3482 4592,3482 4586,3462 4592,3447 4519,3447 "/>
   <polygon class="fil5" points="4750,3316 4823,3316 4817,3295 4823,3280 4750,3280 "/>
   <polygon class="fil4" points="4750,3280 4677,3280 4683,3301 4677,3316 4750,3316 "/>
   <polygon class="fil5" points="5212,3486 5139,3486 5146,3507 5139,3522 5212,3522 "/>
   <polygon class="fil6" points="5049,3275 5182,3275 5182,3224 5049,3224 "/>
   <polygon class="fil2" points="3830,2176 4245,2176 4245,1834 3830,1834 "/>
   <polygon class="fil3" points="4037,2176 4452,2176 4452,1834 4037,1834 "/>
   <polygon class="fil4" points="3830,2089 3896,2089 3890,2071 3896,2058 3830,2058 "/>
   <polygon class="fil5" points="4037,1940 4103,1940 4097,1921 4103,1908 4037,1908 "/>
   <polygon class="fil4" points="4037,1908 3972,1908 3977,1927 3972,1940 4037,1940 "/>
   <polygon class="fil5" points="4452,2093 4386,2093 4392,2112 4386,2125 4452,2125 "/>
   <polygon class="fil6" points="4306,1904 4425,1904 4425,1857 4306,1857 "/>
   <polygon class="fil11" points="4687,2176 5002,2176 5002,1917 4687,1917 "/>
   <polygon class="fil12" points="4530,2176 4844,2176 4844,1917 4530,1917 "/>
   <polygon class="fil13" points="5001,2110 4952,2110 4956,2096 4952,2086 5001,2086 "/>
   <polygon class="fil14" points="4844,1997 4794,1997 4799,1983 4794,1973 4844,1973 "/>
   <polygon class="fil13" points="4844,1973 4894,1973 4890,1987 4894,1997 4844,1997 "/>
   <polygon class="fil14" points="4530,2113 4580,2113 4575,2127 4580,2137 4530,2137 "/>
   <polygon class="fil6" points="4550,1969 4641,1969 4641,1934 4550,1934 "/>
   <polygon class="fil6" points="3467,1976 3962,1976 3962,1482 3467,1482 "/>
   <polygon class="fil12" points="3494,1950 3936,1950 3936,1508 3494,1508 "/>
   <path class="fil15" d="M3841 2752c0,0 -21,-45 -4,-72 16,-28 82,-29 82,-29 0,0 -6,3 -6,6 0,3 19,-8 32,15 13,24 13,45 -1,77 -14,32 -103,3 -103,3z"/>
   <path class="fil12" d="M4172 3197c-13,3 -70,3 -111,-6 -8,-2 -16,-4 -22,-7 -8,-3 -13,-7 -16,-12 -5,-8 -13,-34 -23,-68 -27,-93 -65,-248 -65,-248 0,0 76,15 92,29 17,13 31,223 46,229 2,1 6,3 11,5 0,0 0,0 1,1 3,1 6,3 10,5 31,16 77,46 88,51 11,5 7,16 -11,21z"/>
   <path class="fil12" d="M4025 2976c0,-4 0,-8 -1,-11 -9,-54 -87,-108 -89,-108l0 0c0,8 -13,23 -33,25 -24,1 -53,-11 -53,-24 0,0 -13,0 -18,0 -19,2 -57,13 -73,25 -16,12 6,85 20,137 6,23 10,41 9,49 0,4 -4,57 -7,106 -2,40 -5,76 -5,79 0,4 22,20 60,32 9,3 20,6 30,8 20,4 42,6 66,6 8,0 15,0 22,-1 54,-5 73,-67 72,-323z"/>
   <path class="fil14" d="M4172 3197c-2,0 -5,0 -8,1 -10,1 -27,1 -45,0 -28,-1 -60,-5 -80,-14 9,-36 29,-55 46,-64 14,6 36,18 55,29l1 0c21,12 36,25 43,27 10,4 6,16 -12,21z"/>
   <path class="fil14" d="M3849 2855c0,-21 0,-46 3,-67l83 14c0,0 0,25 0,54 0,0 0,0 0,0 0,0 2,26 -30,30 -32,4 -57,-10 -56,-31z"/>
   <path class="fil15" d="M3919 3966c-11,-7 -4,-55 -4,-55 0,0 49,-39 55,-9 7,30 47,44 70,48 15,2 20,11 22,16l-143 0z"/>
   <path class="fil15" d="M3768 3966c-10,-7 -4,-55 -4,-55 0,0 49,-39 56,-9 6,30 46,44 69,48 15,2 20,11 22,16l-143 0z"/>
   <path class="fil9" d="M3775 3254c0,4 22,20 60,32 3,1 7,2 10,3 0,0 0,0 0,0 3,41 13,100 22,156l0 0c2,15 4,30 6,44 5,37 9,71 10,95l0 0c0,12 -10,39 -10,46 -1,4 -1,8 -1,12 -1,18 -1,38 0,61 7,96 32,219 41,224 18,10 51,0 68,-3 6,-1 12,-6 12,-13 -9,-160 15,-382 32,-519 1,-3 1,-7 2,-10 2,-16 3,-31 4,-45 1,-12 1,-23 1,-32 0,-3 0,-6 0,-8 1,-9 -6,-65 -7,-321l0 0c0,-6 -4,-11 -10,-11l-157 0c-15,0 -28,12 -27,27 0,20 -1,47 -5,73 -6,36 -18,69 -44,77 0,0 0,0 0,0 0,1 -1,2 -2,5 0,0 0,0 0,0 0,6 0,13 -1,19 0,2 0,3 0,4 0,1 0,2 0,3 0,1 0,3 0,4 0,2 0,4 -1,7 0,2 0,3 0,5 0,4 0,7 0,11 0,1 -1,2 -1,3 0,5 0,9 -1,14 0,1 0,3 0,4 0,1 0,2 0,2 0,2 0,4 -1,6 0,2 0,4 0,6 -1,7 0,13 0,19z"/>
   <path class="fil15" d="M3872 3703c7,96 32,219 41,224 18,10 51,0 68,-3 6,-1 12,-6 12,-13 -9,-160 15,-382 32,-519 1,-3 1,-7 2,-10 2,-16 3,-31 4,-45 -8,-54 -55,-57 -98,55 6,37 -50,167 -50,192l0 0c0,12 -10,39 -10,46 -1,4 -1,8 -1,12 -1,18 -1,38 0,61z"/>
   <path class="fil9" d="M3773 3580c-1,11 -14,37 -16,43 -21,87 -9,292 1,300 17,13 51,7 68,7 7,-1 13,-6 13,-13 14,-163 68,-387 104,-519 17,-67 20,-116 20,-116 0,0 -165,-101 -182,-45 -16,48 2,257 -8,343z"/>
   <path class="fil9" d="M3826 2859c0,0 48,57 51,106l-25 0c0,0 -6,-54 -43,-103l17 -3z"/>
   <path class="fil9" d="M3946 2859c35,52 39,106 39,106l25 0c-2,-39 -26,-80 -40,-100l0 0c-9,-3 -17,-5 -24,-6z"/>
   <path class="fil12" d="M3787 3163c1,57 -6,173 -6,173l-34 0c-17,-81 -22,-134 -22,-162 0,-6 0,-11 0,-16 0,-24 1,-38 1,-38 -7,-147 23,-226 32,-237 9,-11 51,-21 51,-21 0,0 14,41 20,74 6,33 -45,170 -43,217 1,3 1,6 1,10z"/>
   <path class="fil14" d="M3785 3258c-2,42 -4,78 -4,78l-34 0c-6,-29 -11,-55 -14,-76 -6,-40 -8,-68 -8,-86 0,-6 0,-11 0,-16 13,-2 34,-4 62,5 0,25 -1,62 -2,95z"/>
   <path class="fil14" d="M3805 3378c0,10 -40,31 -53,26 -12,-6 -12,-39 -5,-68 7,-30 34,0 34,0 0,0 24,33 24,42z"/>
   <path class="fil14" d="M4251 3198l-87 0 20 -22c0,0 22,5 36,0 15,-4 31,22 31,22z"/>
   <path class="fil16" d="M3850 2810c0,0 20,24 43,24 27,0 42,-26 42,-26l-85 2z"/>
   <path class="fil14" d="M3933 2810c-8,6 -32,13 -39,14 0,0 -35,-8 -42,-12 -10,-6 -9,-18 -9,-35 -1,-20 -3,-36 -1,-48 3,-14 12,-22 36,-24 45,-4 64,8 65,23 0,4 0,8 0,11 2,48 -2,64 -10,71z"/>
   <path class="fil15" d="M3841 2752c0,0 -3,-40 20,-40 24,0 56,30 70,10 15,-19 13,27 13,27l1 -62 -91 -3 -19 14 6 54z"/>
   <path class="fil6" d="M2464 447l-1806 0c-31,0 -56,-25 -56,-56l0 0c0,-32 25,-57 56,-57l1806 0c31,0 56,25 56,57l0 0c0,31 -25,56 -56,56z"/>
   <polygon class="fil6" points="827,334 884,334 884,0 827,0 "/>
   <polygon class="fil6" points="2231,334 2287,334 2287,0 2231,0 "/>
   <path class="fil6" d="M5727 447l-1805 0c-32,0 -57,-25 -57,-56l0 0c0,-32 25,-57 57,-57l1805 0c31,0 57,25 57,57l0 0c0,31 -26,56 -57,56z"/>
   <polygon class="fil6" points="4091,334 4147,334 4147,0 4091,0 "/>
   <polygon class="fil6" points="5494,334 5551,334 5551,0 5494,0 "/>
   <path class="fil6" d="M8948 447l-1805 0c-32,0 -57,-25 -57,-56l0 0c0,-32 25,-57 57,-57l1805 0c31,0 57,25 57,57l0 0c0,31 -26,56 -57,56z"/>
   <polygon class="fil6" points="7312,334 7368,334 7368,0 7312,0 "/>
   <polygon class="fil6" points="8715,334 8772,334 8772,0 8715,0 "/>
   <polygon class="fil17" points="4922,3268 5207,3268 5207,3033 4922,3033 "/>
   <polygon class="fil12" points="4780,3268 5065,3268 5065,3033 4780,3033 "/>
   <polygon class="fil18" points="5207,3208 5162,3208 5166,3196 5162,3187 5207,3187 "/>
   <polygon class="fil14" points="5065,3106 5020,3106 5023,3093 5020,3084 5065,3084 "/>
   <polygon class="fil18" points="5065,3084 5110,3084 5106,3097 5110,3106 5065,3106 "/>
   <polygon class="fil14" points="4780,3211 4825,3211 4821,3224 4825,3233 4780,3233 "/>
   <polygon class="fil6" points="4798,3081 4880,3081 4880,3049 4798,3049 "/>
   <path class="fil14" d="M4914 3258c-7,-4 -22,-14 -23,-12 -1,2 0,5 2,7 -9,-3 -19,-5 -41,1 -4,1 -8,3 -10,7 -2,4 -3,8 3,11 11,7 8,3 24,13 16,9 35,11 47,4l15 -4 1 -25c0,0 -9,-1 -18,-2z"/>
   <path class="fil14" d="M5314 2996c0,0 -44,36 -86,9 0,0 -6,-25 -3,-43 1,-2 1,-4 1,-6 4,-20 5,-31 5,-31 0,0 0,0 0,0 3,0 75,-16 75,-13 -11,53 8,84 8,84z"/>
   <path class="fil16" d="M5297 2923c-9,11 -36,30 -71,33 4,-20 5,-31 5,-31 0,0 0,0 0,0 2,0 68,-5 66,-2z"/>
   <path class="fil14" d="M5217 2920c0,0 73,32 92,-13 20,-46 42,-72 -3,-95 -46,-22 -62,-9 -73,5 -10,14 -34,94 -16,103z"/>
   <path class="fil19" d="M5304 2919c1,1 17,9 59,-47 7,-8 14,-29 6,-49 -7,-21 -45,-43 -77,-56 -32,-12 -44,5 -55,22 -12,19 -39,30 -39,30 26,22 65,5 76,11 11,7 12,26 12,32 -1,7 0,12 16,9 16,-2 3,23 -1,28 0,0 -4,13 3,20z"/>
   <path class="fil20" d="M5416 4133l47 0c9,0 20,-9 23,-27 3,-18 23,-28 27,-43 5,-15 -18,-36 -18,-36l-3 -4 -4 -5 -37 8c0,0 -1,9 -2,20 0,9 -1,18 0,26 1,20 -6,41 -23,45 -18,4 -10,16 -10,16z"/>
   <path class="fil20" d="M5090 4133l124 0c1,0 2,0 2,0 9,-5 6,-36 5,-46 0,-2 0,-3 0,-3 0,0 -44,-35 -50,-8 0,1 0,1 -1,2l0 0c-7,25 -41,37 -61,40 -15,2 -18,11 -19,15z"/>
   <path class="fil12" d="M5115 3417c0,0 6,83 14,182 11,136 23,302 25,333 2,55 11,142 11,142 0,0 20,21 62,12 0,0 37,-125 47,-257 0,-2 1,-4 1,-6 10,-134 25,-417 25,-417l-185 11z"/>
   <path class="fil11" d="M5139 3412c0,0 -4,51 20,148 17,71 115,269 115,269 0,-2 1,-4 1,-6 10,-134 25,-417 25,-417l-161 6z"/>
   <path class="fil12" d="M5139 3412c0,0 125,315 204,456 79,140 103,180 103,180 0,0 45,-18 49,-31 0,0 -30,-271 -82,-338 -30,-37 -65,-150 -67,-189 -1,-39 -10,-117 -10,-117l-197 39z"/>
   <path class="fil9" d="M5133 3406c17,1 202,-6 202,-16 0,-36 8,-94 17,-165 2,-13 3,-26 4,-39 3,-34 3,-66 1,-95 -5,-54 -28,-98 -52,-119 -3,-2 -14,6 -33,14 -18,7 -32,2 -48,-2l-20 18c-17,15 -35,39 -44,61 0,0 -29,343 -27,343z"/>
   <path class="fil12" d="M5160 3063l51 12 69 188c10,27 36,45 65,45l0 0 -6 92 -224 17 45 -354z"/>
   <path class="fil9" d="M4918 3272c-1,-14 6,-17 6,-17 0,0 149,-33 162,-38 12,-4 117,-122 117,-122 0,0 40,-48 74,-39 30,8 43,30 47,52 6,26 -5,53 -27,68 -50,34 -150,99 -174,107 -53,18 -197,9 -197,9 0,0 -6,-8 -8,-20z"/>
   <path class="fil11" d="M5263 3020c12,-11 49,-41 49,-41l-7 -7c-5,-1 -44,29 -57,40 -15,14 -59,59 -59,59l22 4c0,0 38,-42 52,-55z"/>
   <path class="fil21" d="M8633 4343l-294 0c-36,0 -65,-29 -65,-65l0 -266c0,-35 29,-65 65,-65l294 0c36,0 65,30 65,65l0 266c0,36 -29,65 -65,65z"/>
   <path class="fil14" d="M7843 3360c0,0 -27,1 -32,-1 -6,-3 -21,-11 -19,-21 1,-7 13,3 17,1 5,-1 -9,-3 -10,-5 -1,-2 12,-4 16,-4 4,-1 17,9 27,12 10,2 1,18 1,18z"/>
   <path class="fil22" d="M8197 3330c0,0 -38,43 -83,49 -46,6 -113,19 -134,20 -21,0 -139,-37 -139,-37 0,0 -2,-4 1,-12 2,-8 8,-11 8,-11 0,0 81,2 119,7 15,2 122,-62 139,-100 6,-15 89,84 89,84z"/>
   <polygon class="fil11" points="6346,4321 7094,4321 7094,3705 6346,3705 "/>
   <polygon class="fil12" points="5973,4321 6720,4321 6720,3705 5973,3705 "/>
   <polygon class="fil13" points="7093,4165 6975,4165 6985,4132 6975,4108 7093,4108 "/>
   <polygon class="fil14" points="6720,3896 6602,3896 6612,3862 6602,3838 6720,3838 "/>
   <polygon class="fil13" points="6720,3838 6838,3838 6828,3872 6838,3896 6720,3896 "/>
   <polygon class="fil14" points="5973,4171 6091,4171 6081,4205 6091,4229 5973,4229 "/>
   <polygon class="fil6" points="6021,3830 6237,3830 6237,3747 6021,3747 "/>
   <polygon class="fil11" points="6266,3705 7013,3705 7013,3089 6266,3089 "/>
   <polygon class="fil12" points="5892,3705 6639,3705 6639,3089 5892,3089 "/>
   <polygon class="fil13" points="7013,3549 6894,3549 6905,3516 6894,3492 7013,3492 "/>
   <polygon class="fil14" points="6639,3280 6521,3280 6531,3246 6521,3223 6639,3223 "/>
   <polygon class="fil13" points="6639,3223 6758,3223 6747,3256 6758,3280 6639,3280 "/>
   <polygon class="fil14" points="5892,3556 6010,3556 6000,3589 6010,3613 5892,3613 "/>
   <polygon class="fil6" points="5941,3215 6156,3215 6156,3131 5941,3131 "/>
   <polygon class="fil21" points="7224,4362 7422,4362 7422,2797 7224,2797 "/>
   <path class="fil1" d="M8485 3989l-502 0c-37,0 -68,-30 -68,-67l0 -126c0,-37 31,-67 68,-67l502 0c37,0 67,30 67,67l0 126c0,37 -30,67 -67,67z"/>
   <polygon class="fil23" points="7488,4192 8295,4224 8295,3891 7474,3905 "/>
   <path class="fil9" d="M7280 4266c0,-138 111,-250 249,-250 138,0 250,112 250,250 0,138 -112,250 -250,250 -138,0 -249,-112 -249,-250z"/>
   <path class="fil21" d="M7385 4266c0,-79 65,-144 144,-144 80,0 144,65 144,144 0,80 -64,144 -144,144 -79,0 -144,-64 -144,-144z"/>
   <path class="fil9" d="M8451 4319c0,-109 88,-197 197,-197 108,0 197,88 197,197 0,109 -89,197 -197,197 -109,0 -197,-88 -197,-197z"/>
   <path class="fil21" d="M8534 4319c0,-63 51,-114 114,-114 62,0 113,51 113,114 0,63 -51,113 -113,113 -63,0 -114,-50 -114,-113z"/>
   <path class="fil12" d="M8505 3677l0 149 -208 0 -498 327 0 243 492 0c52,0 94,-42 94,-93l0 -55c0,-60 29,-115 78,-149l0 0c27,-19 60,-29 93,-29l157 0c43,0 77,-35 77,-77l0 -233c0,-46 -37,-83 -82,-83l-203 0z"/>
   <path class="fil21" d="M7490 3984l-68 -7 384 -910c50,-119 166,-196 295,-196l322 0c79,0 144,65 144,144l0 811 -66 0 0 -811c0,-43 -35,-78 -78,-78l-322 0c-103,0 -195,61 -235,156l-376 891z"/>
   <path class="fil21" d="M7819 4414c-10,0 -18,-8 -18,-18l0 -183c0,-126 -103,-229 -229,-229 0,0 -1,0 -2,0 -1,0 -141,-15 -248,69 -8,6 -19,4 -25,-4 -6,-7 -5,-19 3,-25 115,-89 258,-77 273,-75 146,0 264,119 264,264l0 183c0,10 -8,18 -18,18z"/>
   <polygon class="fil21" points="5914,4362 7224,4362 7224,4314 5914,4314 "/>
   <polygon class="fil21" points="7179,4362 7224,4362 7224,3802 7179,3802 "/>
   <path class="fil9" d="M8374 3429l-24 300 -372 0c0,0 -19,-84 43,-88 61,-3 209,-26 209,-26 0,0 -7,-186 106,-217 20,-5 39,11 38,31z"/>
   <path class="fil14" d="M8170 3227c0,0 -38,23 -80,16 0,0 -8,-2 -4,-11 -2,-8 -2,-7 -4,-13 -3,-13 -4,-21 -4,-21l23 -25 22 -23c6,56 47,77 47,77z"/>
   <path class="fil24" d="M8127 3171c0,0 -13,34 -45,48 -3,-13 -6,-27 -6,-27l25 -19 26 -2z"/>
   <path class="fil14" d="M8051 3197c0,0 73,9 78,-36 5,-44 18,-73 -28,-81 -46,-8 -57,8 -63,23 -5,14 -5,90 13,94z"/>
   <path class="fil20" d="M8152 3073c1,-1 2,-2 6,-2 0,0 -3,-2 -7,-2 -1,-4 -3,-12 -12,-14 0,0 5,2 6,7 -10,-9 -30,-16 -86,-9 -72,8 -46,54 -37,59 10,6 33,-10 51,-10 17,1 22,26 28,30 6,3 3,-3 11,-7 8,-4 9,9 7,18 -2,9 10,20 10,20 0,0 0,0 11,-13 10,-12 19,-64 14,-74 -1,-1 -1,-2 -2,-3z"/>
   <path class="fil21" d="M8238 3505c0,0 -332,15 -377,48 -45,32 -124,309 -124,309 0,0 16,14 64,0 0,0 67,-85 92,-144 23,-52 31,-78 41,-75 20,6 233,13 296,-28 40,-26 3,-110 8,-110z"/>
   <path class="fil12" d="M8170 3220c0,0 42,35 56,139 13,105 28,196 20,200 -58,26 -215,0 -211,-63 4,-62 18,-246 55,-262 37,-16 80,-14 80,-14z"/>
   <path class="fil21" d="M7867 3507l0 0c-7,3 -15,0 -18,-7l-69 -165c-3,-7 1,-15 8,-17l0 0c6,-3 14,0 17,7l69 165c3,7 0,15 -7,17z"/>
   <path class="fil14" d="M7863 3415c0,0 -26,7 -32,6 -6,-1 -23,-7 -23,-17 0,-6 13,1 17,-2 4,-3 -10,-1 -11,-3 -1,-2 11,-6 15,-8 4,-1 18,6 29,6 10,1 5,18 5,18z"/>
   <path class="fil12" d="M8202 3310c0,0 -28,49 -71,65 -43,16 -106,44 -126,48 -21,5 -144,-5 -144,-5 0,0 -3,-4 -2,-12 1,-9 6,-13 6,-13 0,0 79,-16 117,-19 16,-1 107,-86 115,-127 3,-17 105,63 105,63z"/>
   <path class="fil21" d="M7795 3853c0,0 4,43 -5,48l-118 -1c0,0 0,-13 19,-16 19,-3 52,-14 58,-39 5,-24 46,8 46,8z"/>
   <path class="fil21" d="M7732 3391l53 0c14,0 26,9 31,22l15 42c3,9 3,19 -2,27l-8 16c-22,41 -62,67 -107,70l-65 5 52 -159c4,-14 17,-23 31,-23z"/>
   <polygon class="fil12" points="1864,4224 1903,4224 1903,3541 1864,3541 "/>
   <path class="fil9" d="M1790 3573l97 0c16,0 28,-13 28,-29l0 0c0,-15 -12,-28 -28,-28l-97 0c-15,0 -28,13 -28,28l0 0c0,16 13,29 28,29z"/>
   <path class="fil12" d="M1903 3883c4,0 209,121 209,121l0 176 -213 0 4 -297z"/>
   <path class="fil9" d="M3095 4233c0,-32 -26,-58 -58,-58 -32,0 -58,26 -58,58 0,31 26,57 58,57 32,0 58,-26 58,-57z"/>
   <path class="fil25" d="M3073 4233c0,-20 -16,-37 -36,-37 -20,0 -36,17 -36,37 0,20 16,36 36,36 20,0 36,-16 36,-36z"/>
   <polygon class="fil12" points="1864,4224 3119,4224 3119,4172 1864,4172 "/>
   <path class="fil9" d="M1995 4198c0,-51 -42,-92 -92,-92 -51,0 -93,41 -93,92 0,51 42,92 93,92 50,0 92,-41 92,-92z"/>
   <path class="fil25" d="M1960 4198c0,-32 -26,-57 -57,-57 -32,0 -58,25 -58,57 0,32 26,58 58,58 31,0 57,-26 57,-58z"/>
   <path class="fil14" d="M1820 3483c0,0 44,18 47,26 2,8 2,40 -10,40 -12,0 -24,-27 -29,-28 -6,0 -20,-4 -22,-10 -2,-7 14,-28 14,-28z"/>
   <path class="fil26" d="M1821 3496c7,-13 0,-19 0,-19 0,0 -129,-80 -140,-88 -10,-8 -70,-154 -70,-154 0,0 -22,-59 -57,-62 -31,-2 -51,15 -62,34 -14,23 -13,52 3,74 37,47 109,142 129,158 44,34 184,73 184,73 0,0 8,-6 13,-16z"/>
   <path class="fil20" d="M1561 4281l-124 0c-1,-1 -2,-1 -3,-1 -8,-4 -5,-36 -4,-46 0,-2 0,-3 0,-3 0,0 44,-35 50,-8 0,1 0,2 0,2l0 0c8,25 42,37 61,40 15,2 19,11 20,16z"/>
   <path class="fil14" d="M1483 3127c0,0 29,48 78,37 0,0 13,-23 16,-40 0,-2 1,-4 1,-6 3,-20 6,-31 6,-31 0,0 0,0 -1,0 -1,-1 -65,-40 -66,-37 -7,53 -34,77 -34,77z"/>
   <path class="fil16" d="M1522 3063c5,14 24,41 56,55 3,-20 6,-31 6,-31 0,0 0,0 -1,0 -1,-1 -62,-27 -61,-24z"/>
   <path class="fil14" d="M1598 3087c0,0 -79,6 -82,-43 -4,-50 -16,-82 34,-88 51,-6 62,12 67,28 5,16 2,100 -19,103z"/>
   <path class="fil9" d="M1516 3057c-1,1 -18,3 -40,-63 -3,-11 -3,-33 11,-49 14,-17 57,-26 91,-27 35,-1 40,19 45,39 5,21 27,41 27,41 -32,12 -63,-16 -76,-14 -12,1 -19,20 -21,26 -2,6 -4,11 -19,3 -14,-8 -10,20 -8,26 0,0 0,14 -10,18z"/>
   <path class="fil20" d="M1235 4281l-47 0c-10,0 -20,-10 -23,-28 -3,-18 -23,-28 -27,-43 -5,-15 18,-35 18,-35l3 -5 4 -5 37 9c0,0 1,8 2,20 0,8 0,17 0,25 -1,20 5,41 23,45 17,4 10,17 10,17z"/>
   <path class="fil12" d="M1536 3564c0,0 -6,83 -14,183 -11,135 -24,301 -25,332 -2,55 -11,142 -11,142 0,0 -20,21 -62,12 0,0 -37,-125 -47,-257 -1,-2 -1,-4 -1,-6 -10,-134 -25,-417 -25,-417l185 11z"/>
   <path class="fil11" d="M1503 3581c0,0 13,29 -11,126 -18,71 -115,269 -115,269 -1,-2 -1,-4 -1,-6 -10,-134 -25,-417 -25,-417l152 28z"/>
   <path class="fil12" d="M1512 3559c0,0 -126,315 -204,456 -79,141 -103,180 -103,180 0,0 -45,-18 -49,-31 0,0 30,-271 82,-338 30,-37 65,-149 67,-189 1,-39 10,-117 10,-117l197 39z"/>
   <path class="fil9" d="M1518 3573c-17,-5 -189,-72 -186,-82 12,-34 24,-91 38,-161 3,-13 6,-26 9,-38 9,-33 20,-63 32,-90 22,-50 58,-83 87,-95 4,-1 12,11 27,24 14,13 29,13 46,14l13 23c11,20 20,49 21,72 0,0 -86,333 -87,333z"/>
   <path class="fil12" d="M1605 3240l-51 -5 -128 154c-18,23 -48,31 -76,22l0 0 -35 109 217 70 73 -350z"/>
   <path class="fil11" d="M1522 3166c-7,-14 -33,-55 -33,-55l9 -4c5,1 32,41 41,56 10,19 36,76 36,76l-21 -4c0,0 -23,-52 -32,-69z"/>
   <path class="fil14" d="M1765 3499c0,0 44,18 46,26 3,8 3,40 -9,40 -12,0 -24,-27 -29,-27 -6,-1 -20,-5 -22,-11 -2,-7 14,-28 14,-28z"/>
   <path class="fil9" d="M1765 3518c6,-14 0,-19 0,-19 0,0 -130,-80 -140,-88 -11,-9 -71,-154 -71,-154 0,0 -21,-59 -57,-62 -31,-2 -50,15 -62,34 -14,23 -12,52 4,73 36,48 109,143 129,159 44,34 183,73 183,73 0,0 9,-6 14,-16z"/>
   <polygon class="fil1" points="2476,4178 3001,4178 3001,3745 2476,3745 "/>
   <polygon class="fil27" points="2213,4178 2738,4178 2738,3745 2213,3745 "/>
   <polygon class="fil4" points="3000,4068 2917,4068 2925,4045 2917,4028 3000,4028 "/>
   <polygon class="fil5" points="2738,3879 2655,3879 2662,3856 2655,3839 2738,3839 "/>
   <polygon class="fil4" points="2738,3839 2822,3839 2814,3862 2822,3879 2738,3879 "/>
   <polygon class="fil5" points="2213,4073 2297,4073 2289,4096 2297,4113 2213,4113 "/>
   <polygon class="fil6" points="2248,3833 2399,3833 2399,3774 2248,3774 "/>
   <polygon class="fil11" points="2476,3750 2790,3750 2790,3490 2476,3490 "/>
   <polygon class="fil12" points="2633,3750 2948,3750 2948,3490 2633,3490 "/>
   <polygon class="fil13" points="2476,3684 2526,3684 2521,3670 2526,3660 2476,3660 "/>
   <polygon class="fil14" points="2633,3570 2683,3570 2679,3556 2683,3546 2633,3546 "/>
   <polygon class="fil13" points="2633,3546 2583,3546 2588,3560 2583,3570 2633,3570 "/>
   <polygon class="fil14" points="2948,3687 2898,3687 2902,3701 2898,3711 2948,3711 "/>
   <polygon class="fil6" points="2836,3543 2927,3543 2927,3508 2836,3508 "/>
   <path class="fil6" d="M773 1851l-178 0 0 -35 84 -90c7,-7 12,-13 16,-19 5,-6 8,-11 11,-16 2,-5 4,-9 5,-13 2,-4 2,-8 2,-12 0,-12 -3,-21 -9,-27 -5,-7 -14,-10 -25,-10 -6,0 -11,1 -16,3 -5,2 -8,5 -12,9 -3,4 -5,9 -7,14 -2,5 -2,11 -2,18l-52 0c0,-12 2,-23 6,-34 4,-10 10,-19 18,-27 8,-7 17,-14 29,-18 11,-5 23,-7 37,-7 14,0 26,2 37,5 10,4 19,8 26,15 7,6 13,14 16,23 4,9 6,19 6,31 0,9 -1,17 -4,25 -3,8 -7,16 -12,24 -5,9 -11,17 -18,25 -7,8 -15,17 -24,26l-46 48 112 0 0 42z"/>
   <path class="fil6" d="M3687 1698l28 0c13,0 23,-3 29,-10 6,-6 9,-15 9,-26 0,-5 0,-9 -2,-13 -1,-4 -3,-8 -6,-11 -3,-3 -7,-5 -11,-7 -5,-1 -10,-2 -16,-2 -5,0 -9,0 -13,2 -5,1 -8,3 -11,6 -4,2 -6,5 -8,9 -2,3 -3,8 -3,12l-51 0c0,-11 2,-20 6,-29 5,-9 11,-16 18,-23 8,-6 17,-10 28,-14 10,-3 21,-5 33,-5 13,0 25,2 36,5 10,3 20,8 28,14 7,6 13,14 18,23 4,9 6,20 6,32 0,6 -1,11 -3,17 -1,5 -4,11 -7,15 -4,5 -8,10 -13,14 -5,4 -10,7 -17,10 15,6 26,13 33,24 8,10 11,23 11,37 0,12 -2,23 -7,33 -5,9 -11,17 -19,24 -9,6 -18,11 -30,15 -11,3 -23,5 -36,5 -11,0 -22,-2 -33,-5 -10,-3 -20,-7 -28,-14 -8,-6 -15,-14 -20,-23 -5,-9 -8,-20 -8,-33l52 0c0,5 1,9 3,13 2,4 4,8 8,11 3,2 7,5 12,6 5,2 10,3 15,3 6,0 12,-1 17,-3 4,-1 9,-4 12,-7 3,-3 6,-7 8,-11 2,-4 2,-9 2,-15 0,-7 -1,-12 -3,-17 -1,-5 -4,-9 -8,-13 -4,-3 -8,-5 -13,-6 -6,-2 -12,-3 -18,-3l-28 0 0 -40z"/>
  </g>
 </g>
</svg>
